  0
SECTION
  2
HEADER
  9
$ACADVER
  1
AC1012
  9
$DWGCODEPAGE
  3
ansi_1252
  9
$INSBASE
 10
0.0
 20
0.0
 30
0.0
  9
$EXTMIN
 10
7.0
 20
7.0
 30
0.0
  9
$EXTMAX
 10
288.5264339847681
 20
263.0
 30
0.0
  9
$LIMMIN
 10
0.0
 20
0.0
  9
$LIMMAX
 10
420.0
 20
297.0
  9
$ORTHOMODE
 70
     0
  9
$REGENMODE
 70
     1
  9
$FILLMODE
 70
     1
  9
$QTEXTMODE
 70
     0
  9
$MIRRTEXT
 70
     0
  9
$DRAGMODE
 70
     2
  9
$LTSCALE
 40
1.0
  9
$OSMODE
 70
   511
  9
$ATTMODE
 70
     1
  9
$TEXTSIZE
 40
2.5
  9
$TRACEWID
 40
1.0
  9
$TEXTSTYLE
  7
STANDARD
  9
$CLAYER
  8
0
  9
$CELTYPE
  6
BYLAYER
  9
$CECOLOR
 62
   256
  9
$CELTSCALE
 40
1.0
  9
$DELOBJ
 70
     1
  9
$DISPSILH
 70
     0
  9
$DIMSCALE
 40
1.0
  9
$DIMASZ
 40
2.5
  9
$DIMEXO
 40
0.625
  9
$DIMDLI
 40
3.75
  9
$DIMRND
 40
0.0
  9
$DIMDLE
 40
0.0
  9
$DIMEXE
 40
1.25
  9
$DIMTP
 40
0.0
  9
$DIMTM
 40
0.0
  9
$DIMTXT
 40
2.5
  9
$DIMCEN
 40
2.5
  9
$DIMTSZ
 40
0.0
  9
$DIMTOL
 70
     0
  9
$DIMLIM
 70
     0
  9
$DIMTIH
 70
     0
  9
$DIMTOH
 70
     0
  9
$DIMSE1
 70
     0
  9
$DIMSE2
 70
     0
  9
$DIMTAD
 70
     1
  9
$DIMZIN
 70
     8
  9
$DIMBLK
  1

  9
$DIMASO
 70
     1
  9
$DIMSHO
 70
     1
  9
$DIMPOST
  1

  9
$DIMAPOST
  1

  9
$DIMALT
 70
     0
  9
$DIMALTD
 70
     3
  9
$DIMALTF
 40
0.03937007874016
  9
$DIMLFAC
 40
1.0
  9
$DIMTOFL
 70
     1
  9
$DIMTVP
 40
0.0
  9
$DIMTIX
 70
     0
  9
$DIMSOXD
 70
     0
  9
$DIMSAH
 70
     0
  9
$DIMBLK1
  1

  9
$DIMBLK2
  1

  9
$DIMSTYLE
  2
ISO-25
  9
$DIMCLRD
 70
     0
  9
$DIMCLRE
 70
     0
  9
$DIMCLRT
 70
     0
  9
$DIMTFAC
 40
1.0
  9
$DIMGAP
 40
0.625
  9
$DIMJUST
 70
     0
  9
$DIMSD1
 70
     0
  9
$DIMSD2
 70
     0
  9
$DIMTOLJ
 70
     0
  9
$DIMTZIN
 70
     8
  9
$DIMALTZ
 70
     0
  9
$DIMALTTZ
 70
     0
  9
$DIMFIT
 70
     5
  9
$DIMUPT
 70
     0
  9
$DIMUNIT
 70
     2
  9
$DIMDEC
 70
     2
  9
$DIMTDEC
 70
     2
  9
$DIMALTU
 70
     2
  9
$DIMALTTD
 70
     3
  9
$DIMTXSTY
  7
STANDARD
  9
$DIMAUNIT
 70
     0
  9
$LUNITS
 70
     2
  9
$LUPREC
 70
     3
  9
$SKETCHINC
 40
1.0
  9
$FILLETRAD
 40
10.0
  9
$AUNITS
 70
     0
  9
$AUPREC
 70
     0
  9
$MENU
  1
.
  9
$ELEVATION
 40
0.0
  9
$PELEVATION
 40
0.0
  9
$THICKNESS
 40
0.0
  9
$LIMCHECK
 70
     0
  9
$CHAMFERA
 40
10.0
  9
$CHAMFERB
 40
10.0
  9
$CHAMFERC
 40
20.0
  9
$CHAMFERD
 40
0.0
  9
$SKPOLY
 70
     0
  9
$TDCREATE
 40
2455022.637359514
  9
$TDUPDATE
 40
2457678.756643518
  9
$TDINDWG
 40
0.0000115741
  9
$TDUSRTIMER
 40
2457678.755277778
  9
$USRTIMER
 70
     1
  9
$ANGBASE
 50
0.0
  9
$ANGDIR
 70
     0
  9
$PDMODE
 70
     0
  9
$PDSIZE
 40
0.0
  9
$PLINEWID
 40
0.0
  9
$COORDS
 70
     1
  9
$SPLFRAME
 70
     0
  9
$SPLINETYPE
 70
     6
  9
$SPLINESEGS
 70
     8
  9
$ATTDIA
 70
     0
  9
$ATTREQ
 70
     1
  9
$HANDLING
 70
     1
  9
$HANDSEED
  5
1BB6
  9
$SURFTAB1
 70
     6
  9
$SURFTAB2
 70
     6
  9
$SURFTYPE
 70
     6
  9
$SURFU
 70
     6
  9
$SURFV
 70
     6
  9
$UCSNAME
  2

  9
$UCSORG
 10
0.0
 20
0.0
 30
0.0
  9
$UCSXDIR
 10
1.0
 20
0.0
 30
0.0
  9
$UCSYDIR
 10
0.0
 20
1.0
 30
0.0
  9
$PUCSNAME
  2

  9
$PUCSORG
 10
0.0
 20
0.0
 30
0.0
  9
$PUCSXDIR
 10
1.0
 20
0.0
 30
0.0
  9
$PUCSYDIR
 10
0.0
 20
1.0
 30
0.0
  9
$USERI1
 70
     0
  9
$USERI2
 70
     0
  9
$USERI3
 70
     0
  9
$USERI4
 70
     0
  9
$USERI5
 70
     0
  9
$USERR1
 40
0.0
  9
$USERR2
 40
0.0
  9
$USERR3
 40
0.0
  9
$USERR4
 40
0.0
  9
$USERR5
 40
0.0
  9
$WORLDVIEW
 70
     1
  9
$SHADEDGE
 70
     3
  9
$SHADEDIF
 70
    70
  9
$TILEMODE
 70
     1
  9
$MAXACTVP
 70
    64
  9
$PINSBASE
 10
0.0
 20
0.0
 30
0.0
  9
$PLIMCHECK
 70
     0
  9
$PEXTMIN
 10
1.000000000000000E+20
 20
1.000000000000000E+20
 30
1.000000000000000E+20
  9
$PEXTMAX
 10
-1.000000000000000E+20
 20
-1.000000000000000E+20
 30
-1.000000000000000E+20
  9
$PLIMMIN
 10
0.0
 20
0.0
  9
$PLIMMAX
 10
0.0
 20
0.0
  9
$UNITMODE
 70
     0
  9
$VISRETAIN
 70
     1
  9
$PLINEGEN
 70
     0
  9
$PSLTSCALE
 70
     1
  9
$TREEDEPTH
 70
  3020
  9
$PICKSTYLE
 70
     1
  9
$CMLSTYLE
  2
STANDARD
  9
$CMLJUST
 70
     0
  9
$CMLSCALE
 40
20.0
  9
$SAVEIMAGES
 70
     1
  0
ENDSEC
  0
SECTION
  2
CLASSES
  0
CLASS
  1
ACDBDICTIONARYWDFLT
  2
AcDbDictionaryWithDefault
  3
ObjectDBX Classes
 90
    32768
280
     0
281
     0
  0
CLASS
  1
VISUALSTYLE
  2
AcDbVisualStyle
  3
ObjectDBX Classes
 90
     4095
280
     0
281
     0
  0
CLASS
  1
TABLESTYLE
  2
AcDbTableStyle
  3
ObjectDBX Classes
 90
     4095
280
     0
281
     0
  0
CLASS
  1
DICTIONARYVAR
  2
AcDbDictionaryVar
  3
ObjectDBX Classes
 90
        0
280
     0
281
     0
  0
CLASS
  1
SCALE
  2
AcDbScale
  3
ObjectDBX Classes
 90
     1153
280
     0
281
     0
  0
CLASS
  1
CELLSTYLEMAP
  2
AcDbCellStyleMap
  3
ObjectDBX Classes
 90
     1152
280
     0
281
     0
  0
CLASS
  1
RASTERVARIABLES
  2
AcDbRasterVariables
  3
ISM
 90
    32768
280
     0
281
     0
  0
CLASS
  1
MATERIAL
  2
AcDbMaterial
  3
ObjectDBX Classes
 90
     1153
280
     0
281
     0
  0
CLASS
  1
SUN
  2
AcDbSun
  3
SCENEOE
 90
     1153
280
     0
281
     0
  0
CLASS
  1
MLEADERSTYLE
  2
AcDbMLeaderStyle
  3
ACDB_MLEADERSTYLE_CLASS
 90
     4095
280
     0
281
     0
  0
CLASS
  1
XRECORD
  2
AcDbXrecord
  3
ObjectDBX Classes
 90
    32768
280
     0
281
     0
  0
ENDSEC
  0
SECTION
  2
TABLES
  0
TABLE
  2
VPORT
  5
8
330
0
100
AcDbSymbolTable
 70
     1
  0
VPORT
  5
29
330
8
100
AcDbSymbolTableRecord
100
AcDbViewportTableRecord
  2
*ACTIVE
 70
     0
 10
0.0
 20
0.0
 11
1.0
 21
1.0
 12
302.7501058255862
 22
131.6178312271813
 13
0.0
 23
0.0
 14
10.0
 24
10.0
 15
10.0
 25
10.0
 16
0.0
 26
0.0
 36
1.0
 17
-134.1869158878501
 27
0.0
 37
0.0
 40
385.1999999999999
 41
1.5
 42
50.0
 43
0.0
 44
0.0
 50
0.0
 51
0.0
 71
    16
 72
  1000
 73
     1
 74
     3
 75
     0
 76
     1
 77
     0
 78
     0
  0
ENDTAB
  0
TABLE
  2
LTYPE
  5
5
330
0
100
AcDbSymbolTable
 70
     1
  0
LTYPE
  5
14
330
5
100
AcDbSymbolTableRecord
100
AcDbLinetypeTableRecord
  2
BYBLOCK
 70
     0
  3

 72
    65
 73
     0
 40
0.0
  0
LTYPE
  5
15
330
5
100
AcDbSymbolTableRecord
100
AcDbLinetypeTableRecord
  2
BYLAYER
 70
     0
  3

 72
    65
 73
     0
 40
0.0
  0
LTYPE
  5
16
330
5
100
AcDbSymbolTableRecord
100
AcDbLinetypeTableRecord
  2
CONTINUOUS
 70
     0
  3
Solid line
 72
    65
 73
     0
 40
0.0
  0
ENDTAB
  0
TABLE
  2
LAYER
  5
2
330
0
100
AcDbSymbolTable
 70
     1
  0
LAYER
  5
10
330
2
100
AcDbSymbolTableRecord
100
AcDbLayerTableRecord
  2
0
 70
     0
 62
     7
  6
CONTINUOUS
  0
ENDTAB
  0
TABLE
  2
STYLE
  5
3
330
0
100
AcDbSymbolTable
 70
     2
  0
STYLE
  5
11
330
3
100
AcDbSymbolTableRecord
100
AcDbTextStyleTableRecord
  2
STANDARD
 70
     0
 40
0.0
 41
1.0
 50
0.0
 71
     0
 42
2.5
  3
arial.ttf
  4

1001
ACAD
1000
Arial
1071
        0
  0
STYLE
  5
B8
330
3
100
AcDbSymbolTableRecord
100
AcDbTextStyleTableRecord
  2
ANNOTATIVE
 70
     0
 40
0.0
 41
1.0
 50
0.0
 71
     0
 42
2.5
  3
arial.ttf
  4

1001
ACAD
1000
Arial
1071
        0
1001
ACADANNOTATIVE
1000
AnnotativeData
1002
{
1070
     1
1070
     1
1002
}
  0
ENDTAB
  0
TABLE
  2
VIEW
  5
6
330
0
100
AcDbSymbolTable
 70
     0
  0
ENDTAB
  0
TABLE
  2
UCS
  5
7
330
0
100
AcDbSymbolTable
 70
     0
  0
ENDTAB
  0
TABLE
  2
APPID
  5
9
330
0
100
AcDbSymbolTable
 70
     2
  0
APPID
  5
12
330
9
100
AcDbSymbolTableRecord
100
AcDbRegAppTableRecord
  2
ACAD
 70
     0
  0
APPID
  5
B9
330
9
100
AcDbSymbolTableRecord
100
AcDbRegAppTableRecord
  2
ACADANNOTATIVE
 70
     0
  0
ENDTAB
  0
TABLE
  2
DIMSTYLE
  5
A
330
0
100
AcDbSymbolTable
 70
     2
  0
DIMSTYLE
105
27
330
A
100
AcDbSymbolTableRecord
100
AcDbDimStyleTableRecord
  2
ISO-25
 70
     0
  3

  4

  5

  6

  7

 40
1.0
 41
2.5
 42
0.625
 43
3.75
 44
1.25
 45
0.0
 46
0.0
 47
0.0
 48
0.0
140
2.5
141
2.5
142
0.0
143
0.03937007874016
144
1.0
145
0.0
146
1.0
147
0.625
 71
     0
 72
     0
 73
     0
 74
     0
 75
     0
 76
     0
 77
     1
 78
     8
170
     0
171
     3
172
     1
173
     0
174
     0
175
     0
176
     0
177
     0
178
     0
270
     2
271
     2
272
     2
273
     2
274
     3
340
11
275
     0
280
     0
281
     0
282
     0
283
     0
284
     8
285
     0
286
     0
287
     3
288
     0
  0
DIMSTYLE
105
BA
330
A
100
AcDbSymbolTableRecord
100
AcDbDimStyleTableRecord
  2
ANNOTATIVE
 70
     0
  3

  4

  5

  6

  7

 40
0.0
 41
2.5
 42
0.625
 43
3.75
 44
1.25
 45
0.0
 46
0.0
 47
0.0
 48
0.0
140
2.5
141
2.5
142
0.0
143
0.03937007874016
144
1.0
145
0.0
146
1.0
147
0.625
 71
     0
 72
     0
 73
     0
 74
     0
 75
     0
 76
     0
 77
     1
 78
     8
170
     0
171
     3
172
     1
173
     0
174
     0
175
     0
176
     0
177
     0
178
     0
270
     2
271
     2
272
     2
273
     2
274
     3
340
11
275
     0
280
     0
281
     0
282
     0
283
     0
284
     8
285
     0
286
     0
287
     3
288
     0
1001
ACADANNOTATIVE
1000
AnnotativeData
1002
{
1070
     1
1070
     1
1002
}
  0
ENDTAB
  0
TABLE
  2
BLOCK_RECORD
  5
1
330
0
100
AcDbSymbolTable
 70
     1
  0
BLOCK_RECORD
  5
1F
330
1
100
AcDbSymbolTableRecord
100
AcDbBlockTableRecord
  2
*MODEL_SPACE
  0
BLOCK_RECORD
  5
1B
330
1
100
AcDbSymbolTableRecord
100
AcDbBlockTableRecord
  2
*PAPER_SPACE
  0
BLOCK_RECORD
  5
23
330
1
100
AcDbSymbolTableRecord
100
AcDbBlockTableRecord
  2
*PAPER_SPACE0
  0
ENDTAB
  0
ENDSEC
  0
SECTION
  2
BLOCKS
  0
BLOCK
  5
20
330
1F
100
AcDbEntity
  8
0
100
AcDbBlockBegin
  2
*MODEL_SPACE
 70
     0
 10
0.0
 20
0.0
 30
0.0
  3
*MODEL_SPACE
  1

  0
ENDBLK
  5
21
330
1F
100
AcDbEntity
  8
0
100
AcDbBlockEnd
  0
BLOCK
  5
1C
330
1B
100
AcDbEntity
 67
     1
  8
0
100
AcDbBlockBegin
  2
*PAPER_SPACE
 70
     0
 10
0.0
 20
0.0
 30
0.0
  3
*PAPER_SPACE
  1

  0
ENDBLK
  5
1D
330
1B
100
AcDbEntity
 67
     1
  8
0
100
AcDbBlockEnd
  0
BLOCK
  5
24
330
23
100
AcDbEntity
  8
0
100
AcDbBlockBegin
  2
*PAPER_SPACE0
 70
     0
 10
0.0
 20
0.0
 30
0.0
  3
*PAPER_SPACE0
  1
*PAPER_SPACE0
  0
ENDBLK
  5
25
330
23
100
AcDbEntity
  8
0
100
AcDbBlockEnd
  0
ENDSEC
  0
SECTION
  2
ENTITIES
  0
LINE
  5
13D7
330
1F
100
AcDbEntity
  8
0
100
AcDbLine
 10
12.0
 20
133.0
 30
0.0
 11
48.0
 21
133.0
 31
0.0
  0
LINE
  5
13D8
330
1F
100
AcDbEntity
  8
0
100
AcDbLine
 10
48.0
 20
133.0
 30
0.0
 11
48.0
 21
153.0
 31
0.0
  0
LINE
  5
13D9
330
1F
100
AcDbEntity
  8
0
100
AcDbLine
 10
48.0
 20
153.0
 30
0.0
 11
12.0
 21
153.0
 31
0.0
  0
LINE
  5
13DA
330
1F
100
AcDbEntity
  8
0
100
AcDbLine
 10
12.0
 20
153.0
 30
0.0
 11
12.0
 21
133.0
 31
0.0
  0
LINE
  5
13DB
330
1F
100
AcDbEntity
  8
0
100
AcDbLine
 10
12.0
 20
156.0
 30
0.0
 11
15.0
 21
156.0
 31
0.0
  0
LINE
  5
13DC
330
1F
100
AcDbEntity
  8
0
100
AcDbLine
 10
15.0
 20
156.0
 30
0.0
 11
15.0
 21
161.0
 31
0.0
  0
LINE
  5
13DD
330
1F
100
AcDbEntity
  8
0
100
AcDbLine
 10
15.0
 20
161.0
 30
0.0
 11
12.0
 21
161.0
 31
0.0
  0
LINE
  5
13DE
330
1F
100
AcDbEntity
  8
0
100
AcDbLine
 10
12.0
 20
161.0
 30
0.0
 11
12.0
 21
156.0
 31
0.0
  0
LINE
  5
13DF
330
1F
100
AcDbEntity
  8
0
100
AcDbLine
 10
18.0
 20
156.0
 30
0.0
 11
21.0
 21
156.0
 31
0.0
  0
LINE
  5
13E0
330
1F
100
AcDbEntity
  8
0
100
AcDbLine
 10
21.0
 20
156.0
 30
0.0
 11
21.0
 21
161.0
 31
0.0
  0
LINE
  5
13E1
330
1F
100
AcDbEntity
  8
0
100
AcDbLine
 10
21.0
 20
161.0
 30
0.0
 11
18.0
 21
161.0
 31
0.0
  0
LINE
  5
13E2
330
1F
100
AcDbEntity
  8
0
100
AcDbLine
 10
18.0
 20
161.0
 30
0.0
 11
18.0
 21
156.0
 31
0.0
  0
LINE
  5
13E3
330
1F
100
AcDbEntity
  8
0
100
AcDbLine
 10
24.0
 20
156.0
 30
0.0
 11
27.0
 21
156.0
 31
0.0
  0
LINE
  5
13E4
330
1F
100
AcDbEntity
  8
0
100
AcDbLine
 10
27.0
 20
156.0
 30
0.0
 11
27.0
 21
161.0
 31
0.0
  0
LINE
  5
13E5
330
1F
100
AcDbEntity
  8
0
100
AcDbLine
 10
27.0
 20
161.0
 30
0.0
 11
24.0
 21
161.0
 31
0.0
  0
LINE
  5
13E6
330
1F
100
AcDbEntity
  8
0
100
AcDbLine
 10
24.0
 20
161.0
 30
0.0
 11
24.0
 21
156.0
 31
0.0
  0
LINE
  5
13E7
330
1F
100
AcDbEntity
  8
0
100
AcDbLine
 10
30.0
 20
156.0
 30
0.0
 11
33.0
 21
156.0
 31
0.0
  0
LINE
  5
13E8
330
1F
100
AcDbEntity
  8
0
100
AcDbLine
 10
33.0
 20
156.0
 30
0.0
 11
33.0
 21
161.0
 31
0.0
  0
LINE
  5
13E9
330
1F
100
AcDbEntity
  8
0
100
AcDbLine
 10
33.0
 20
161.0
 30
0.0
 11
30.0
 21
161.0
 31
0.0
  0
LINE
  5
13EA
330
1F
100
AcDbEntity
  8
0
100
AcDbLine
 10
30.0
 20
161.0
 30
0.0
 11
30.0
 21
156.0
 31
0.0
  0
LINE
  5
13EB
330
1F
100
AcDbEntity
  8
0
100
AcDbLine
 10
36.0
 20
156.0
 30
0.0
 11
39.0
 21
156.0
 31
0.0
  0
LINE
  5
13EC
330
1F
100
AcDbEntity
  8
0
100
AcDbLine
 10
39.0
 20
156.0
 30
0.0
 11
39.0
 21
161.0
 31
0.0
  0
LINE
  5
13ED
330
1F
100
AcDbEntity
  8
0
100
AcDbLine
 10
39.0
 20
161.0
 30
0.0
 11
36.0
 21
161.0
 31
0.0
  0
LINE
  5
13EE
330
1F
100
AcDbEntity
  8
0
100
AcDbLine
 10
36.0
 20
161.0
 30
0.0
 11
36.0
 21
156.0
 31
0.0
  0
LINE
  5
13EF
330
1F
100
AcDbEntity
  8
0
100
AcDbLine
 10
42.0
 20
156.0
 30
0.0
 11
45.0
 21
156.0
 31
0.0
  0
LINE
  5
13F0
330
1F
100
AcDbEntity
  8
0
100
AcDbLine
 10
45.0
 20
156.0
 30
0.0
 11
45.0
 21
161.0
 31
0.0
  0
LINE
  5
13F1
330
1F
100
AcDbEntity
  8
0
100
AcDbLine
 10
45.0
 20
161.0
 30
0.0
 11
42.0
 21
161.0
 31
0.0
  0
LINE
  5
13F2
330
1F
100
AcDbEntity
  8
0
100
AcDbLine
 10
42.0
 20
161.0
 30
0.0
 11
42.0
 21
156.0
 31
0.0
  0
LINE
  5
13F3
330
1F
100
AcDbEntity
  8
0
100
AcDbLine
 10
173.0
 20
7.0
 30
0.0
 11
209.0
 21
7.0
 31
0.0
  0
LINE
  5
13F7
330
1F
100
AcDbEntity
  8
0
100
AcDbLine
 10
176.0
 20
35.0
 30
0.0
 11
179.0
 21
35.0
 31
0.0
  0
LINE
  5
13F8
330
1F
100
AcDbEntity
  8
0
100
AcDbLine
 10
179.0
 20
35.0
 30
0.0
 11
179.0
 21
40.0
 31
0.0
  0
LINE
  5
13F9
330
1F
100
AcDbEntity
  8
0
100
AcDbLine
 10
179.0
 20
40.0
 30
0.0
 11
176.0
 21
40.0
 31
0.0
  0
LINE
  5
13FA
330
1F
100
AcDbEntity
  8
0
100
AcDbLine
 10
176.0
 20
40.0
 30
0.0
 11
176.0
 21
35.0
 31
0.0
  0
LINE
  5
13FB
330
1F
100
AcDbEntity
  8
0
100
AcDbLine
 10
182.0
 20
35.0
 30
0.0
 11
185.0
 21
35.0
 31
0.0
  0
LINE
  5
13FC
330
1F
100
AcDbEntity
  8
0
100
AcDbLine
 10
185.0
 20
35.0
 30
0.0
 11
185.0
 21
40.0
 31
0.0
  0
LINE
  5
13FD
330
1F
100
AcDbEntity
  8
0
100
AcDbLine
 10
185.0
 20
40.0
 30
0.0
 11
182.0
 21
40.0
 31
0.0
  0
LINE
  5
13FE
330
1F
100
AcDbEntity
  8
0
100
AcDbLine
 10
182.0
 20
40.0
 30
0.0
 11
182.0
 21
35.0
 31
0.0
  0
LINE
  5
13FF
330
1F
100
AcDbEntity
  8
0
100
AcDbLine
 10
188.0
 20
35.0
 30
0.0
 11
191.0
 21
35.0
 31
0.0
  0
LINE
  5
1400
330
1F
100
AcDbEntity
  8
0
100
AcDbLine
 10
191.0
 20
35.0
 30
0.0
 11
191.0
 21
40.0
 31
0.0
  0
LINE
  5
1401
330
1F
100
AcDbEntity
  8
0
100
AcDbLine
 10
191.0
 20
40.0
 30
0.0
 11
188.0
 21
40.0
 31
0.0
  0
LINE
  5
1402
330
1F
100
AcDbEntity
  8
0
100
AcDbLine
 10
188.0
 20
40.0
 30
0.0
 11
188.0
 21
35.0
 31
0.0
  0
LINE
  5
1403
330
1F
100
AcDbEntity
  8
0
100
AcDbLine
 10
194.0
 20
35.0
 30
0.0
 11
197.0
 21
35.0
 31
0.0
  0
LINE
  5
1404
330
1F
100
AcDbEntity
  8
0
100
AcDbLine
 10
197.0
 20
35.0
 30
0.0
 11
197.0
 21
40.0
 31
0.0
  0
LINE
  5
1405
330
1F
100
AcDbEntity
  8
0
100
AcDbLine
 10
197.0
 20
40.0
 30
0.0
 11
194.0
 21
40.0
 31
0.0
  0
LINE
  5
1406
330
1F
100
AcDbEntity
  8
0
100
AcDbLine
 10
194.0
 20
40.0
 30
0.0
 11
194.0
 21
35.0
 31
0.0
  0
LINE
  5
1407
330
1F
100
AcDbEntity
  8
0
100
AcDbLine
 10
200.0
 20
35.0
 30
0.0
 11
203.0
 21
35.0
 31
0.0
  0
LINE
  5
1408
330
1F
100
AcDbEntity
  8
0
100
AcDbLine
 10
203.0
 20
35.0
 30
0.0
 11
203.0
 21
40.0
 31
0.0
  0
LINE
  5
1409
330
1F
100
AcDbEntity
  8
0
100
AcDbLine
 10
203.0
 20
40.0
 30
0.0
 11
200.0
 21
40.0
 31
0.0
  0
LINE
  5
140A
330
1F
100
AcDbEntity
  8
0
100
AcDbLine
 10
200.0
 20
40.0
 30
0.0
 11
200.0
 21
35.0
 31
0.0
  0
LINE
  5
140B
330
1F
100
AcDbEntity
  8
0
100
AcDbLine
 10
206.0
 20
35.0
 30
0.0
 11
209.0
 21
35.0
 31
0.0
  0
LINE
  5
140D
330
1F
100
AcDbEntity
  8
0
100
AcDbLine
 10
209.0
 20
40.0
 30
0.0
 11
206.0
 21
40.0
 31
0.0
  0
LINE
  5
140E
330
1F
100
AcDbEntity
  8
0
100
AcDbLine
 10
206.0
 20
40.0
 30
0.0
 11
206.0
 21
35.0
 31
0.0
  0
LINE
  5
140F
330
1F
100
AcDbEntity
  8
0
100
AcDbLine
 10
173.0
 20
60.0
 30
0.0
 11
173.0
 21
65.0
 31
0.0
  0
LINE
  5
1410
330
1F
100
AcDbEntity
  8
0
100
AcDbLine
 10
173.0
 20
65.0
 30
0.0
 11
184.0
 21
65.0
 31
0.0
  0
LINE
  5
1411
330
1F
100
AcDbEntity
  8
0
100
AcDbLine
 10
184.0
 20
65.0
 30
0.0
 11
184.0
 21
60.0
 31
0.0
  0
LINE
  5
1412
330
1F
100
AcDbEntity
  8
0
100
AcDbLine
 10
184.0
 20
60.0
 30
0.0
 11
173.0
 21
60.0
 31
0.0
  0
LINE
  5
1416
330
1F
100
AcDbEntity
  8
0
100
AcDbLine
 10
182.0
 20
63.0
 30
0.0
 11
182.0
 21
62.0
 31
0.0
  0
LINE
  5
1417
330
1F
100
AcDbEntity
  8
0
100
AcDbLine
 10
182.0
 20
62.0
 30
0.0
 11
181.0
 21
62.0
 31
0.0
  0
LINE
  5
1418
330
1F
100
AcDbEntity
  8
0
100
AcDbLine
 10
181.0
 20
62.0
 30
0.0
 11
181.0
 21
63.0
 31
0.0
  0
LINE
  5
1419
330
1F
100
AcDbEntity
  8
0
100
AcDbLine
 10
181.0
 20
63.0
 30
0.0
 11
182.0
 21
63.0
 31
0.0
  0
LINE
  5
141A
330
1F
100
AcDbEntity
  8
0
100
AcDbLine
 10
186.0
 20
60.0
 30
0.0
 11
186.0
 21
65.0
 31
0.0
  0
LINE
  5
141B
330
1F
100
AcDbEntity
  8
0
100
AcDbLine
 10
186.0
 20
65.0
 30
0.0
 11
197.0
 21
65.0
 31
0.0
  0
LINE
  5
141C
330
1F
100
AcDbEntity
  8
0
100
AcDbLine
 10
197.0
 20
65.0
 30
0.0
 11
197.0
 21
60.0
 31
0.0
  0
LINE
  5
141D
330
1F
100
AcDbEntity
  8
0
100
AcDbLine
 10
197.0
 20
60.0
 30
0.0
 11
186.0
 21
60.0
 31
0.0
  0
LINE
  5
141E
330
1F
100
AcDbEntity
  8
0
100
AcDbLine
 10
195.0
 20
63.0
 30
0.0
 11
195.0
 21
62.0
 31
0.0
  0
LINE
  5
141F
330
1F
100
AcDbEntity
  8
0
100
AcDbLine
 10
195.0
 20
62.0
 30
0.0
 11
194.0
 21
62.0
 31
0.0
  0
LINE
  5
1420
330
1F
100
AcDbEntity
  8
0
100
AcDbLine
 10
194.0
 20
62.0
 30
0.0
 11
194.0
 21
63.0
 31
0.0
  0
LINE
  5
1421
330
1F
100
AcDbEntity
  8
0
100
AcDbLine
 10
194.0
 20
63.0
 30
0.0
 11
195.0
 21
63.0
 31
0.0
  0
LINE
  5
1422
330
1F
100
AcDbEntity
  8
0
100
AcDbLine
 10
199.0
 20
60.0
 30
0.0
 11
199.0
 21
65.0
 31
0.0
  0
LINE
  5
1423
330
1F
100
AcDbEntity
  8
0
100
AcDbLine
 10
199.0
 20
65.0
 30
0.0
 11
210.0
 21
65.0
 31
0.0
  0
LINE
  5
1424
330
1F
100
AcDbEntity
  8
0
100
AcDbLine
 10
210.0
 20
65.0
 30
0.0
 11
210.0
 21
60.0
 31
0.0
  0
LINE
  5
1425
330
1F
100
AcDbEntity
  8
0
100
AcDbLine
 10
210.0
 20
60.0
 30
0.0
 11
199.0
 21
60.0
 31
0.0
  0
LINE
  5
1426
330
1F
100
AcDbEntity
  8
0
100
AcDbLine
 10
208.0
 20
63.0
 30
0.0
 11
208.0
 21
62.0
 31
0.0
  0
LINE
  5
1427
330
1F
100
AcDbEntity
  8
0
100
AcDbLine
 10
208.0
 20
62.0
 30
0.0
 11
207.0
 21
62.0
 31
0.0
  0
LINE
  5
1428
330
1F
100
AcDbEntity
  8
0
100
AcDbLine
 10
207.0
 20
62.0
 30
0.0
 11
207.0
 21
63.0
 31
0.0
  0
LINE
  5
1429
330
1F
100
AcDbEntity
  8
0
100
AcDbLine
 10
207.0
 20
63.0
 30
0.0
 11
208.0
 21
63.0
 31
0.0
  0
LINE
  5
142A
330
1F
100
AcDbEntity
  8
0
100
AcDbLine
 10
173.0
 20
67.0
 30
0.0
 11
173.0
 21
72.0
 31
0.0
  0
LINE
  5
142B
330
1F
100
AcDbEntity
  8
0
100
AcDbLine
 10
173.0
 20
72.0
 30
0.0
 11
184.0
 21
72.0
 31
0.0
  0
LINE
  5
142C
330
1F
100
AcDbEntity
  8
0
100
AcDbLine
 10
184.0
 20
72.0
 30
0.0
 11
184.0
 21
67.0
 31
0.0
  0
LINE
  5
142D
330
1F
100
AcDbEntity
  8
0
100
AcDbLine
 10
184.0
 20
67.0
 30
0.0
 11
173.0
 21
67.0
 31
0.0
  0
LINE
  5
142E
330
1F
100
AcDbEntity
  8
0
100
AcDbLine
 10
182.0
 20
70.0
 30
0.0
 11
182.0
 21
69.0
 31
0.0
  0
LINE
  5
142F
330
1F
100
AcDbEntity
  8
0
100
AcDbLine
 10
182.0
 20
69.0
 30
0.0
 11
181.0
 21
69.0
 31
0.0
  0
LINE
  5
1430
330
1F
100
AcDbEntity
  8
0
100
AcDbLine
 10
181.0
 20
69.0
 30
0.0
 11
181.0
 21
70.0
 31
0.0
  0
LINE
  5
1431
330
1F
100
AcDbEntity
  8
0
100
AcDbLine
 10
181.0
 20
70.0
 30
0.0
 11
182.0
 21
70.0
 31
0.0
  0
LINE
  5
1432
330
1F
100
AcDbEntity
  8
0
100
AcDbLine
 10
186.0
 20
67.0
 30
0.0
 11
186.0
 21
72.0
 31
0.0
  0
LINE
  5
1433
330
1F
100
AcDbEntity
  8
0
100
AcDbLine
 10
186.0
 20
72.0
 30
0.0
 11
197.0
 21
72.0
 31
0.0
  0
LINE
  5
1434
330
1F
100
AcDbEntity
  8
0
100
AcDbLine
 10
197.0
 20
72.0
 30
0.0
 11
197.0
 21
67.0
 31
0.0
  0
LINE
  5
1435
330
1F
100
AcDbEntity
  8
0
100
AcDbLine
 10
197.0
 20
67.0
 30
0.0
 11
186.0
 21
67.0
 31
0.0
  0
LINE
  5
1436
330
1F
100
AcDbEntity
  8
0
100
AcDbLine
 10
195.0
 20
70.0
 30
0.0
 11
195.0
 21
69.0
 31
0.0
  0
LINE
  5
1437
330
1F
100
AcDbEntity
  8
0
100
AcDbLine
 10
195.0
 20
69.0
 30
0.0
 11
194.0
 21
69.0
 31
0.0
  0
LINE
  5
1438
330
1F
100
AcDbEntity
  8
0
100
AcDbLine
 10
194.0
 20
69.0
 30
0.0
 11
194.0
 21
70.0
 31
0.0
  0
LINE
  5
1439
330
1F
100
AcDbEntity
  8
0
100
AcDbLine
 10
194.0
 20
70.0
 30
0.0
 11
195.0
 21
70.0
 31
0.0
  0
LINE
  5
143A
330
1F
100
AcDbEntity
  8
0
100
AcDbLine
 10
199.0
 20
67.0
 30
0.0
 11
199.0
 21
72.0
 31
0.0
  0
LINE
  5
143B
330
1F
100
AcDbEntity
  8
0
100
AcDbLine
 10
199.0
 20
72.0
 30
0.0
 11
210.0
 21
72.0
 31
0.0
  0
LINE
  5
143C
330
1F
100
AcDbEntity
  8
0
100
AcDbLine
 10
210.0
 20
72.0
 30
0.0
 11
210.0
 21
67.0
 31
0.0
  0
LINE
  5
143D
330
1F
100
AcDbEntity
  8
0
100
AcDbLine
 10
210.0
 20
67.0
 30
0.0
 11
199.0
 21
67.0
 31
0.0
  0
LINE
  5
143E
330
1F
100
AcDbEntity
  8
0
100
AcDbLine
 10
208.0
 20
70.0
 30
0.0
 11
208.0
 21
69.0
 31
0.0
  0
LINE
  5
143F
330
1F
100
AcDbEntity
  8
0
100
AcDbLine
 10
208.0
 20
69.0
 30
0.0
 11
207.0
 21
69.0
 31
0.0
  0
LINE
  5
1440
330
1F
100
AcDbEntity
  8
0
100
AcDbLine
 10
207.0
 20
69.0
 30
0.0
 11
207.0
 21
70.0
 31
0.0
  0
LINE
  5
1441
330
1F
100
AcDbEntity
  8
0
100
AcDbLine
 10
207.0
 20
70.0
 30
0.0
 11
208.0
 21
70.0
 31
0.0
  0
LINE
  5
1442
330
1F
100
AcDbEntity
  8
0
100
AcDbLine
 10
173.0
 20
74.0
 30
0.0
 11
173.0
 21
79.0
 31
0.0
  0
LINE
  5
1443
330
1F
100
AcDbEntity
  8
0
100
AcDbLine
 10
173.0
 20
79.0
 30
0.0
 11
184.0
 21
79.0
 31
0.0
  0
LINE
  5
1444
330
1F
100
AcDbEntity
  8
0
100
AcDbLine
 10
184.0
 20
79.0
 30
0.0
 11
184.0
 21
74.0
 31
0.0
  0
LINE
  5
1445
330
1F
100
AcDbEntity
  8
0
100
AcDbLine
 10
184.0
 20
74.0
 30
0.0
 11
173.0
 21
74.0
 31
0.0
  0
LINE
  5
1446
330
1F
100
AcDbEntity
  8
0
100
AcDbLine
 10
182.0
 20
77.0
 30
0.0
 11
182.0
 21
76.0
 31
0.0
  0
LINE
  5
1447
330
1F
100
AcDbEntity
  8
0
100
AcDbLine
 10
182.0
 20
76.0
 30
0.0
 11
181.0
 21
76.0
 31
0.0
  0
LINE
  5
1448
330
1F
100
AcDbEntity
  8
0
100
AcDbLine
 10
181.0
 20
76.0
 30
0.0
 11
181.0
 21
77.0
 31
0.0
  0
LINE
  5
1449
330
1F
100
AcDbEntity
  8
0
100
AcDbLine
 10
181.0
 20
77.0
 30
0.0
 11
182.0
 21
77.0
 31
0.0
  0
LINE
  5
144A
330
1F
100
AcDbEntity
  8
0
100
AcDbLine
 10
186.0
 20
74.0
 30
0.0
 11
186.0
 21
79.0
 31
0.0
  0
LINE
  5
144B
330
1F
100
AcDbEntity
  8
0
100
AcDbLine
 10
186.0
 20
79.0
 30
0.0
 11
197.0
 21
79.0
 31
0.0
  0
LINE
  5
144C
330
1F
100
AcDbEntity
  8
0
100
AcDbLine
 10
197.0
 20
79.0
 30
0.0
 11
197.0
 21
74.0
 31
0.0
  0
LINE
  5
144D
330
1F
100
AcDbEntity
  8
0
100
AcDbLine
 10
197.0
 20
74.0
 30
0.0
 11
186.0
 21
74.0
 31
0.0
  0
LINE
  5
144E
330
1F
100
AcDbEntity
  8
0
100
AcDbLine
 10
195.0
 20
77.0
 30
0.0
 11
195.0
 21
76.0
 31
0.0
  0
LINE
  5
144F
330
1F
100
AcDbEntity
  8
0
100
AcDbLine
 10
195.0
 20
76.0
 30
0.0
 11
194.0
 21
76.0
 31
0.0
  0
LINE
  5
1450
330
1F
100
AcDbEntity
  8
0
100
AcDbLine
 10
194.0
 20
76.0
 30
0.0
 11
194.0
 21
77.0
 31
0.0
  0
LINE
  5
1451
330
1F
100
AcDbEntity
  8
0
100
AcDbLine
 10
194.0
 20
77.0
 30
0.0
 11
195.0
 21
77.0
 31
0.0
  0
LINE
  5
1452
330
1F
100
AcDbEntity
  8
0
100
AcDbLine
 10
199.0
 20
74.0
 30
0.0
 11
199.0
 21
79.0
 31
0.0
  0
LINE
  5
1453
330
1F
100
AcDbEntity
  8
0
100
AcDbLine
 10
199.0
 20
79.0
 30
0.0
 11
210.0
 21
79.0
 31
0.0
  0
LINE
  5
1454
330
1F
100
AcDbEntity
  8
0
100
AcDbLine
 10
210.0
 20
79.0
 30
0.0
 11
210.0
 21
74.0
 31
0.0
  0
LINE
  5
1455
330
1F
100
AcDbEntity
  8
0
100
AcDbLine
 10
210.0
 20
74.0
 30
0.0
 11
199.0
 21
74.0
 31
0.0
  0
LINE
  5
1456
330
1F
100
AcDbEntity
  8
0
100
AcDbLine
 10
208.0
 20
77.0
 30
0.0
 11
208.0
 21
76.0
 31
0.0
  0
LINE
  5
1457
330
1F
100
AcDbEntity
  8
0
100
AcDbLine
 10
208.0
 20
76.0
 30
0.0
 11
207.0
 21
76.0
 31
0.0
  0
LINE
  5
1458
330
1F
100
AcDbEntity
  8
0
100
AcDbLine
 10
207.0
 20
76.0
 30
0.0
 11
207.0
 21
77.0
 31
0.0
  0
LINE
  5
1459
330
1F
100
AcDbEntity
  8
0
100
AcDbLine
 10
207.0
 20
77.0
 30
0.0
 11
208.0
 21
77.0
 31
0.0
  0
LINE
  5
145A
330
1F
100
AcDbEntity
  8
0
100
AcDbLine
 10
173.0
 20
81.0
 30
0.0
 11
173.0
 21
86.0
 31
0.0
  0
LINE
  5
145B
330
1F
100
AcDbEntity
  8
0
100
AcDbLine
 10
173.0
 20
86.0
 30
0.0
 11
184.0
 21
86.0
 31
0.0
  0
LINE
  5
145C
330
1F
100
AcDbEntity
  8
0
100
AcDbLine
 10
184.0
 20
86.0
 30
0.0
 11
184.0
 21
81.0
 31
0.0
  0
LINE
  5
145D
330
1F
100
AcDbEntity
  8
0
100
AcDbLine
 10
184.0
 20
81.0
 30
0.0
 11
173.0
 21
81.0
 31
0.0
  0
LINE
  5
145E
330
1F
100
AcDbEntity
  8
0
100
AcDbLine
 10
182.0
 20
84.0
 30
0.0
 11
182.0
 21
83.0
 31
0.0
  0
LINE
  5
145F
330
1F
100
AcDbEntity
  8
0
100
AcDbLine
 10
182.0
 20
83.0
 30
0.0
 11
181.0
 21
83.0
 31
0.0
  0
LINE
  5
1460
330
1F
100
AcDbEntity
  8
0
100
AcDbLine
 10
181.0
 20
83.0
 30
0.0
 11
181.0
 21
84.0
 31
0.0
  0
LINE
  5
1461
330
1F
100
AcDbEntity
  8
0
100
AcDbLine
 10
181.0
 20
84.0
 30
0.0
 11
182.0
 21
84.0
 31
0.0
  0
LINE
  5
1462
330
1F
100
AcDbEntity
  8
0
100
AcDbLine
 10
186.0
 20
81.0
 30
0.0
 11
186.0
 21
86.0
 31
0.0
  0
LINE
  5
1463
330
1F
100
AcDbEntity
  8
0
100
AcDbLine
 10
186.0
 20
86.0
 30
0.0
 11
197.0
 21
86.0
 31
0.0
  0
LINE
  5
1464
330
1F
100
AcDbEntity
  8
0
100
AcDbLine
 10
197.0
 20
86.0
 30
0.0
 11
197.0
 21
81.0
 31
0.0
  0
LINE
  5
1465
330
1F
100
AcDbEntity
  8
0
100
AcDbLine
 10
197.0
 20
81.0
 30
0.0
 11
186.0
 21
81.0
 31
0.0
  0
LINE
  5
1466
330
1F
100
AcDbEntity
  8
0
100
AcDbLine
 10
195.0
 20
84.0
 30
0.0
 11
195.0
 21
83.0
 31
0.0
  0
LINE
  5
1467
330
1F
100
AcDbEntity
  8
0
100
AcDbLine
 10
195.0
 20
83.0
 30
0.0
 11
194.0
 21
83.0
 31
0.0
  0
LINE
  5
1468
330
1F
100
AcDbEntity
  8
0
100
AcDbLine
 10
194.0
 20
83.0
 30
0.0
 11
194.0
 21
84.0
 31
0.0
  0
LINE
  5
1469
330
1F
100
AcDbEntity
  8
0
100
AcDbLine
 10
194.0
 20
84.0
 30
0.0
 11
195.0
 21
84.0
 31
0.0
  0
LINE
  5
146A
330
1F
100
AcDbEntity
  8
0
100
AcDbLine
 10
199.0
 20
81.0
 30
0.0
 11
199.0
 21
86.0
 31
0.0
  0
LINE
  5
146B
330
1F
100
AcDbEntity
  8
0
100
AcDbLine
 10
199.0
 20
86.0
 30
0.0
 11
210.0
 21
86.0
 31
0.0
  0
LINE
  5
146C
330
1F
100
AcDbEntity
  8
0
100
AcDbLine
 10
210.0
 20
86.0
 30
0.0
 11
210.0
 21
81.0
 31
0.0
  0
LINE
  5
146D
330
1F
100
AcDbEntity
  8
0
100
AcDbLine
 10
210.0
 20
81.0
 30
0.0
 11
199.0
 21
81.0
 31
0.0
  0
LINE
  5
146E
330
1F
100
AcDbEntity
  8
0
100
AcDbLine
 10
208.0
 20
84.0
 30
0.0
 11
208.0
 21
83.0
 31
0.0
  0
LINE
  5
146F
330
1F
100
AcDbEntity
  8
0
100
AcDbLine
 10
208.0
 20
83.0
 30
0.0
 11
207.0
 21
83.0
 31
0.0
  0
LINE
  5
1470
330
1F
100
AcDbEntity
  8
0
100
AcDbLine
 10
207.0
 20
83.0
 30
0.0
 11
207.0
 21
84.0
 31
0.0
  0
LINE
  5
1471
330
1F
100
AcDbEntity
  8
0
100
AcDbLine
 10
207.0
 20
84.0
 30
0.0
 11
208.0
 21
84.0
 31
0.0
  0
LINE
  5
14BC
330
1F
100
AcDbEntity
  8
0
100
AcDbLine
 10
190.0
 20
53.0
 30
0.0
 11
190.0
 21
55.0
 31
0.0
  0
LINE
  5
14BE
330
1F
100
AcDbEntity
  8
0
100
AcDbLine
 10
190.0
 20
55.0
 30
0.0
 11
188.0
 21
55.0
 31
0.0
  0
LINE
  5
14BF
330
1F
100
AcDbEntity
  8
0
100
AcDbLine
 10
188.0
 20
55.0
 30
0.0
 11
188.0
 21
57.0
 31
0.0
  0
LINE
  5
14C0
330
1F
100
AcDbEntity
  8
0
100
AcDbLine
 10
188.0
 20
57.0
 30
0.0
 11
194.0
 21
57.0
 31
0.0
  0
LINE
  5
14C1
330
1F
100
AcDbEntity
  8
0
100
AcDbLine
 10
194.0
 20
57.0
 30
0.0
 11
194.0
 21
55.0
 31
0.0
  0
LINE
  5
14C2
330
1F
100
AcDbEntity
  8
0
100
AcDbLine
 10
194.0
 20
55.0
 30
0.0
 11
192.0
 21
55.0
 31
0.0
  0
LINE
  5
14C4
330
1F
100
AcDbEntity
  8
0
100
AcDbLine
 10
192.0
 20
55.0
 30
0.0
 11
192.0
 21
53.0
 31
0.0
  0
LINE
  5
1511
330
1F
100
AcDbEntity
  8
0
100
AcDbLine
 10
15.0
 20
80.0
 30
0.0
 11
18.0
 21
80.0
 31
0.0
  0
LINE
  5
1512
330
1F
100
AcDbEntity
  8
0
100
AcDbLine
 10
18.0
 20
80.0
 30
0.0
 11
18.0
 21
85.0
 31
0.0
  0
LINE
  5
1513
330
1F
100
AcDbEntity
  8
0
100
AcDbLine
 10
18.0
 20
85.0
 30
0.0
 11
15.0
 21
85.0
 31
0.0
  0
LINE
  5
1514
330
1F
100
AcDbEntity
  8
0
100
AcDbLine
 10
15.0
 20
85.0
 30
0.0
 11
15.0
 21
80.0
 31
0.0
  0
LINE
  5
1515
330
1F
100
AcDbEntity
  8
0
100
AcDbLine
 10
42.0
 20
80.0
 30
0.0
 11
45.0
 21
80.0
 31
0.0
  0
LINE
  5
1516
330
1F
100
AcDbEntity
  8
0
100
AcDbLine
 10
45.0
 20
80.0
 30
0.0
 11
45.0
 21
85.0
 31
0.0
  0
LINE
  5
1517
330
1F
100
AcDbEntity
  8
0
100
AcDbLine
 10
45.0
 20
85.0
 30
0.0
 11
42.0
 21
85.0
 31
0.0
  0
LINE
  5
1518
330
1F
100
AcDbEntity
  8
0
100
AcDbLine
 10
42.0
 20
85.0
 30
0.0
 11
42.0
 21
80.0
 31
0.0
  0
LINE
  5
1677
330
1F
100
AcDbEntity
  8
0
100
AcDbLine
 10
107.0
 20
10.0
 30
0.0
 11
107.0
 21
20.0
 31
0.0
  0
LINE
  5
1678
330
1F
100
AcDbEntity
  8
0
100
AcDbLine
 10
107.0
 20
20.0
 30
0.0
 11
110.0
 21
20.0
 31
0.0
  0
LINE
  5
1679
330
1F
100
AcDbEntity
  8
0
100
AcDbLine
 10
110.0
 20
20.0
 30
0.0
 11
110.0
 21
30.0
 31
0.0
  0
LINE
  5
167A
330
1F
100
AcDbEntity
  8
0
100
AcDbLine
 10
110.0
 20
30.0
 30
0.0
 11
107.0
 21
30.0
 31
0.0
  0
LINE
  5
167B
330
1F
100
AcDbEntity
  8
0
100
AcDbLine
 10
107.0
 20
30.0
 30
0.0
 11
107.0
 21
40.0
 31
0.0
  0
LINE
  5
167C
330
1F
100
AcDbEntity
  8
0
100
AcDbLine
 10
107.0
 20
40.0
 30
0.0
 11
110.0
 21
40.0
 31
0.0
  0
LINE
  5
167D
330
1F
100
AcDbEntity
  8
0
100
AcDbLine
 10
110.0
 20
40.0
 30
0.0
 11
110.0
 21
50.0
 31
0.0
  0
LINE
  5
167E
330
1F
100
AcDbEntity
  8
0
100
AcDbLine
 10
110.0
 20
50.0
 30
0.0
 11
107.0
 21
50.0
 31
0.0
  0
LINE
  5
167F
330
1F
100
AcDbEntity
  8
0
100
AcDbLine
 10
107.0
 20
50.0
 30
0.0
 11
107.0
 21
60.0
 31
0.0
  0
LINE
  5
1680
330
1F
100
AcDbEntity
  8
0
100
AcDbLine
 10
107.0
 20
60.0
 30
0.0
 11
110.0
 21
60.0
 31
0.0
  0
LINE
  5
1681
330
1F
100
AcDbEntity
  8
0
100
AcDbLine
 10
110.0
 20
60.0
 30
0.0
 11
110.0
 21
70.0
 31
0.0
  0
LINE
  5
1682
330
1F
100
AcDbEntity
  8
0
100
AcDbLine
 10
110.0
 20
70.0
 30
0.0
 11
107.0
 21
70.0
 31
0.0
  0
LINE
  5
1683
330
1F
100
AcDbEntity
  8
0
100
AcDbLine
 10
107.0
 20
70.0
 30
0.0
 11
107.0
 21
80.0
 31
0.0
  0
LINE
  5
1684
330
1F
100
AcDbEntity
  8
0
100
AcDbLine
 10
107.0
 20
80.0
 30
0.0
 11
110.0
 21
80.0
 31
0.0
  0
LINE
  5
1685
330
1F
100
AcDbEntity
  8
0
100
AcDbLine
 10
110.0
 20
80.0
 30
0.0
 11
110.0
 21
90.0
 31
0.0
  0
LINE
  5
1686
330
1F
100
AcDbEntity
  8
0
100
AcDbLine
 10
110.0
 20
90.0
 30
0.0
 11
107.0
 21
90.0
 31
0.0
  0
LINE
  5
1687
330
1F
100
AcDbEntity
  8
0
100
AcDbLine
 10
107.0
 20
90.0
 30
0.0
 11
107.0
 21
100.0
 31
0.0
  0
LINE
  5
1688
330
1F
100
AcDbEntity
  8
0
100
AcDbLine
 10
107.0
 20
100.0
 30
0.0
 11
110.0
 21
100.0
 31
0.0
  0
LINE
  5
1689
330
1F
100
AcDbEntity
  8
0
100
AcDbLine
 10
110.0
 20
100.0
 30
0.0
 11
110.0
 21
110.0
 31
0.0
  0
LINE
  5
168A
330
1F
100
AcDbEntity
  8
0
100
AcDbLine
 10
110.0
 20
110.0
 30
0.0
 11
107.0
 21
110.0
 31
0.0
  0
LINE
  5
168B
330
1F
100
AcDbEntity
  8
0
100
AcDbLine
 10
107.0
 20
110.0
 30
0.0
 11
107.0
 21
120.0
 31
0.0
  0
LINE
  5
168C
330
1F
100
AcDbEntity
  8
0
100
AcDbLine
 10
107.0
 20
120.0
 30
0.0
 11
110.0
 21
120.0
 31
0.0
  0
LINE
  5
168D
330
1F
100
AcDbEntity
  8
0
100
AcDbLine
 10
110.0
 20
120.0
 30
0.0
 11
110.0
 21
130.0
 31
0.0
  0
LINE
  5
168E
330
1F
100
AcDbEntity
  8
0
100
AcDbLine
 10
110.0
 20
130.0
 30
0.0
 11
107.0
 21
130.0
 31
0.0
  0
LINE
  5
168F
330
1F
100
AcDbEntity
  8
0
100
AcDbLine
 10
107.0
 20
130.0
 30
0.0
 11
107.0
 21
140.0
 31
0.0
  0
LINE
  5
1690
330
1F
100
AcDbEntity
  8
0
100
AcDbLine
 10
107.0
 20
140.0
 30
0.0
 11
110.0
 21
140.0
 31
0.0
  0
LINE
  5
1691
330
1F
100
AcDbEntity
  8
0
100
AcDbLine
 10
110.0
 20
140.0
 30
0.0
 11
110.0
 21
150.0
 31
0.0
  0
LINE
  5
1692
330
1F
100
AcDbEntity
  8
0
100
AcDbLine
 10
110.0
 20
150.0
 30
0.0
 11
107.0
 21
150.0
 31
0.0
  0
LINE
  5
1693
330
1F
100
AcDbEntity
  8
0
100
AcDbLine
 10
107.0
 20
150.0
 30
0.0
 11
107.0
 21
160.0
 31
0.0
  0
LINE
  5
1694
330
1F
100
AcDbEntity
  8
0
100
AcDbLine
 10
107.0
 20
160.0
 30
0.0
 11
110.0
 21
160.0
 31
0.0
  0
LINE
  5
1695
330
1F
100
AcDbEntity
  8
0
100
AcDbLine
 10
110.0
 20
160.0
 30
0.0
 11
110.0
 21
170.0
 31
0.0
  0
LINE
  5
1696
330
1F
100
AcDbEntity
  8
0
100
AcDbLine
 10
110.0
 20
170.0
 30
0.0
 11
107.0
 21
170.0
 31
0.0
  0
LINE
  5
1697
330
1F
100
AcDbEntity
  8
0
100
AcDbLine
 10
107.0
 20
170.0
 30
0.0
 11
107.0
 21
180.0
 31
0.0
  0
LINE
  5
1698
330
1F
100
AcDbEntity
  8
0
100
AcDbLine
 10
107.0
 20
180.0
 30
0.0
 11
110.0
 21
180.0
 31
0.0
  0
LINE
  5
1699
330
1F
100
AcDbEntity
  8
0
100
AcDbLine
 10
110.0
 20
180.0
 30
0.0
 11
110.0
 21
190.0
 31
0.0
  0
LINE
  5
169A
330
1F
100
AcDbEntity
  8
0
100
AcDbLine
 10
110.0
 20
190.0
 30
0.0
 11
107.0
 21
190.0
 31
0.0
  0
LINE
  5
169B
330
1F
100
AcDbEntity
  8
0
100
AcDbLine
 10
107.0
 20
190.0
 30
0.0
 11
107.0
 21
200.0
 31
0.0
  0
LINE
  5
169C
330
1F
100
AcDbEntity
  8
0
100
AcDbLine
 10
107.0
 20
200.0
 30
0.0
 11
110.0
 21
200.0
 31
0.0
  0
LINE
  5
169D
330
1F
100
AcDbEntity
  8
0
100
AcDbLine
 10
110.0
 20
200.0
 30
0.0
 11
110.0
 21
210.0
 31
0.0
  0
LINE
  5
169E
330
1F
100
AcDbEntity
  8
0
100
AcDbLine
 10
110.0
 20
210.0
 30
0.0
 11
107.0
 21
210.0
 31
0.0
  0
LINE
  5
169F
330
1F
100
AcDbEntity
  8
0
100
AcDbLine
 10
107.0
 20
210.0
 30
0.0
 11
107.0
 21
220.0
 31
0.0
  0
LINE
  5
16A0
330
1F
100
AcDbEntity
  8
0
100
AcDbLine
 10
107.0
 20
220.0
 30
0.0
 11
110.0
 21
220.0
 31
0.0
  0
LINE
  5
16A1
330
1F
100
AcDbEntity
  8
0
100
AcDbLine
 10
110.0
 20
220.0
 30
0.0
 11
110.0
 21
230.0
 31
0.0
  0
LINE
  5
16A2
330
1F
100
AcDbEntity
  8
0
100
AcDbLine
 10
110.0
 20
230.0
 30
0.0
 11
107.0
 21
230.0
 31
0.0
  0
LINE
  5
16A3
330
1F
100
AcDbEntity
  8
0
100
AcDbLine
 10
107.0
 20
230.0
 30
0.0
 11
107.0
 21
240.0
 31
0.0
  0
LINE
  5
16A4
330
1F
100
AcDbEntity
  8
0
100
AcDbLine
 10
107.0
 20
240.0
 30
0.0
 11
110.0
 21
240.0
 31
0.0
  0
LINE
  5
16A5
330
1F
100
AcDbEntity
  8
0
100
AcDbLine
 10
110.0
 20
240.0
 30
0.0
 11
110.0
 21
250.0
 31
0.0
  0
LINE
  5
16A6
330
1F
100
AcDbEntity
  8
0
100
AcDbLine
 10
110.0
 20
250.0
 30
0.0
 11
107.0
 21
250.0
 31
0.0
  0
LINE
  5
16A7
330
1F
100
AcDbEntity
  8
0
100
AcDbLine
 10
107.0
 20
250.0
 30
0.0
 11
107.0
 21
260.0
 31
0.0
  0
LINE
  5
16A8
330
1F
100
AcDbEntity
  8
0
100
AcDbLine
 10
107.0
 20
260.0
 30
0.0
 11
107.0
 21
263.0
 31
0.0
  0
LINE
  5
16A9
330
1F
100
AcDbEntity
  8
0
100
AcDbLine
 10
137.0
 20
263.0
 30
0.0
 11
137.0
 21
250.0
 31
0.0
  0
LINE
  5
16AA
330
1F
100
AcDbEntity
  8
0
100
AcDbLine
 10
137.0
 20
250.0
 30
0.0
 11
134.0
 21
250.0
 31
0.0
  0
LINE
  5
16AB
330
1F
100
AcDbEntity
  8
0
100
AcDbLine
 10
134.0
 20
250.0
 30
0.0
 11
134.0
 21
240.0
 31
0.0
  0
LINE
  5
16AC
330
1F
100
AcDbEntity
  8
0
100
AcDbLine
 10
134.0
 20
240.0
 30
0.0
 11
137.0
 21
240.0
 31
0.0
  0
LINE
  5
16AD
330
1F
100
AcDbEntity
  8
0
100
AcDbLine
 10
137.0
 20
240.0
 30
0.0
 11
137.0
 21
230.0
 31
0.0
  0
LINE
  5
16AE
330
1F
100
AcDbEntity
  8
0
100
AcDbLine
 10
137.0
 20
230.0
 30
0.0
 11
134.0
 21
230.0
 31
0.0
  0
LINE
  5
16AF
330
1F
100
AcDbEntity
  8
0
100
AcDbLine
 10
134.0
 20
230.0
 30
0.0
 11
134.0
 21
220.0
 31
0.0
  0
LINE
  5
16B0
330
1F
100
AcDbEntity
  8
0
100
AcDbLine
 10
134.0
 20
220.0
 30
0.0
 11
137.0
 21
220.0
 31
0.0
  0
LINE
  5
16B1
330
1F
100
AcDbEntity
  8
0
100
AcDbLine
 10
137.0
 20
220.0
 30
0.0
 11
137.0
 21
210.0
 31
0.0
  0
LINE
  5
16B2
330
1F
100
AcDbEntity
  8
0
100
AcDbLine
 10
137.0
 20
210.0
 30
0.0
 11
134.0
 21
210.0
 31
0.0
  0
LINE
  5
16B3
330
1F
100
AcDbEntity
  8
0
100
AcDbLine
 10
134.0
 20
210.0
 30
0.0
 11
134.0
 21
200.0
 31
0.0
  0
LINE
  5
16B4
330
1F
100
AcDbEntity
  8
0
100
AcDbLine
 10
134.0
 20
200.0
 30
0.0
 11
137.0
 21
200.0
 31
0.0
  0
LINE
  5
16B5
330
1F
100
AcDbEntity
  8
0
100
AcDbLine
 10
137.0
 20
200.0
 30
0.0
 11
137.0
 21
190.0
 31
0.0
  0
LINE
  5
16B6
330
1F
100
AcDbEntity
  8
0
100
AcDbLine
 10
137.0
 20
190.0
 30
0.0
 11
134.0
 21
190.0
 31
0.0
  0
LINE
  5
16B7
330
1F
100
AcDbEntity
  8
0
100
AcDbLine
 10
134.0
 20
190.0
 30
0.0
 11
134.0
 21
180.0
 31
0.0
  0
LINE
  5
16B8
330
1F
100
AcDbEntity
  8
0
100
AcDbLine
 10
134.0
 20
180.0
 30
0.0
 11
137.0
 21
180.0
 31
0.0
  0
LINE
  5
16B9
330
1F
100
AcDbEntity
  8
0
100
AcDbLine
 10
137.0
 20
180.0
 30
0.0
 11
137.0
 21
170.0
 31
0.0
  0
LINE
  5
16BA
330
1F
100
AcDbEntity
  8
0
100
AcDbLine
 10
137.0
 20
170.0
 30
0.0
 11
134.0
 21
170.0
 31
0.0
  0
LINE
  5
16BB
330
1F
100
AcDbEntity
  8
0
100
AcDbLine
 10
134.0
 20
170.0
 30
0.0
 11
134.0
 21
160.0
 31
0.0
  0
LINE
  5
16BC
330
1F
100
AcDbEntity
  8
0
100
AcDbLine
 10
134.0
 20
160.0
 30
0.0
 11
137.0
 21
160.0
 31
0.0
  0
LINE
  5
16BD
330
1F
100
AcDbEntity
  8
0
100
AcDbLine
 10
137.0
 20
160.0
 30
0.0
 11
137.0
 21
150.0
 31
0.0
  0
LINE
  5
16BE
330
1F
100
AcDbEntity
  8
0
100
AcDbLine
 10
137.0
 20
150.0
 30
0.0
 11
134.0
 21
150.0
 31
0.0
  0
LINE
  5
16BF
330
1F
100
AcDbEntity
  8
0
100
AcDbLine
 10
134.0
 20
150.0
 30
0.0
 11
134.0
 21
140.0
 31
0.0
  0
LINE
  5
16C0
330
1F
100
AcDbEntity
  8
0
100
AcDbLine
 10
134.0
 20
140.0
 30
0.0
 11
137.0
 21
140.0
 31
0.0
  0
LINE
  5
16C1
330
1F
100
AcDbEntity
  8
0
100
AcDbLine
 10
137.0
 20
140.0
 30
0.0
 11
137.0
 21
130.0
 31
0.0
  0
LINE
  5
16C2
330
1F
100
AcDbEntity
  8
0
100
AcDbLine
 10
137.0
 20
130.0
 30
0.0
 11
134.0
 21
130.0
 31
0.0
  0
LINE
  5
16C3
330
1F
100
AcDbEntity
  8
0
100
AcDbLine
 10
134.0
 20
130.0
 30
0.0
 11
134.0
 21
120.0
 31
0.0
  0
LINE
  5
16C4
330
1F
100
AcDbEntity
  8
0
100
AcDbLine
 10
134.0
 20
120.0
 30
0.0
 11
137.0
 21
120.0
 31
0.0
  0
LINE
  5
16C5
330
1F
100
AcDbEntity
  8
0
100
AcDbLine
 10
137.0
 20
120.0
 30
0.0
 11
137.0
 21
110.0
 31
0.0
  0
LINE
  5
16C6
330
1F
100
AcDbEntity
  8
0
100
AcDbLine
 10
137.0
 20
110.0
 30
0.0
 11
134.0
 21
110.0
 31
0.0
  0
LINE
  5
16C7
330
1F
100
AcDbEntity
  8
0
100
AcDbLine
 10
134.0
 20
110.0
 30
0.0
 11
134.0
 21
100.0
 31
0.0
  0
LINE
  5
16C8
330
1F
100
AcDbEntity
  8
0
100
AcDbLine
 10
134.0
 20
100.0
 30
0.0
 11
137.0
 21
100.0
 31
0.0
  0
LINE
  5
16C9
330
1F
100
AcDbEntity
  8
0
100
AcDbLine
 10
137.0
 20
100.0
 30
0.0
 11
137.0
 21
90.0
 31
0.0
  0
LINE
  5
16CA
330
1F
100
AcDbEntity
  8
0
100
AcDbLine
 10
137.0
 20
90.0
 30
0.0
 11
134.0
 21
90.0
 31
0.0
  0
LINE
  5
16CB
330
1F
100
AcDbEntity
  8
0
100
AcDbLine
 10
134.0
 20
90.0
 30
0.0
 11
134.0
 21
80.0
 31
0.0
  0
LINE
  5
16CC
330
1F
100
AcDbEntity
  8
0
100
AcDbLine
 10
134.0
 20
80.0
 30
0.0
 11
137.0
 21
80.0
 31
0.0
  0
LINE
  5
16CD
330
1F
100
AcDbEntity
  8
0
100
AcDbLine
 10
137.0
 20
80.0
 30
0.0
 11
137.0
 21
70.0
 31
0.0
  0
LINE
  5
16CE
330
1F
100
AcDbEntity
  8
0
100
AcDbLine
 10
137.0
 20
70.0
 30
0.0
 11
134.0
 21
70.0
 31
0.0
  0
LINE
  5
16CF
330
1F
100
AcDbEntity
  8
0
100
AcDbLine
 10
134.0
 20
70.0
 30
0.0
 11
134.0
 21
60.0
 31
0.0
  0
LINE
  5
16D0
330
1F
100
AcDbEntity
  8
0
100
AcDbLine
 10
134.0
 20
60.0
 30
0.0
 11
137.0
 21
60.0
 31
0.0
  0
LINE
  5
16D1
330
1F
100
AcDbEntity
  8
0
100
AcDbLine
 10
137.0
 20
60.0
 30
0.0
 11
137.0
 21
50.0
 31
0.0
  0
LINE
  5
16D2
330
1F
100
AcDbEntity
  8
0
100
AcDbLine
 10
137.0
 20
50.0
 30
0.0
 11
134.0
 21
50.0
 31
0.0
  0
LINE
  5
16D3
330
1F
100
AcDbEntity
  8
0
100
AcDbLine
 10
134.0
 20
50.0
 30
0.0
 11
134.0
 21
40.0
 31
0.0
  0
LINE
  5
16D4
330
1F
100
AcDbEntity
  8
0
100
AcDbLine
 10
134.0
 20
40.0
 30
0.0
 11
137.0
 21
40.0
 31
0.0
  0
LINE
  5
16D5
330
1F
100
AcDbEntity
  8
0
100
AcDbLine
 10
137.0
 20
40.0
 30
0.0
 11
137.0
 21
30.0
 31
0.0
  0
LINE
  5
16D6
330
1F
100
AcDbEntity
  8
0
100
AcDbLine
 10
137.0
 20
30.0
 30
0.0
 11
134.0
 21
30.0
 31
0.0
  0
LINE
  5
16D7
330
1F
100
AcDbEntity
  8
0
100
AcDbLine
 10
134.0
 20
30.0
 30
0.0
 11
134.0
 21
20.0
 31
0.0
  0
LINE
  5
16D8
330
1F
100
AcDbEntity
  8
0
100
AcDbLine
 10
134.0
 20
20.0
 30
0.0
 11
137.0
 21
20.0
 31
0.0
  0
LINE
  5
16D9
330
1F
100
AcDbEntity
  8
0
100
AcDbLine
 10
137.0
 20
20.0
 30
0.0
 11
137.0
 21
7.0
 31
0.0
  0
LINE
  5
16DB
330
1F
100
AcDbEntity
  8
0
100
AcDbLine
 10
107.0
 20
7.0
 30
0.0
 11
107.0
 21
10.0
 31
0.0
  0
LINE
  5
16DF
330
1F
100
AcDbEntity
  8
0
100
AcDbLine
 10
107.0
 20
7.0
 30
0.0
 11
137.0
 21
7.0
 31
0.0
  0
LINE
  5
16E0
330
1F
100
AcDbEntity
  8
0
100
AcDbLine
 10
107.0
 20
263.0
 30
0.0
 11
137.0
 21
263.0
 31
0.0
  0
LINE
  5
16E5
330
1F
100
AcDbEntity
  8
0
100
AcDbLine
 10
120.0
 20
23.0
 30
0.0
 11
124.0
 21
23.0
 31
0.0
  0
LINE
  5
16E6
330
1F
100
AcDbEntity
  8
0
100
AcDbLine
 10
124.0
 20
23.0
 30
0.0
 11
124.0
 21
27.0
 31
0.0
  0
LINE
  5
16E7
330
1F
100
AcDbEntity
  8
0
100
AcDbLine
 10
124.0
 20
27.0
 30
0.0
 11
120.0
 21
27.0
 31
0.0
  0
LINE
  5
16E8
330
1F
100
AcDbEntity
  8
0
100
AcDbLine
 10
120.0
 20
27.0
 30
0.0
 11
120.0
 21
23.0
 31
0.0
  0
LINE
  5
16E9
330
1F
100
AcDbEntity
  8
0
100
AcDbLine
 10
120.0
 20
33.0
 30
0.0
 11
124.0
 21
33.0
 31
0.0
  0
LINE
  5
16EA
330
1F
100
AcDbEntity
  8
0
100
AcDbLine
 10
124.0
 20
33.0
 30
0.0
 11
124.0
 21
37.0
 31
0.0
  0
LINE
  5
16EB
330
1F
100
AcDbEntity
  8
0
100
AcDbLine
 10
124.0
 20
37.0
 30
0.0
 11
120.0
 21
37.0
 31
0.0
  0
LINE
  5
16EC
330
1F
100
AcDbEntity
  8
0
100
AcDbLine
 10
120.0
 20
37.0
 30
0.0
 11
120.0
 21
33.0
 31
0.0
  0
LINE
  5
16ED
330
1F
100
AcDbEntity
  8
0
100
AcDbLine
 10
120.0
 20
43.0
 30
0.0
 11
124.0
 21
43.0
 31
0.0
  0
LINE
  5
16EE
330
1F
100
AcDbEntity
  8
0
100
AcDbLine
 10
124.0
 20
43.0
 30
0.0
 11
124.0
 21
47.0
 31
0.0
  0
LINE
  5
16EF
330
1F
100
AcDbEntity
  8
0
100
AcDbLine
 10
124.0
 20
47.0
 30
0.0
 11
120.0
 21
47.0
 31
0.0
  0
LINE
  5
16F0
330
1F
100
AcDbEntity
  8
0
100
AcDbLine
 10
120.0
 20
47.0
 30
0.0
 11
120.0
 21
43.0
 31
0.0
  0
LINE
  5
16F1
330
1F
100
AcDbEntity
  8
0
100
AcDbLine
 10
120.0
 20
53.0
 30
0.0
 11
124.0
 21
53.0
 31
0.0
  0
LINE
  5
16F2
330
1F
100
AcDbEntity
  8
0
100
AcDbLine
 10
124.0
 20
53.0
 30
0.0
 11
124.0
 21
57.0
 31
0.0
  0
LINE
  5
16F3
330
1F
100
AcDbEntity
  8
0
100
AcDbLine
 10
124.0
 20
57.0
 30
0.0
 11
120.0
 21
57.0
 31
0.0
  0
LINE
  5
16F4
330
1F
100
AcDbEntity
  8
0
100
AcDbLine
 10
120.0
 20
57.0
 30
0.0
 11
120.0
 21
53.0
 31
0.0
  0
LINE
  5
16F5
330
1F
100
AcDbEntity
  8
0
100
AcDbLine
 10
120.0
 20
63.0
 30
0.0
 11
124.0
 21
63.0
 31
0.0
  0
LINE
  5
16F6
330
1F
100
AcDbEntity
  8
0
100
AcDbLine
 10
124.0
 20
63.0
 30
0.0
 11
124.0
 21
67.0
 31
0.0
  0
LINE
  5
16F7
330
1F
100
AcDbEntity
  8
0
100
AcDbLine
 10
124.0
 20
67.0
 30
0.0
 11
120.0
 21
67.0
 31
0.0
  0
LINE
  5
16F8
330
1F
100
AcDbEntity
  8
0
100
AcDbLine
 10
120.0
 20
67.0
 30
0.0
 11
120.0
 21
63.0
 31
0.0
  0
LINE
  5
16F9
330
1F
100
AcDbEntity
  8
0
100
AcDbLine
 10
120.0
 20
73.0
 30
0.0
 11
124.0
 21
73.0
 31
0.0
  0
LINE
  5
16FA
330
1F
100
AcDbEntity
  8
0
100
AcDbLine
 10
124.0
 20
73.0
 30
0.0
 11
124.0
 21
77.0
 31
0.0
  0
LINE
  5
16FB
330
1F
100
AcDbEntity
  8
0
100
AcDbLine
 10
124.0
 20
77.0
 30
0.0
 11
120.0
 21
77.0
 31
0.0
  0
LINE
  5
16FC
330
1F
100
AcDbEntity
  8
0
100
AcDbLine
 10
120.0
 20
77.0
 30
0.0
 11
120.0
 21
73.0
 31
0.0
  0
LINE
  5
16FD
330
1F
100
AcDbEntity
  8
0
100
AcDbLine
 10
120.0
 20
83.0
 30
0.0
 11
124.0
 21
83.0
 31
0.0
  0
LINE
  5
16FE
330
1F
100
AcDbEntity
  8
0
100
AcDbLine
 10
124.0
 20
83.0
 30
0.0
 11
124.0
 21
87.0
 31
0.0
  0
LINE
  5
16FF
330
1F
100
AcDbEntity
  8
0
100
AcDbLine
 10
124.0
 20
87.0
 30
0.0
 11
120.0
 21
87.0
 31
0.0
  0
LINE
  5
1700
330
1F
100
AcDbEntity
  8
0
100
AcDbLine
 10
120.0
 20
87.0
 30
0.0
 11
120.0
 21
83.0
 31
0.0
  0
LINE
  5
1701
330
1F
100
AcDbEntity
  8
0
100
AcDbLine
 10
120.0
 20
93.0
 30
0.0
 11
124.0
 21
93.0
 31
0.0
  0
LINE
  5
1702
330
1F
100
AcDbEntity
  8
0
100
AcDbLine
 10
124.0
 20
93.0
 30
0.0
 11
124.0
 21
97.0
 31
0.0
  0
LINE
  5
1703
330
1F
100
AcDbEntity
  8
0
100
AcDbLine
 10
124.0
 20
97.0
 30
0.0
 11
120.0
 21
97.0
 31
0.0
  0
LINE
  5
1704
330
1F
100
AcDbEntity
  8
0
100
AcDbLine
 10
120.0
 20
97.0
 30
0.0
 11
120.0
 21
93.0
 31
0.0
  0
LINE
  5
1705
330
1F
100
AcDbEntity
  8
0
100
AcDbLine
 10
120.0
 20
103.0
 30
0.0
 11
124.0
 21
103.0
 31
0.0
  0
LINE
  5
1706
330
1F
100
AcDbEntity
  8
0
100
AcDbLine
 10
124.0
 20
103.0
 30
0.0
 11
124.0
 21
107.0
 31
0.0
  0
LINE
  5
1707
330
1F
100
AcDbEntity
  8
0
100
AcDbLine
 10
124.0
 20
107.0
 30
0.0
 11
120.0
 21
107.0
 31
0.0
  0
LINE
  5
1708
330
1F
100
AcDbEntity
  8
0
100
AcDbLine
 10
120.0
 20
107.0
 30
0.0
 11
120.0
 21
103.0
 31
0.0
  0
LINE
  5
1709
330
1F
100
AcDbEntity
  8
0
100
AcDbLine
 10
120.0
 20
113.0
 30
0.0
 11
124.0
 21
113.0
 31
0.0
  0
LINE
  5
170A
330
1F
100
AcDbEntity
  8
0
100
AcDbLine
 10
124.0
 20
113.0
 30
0.0
 11
124.0
 21
117.0
 31
0.0
  0
LINE
  5
170B
330
1F
100
AcDbEntity
  8
0
100
AcDbLine
 10
124.0
 20
117.0
 30
0.0
 11
120.0
 21
117.0
 31
0.0
  0
LINE
  5
170C
330
1F
100
AcDbEntity
  8
0
100
AcDbLine
 10
120.0
 20
117.0
 30
0.0
 11
120.0
 21
113.0
 31
0.0
  0
LINE
  5
170D
330
1F
100
AcDbEntity
  8
0
100
AcDbLine
 10
120.0
 20
123.0
 30
0.0
 11
124.0
 21
123.0
 31
0.0
  0
LINE
  5
170E
330
1F
100
AcDbEntity
  8
0
100
AcDbLine
 10
124.0
 20
123.0
 30
0.0
 11
124.0
 21
127.0
 31
0.0
  0
LINE
  5
170F
330
1F
100
AcDbEntity
  8
0
100
AcDbLine
 10
124.0
 20
127.0
 30
0.0
 11
120.0
 21
127.0
 31
0.0
  0
LINE
  5
1710
330
1F
100
AcDbEntity
  8
0
100
AcDbLine
 10
120.0
 20
127.0
 30
0.0
 11
120.0
 21
123.0
 31
0.0
  0
LINE
  5
1711
330
1F
100
AcDbEntity
  8
0
100
AcDbLine
 10
120.0
 20
133.0
 30
0.0
 11
124.0
 21
133.0
 31
0.0
  0
LINE
  5
1712
330
1F
100
AcDbEntity
  8
0
100
AcDbLine
 10
124.0
 20
133.0
 30
0.0
 11
124.0
 21
137.0
 31
0.0
  0
LINE
  5
1713
330
1F
100
AcDbEntity
  8
0
100
AcDbLine
 10
124.0
 20
137.0
 30
0.0
 11
120.0
 21
137.0
 31
0.0
  0
LINE
  5
1714
330
1F
100
AcDbEntity
  8
0
100
AcDbLine
 10
120.0
 20
137.0
 30
0.0
 11
120.0
 21
133.0
 31
0.0
  0
LINE
  5
1715
330
1F
100
AcDbEntity
  8
0
100
AcDbLine
 10
120.0
 20
143.0
 30
0.0
 11
124.0
 21
143.0
 31
0.0
  0
LINE
  5
1716
330
1F
100
AcDbEntity
  8
0
100
AcDbLine
 10
124.0
 20
143.0
 30
0.0
 11
124.0
 21
147.0
 31
0.0
  0
LINE
  5
1717
330
1F
100
AcDbEntity
  8
0
100
AcDbLine
 10
124.0
 20
147.0
 30
0.0
 11
120.0
 21
147.0
 31
0.0
  0
LINE
  5
1718
330
1F
100
AcDbEntity
  8
0
100
AcDbLine
 10
120.0
 20
147.0
 30
0.0
 11
120.0
 21
143.0
 31
0.0
  0
LINE
  5
1719
330
1F
100
AcDbEntity
  8
0
100
AcDbLine
 10
120.0
 20
153.0
 30
0.0
 11
124.0
 21
153.0
 31
0.0
  0
LINE
  5
171A
330
1F
100
AcDbEntity
  8
0
100
AcDbLine
 10
124.0
 20
153.0
 30
0.0
 11
124.0
 21
157.0
 31
0.0
  0
LINE
  5
171B
330
1F
100
AcDbEntity
  8
0
100
AcDbLine
 10
124.0
 20
157.0
 30
0.0
 11
120.0
 21
157.0
 31
0.0
  0
LINE
  5
171C
330
1F
100
AcDbEntity
  8
0
100
AcDbLine
 10
120.0
 20
157.0
 30
0.0
 11
120.0
 21
153.0
 31
0.0
  0
LINE
  5
171D
330
1F
100
AcDbEntity
  8
0
100
AcDbLine
 10
120.0
 20
163.0
 30
0.0
 11
124.0
 21
163.0
 31
0.0
  0
LINE
  5
171E
330
1F
100
AcDbEntity
  8
0
100
AcDbLine
 10
124.0
 20
163.0
 30
0.0
 11
124.0
 21
167.0
 31
0.0
  0
LINE
  5
171F
330
1F
100
AcDbEntity
  8
0
100
AcDbLine
 10
124.0
 20
167.0
 30
0.0
 11
120.0
 21
167.0
 31
0.0
  0
LINE
  5
1720
330
1F
100
AcDbEntity
  8
0
100
AcDbLine
 10
120.0
 20
167.0
 30
0.0
 11
120.0
 21
163.0
 31
0.0
  0
LINE
  5
1721
330
1F
100
AcDbEntity
  8
0
100
AcDbLine
 10
120.0
 20
173.0
 30
0.0
 11
124.0
 21
173.0
 31
0.0
  0
LINE
  5
1722
330
1F
100
AcDbEntity
  8
0
100
AcDbLine
 10
124.0
 20
173.0
 30
0.0
 11
124.0
 21
177.0
 31
0.0
  0
LINE
  5
1723
330
1F
100
AcDbEntity
  8
0
100
AcDbLine
 10
124.0
 20
177.0
 30
0.0
 11
120.0
 21
177.0
 31
0.0
  0
LINE
  5
1724
330
1F
100
AcDbEntity
  8
0
100
AcDbLine
 10
120.0
 20
177.0
 30
0.0
 11
120.0
 21
173.0
 31
0.0
  0
LINE
  5
1725
330
1F
100
AcDbEntity
  8
0
100
AcDbLine
 10
120.0
 20
183.0
 30
0.0
 11
124.0
 21
183.0
 31
0.0
  0
LINE
  5
1726
330
1F
100
AcDbEntity
  8
0
100
AcDbLine
 10
124.0
 20
183.0
 30
0.0
 11
124.0
 21
187.0
 31
0.0
  0
LINE
  5
1727
330
1F
100
AcDbEntity
  8
0
100
AcDbLine
 10
124.0
 20
187.0
 30
0.0
 11
120.0
 21
187.0
 31
0.0
  0
LINE
  5
1728
330
1F
100
AcDbEntity
  8
0
100
AcDbLine
 10
120.0
 20
187.0
 30
0.0
 11
120.0
 21
183.0
 31
0.0
  0
LINE
  5
1729
330
1F
100
AcDbEntity
  8
0
100
AcDbLine
 10
120.0
 20
193.0
 30
0.0
 11
124.0
 21
193.0
 31
0.0
  0
LINE
  5
172A
330
1F
100
AcDbEntity
  8
0
100
AcDbLine
 10
124.0
 20
193.0
 30
0.0
 11
124.0
 21
197.0
 31
0.0
  0
LINE
  5
172B
330
1F
100
AcDbEntity
  8
0
100
AcDbLine
 10
124.0
 20
197.0
 30
0.0
 11
120.0
 21
197.0
 31
0.0
  0
LINE
  5
172C
330
1F
100
AcDbEntity
  8
0
100
AcDbLine
 10
120.0
 20
197.0
 30
0.0
 11
120.0
 21
193.0
 31
0.0
  0
LINE
  5
172D
330
1F
100
AcDbEntity
  8
0
100
AcDbLine
 10
120.0
 20
203.0
 30
0.0
 11
124.0
 21
203.0
 31
0.0
  0
LINE
  5
172E
330
1F
100
AcDbEntity
  8
0
100
AcDbLine
 10
124.0
 20
203.0
 30
0.0
 11
124.0
 21
207.0
 31
0.0
  0
LINE
  5
172F
330
1F
100
AcDbEntity
  8
0
100
AcDbLine
 10
124.0
 20
207.0
 30
0.0
 11
120.0
 21
207.0
 31
0.0
  0
LINE
  5
1730
330
1F
100
AcDbEntity
  8
0
100
AcDbLine
 10
120.0
 20
207.0
 30
0.0
 11
120.0
 21
203.0
 31
0.0
  0
LINE
  5
1731
330
1F
100
AcDbEntity
  8
0
100
AcDbLine
 10
120.0
 20
213.0
 30
0.0
 11
124.0
 21
213.0
 31
0.0
  0
LINE
  5
1732
330
1F
100
AcDbEntity
  8
0
100
AcDbLine
 10
124.0
 20
213.0
 30
0.0
 11
124.0
 21
217.0
 31
0.0
  0
LINE
  5
1733
330
1F
100
AcDbEntity
  8
0
100
AcDbLine
 10
124.0
 20
217.0
 30
0.0
 11
120.0
 21
217.0
 31
0.0
  0
LINE
  5
1734
330
1F
100
AcDbEntity
  8
0
100
AcDbLine
 10
120.0
 20
217.0
 30
0.0
 11
120.0
 21
213.0
 31
0.0
  0
LINE
  5
1735
330
1F
100
AcDbEntity
  8
0
100
AcDbLine
 10
120.0
 20
223.0
 30
0.0
 11
124.0
 21
223.0
 31
0.0
  0
LINE
  5
1736
330
1F
100
AcDbEntity
  8
0
100
AcDbLine
 10
124.0
 20
223.0
 30
0.0
 11
124.0
 21
227.0
 31
0.0
  0
LINE
  5
1737
330
1F
100
AcDbEntity
  8
0
100
AcDbLine
 10
124.0
 20
227.0
 30
0.0
 11
120.0
 21
227.0
 31
0.0
  0
LINE
  5
1738
330
1F
100
AcDbEntity
  8
0
100
AcDbLine
 10
120.0
 20
227.0
 30
0.0
 11
120.0
 21
223.0
 31
0.0
  0
LINE
  5
1739
330
1F
100
AcDbEntity
  8
0
100
AcDbLine
 10
120.0
 20
233.0
 30
0.0
 11
124.0
 21
233.0
 31
0.0
  0
LINE
  5
173A
330
1F
100
AcDbEntity
  8
0
100
AcDbLine
 10
124.0
 20
233.0
 30
0.0
 11
124.0
 21
237.0
 31
0.0
  0
LINE
  5
173B
330
1F
100
AcDbEntity
  8
0
100
AcDbLine
 10
124.0
 20
237.0
 30
0.0
 11
120.0
 21
237.0
 31
0.0
  0
LINE
  5
173C
330
1F
100
AcDbEntity
  8
0
100
AcDbLine
 10
120.0
 20
237.0
 30
0.0
 11
120.0
 21
233.0
 31
0.0
  0
LINE
  5
173D
330
1F
100
AcDbEntity
  8
0
100
AcDbLine
 10
120.0
 20
243.0
 30
0.0
 11
124.0
 21
243.0
 31
0.0
  0
LINE
  5
173E
330
1F
100
AcDbEntity
  8
0
100
AcDbLine
 10
124.0
 20
243.0
 30
0.0
 11
124.0
 21
247.0
 31
0.0
  0
LINE
  5
173F
330
1F
100
AcDbEntity
  8
0
100
AcDbLine
 10
124.0
 20
247.0
 30
0.0
 11
120.0
 21
247.0
 31
0.0
  0
LINE
  5
1740
330
1F
100
AcDbEntity
  8
0
100
AcDbLine
 10
120.0
 20
247.0
 30
0.0
 11
120.0
 21
243.0
 31
0.0
  0
LINE
  5
1741
330
1F
100
AcDbEntity
  8
0
100
AcDbLine
 10
120.0
 20
253.0
 30
0.0
 11
124.0
 21
253.0
 31
0.0
  0
LINE
  5
1742
330
1F
100
AcDbEntity
  8
0
100
AcDbLine
 10
124.0
 20
253.0
 30
0.0
 11
124.0
 21
257.0
 31
0.0
  0
LINE
  5
1743
330
1F
100
AcDbEntity
  8
0
100
AcDbLine
 10
124.0
 20
257.0
 30
0.0
 11
120.0
 21
257.0
 31
0.0
  0
LINE
  5
1744
330
1F
100
AcDbEntity
  8
0
100
AcDbLine
 10
120.0
 20
257.0
 30
0.0
 11
120.0
 21
253.0
 31
0.0
  0
LINE
  5
1745
330
1F
100
AcDbEntity
  8
0
100
AcDbLine
 10
120.0
 20
13.0
 30
0.0
 11
124.0
 21
13.0
 31
0.0
  0
LINE
  5
1746
330
1F
100
AcDbEntity
  8
0
100
AcDbLine
 10
124.0
 20
13.0
 30
0.0
 11
124.0
 21
17.0
 31
0.0
  0
LINE
  5
1747
330
1F
100
AcDbEntity
  8
0
100
AcDbLine
 10
124.0
 20
17.0
 30
0.0
 11
120.0
 21
17.0
 31
0.0
  0
LINE
  5
1748
330
1F
100
AcDbEntity
  8
0
100
AcDbLine
 10
120.0
 20
17.0
 30
0.0
 11
120.0
 21
13.0
 31
0.0
  0
LINE
  5
1749
330
1F
100
AcDbEntity
  8
0
100
AcDbLine
 10
140.0
 20
10.0
 30
0.0
 11
140.0
 21
20.0
 31
0.0
  0
LINE
  5
174A
330
1F
100
AcDbEntity
  8
0
100
AcDbLine
 10
140.0
 20
20.0
 30
0.0
 11
143.0
 21
20.0
 31
0.0
  0
LINE
  5
174B
330
1F
100
AcDbEntity
  8
0
100
AcDbLine
 10
143.0
 20
20.0
 30
0.0
 11
143.0
 21
30.0
 31
0.0
  0
LINE
  5
174C
330
1F
100
AcDbEntity
  8
0
100
AcDbLine
 10
143.0
 20
30.0
 30
0.0
 11
140.0
 21
30.0
 31
0.0
  0
LINE
  5
174D
330
1F
100
AcDbEntity
  8
0
100
AcDbLine
 10
140.0
 20
30.0
 30
0.0
 11
140.0
 21
40.0
 31
0.0
  0
LINE
  5
174E
330
1F
100
AcDbEntity
  8
0
100
AcDbLine
 10
140.0
 20
40.0
 30
0.0
 11
143.0
 21
40.0
 31
0.0
  0
LINE
  5
174F
330
1F
100
AcDbEntity
  8
0
100
AcDbLine
 10
143.0
 20
40.0
 30
0.0
 11
143.0
 21
50.0
 31
0.0
  0
LINE
  5
1750
330
1F
100
AcDbEntity
  8
0
100
AcDbLine
 10
143.0
 20
50.0
 30
0.0
 11
140.0
 21
50.0
 31
0.0
  0
LINE
  5
1751
330
1F
100
AcDbEntity
  8
0
100
AcDbLine
 10
140.0
 20
50.0
 30
0.0
 11
140.0
 21
60.0
 31
0.0
  0
LINE
  5
1752
330
1F
100
AcDbEntity
  8
0
100
AcDbLine
 10
140.0
 20
60.0
 30
0.0
 11
143.0
 21
60.0
 31
0.0
  0
LINE
  5
1753
330
1F
100
AcDbEntity
  8
0
100
AcDbLine
 10
143.0
 20
60.0
 30
0.0
 11
143.0
 21
70.0
 31
0.0
  0
LINE
  5
1754
330
1F
100
AcDbEntity
  8
0
100
AcDbLine
 10
143.0
 20
70.0
 30
0.0
 11
140.0
 21
70.0
 31
0.0
  0
LINE
  5
1755
330
1F
100
AcDbEntity
  8
0
100
AcDbLine
 10
140.0
 20
70.0
 30
0.0
 11
140.0
 21
80.0
 31
0.0
  0
LINE
  5
1756
330
1F
100
AcDbEntity
  8
0
100
AcDbLine
 10
140.0
 20
80.0
 30
0.0
 11
143.0
 21
80.0
 31
0.0
  0
LINE
  5
1757
330
1F
100
AcDbEntity
  8
0
100
AcDbLine
 10
143.0
 20
80.0
 30
0.0
 11
143.0
 21
90.0
 31
0.0
  0
LINE
  5
1758
330
1F
100
AcDbEntity
  8
0
100
AcDbLine
 10
143.0
 20
90.0
 30
0.0
 11
140.0
 21
90.0
 31
0.0
  0
LINE
  5
1759
330
1F
100
AcDbEntity
  8
0
100
AcDbLine
 10
140.0
 20
90.0
 30
0.0
 11
140.0
 21
100.0
 31
0.0
  0
LINE
  5
175A
330
1F
100
AcDbEntity
  8
0
100
AcDbLine
 10
140.0
 20
100.0
 30
0.0
 11
143.0
 21
100.0
 31
0.0
  0
LINE
  5
175B
330
1F
100
AcDbEntity
  8
0
100
AcDbLine
 10
143.0
 20
100.0
 30
0.0
 11
143.0
 21
110.0
 31
0.0
  0
LINE
  5
175C
330
1F
100
AcDbEntity
  8
0
100
AcDbLine
 10
143.0
 20
110.0
 30
0.0
 11
140.0
 21
110.0
 31
0.0
  0
LINE
  5
175D
330
1F
100
AcDbEntity
  8
0
100
AcDbLine
 10
140.0
 20
110.0
 30
0.0
 11
140.0
 21
120.0
 31
0.0
  0
LINE
  5
175E
330
1F
100
AcDbEntity
  8
0
100
AcDbLine
 10
140.0
 20
120.0
 30
0.0
 11
143.0
 21
120.0
 31
0.0
  0
LINE
  5
175F
330
1F
100
AcDbEntity
  8
0
100
AcDbLine
 10
143.0
 20
120.0
 30
0.0
 11
143.0
 21
130.0
 31
0.0
  0
LINE
  5
1760
330
1F
100
AcDbEntity
  8
0
100
AcDbLine
 10
143.0
 20
130.0
 30
0.0
 11
140.0
 21
130.0
 31
0.0
  0
LINE
  5
1761
330
1F
100
AcDbEntity
  8
0
100
AcDbLine
 10
140.0
 20
130.0
 30
0.0
 11
140.0
 21
140.0
 31
0.0
  0
LINE
  5
1762
330
1F
100
AcDbEntity
  8
0
100
AcDbLine
 10
140.0
 20
140.0
 30
0.0
 11
143.0
 21
140.0
 31
0.0
  0
LINE
  5
1763
330
1F
100
AcDbEntity
  8
0
100
AcDbLine
 10
143.0
 20
140.0
 30
0.0
 11
143.0
 21
150.0
 31
0.0
  0
LINE
  5
1764
330
1F
100
AcDbEntity
  8
0
100
AcDbLine
 10
143.0
 20
150.0
 30
0.0
 11
140.0
 21
150.0
 31
0.0
  0
LINE
  5
1765
330
1F
100
AcDbEntity
  8
0
100
AcDbLine
 10
140.0
 20
150.0
 30
0.0
 11
140.0
 21
160.0
 31
0.0
  0
LINE
  5
1766
330
1F
100
AcDbEntity
  8
0
100
AcDbLine
 10
140.0
 20
160.0
 30
0.0
 11
143.0
 21
160.0
 31
0.0
  0
LINE
  5
1767
330
1F
100
AcDbEntity
  8
0
100
AcDbLine
 10
143.0
 20
160.0
 30
0.0
 11
143.0
 21
170.0
 31
0.0
  0
LINE
  5
1768
330
1F
100
AcDbEntity
  8
0
100
AcDbLine
 10
143.0
 20
170.0
 30
0.0
 11
140.0
 21
170.0
 31
0.0
  0
LINE
  5
1769
330
1F
100
AcDbEntity
  8
0
100
AcDbLine
 10
140.0
 20
170.0
 30
0.0
 11
140.0
 21
180.0
 31
0.0
  0
LINE
  5
176A
330
1F
100
AcDbEntity
  8
0
100
AcDbLine
 10
140.0
 20
180.0
 30
0.0
 11
143.0
 21
180.0
 31
0.0
  0
LINE
  5
176B
330
1F
100
AcDbEntity
  8
0
100
AcDbLine
 10
143.0
 20
180.0
 30
0.0
 11
143.0
 21
190.0
 31
0.0
  0
LINE
  5
176C
330
1F
100
AcDbEntity
  8
0
100
AcDbLine
 10
143.0
 20
190.0
 30
0.0
 11
140.0
 21
190.0
 31
0.0
  0
LINE
  5
176D
330
1F
100
AcDbEntity
  8
0
100
AcDbLine
 10
140.0
 20
190.0
 30
0.0
 11
140.0
 21
200.0
 31
0.0
  0
LINE
  5
176E
330
1F
100
AcDbEntity
  8
0
100
AcDbLine
 10
140.0
 20
200.0
 30
0.0
 11
143.0
 21
200.0
 31
0.0
  0
LINE
  5
176F
330
1F
100
AcDbEntity
  8
0
100
AcDbLine
 10
143.0
 20
200.0
 30
0.0
 11
143.0
 21
210.0
 31
0.0
  0
LINE
  5
1770
330
1F
100
AcDbEntity
  8
0
100
AcDbLine
 10
143.0
 20
210.0
 30
0.0
 11
140.0
 21
210.0
 31
0.0
  0
LINE
  5
1771
330
1F
100
AcDbEntity
  8
0
100
AcDbLine
 10
140.0
 20
210.0
 30
0.0
 11
140.0
 21
220.0
 31
0.0
  0
LINE
  5
1772
330
1F
100
AcDbEntity
  8
0
100
AcDbLine
 10
140.0
 20
220.0
 30
0.0
 11
143.0
 21
220.0
 31
0.0
  0
LINE
  5
1773
330
1F
100
AcDbEntity
  8
0
100
AcDbLine
 10
143.0
 20
220.0
 30
0.0
 11
143.0
 21
230.0
 31
0.0
  0
LINE
  5
1774
330
1F
100
AcDbEntity
  8
0
100
AcDbLine
 10
143.0
 20
230.0
 30
0.0
 11
140.0
 21
230.0
 31
0.0
  0
LINE
  5
1775
330
1F
100
AcDbEntity
  8
0
100
AcDbLine
 10
140.0
 20
230.0
 30
0.0
 11
140.0
 21
240.0
 31
0.0
  0
LINE
  5
1776
330
1F
100
AcDbEntity
  8
0
100
AcDbLine
 10
140.0
 20
240.0
 30
0.0
 11
143.0
 21
240.0
 31
0.0
  0
LINE
  5
1777
330
1F
100
AcDbEntity
  8
0
100
AcDbLine
 10
143.0
 20
240.0
 30
0.0
 11
143.0
 21
250.0
 31
0.0
  0
LINE
  5
1778
330
1F
100
AcDbEntity
  8
0
100
AcDbLine
 10
143.0
 20
250.0
 30
0.0
 11
140.0
 21
250.0
 31
0.0
  0
LINE
  5
1779
330
1F
100
AcDbEntity
  8
0
100
AcDbLine
 10
140.0
 20
250.0
 30
0.0
 11
140.0
 21
260.0
 31
0.0
  0
LINE
  5
177A
330
1F
100
AcDbEntity
  8
0
100
AcDbLine
 10
140.0
 20
260.0
 30
0.0
 11
140.0
 21
263.0
 31
0.0
  0
LINE
  5
177B
330
1F
100
AcDbEntity
  8
0
100
AcDbLine
 10
170.0
 20
263.0
 30
0.0
 11
170.0
 21
250.0
 31
0.0
  0
LINE
  5
177C
330
1F
100
AcDbEntity
  8
0
100
AcDbLine
 10
170.0
 20
250.0
 30
0.0
 11
167.0
 21
250.0
 31
0.0
  0
LINE
  5
177D
330
1F
100
AcDbEntity
  8
0
100
AcDbLine
 10
167.0
 20
250.0
 30
0.0
 11
167.0
 21
240.0
 31
0.0
  0
LINE
  5
177E
330
1F
100
AcDbEntity
  8
0
100
AcDbLine
 10
167.0
 20
240.0
 30
0.0
 11
170.0
 21
240.0
 31
0.0
  0
LINE
  5
177F
330
1F
100
AcDbEntity
  8
0
100
AcDbLine
 10
170.0
 20
240.0
 30
0.0
 11
170.0
 21
230.0
 31
0.0
  0
LINE
  5
1780
330
1F
100
AcDbEntity
  8
0
100
AcDbLine
 10
170.0
 20
230.0
 30
0.0
 11
167.0
 21
230.0
 31
0.0
  0
LINE
  5
1781
330
1F
100
AcDbEntity
  8
0
100
AcDbLine
 10
167.0
 20
230.0
 30
0.0
 11
167.0
 21
220.0
 31
0.0
  0
LINE
  5
1782
330
1F
100
AcDbEntity
  8
0
100
AcDbLine
 10
167.0
 20
220.0
 30
0.0
 11
170.0
 21
220.0
 31
0.0
  0
LINE
  5
1783
330
1F
100
AcDbEntity
  8
0
100
AcDbLine
 10
170.0
 20
220.0
 30
0.0
 11
170.0
 21
210.0
 31
0.0
  0
LINE
  5
1784
330
1F
100
AcDbEntity
  8
0
100
AcDbLine
 10
170.0
 20
210.0
 30
0.0
 11
167.0
 21
210.0
 31
0.0
  0
LINE
  5
1785
330
1F
100
AcDbEntity
  8
0
100
AcDbLine
 10
167.0
 20
210.0
 30
0.0
 11
167.0
 21
200.0
 31
0.0
  0
LINE
  5
1786
330
1F
100
AcDbEntity
  8
0
100
AcDbLine
 10
167.0
 20
200.0
 30
0.0
 11
170.0
 21
200.0
 31
0.0
  0
LINE
  5
1787
330
1F
100
AcDbEntity
  8
0
100
AcDbLine
 10
170.0
 20
200.0
 30
0.0
 11
170.0
 21
190.0
 31
0.0
  0
LINE
  5
1788
330
1F
100
AcDbEntity
  8
0
100
AcDbLine
 10
170.0
 20
190.0
 30
0.0
 11
167.0
 21
190.0
 31
0.0
  0
LINE
  5
1789
330
1F
100
AcDbEntity
  8
0
100
AcDbLine
 10
167.0
 20
190.0
 30
0.0
 11
167.0
 21
180.0
 31
0.0
  0
LINE
  5
178A
330
1F
100
AcDbEntity
  8
0
100
AcDbLine
 10
167.0
 20
180.0
 30
0.0
 11
170.0
 21
180.0
 31
0.0
  0
LINE
  5
178B
330
1F
100
AcDbEntity
  8
0
100
AcDbLine
 10
170.0
 20
180.0
 30
0.0
 11
170.0
 21
170.0
 31
0.0
  0
LINE
  5
178C
330
1F
100
AcDbEntity
  8
0
100
AcDbLine
 10
170.0
 20
170.0
 30
0.0
 11
167.0
 21
170.0
 31
0.0
  0
LINE
  5
178D
330
1F
100
AcDbEntity
  8
0
100
AcDbLine
 10
167.0
 20
170.0
 30
0.0
 11
167.0
 21
160.0
 31
0.0
  0
LINE
  5
178E
330
1F
100
AcDbEntity
  8
0
100
AcDbLine
 10
167.0
 20
160.0
 30
0.0
 11
170.0
 21
160.0
 31
0.0
  0
LINE
  5
178F
330
1F
100
AcDbEntity
  8
0
100
AcDbLine
 10
170.0
 20
160.0
 30
0.0
 11
170.0
 21
150.0
 31
0.0
  0
LINE
  5
1790
330
1F
100
AcDbEntity
  8
0
100
AcDbLine
 10
170.0
 20
150.0
 30
0.0
 11
167.0
 21
150.0
 31
0.0
  0
LINE
  5
1791
330
1F
100
AcDbEntity
  8
0
100
AcDbLine
 10
167.0
 20
150.0
 30
0.0
 11
167.0
 21
140.0
 31
0.0
  0
LINE
  5
1792
330
1F
100
AcDbEntity
  8
0
100
AcDbLine
 10
167.0
 20
140.0
 30
0.0
 11
170.0
 21
140.0
 31
0.0
  0
LINE
  5
1793
330
1F
100
AcDbEntity
  8
0
100
AcDbLine
 10
170.0
 20
140.0
 30
0.0
 11
170.0
 21
130.0
 31
0.0
  0
LINE
  5
1794
330
1F
100
AcDbEntity
  8
0
100
AcDbLine
 10
170.0
 20
130.0
 30
0.0
 11
167.0
 21
130.0
 31
0.0
  0
LINE
  5
1795
330
1F
100
AcDbEntity
  8
0
100
AcDbLine
 10
167.0
 20
130.0
 30
0.0
 11
167.0
 21
120.0
 31
0.0
  0
LINE
  5
1796
330
1F
100
AcDbEntity
  8
0
100
AcDbLine
 10
167.0
 20
120.0
 30
0.0
 11
170.0
 21
120.0
 31
0.0
  0
LINE
  5
1797
330
1F
100
AcDbEntity
  8
0
100
AcDbLine
 10
170.0
 20
120.0
 30
0.0
 11
170.0
 21
110.0
 31
0.0
  0
LINE
  5
1798
330
1F
100
AcDbEntity
  8
0
100
AcDbLine
 10
170.0
 20
110.0
 30
0.0
 11
167.0
 21
110.0
 31
0.0
  0
LINE
  5
1799
330
1F
100
AcDbEntity
  8
0
100
AcDbLine
 10
167.0
 20
110.0
 30
0.0
 11
167.0
 21
100.0
 31
0.0
  0
LINE
  5
179A
330
1F
100
AcDbEntity
  8
0
100
AcDbLine
 10
167.0
 20
100.0
 30
0.0
 11
170.0
 21
100.0
 31
0.0
  0
LINE
  5
179B
330
1F
100
AcDbEntity
  8
0
100
AcDbLine
 10
170.0
 20
100.0
 30
0.0
 11
170.0
 21
90.0
 31
0.0
  0
LINE
  5
179C
330
1F
100
AcDbEntity
  8
0
100
AcDbLine
 10
170.0
 20
90.0
 30
0.0
 11
167.0
 21
90.0
 31
0.0
  0
LINE
  5
179D
330
1F
100
AcDbEntity
  8
0
100
AcDbLine
 10
167.0
 20
90.0
 30
0.0
 11
167.0
 21
80.0
 31
0.0
  0
LINE
  5
179E
330
1F
100
AcDbEntity
  8
0
100
AcDbLine
 10
167.0
 20
80.0
 30
0.0
 11
170.0
 21
80.0
 31
0.0
  0
LINE
  5
179F
330
1F
100
AcDbEntity
  8
0
100
AcDbLine
 10
170.0
 20
80.0
 30
0.0
 11
170.0
 21
70.0
 31
0.0
  0
LINE
  5
17A0
330
1F
100
AcDbEntity
  8
0
100
AcDbLine
 10
170.0
 20
70.0
 30
0.0
 11
167.0
 21
70.0
 31
0.0
  0
LINE
  5
17A1
330
1F
100
AcDbEntity
  8
0
100
AcDbLine
 10
167.0
 20
70.0
 30
0.0
 11
167.0
 21
60.0
 31
0.0
  0
LINE
  5
17A2
330
1F
100
AcDbEntity
  8
0
100
AcDbLine
 10
167.0
 20
60.0
 30
0.0
 11
170.0
 21
60.0
 31
0.0
  0
LINE
  5
17A3
330
1F
100
AcDbEntity
  8
0
100
AcDbLine
 10
170.0
 20
60.0
 30
0.0
 11
170.0
 21
50.0
 31
0.0
  0
LINE
  5
17A4
330
1F
100
AcDbEntity
  8
0
100
AcDbLine
 10
170.0
 20
50.0
 30
0.0
 11
167.0
 21
50.0
 31
0.0
  0
LINE
  5
17A5
330
1F
100
AcDbEntity
  8
0
100
AcDbLine
 10
167.0
 20
50.0
 30
0.0
 11
167.0
 21
40.0
 31
0.0
  0
LINE
  5
17A6
330
1F
100
AcDbEntity
  8
0
100
AcDbLine
 10
167.0
 20
40.0
 30
0.0
 11
170.0
 21
40.0
 31
0.0
  0
LINE
  5
17A7
330
1F
100
AcDbEntity
  8
0
100
AcDbLine
 10
170.0
 20
40.0
 30
0.0
 11
170.0
 21
30.0
 31
0.0
  0
LINE
  5
17A8
330
1F
100
AcDbEntity
  8
0
100
AcDbLine
 10
170.0
 20
30.0
 30
0.0
 11
167.0
 21
30.0
 31
0.0
  0
LINE
  5
17A9
330
1F
100
AcDbEntity
  8
0
100
AcDbLine
 10
167.0
 20
30.0
 30
0.0
 11
167.0
 21
20.0
 31
0.0
  0
LINE
  5
17AA
330
1F
100
AcDbEntity
  8
0
100
AcDbLine
 10
167.0
 20
20.0
 30
0.0
 11
170.0
 21
20.0
 31
0.0
  0
LINE
  5
17AB
330
1F
100
AcDbEntity
  8
0
100
AcDbLine
 10
170.0
 20
20.0
 30
0.0
 11
170.0
 21
7.0
 31
0.0
  0
LINE
  5
17AC
330
1F
100
AcDbEntity
  8
0
100
AcDbLine
 10
140.0
 20
7.0
 30
0.0
 11
140.0
 21
10.0
 31
0.0
  0
LINE
  5
17AD
330
1F
100
AcDbEntity
  8
0
100
AcDbLine
 10
140.0
 20
7.0
 30
0.0
 11
170.0
 21
7.0
 31
0.0
  0
LINE
  5
17AE
330
1F
100
AcDbEntity
  8
0
100
AcDbLine
 10
140.0
 20
263.0
 30
0.0
 11
170.0
 21
263.0
 31
0.0
  0
LINE
  5
17AF
330
1F
100
AcDbEntity
  8
0
100
AcDbLine
 10
153.0
 20
23.0
 30
0.0
 11
157.0
 21
23.0
 31
0.0
  0
LINE
  5
17B0
330
1F
100
AcDbEntity
  8
0
100
AcDbLine
 10
157.0
 20
23.0
 30
0.0
 11
157.0
 21
27.0
 31
0.0
  0
LINE
  5
17B1
330
1F
100
AcDbEntity
  8
0
100
AcDbLine
 10
157.0
 20
27.0
 30
0.0
 11
153.0
 21
27.0
 31
0.0
  0
LINE
  5
17B2
330
1F
100
AcDbEntity
  8
0
100
AcDbLine
 10
153.0
 20
27.0
 30
0.0
 11
153.0
 21
23.0
 31
0.0
  0
LINE
  5
17B3
330
1F
100
AcDbEntity
  8
0
100
AcDbLine
 10
153.0
 20
33.0
 30
0.0
 11
157.0
 21
33.0
 31
0.0
  0
LINE
  5
17B4
330
1F
100
AcDbEntity
  8
0
100
AcDbLine
 10
157.0
 20
33.0
 30
0.0
 11
157.0
 21
37.0
 31
0.0
  0
LINE
  5
17B5
330
1F
100
AcDbEntity
  8
0
100
AcDbLine
 10
157.0
 20
37.0
 30
0.0
 11
153.0
 21
37.0
 31
0.0
  0
LINE
  5
17B6
330
1F
100
AcDbEntity
  8
0
100
AcDbLine
 10
153.0
 20
37.0
 30
0.0
 11
153.0
 21
33.0
 31
0.0
  0
LINE
  5
17B7
330
1F
100
AcDbEntity
  8
0
100
AcDbLine
 10
153.0
 20
43.0
 30
0.0
 11
157.0
 21
43.0
 31
0.0
  0
LINE
  5
17B8
330
1F
100
AcDbEntity
  8
0
100
AcDbLine
 10
157.0
 20
43.0
 30
0.0
 11
157.0
 21
47.0
 31
0.0
  0
LINE
  5
17B9
330
1F
100
AcDbEntity
  8
0
100
AcDbLine
 10
157.0
 20
47.0
 30
0.0
 11
153.0
 21
47.0
 31
0.0
  0
LINE
  5
17BA
330
1F
100
AcDbEntity
  8
0
100
AcDbLine
 10
153.0
 20
47.0
 30
0.0
 11
153.0
 21
43.0
 31
0.0
  0
LINE
  5
17BB
330
1F
100
AcDbEntity
  8
0
100
AcDbLine
 10
153.0
 20
53.0
 30
0.0
 11
157.0
 21
53.0
 31
0.0
  0
LINE
  5
17BC
330
1F
100
AcDbEntity
  8
0
100
AcDbLine
 10
157.0
 20
53.0
 30
0.0
 11
157.0
 21
57.0
 31
0.0
  0
LINE
  5
17BD
330
1F
100
AcDbEntity
  8
0
100
AcDbLine
 10
157.0
 20
57.0
 30
0.0
 11
153.0
 21
57.0
 31
0.0
  0
LINE
  5
17BE
330
1F
100
AcDbEntity
  8
0
100
AcDbLine
 10
153.0
 20
57.0
 30
0.0
 11
153.0
 21
53.0
 31
0.0
  0
LINE
  5
17BF
330
1F
100
AcDbEntity
  8
0
100
AcDbLine
 10
153.0
 20
63.0
 30
0.0
 11
157.0
 21
63.0
 31
0.0
  0
LINE
  5
17C0
330
1F
100
AcDbEntity
  8
0
100
AcDbLine
 10
157.0
 20
63.0
 30
0.0
 11
157.0
 21
67.0
 31
0.0
  0
LINE
  5
17C1
330
1F
100
AcDbEntity
  8
0
100
AcDbLine
 10
157.0
 20
67.0
 30
0.0
 11
153.0
 21
67.0
 31
0.0
  0
LINE
  5
17C2
330
1F
100
AcDbEntity
  8
0
100
AcDbLine
 10
153.0
 20
67.0
 30
0.0
 11
153.0
 21
63.0
 31
0.0
  0
LINE
  5
17C3
330
1F
100
AcDbEntity
  8
0
100
AcDbLine
 10
153.0
 20
73.0
 30
0.0
 11
157.0
 21
73.0
 31
0.0
  0
LINE
  5
17C4
330
1F
100
AcDbEntity
  8
0
100
AcDbLine
 10
157.0
 20
73.0
 30
0.0
 11
157.0
 21
77.0
 31
0.0
  0
LINE
  5
17C5
330
1F
100
AcDbEntity
  8
0
100
AcDbLine
 10
157.0
 20
77.0
 30
0.0
 11
153.0
 21
77.0
 31
0.0
  0
LINE
  5
17C6
330
1F
100
AcDbEntity
  8
0
100
AcDbLine
 10
153.0
 20
77.0
 30
0.0
 11
153.0
 21
73.0
 31
0.0
  0
LINE
  5
17C7
330
1F
100
AcDbEntity
  8
0
100
AcDbLine
 10
153.0
 20
83.0
 30
0.0
 11
157.0
 21
83.0
 31
0.0
  0
LINE
  5
17C8
330
1F
100
AcDbEntity
  8
0
100
AcDbLine
 10
157.0
 20
83.0
 30
0.0
 11
157.0
 21
87.0
 31
0.0
  0
LINE
  5
17C9
330
1F
100
AcDbEntity
  8
0
100
AcDbLine
 10
157.0
 20
87.0
 30
0.0
 11
153.0
 21
87.0
 31
0.0
  0
LINE
  5
17CA
330
1F
100
AcDbEntity
  8
0
100
AcDbLine
 10
153.0
 20
87.0
 30
0.0
 11
153.0
 21
83.0
 31
0.0
  0
LINE
  5
17CB
330
1F
100
AcDbEntity
  8
0
100
AcDbLine
 10
153.0
 20
93.0
 30
0.0
 11
157.0
 21
93.0
 31
0.0
  0
LINE
  5
17CC
330
1F
100
AcDbEntity
  8
0
100
AcDbLine
 10
157.0
 20
93.0
 30
0.0
 11
157.0
 21
97.0
 31
0.0
  0
LINE
  5
17CD
330
1F
100
AcDbEntity
  8
0
100
AcDbLine
 10
157.0
 20
97.0
 30
0.0
 11
153.0
 21
97.0
 31
0.0
  0
LINE
  5
17CE
330
1F
100
AcDbEntity
  8
0
100
AcDbLine
 10
153.0
 20
97.0
 30
0.0
 11
153.0
 21
93.0
 31
0.0
  0
LINE
  5
17CF
330
1F
100
AcDbEntity
  8
0
100
AcDbLine
 10
153.0
 20
103.0
 30
0.0
 11
157.0
 21
103.0
 31
0.0
  0
LINE
  5
17D0
330
1F
100
AcDbEntity
  8
0
100
AcDbLine
 10
157.0
 20
103.0
 30
0.0
 11
157.0
 21
107.0
 31
0.0
  0
LINE
  5
17D1
330
1F
100
AcDbEntity
  8
0
100
AcDbLine
 10
157.0
 20
107.0
 30
0.0
 11
153.0
 21
107.0
 31
0.0
  0
LINE
  5
17D2
330
1F
100
AcDbEntity
  8
0
100
AcDbLine
 10
153.0
 20
107.0
 30
0.0
 11
153.0
 21
103.0
 31
0.0
  0
LINE
  5
17D3
330
1F
100
AcDbEntity
  8
0
100
AcDbLine
 10
153.0
 20
113.0
 30
0.0
 11
157.0
 21
113.0
 31
0.0
  0
LINE
  5
17D4
330
1F
100
AcDbEntity
  8
0
100
AcDbLine
 10
157.0
 20
113.0
 30
0.0
 11
157.0
 21
117.0
 31
0.0
  0
LINE
  5
17D5
330
1F
100
AcDbEntity
  8
0
100
AcDbLine
 10
157.0
 20
117.0
 30
0.0
 11
153.0
 21
117.0
 31
0.0
  0
LINE
  5
17D6
330
1F
100
AcDbEntity
  8
0
100
AcDbLine
 10
153.0
 20
117.0
 30
0.0
 11
153.0
 21
113.0
 31
0.0
  0
LINE
  5
17D7
330
1F
100
AcDbEntity
  8
0
100
AcDbLine
 10
153.0
 20
123.0
 30
0.0
 11
157.0
 21
123.0
 31
0.0
  0
LINE
  5
17D8
330
1F
100
AcDbEntity
  8
0
100
AcDbLine
 10
157.0
 20
123.0
 30
0.0
 11
157.0
 21
127.0
 31
0.0
  0
LINE
  5
17D9
330
1F
100
AcDbEntity
  8
0
100
AcDbLine
 10
157.0
 20
127.0
 30
0.0
 11
153.0
 21
127.0
 31
0.0
  0
LINE
  5
17DA
330
1F
100
AcDbEntity
  8
0
100
AcDbLine
 10
153.0
 20
127.0
 30
0.0
 11
153.0
 21
123.0
 31
0.0
  0
LINE
  5
17DB
330
1F
100
AcDbEntity
  8
0
100
AcDbLine
 10
153.0
 20
133.0
 30
0.0
 11
157.0
 21
133.0
 31
0.0
  0
LINE
  5
17DC
330
1F
100
AcDbEntity
  8
0
100
AcDbLine
 10
157.0
 20
133.0
 30
0.0
 11
157.0
 21
137.0
 31
0.0
  0
LINE
  5
17DD
330
1F
100
AcDbEntity
  8
0
100
AcDbLine
 10
157.0
 20
137.0
 30
0.0
 11
153.0
 21
137.0
 31
0.0
  0
LINE
  5
17DE
330
1F
100
AcDbEntity
  8
0
100
AcDbLine
 10
153.0
 20
137.0
 30
0.0
 11
153.0
 21
133.0
 31
0.0
  0
LINE
  5
17DF
330
1F
100
AcDbEntity
  8
0
100
AcDbLine
 10
153.0
 20
143.0
 30
0.0
 11
157.0
 21
143.0
 31
0.0
  0
LINE
  5
17E0
330
1F
100
AcDbEntity
  8
0
100
AcDbLine
 10
157.0
 20
143.0
 30
0.0
 11
157.0
 21
147.0
 31
0.0
  0
LINE
  5
17E1
330
1F
100
AcDbEntity
  8
0
100
AcDbLine
 10
157.0
 20
147.0
 30
0.0
 11
153.0
 21
147.0
 31
0.0
  0
LINE
  5
17E2
330
1F
100
AcDbEntity
  8
0
100
AcDbLine
 10
153.0
 20
147.0
 30
0.0
 11
153.0
 21
143.0
 31
0.0
  0
LINE
  5
17E3
330
1F
100
AcDbEntity
  8
0
100
AcDbLine
 10
153.0
 20
153.0
 30
0.0
 11
157.0
 21
153.0
 31
0.0
  0
LINE
  5
17E4
330
1F
100
AcDbEntity
  8
0
100
AcDbLine
 10
157.0
 20
153.0
 30
0.0
 11
157.0
 21
157.0
 31
0.0
  0
LINE
  5
17E5
330
1F
100
AcDbEntity
  8
0
100
AcDbLine
 10
157.0
 20
157.0
 30
0.0
 11
153.0
 21
157.0
 31
0.0
  0
LINE
  5
17E6
330
1F
100
AcDbEntity
  8
0
100
AcDbLine
 10
153.0
 20
157.0
 30
0.0
 11
153.0
 21
153.0
 31
0.0
  0
LINE
  5
17E7
330
1F
100
AcDbEntity
  8
0
100
AcDbLine
 10
153.0
 20
163.0
 30
0.0
 11
157.0
 21
163.0
 31
0.0
  0
LINE
  5
17E8
330
1F
100
AcDbEntity
  8
0
100
AcDbLine
 10
157.0
 20
163.0
 30
0.0
 11
157.0
 21
167.0
 31
0.0
  0
LINE
  5
17E9
330
1F
100
AcDbEntity
  8
0
100
AcDbLine
 10
157.0
 20
167.0
 30
0.0
 11
153.0
 21
167.0
 31
0.0
  0
LINE
  5
17EA
330
1F
100
AcDbEntity
  8
0
100
AcDbLine
 10
153.0
 20
167.0
 30
0.0
 11
153.0
 21
163.0
 31
0.0
  0
LINE
  5
17EB
330
1F
100
AcDbEntity
  8
0
100
AcDbLine
 10
153.0
 20
173.0
 30
0.0
 11
157.0
 21
173.0
 31
0.0
  0
LINE
  5
17EC
330
1F
100
AcDbEntity
  8
0
100
AcDbLine
 10
157.0
 20
173.0
 30
0.0
 11
157.0
 21
177.0
 31
0.0
  0
LINE
  5
17ED
330
1F
100
AcDbEntity
  8
0
100
AcDbLine
 10
157.0
 20
177.0
 30
0.0
 11
153.0
 21
177.0
 31
0.0
  0
LINE
  5
17EE
330
1F
100
AcDbEntity
  8
0
100
AcDbLine
 10
153.0
 20
177.0
 30
0.0
 11
153.0
 21
173.0
 31
0.0
  0
LINE
  5
17EF
330
1F
100
AcDbEntity
  8
0
100
AcDbLine
 10
153.0
 20
183.0
 30
0.0
 11
157.0
 21
183.0
 31
0.0
  0
LINE
  5
17F0
330
1F
100
AcDbEntity
  8
0
100
AcDbLine
 10
157.0
 20
183.0
 30
0.0
 11
157.0
 21
187.0
 31
0.0
  0
LINE
  5
17F1
330
1F
100
AcDbEntity
  8
0
100
AcDbLine
 10
157.0
 20
187.0
 30
0.0
 11
153.0
 21
187.0
 31
0.0
  0
LINE
  5
17F2
330
1F
100
AcDbEntity
  8
0
100
AcDbLine
 10
153.0
 20
187.0
 30
0.0
 11
153.0
 21
183.0
 31
0.0
  0
LINE
  5
17F3
330
1F
100
AcDbEntity
  8
0
100
AcDbLine
 10
153.0
 20
193.0
 30
0.0
 11
157.0
 21
193.0
 31
0.0
  0
LINE
  5
17F4
330
1F
100
AcDbEntity
  8
0
100
AcDbLine
 10
157.0
 20
193.0
 30
0.0
 11
157.0
 21
197.0
 31
0.0
  0
LINE
  5
17F5
330
1F
100
AcDbEntity
  8
0
100
AcDbLine
 10
157.0
 20
197.0
 30
0.0
 11
153.0
 21
197.0
 31
0.0
  0
LINE
  5
17F6
330
1F
100
AcDbEntity
  8
0
100
AcDbLine
 10
153.0
 20
197.0
 30
0.0
 11
153.0
 21
193.0
 31
0.0
  0
LINE
  5
17F7
330
1F
100
AcDbEntity
  8
0
100
AcDbLine
 10
153.0
 20
203.0
 30
0.0
 11
157.0
 21
203.0
 31
0.0
  0
LINE
  5
17F8
330
1F
100
AcDbEntity
  8
0
100
AcDbLine
 10
157.0
 20
203.0
 30
0.0
 11
157.0
 21
207.0
 31
0.0
  0
LINE
  5
17F9
330
1F
100
AcDbEntity
  8
0
100
AcDbLine
 10
157.0
 20
207.0
 30
0.0
 11
153.0
 21
207.0
 31
0.0
  0
LINE
  5
17FA
330
1F
100
AcDbEntity
  8
0
100
AcDbLine
 10
153.0
 20
207.0
 30
0.0
 11
153.0
 21
203.0
 31
0.0
  0
LINE
  5
17FB
330
1F
100
AcDbEntity
  8
0
100
AcDbLine
 10
153.0
 20
213.0
 30
0.0
 11
157.0
 21
213.0
 31
0.0
  0
LINE
  5
17FC
330
1F
100
AcDbEntity
  8
0
100
AcDbLine
 10
157.0
 20
213.0
 30
0.0
 11
157.0
 21
217.0
 31
0.0
  0
LINE
  5
17FD
330
1F
100
AcDbEntity
  8
0
100
AcDbLine
 10
157.0
 20
217.0
 30
0.0
 11
153.0
 21
217.0
 31
0.0
  0
LINE
  5
17FE
330
1F
100
AcDbEntity
  8
0
100
AcDbLine
 10
153.0
 20
217.0
 30
0.0
 11
153.0
 21
213.0
 31
0.0
  0
LINE
  5
17FF
330
1F
100
AcDbEntity
  8
0
100
AcDbLine
 10
153.0
 20
223.0
 30
0.0
 11
157.0
 21
223.0
 31
0.0
  0
LINE
  5
1800
330
1F
100
AcDbEntity
  8
0
100
AcDbLine
 10
157.0
 20
223.0
 30
0.0
 11
157.0
 21
227.0
 31
0.0
  0
LINE
  5
1801
330
1F
100
AcDbEntity
  8
0
100
AcDbLine
 10
157.0
 20
227.0
 30
0.0
 11
153.0
 21
227.0
 31
0.0
  0
LINE
  5
1802
330
1F
100
AcDbEntity
  8
0
100
AcDbLine
 10
153.0
 20
227.0
 30
0.0
 11
153.0
 21
223.0
 31
0.0
  0
LINE
  5
1803
330
1F
100
AcDbEntity
  8
0
100
AcDbLine
 10
153.0
 20
233.0
 30
0.0
 11
157.0
 21
233.0
 31
0.0
  0
LINE
  5
1804
330
1F
100
AcDbEntity
  8
0
100
AcDbLine
 10
157.0
 20
233.0
 30
0.0
 11
157.0
 21
237.0
 31
0.0
  0
LINE
  5
1805
330
1F
100
AcDbEntity
  8
0
100
AcDbLine
 10
157.0
 20
237.0
 30
0.0
 11
153.0
 21
237.0
 31
0.0
  0
LINE
  5
1806
330
1F
100
AcDbEntity
  8
0
100
AcDbLine
 10
153.0
 20
237.0
 30
0.0
 11
153.0
 21
233.0
 31
0.0
  0
LINE
  5
1807
330
1F
100
AcDbEntity
  8
0
100
AcDbLine
 10
153.0
 20
243.0
 30
0.0
 11
157.0
 21
243.0
 31
0.0
  0
LINE
  5
1808
330
1F
100
AcDbEntity
  8
0
100
AcDbLine
 10
157.0
 20
243.0
 30
0.0
 11
157.0
 21
247.0
 31
0.0
  0
LINE
  5
1809
330
1F
100
AcDbEntity
  8
0
100
AcDbLine
 10
157.0
 20
247.0
 30
0.0
 11
153.0
 21
247.0
 31
0.0
  0
LINE
  5
180A
330
1F
100
AcDbEntity
  8
0
100
AcDbLine
 10
153.0
 20
247.0
 30
0.0
 11
153.0
 21
243.0
 31
0.0
  0
LINE
  5
180B
330
1F
100
AcDbEntity
  8
0
100
AcDbLine
 10
153.0
 20
253.0
 30
0.0
 11
157.0
 21
253.0
 31
0.0
  0
LINE
  5
180C
330
1F
100
AcDbEntity
  8
0
100
AcDbLine
 10
157.0
 20
253.0
 30
0.0
 11
157.0
 21
257.0
 31
0.0
  0
LINE
  5
180D
330
1F
100
AcDbEntity
  8
0
100
AcDbLine
 10
157.0
 20
257.0
 30
0.0
 11
153.0
 21
257.0
 31
0.0
  0
LINE
  5
180E
330
1F
100
AcDbEntity
  8
0
100
AcDbLine
 10
153.0
 20
257.0
 30
0.0
 11
153.0
 21
253.0
 31
0.0
  0
LINE
  5
180F
330
1F
100
AcDbEntity
  8
0
100
AcDbLine
 10
153.0
 20
13.0
 30
0.0
 11
157.0
 21
13.0
 31
0.0
  0
LINE
  5
1810
330
1F
100
AcDbEntity
  8
0
100
AcDbLine
 10
157.0
 20
13.0
 30
0.0
 11
157.0
 21
17.0
 31
0.0
  0
LINE
  5
1811
330
1F
100
AcDbEntity
  8
0
100
AcDbLine
 10
157.0
 20
17.0
 30
0.0
 11
153.0
 21
17.0
 31
0.0
  0
LINE
  5
1812
330
1F
100
AcDbEntity
  8
0
100
AcDbLine
 10
153.0
 20
17.0
 30
0.0
 11
153.0
 21
13.0
 31
0.0
  0
LINE
  5
18AF
330
1F
100
AcDbEntity
  8
0
100
AcDbLine
 10
60.0
 20
10.0
 30
0.0
 11
60.0
 21
20.0
 31
0.0
  0
LINE
  5
18B0
330
1F
100
AcDbEntity
  8
0
100
AcDbLine
 10
60.0
 20
20.0
 30
0.0
 11
57.0
 21
20.0
 31
0.0
  0
LINE
  5
18B1
330
1F
100
AcDbEntity
  8
0
100
AcDbLine
 10
57.0
 20
20.0
 30
0.0
 11
57.0
 21
30.0
 31
0.0
  0
LINE
  5
18B2
330
1F
100
AcDbEntity
  8
0
100
AcDbLine
 10
57.0
 20
30.0
 30
0.0
 11
60.0
 21
30.0
 31
0.0
  0
LINE
  5
18B3
330
1F
100
AcDbEntity
  8
0
100
AcDbLine
 10
60.0
 20
30.0
 30
0.0
 11
60.0
 21
40.0
 31
0.0
  0
LINE
  5
18B4
330
1F
100
AcDbEntity
  8
0
100
AcDbLine
 10
60.0
 20
40.0
 30
0.0
 11
57.0
 21
40.0
 31
0.0
  0
LINE
  5
18B5
330
1F
100
AcDbEntity
  8
0
100
AcDbLine
 10
57.0
 20
40.0
 30
0.0
 11
57.0
 21
50.0
 31
0.0
  0
LINE
  5
18B6
330
1F
100
AcDbEntity
  8
0
100
AcDbLine
 10
57.0
 20
50.0
 30
0.0
 11
60.0
 21
50.0
 31
0.0
  0
LINE
  5
18B7
330
1F
100
AcDbEntity
  8
0
100
AcDbLine
 10
60.0
 20
50.0
 30
0.0
 11
60.0
 21
60.0
 31
0.0
  0
LINE
  5
18B8
330
1F
100
AcDbEntity
  8
0
100
AcDbLine
 10
60.0
 20
60.0
 30
0.0
 11
57.0
 21
60.0
 31
0.0
  0
LINE
  5
18B9
330
1F
100
AcDbEntity
  8
0
100
AcDbLine
 10
57.0
 20
60.0
 30
0.0
 11
57.0
 21
70.0
 31
0.0
  0
LINE
  5
18BA
330
1F
100
AcDbEntity
  8
0
100
AcDbLine
 10
57.0
 20
70.0
 30
0.0
 11
60.0
 21
70.0
 31
0.0
  0
LINE
  5
18BB
330
1F
100
AcDbEntity
  8
0
100
AcDbLine
 10
60.0
 20
70.0
 30
0.0
 11
60.0
 21
80.0
 31
0.0
  0
LINE
  5
18BC
330
1F
100
AcDbEntity
  8
0
100
AcDbLine
 10
60.0
 20
80.0
 30
0.0
 11
57.0
 21
80.0
 31
0.0
  0
LINE
  5
18BD
330
1F
100
AcDbEntity
  8
0
100
AcDbLine
 10
57.0
 20
80.0
 30
0.0
 11
57.0
 21
90.0
 31
0.0
  0
LINE
  5
18BE
330
1F
100
AcDbEntity
  8
0
100
AcDbLine
 10
57.0
 20
90.0
 30
0.0
 11
60.0
 21
90.0
 31
0.0
  0
LINE
  5
18BF
330
1F
100
AcDbEntity
  8
0
100
AcDbLine
 10
60.0
 20
90.0
 30
0.0
 11
60.0
 21
100.0
 31
0.0
  0
LINE
  5
18C0
330
1F
100
AcDbEntity
  8
0
100
AcDbLine
 10
60.0
 20
100.0
 30
0.0
 11
57.0
 21
100.0
 31
0.0
  0
LINE
  5
18C1
330
1F
100
AcDbEntity
  8
0
100
AcDbLine
 10
57.0
 20
100.0
 30
0.0
 11
57.0
 21
110.0
 31
0.0
  0
LINE
  5
18C2
330
1F
100
AcDbEntity
  8
0
100
AcDbLine
 10
57.0
 20
110.0
 30
0.0
 11
60.0
 21
110.0
 31
0.0
  0
LINE
  5
18C3
330
1F
100
AcDbEntity
  8
0
100
AcDbLine
 10
60.0
 20
110.0
 30
0.0
 11
60.0
 21
120.0
 31
0.0
  0
LINE
  5
18C4
330
1F
100
AcDbEntity
  8
0
100
AcDbLine
 10
60.0
 20
120.0
 30
0.0
 11
57.0
 21
120.0
 31
0.0
  0
LINE
  5
18C5
330
1F
100
AcDbEntity
  8
0
100
AcDbLine
 10
57.0
 20
120.0
 30
0.0
 11
57.0
 21
130.0
 31
0.0
  0
LINE
  5
18C6
330
1F
100
AcDbEntity
  8
0
100
AcDbLine
 10
57.0
 20
130.0
 30
0.0
 11
60.0
 21
130.0
 31
0.0
  0
LINE
  5
18C7
330
1F
100
AcDbEntity
  8
0
100
AcDbLine
 10
60.0
 20
130.0
 30
0.0
 11
60.0
 21
140.0
 31
0.0
  0
LINE
  5
18C8
330
1F
100
AcDbEntity
  8
0
100
AcDbLine
 10
60.0
 20
140.0
 30
0.0
 11
57.0
 21
140.0
 31
0.0
  0
LINE
  5
18C9
330
1F
100
AcDbEntity
  8
0
100
AcDbLine
 10
57.0
 20
140.0
 30
0.0
 11
57.0
 21
150.0
 31
0.0
  0
LINE
  5
18CA
330
1F
100
AcDbEntity
  8
0
100
AcDbLine
 10
57.0
 20
150.0
 30
0.0
 11
60.0
 21
150.0
 31
0.0
  0
LINE
  5
18CB
330
1F
100
AcDbEntity
  8
0
100
AcDbLine
 10
60.0
 20
150.0
 30
0.0
 11
60.0
 21
160.0
 31
0.0
  0
LINE
  5
18CC
330
1F
100
AcDbEntity
  8
0
100
AcDbLine
 10
60.0
 20
160.0
 30
0.0
 11
57.0
 21
160.0
 31
0.0
  0
LINE
  5
18CD
330
1F
100
AcDbEntity
  8
0
100
AcDbLine
 10
57.0
 20
160.0
 30
0.0
 11
57.0
 21
170.0
 31
0.0
  0
LINE
  5
18CE
330
1F
100
AcDbEntity
  8
0
100
AcDbLine
 10
57.0
 20
170.0
 30
0.0
 11
60.0
 21
170.0
 31
0.0
  0
LINE
  5
18CF
330
1F
100
AcDbEntity
  8
0
100
AcDbLine
 10
60.0
 20
170.0
 30
0.0
 11
60.0
 21
180.0
 31
0.0
  0
LINE
  5
18D0
330
1F
100
AcDbEntity
  8
0
100
AcDbLine
 10
60.0
 20
180.0
 30
0.0
 11
57.0
 21
180.0
 31
0.0
  0
LINE
  5
18D1
330
1F
100
AcDbEntity
  8
0
100
AcDbLine
 10
57.0
 20
180.0
 30
0.0
 11
57.0
 21
190.0
 31
0.0
  0
LINE
  5
18D2
330
1F
100
AcDbEntity
  8
0
100
AcDbLine
 10
57.0
 20
190.0
 30
0.0
 11
60.0
 21
190.0
 31
0.0
  0
LINE
  5
18D3
330
1F
100
AcDbEntity
  8
0
100
AcDbLine
 10
60.0
 20
190.0
 30
0.0
 11
60.0
 21
200.0
 31
0.0
  0
LINE
  5
18D4
330
1F
100
AcDbEntity
  8
0
100
AcDbLine
 10
60.0
 20
200.0
 30
0.0
 11
57.0
 21
200.0
 31
0.0
  0
LINE
  5
18D5
330
1F
100
AcDbEntity
  8
0
100
AcDbLine
 10
57.0
 20
200.0
 30
0.0
 11
57.0
 21
210.0
 31
0.0
  0
LINE
  5
18D6
330
1F
100
AcDbEntity
  8
0
100
AcDbLine
 10
57.0
 20
210.0
 30
0.0
 11
60.0
 21
210.0
 31
0.0
  0
LINE
  5
18D7
330
1F
100
AcDbEntity
  8
0
100
AcDbLine
 10
60.0
 20
210.0
 30
0.0
 11
60.0
 21
220.0
 31
0.0
  0
LINE
  5
18D8
330
1F
100
AcDbEntity
  8
0
100
AcDbLine
 10
60.0
 20
220.0
 30
0.0
 11
57.0
 21
220.0
 31
0.0
  0
LINE
  5
18D9
330
1F
100
AcDbEntity
  8
0
100
AcDbLine
 10
57.0
 20
220.0
 30
0.0
 11
57.0
 21
230.0
 31
0.0
  0
LINE
  5
18DA
330
1F
100
AcDbEntity
  8
0
100
AcDbLine
 10
57.0
 20
230.0
 30
0.0
 11
60.0
 21
230.0
 31
0.0
  0
LINE
  5
18DB
330
1F
100
AcDbEntity
  8
0
100
AcDbLine
 10
60.0
 20
230.0
 30
0.0
 11
60.0
 21
240.0
 31
0.0
  0
LINE
  5
18DC
330
1F
100
AcDbEntity
  8
0
100
AcDbLine
 10
60.0
 20
240.0
 30
0.0
 11
57.0
 21
240.0
 31
0.0
  0
LINE
  5
18DD
330
1F
100
AcDbEntity
  8
0
100
AcDbLine
 10
57.0
 20
240.0
 30
0.0
 11
57.0
 21
250.0
 31
0.0
  0
LINE
  5
18DE
330
1F
100
AcDbEntity
  8
0
100
AcDbLine
 10
57.0
 20
250.0
 30
0.0
 11
60.0
 21
250.0
 31
0.0
  0
LINE
  5
18DF
330
1F
100
AcDbEntity
  8
0
100
AcDbLine
 10
60.0
 20
250.0
 30
0.0
 11
60.0
 21
257.0
 31
0.0
  0
LINE
  5
18E0
330
1F
100
AcDbEntity
  8
0
100
AcDbLine
 10
60.0
 20
257.0
 30
0.0
 11
60.0
 21
263.0
 31
0.0
  0
LINE
  5
18E1
330
1F
100
AcDbEntity
  8
0
100
AcDbLine
 10
60.0
 20
263.0
 30
0.0
 11
65.0
 21
263.0
 31
0.0
  0
LINE
  5
18E2
330
1F
100
AcDbEntity
  8
0
100
AcDbLine
 10
65.0
 20
263.0
 30
0.0
 11
65.0
 21
260.0
 31
0.0
  0
LINE
  5
18E3
330
1F
100
AcDbEntity
  8
0
100
AcDbLine
 10
65.0
 20
260.0
 30
0.0
 11
75.0
 21
260.0
 31
0.0
  0
LINE
  5
18E4
330
1F
100
AcDbEntity
  8
0
100
AcDbLine
 10
75.0
 20
260.0
 30
0.0
 11
75.0
 21
263.0
 31
0.0
  0
LINE
  5
18E5
330
1F
100
AcDbEntity
  8
0
100
AcDbLine
 10
75.0
 20
263.0
 30
0.0
 11
85.0
 21
263.0
 31
0.0
  0
LINE
  5
18E6
330
1F
100
AcDbEntity
  8
0
100
AcDbLine
 10
85.0
 20
263.0
 30
0.0
 11
85.0
 21
260.0
 31
0.0
  0
LINE
  5
18E7
330
1F
100
AcDbEntity
  8
0
100
AcDbLine
 10
85.0
 20
260.0
 30
0.0
 11
95.0
 21
260.0
 31
0.0
  0
LINE
  5
18E8
330
1F
100
AcDbEntity
  8
0
100
AcDbLine
 10
95.0
 20
260.0
 30
0.0
 11
95.0
 21
263.0
 31
0.0
  0
LINE
  5
18E9
330
1F
100
AcDbEntity
  8
0
100
AcDbLine
 10
95.0
 20
263.0
 30
0.0
 11
100.0
 21
263.0
 31
0.0
  0
LINE
  5
18EA
330
1F
100
AcDbEntity
  8
0
100
AcDbLine
 10
100.0
 20
263.0
 30
0.0
 11
100.0
 21
250.0
 31
0.0
  0
LINE
  5
18EB
330
1F
100
AcDbEntity
  8
0
100
AcDbLine
 10
100.0
 20
250.0
 30
0.0
 11
103.0
 21
250.0
 31
0.0
  0
LINE
  5
18EC
330
1F
100
AcDbEntity
  8
0
100
AcDbLine
 10
103.0
 20
250.0
 30
0.0
 11
103.0
 21
240.0
 31
0.0
  0
LINE
  5
18ED
330
1F
100
AcDbEntity
  8
0
100
AcDbLine
 10
103.0
 20
240.0
 30
0.0
 11
100.0
 21
240.0
 31
0.0
  0
LINE
  5
18EE
330
1F
100
AcDbEntity
  8
0
100
AcDbLine
 10
100.0
 20
240.0
 30
0.0
 11
100.0
 21
230.0
 31
0.0
  0
LINE
  5
18EF
330
1F
100
AcDbEntity
  8
0
100
AcDbLine
 10
100.0
 20
230.0
 30
0.0
 11
103.0
 21
230.0
 31
0.0
  0
LINE
  5
18F0
330
1F
100
AcDbEntity
  8
0
100
AcDbLine
 10
103.0
 20
230.0
 30
0.0
 11
103.0
 21
220.0
 31
0.0
  0
LINE
  5
18F1
330
1F
100
AcDbEntity
  8
0
100
AcDbLine
 10
103.0
 20
220.0
 30
0.0
 11
100.0
 21
220.0
 31
0.0
  0
LINE
  5
18F2
330
1F
100
AcDbEntity
  8
0
100
AcDbLine
 10
100.0
 20
220.0
 30
0.0
 11
100.0
 21
210.0
 31
0.0
  0
LINE
  5
18F3
330
1F
100
AcDbEntity
  8
0
100
AcDbLine
 10
100.0
 20
210.0
 30
0.0
 11
103.0
 21
210.0
 31
0.0
  0
LINE
  5
18F4
330
1F
100
AcDbEntity
  8
0
100
AcDbLine
 10
103.0
 20
210.0
 30
0.0
 11
103.0
 21
200.0
 31
0.0
  0
LINE
  5
18F5
330
1F
100
AcDbEntity
  8
0
100
AcDbLine
 10
103.0
 20
200.0
 30
0.0
 11
100.0
 21
200.0
 31
0.0
  0
LINE
  5
18F6
330
1F
100
AcDbEntity
  8
0
100
AcDbLine
 10
100.0
 20
200.0
 30
0.0
 11
100.0
 21
190.0
 31
0.0
  0
LINE
  5
18F7
330
1F
100
AcDbEntity
  8
0
100
AcDbLine
 10
100.0
 20
190.0
 30
0.0
 11
103.0
 21
190.0
 31
0.0
  0
LINE
  5
18F8
330
1F
100
AcDbEntity
  8
0
100
AcDbLine
 10
103.0
 20
190.0
 30
0.0
 11
103.0
 21
180.0
 31
0.0
  0
LINE
  5
18F9
330
1F
100
AcDbEntity
  8
0
100
AcDbLine
 10
103.0
 20
180.0
 30
0.0
 11
100.0
 21
180.0
 31
0.0
  0
LINE
  5
18FA
330
1F
100
AcDbEntity
  8
0
100
AcDbLine
 10
100.0
 20
180.0
 30
0.0
 11
100.0
 21
170.0
 31
0.0
  0
LINE
  5
18FB
330
1F
100
AcDbEntity
  8
0
100
AcDbLine
 10
100.0
 20
170.0
 30
0.0
 11
103.0
 21
170.0
 31
0.0
  0
LINE
  5
18FC
330
1F
100
AcDbEntity
  8
0
100
AcDbLine
 10
103.0
 20
170.0
 30
0.0
 11
103.0
 21
160.0
 31
0.0
  0
LINE
  5
18FD
330
1F
100
AcDbEntity
  8
0
100
AcDbLine
 10
103.0
 20
160.0
 30
0.0
 11
100.0
 21
160.0
 31
0.0
  0
LINE
  5
18FE
330
1F
100
AcDbEntity
  8
0
100
AcDbLine
 10
100.0
 20
160.0
 30
0.0
 11
100.0
 21
150.0
 31
0.0
  0
LINE
  5
18FF
330
1F
100
AcDbEntity
  8
0
100
AcDbLine
 10
100.0
 20
150.0
 30
0.0
 11
103.0
 21
150.0
 31
0.0
  0
LINE
  5
1900
330
1F
100
AcDbEntity
  8
0
100
AcDbLine
 10
103.0
 20
150.0
 30
0.0
 11
103.0
 21
140.0
 31
0.0
  0
LINE
  5
1901
330
1F
100
AcDbEntity
  8
0
100
AcDbLine
 10
103.0
 20
140.0
 30
0.0
 11
100.0
 21
140.0
 31
0.0
  0
LINE
  5
1902
330
1F
100
AcDbEntity
  8
0
100
AcDbLine
 10
100.0
 20
140.0
 30
0.0
 11
100.0
 21
130.0
 31
0.0
  0
LINE
  5
1903
330
1F
100
AcDbEntity
  8
0
100
AcDbLine
 10
100.0
 20
130.0
 30
0.0
 11
103.0
 21
130.0
 31
0.0
  0
LINE
  5
1904
330
1F
100
AcDbEntity
  8
0
100
AcDbLine
 10
103.0
 20
130.0
 30
0.0
 11
103.0
 21
120.0
 31
0.0
  0
LINE
  5
1905
330
1F
100
AcDbEntity
  8
0
100
AcDbLine
 10
103.0
 20
120.0
 30
0.0
 11
100.0
 21
120.0
 31
0.0
  0
LINE
  5
1906
330
1F
100
AcDbEntity
  8
0
100
AcDbLine
 10
100.0
 20
120.0
 30
0.0
 11
100.0
 21
110.0
 31
0.0
  0
LINE
  5
1907
330
1F
100
AcDbEntity
  8
0
100
AcDbLine
 10
100.0
 20
110.0
 30
0.0
 11
103.0
 21
110.0
 31
0.0
  0
LINE
  5
1908
330
1F
100
AcDbEntity
  8
0
100
AcDbLine
 10
103.0
 20
110.0
 30
0.0
 11
103.0
 21
100.0
 31
0.0
  0
LINE
  5
1909
330
1F
100
AcDbEntity
  8
0
100
AcDbLine
 10
103.0
 20
100.0
 30
0.0
 11
100.0
 21
100.0
 31
0.0
  0
LINE
  5
190A
330
1F
100
AcDbEntity
  8
0
100
AcDbLine
 10
100.0
 20
100.0
 30
0.0
 11
100.0
 21
90.0
 31
0.0
  0
LINE
  5
190B
330
1F
100
AcDbEntity
  8
0
100
AcDbLine
 10
100.0
 20
90.0
 30
0.0
 11
103.0
 21
90.0
 31
0.0
  0
LINE
  5
190C
330
1F
100
AcDbEntity
  8
0
100
AcDbLine
 10
103.0
 20
90.0
 30
0.0
 11
103.0
 21
80.0
 31
0.0
  0
LINE
  5
190D
330
1F
100
AcDbEntity
  8
0
100
AcDbLine
 10
103.0
 20
80.0
 30
0.0
 11
100.0
 21
80.0
 31
0.0
  0
LINE
  5
190E
330
1F
100
AcDbEntity
  8
0
100
AcDbLine
 10
100.0
 20
80.0
 30
0.0
 11
100.0
 21
70.0
 31
0.0
  0
LINE
  5
190F
330
1F
100
AcDbEntity
  8
0
100
AcDbLine
 10
100.0
 20
70.0
 30
0.0
 11
103.0
 21
70.0
 31
0.0
  0
LINE
  5
1910
330
1F
100
AcDbEntity
  8
0
100
AcDbLine
 10
103.0
 20
70.0
 30
0.0
 11
103.0
 21
60.0
 31
0.0
  0
LINE
  5
1911
330
1F
100
AcDbEntity
  8
0
100
AcDbLine
 10
103.0
 20
60.0
 30
0.0
 11
100.0
 21
60.0
 31
0.0
  0
LINE
  5
1912
330
1F
100
AcDbEntity
  8
0
100
AcDbLine
 10
100.0
 20
60.0
 30
0.0
 11
100.0
 21
50.0
 31
0.0
  0
LINE
  5
1913
330
1F
100
AcDbEntity
  8
0
100
AcDbLine
 10
100.0
 20
50.0
 30
0.0
 11
103.0
 21
50.0
 31
0.0
  0
LINE
  5
1914
330
1F
100
AcDbEntity
  8
0
100
AcDbLine
 10
103.0
 20
50.0
 30
0.0
 11
103.0
 21
40.0
 31
0.0
  0
LINE
  5
1915
330
1F
100
AcDbEntity
  8
0
100
AcDbLine
 10
103.0
 20
40.0
 30
0.0
 11
100.0
 21
40.0
 31
0.0
  0
LINE
  5
1916
330
1F
100
AcDbEntity
  8
0
100
AcDbLine
 10
100.0
 20
40.0
 30
0.0
 11
100.0
 21
30.0
 31
0.0
  0
LINE
  5
1917
330
1F
100
AcDbEntity
  8
0
100
AcDbLine
 10
100.0
 20
30.0
 30
0.0
 11
103.0
 21
30.0
 31
0.0
  0
LINE
  5
1918
330
1F
100
AcDbEntity
  8
0
100
AcDbLine
 10
103.0
 20
30.0
 30
0.0
 11
103.0
 21
20.0
 31
0.0
  0
LINE
  5
1919
330
1F
100
AcDbEntity
  8
0
100
AcDbLine
 10
103.0
 20
20.0
 30
0.0
 11
100.0
 21
20.0
 31
0.0
  0
LINE
  5
191A
330
1F
100
AcDbEntity
  8
0
100
AcDbLine
 10
100.0
 20
20.0
 30
0.0
 11
100.0
 21
10.0
 31
0.0
  0
LINE
  5
191B
330
1F
100
AcDbEntity
  8
0
100
AcDbLine
 10
100.0
 20
10.0
 30
0.0
 11
100.0
 21
7.0
 31
0.0
  0
LINE
  5
1925
330
1F
100
AcDbEntity
  8
0
100
AcDbLine
 10
60.0
 20
7.0
 30
0.0
 11
60.0
 21
10.0
 31
0.0
  0
LINE
  5
1926
330
1F
100
AcDbEntity
  8
0
100
AcDbLine
 10
10.0
 20
10.0
 30
0.0
 11
10.0
 21
20.0
 31
0.0
  0
LINE
  5
1927
330
1F
100
AcDbEntity
  8
0
100
AcDbLine
 10
10.0
 20
20.0
 30
0.0
 11
7.0
 21
20.0
 31
0.0
  0
LINE
  5
1928
330
1F
100
AcDbEntity
  8
0
100
AcDbLine
 10
7.0
 20
20.0
 30
0.0
 11
7.0
 21
30.0
 31
0.0
  0
LINE
  5
1929
330
1F
100
AcDbEntity
  8
0
100
AcDbLine
 10
7.0
 20
30.0
 30
0.0
 11
10.0
 21
30.0
 31
0.0
  0
LINE
  5
192A
330
1F
100
AcDbEntity
  8
0
100
AcDbLine
 10
10.0
 20
30.0
 30
0.0
 11
10.0
 21
40.0
 31
0.0
  0
LINE
  5
192B
330
1F
100
AcDbEntity
  8
0
100
AcDbLine
 10
10.0
 20
40.0
 30
0.0
 11
7.0
 21
40.0
 31
0.0
  0
LINE
  5
192C
330
1F
100
AcDbEntity
  8
0
100
AcDbLine
 10
7.0
 20
40.0
 30
0.0
 11
7.0
 21
50.0
 31
0.0
  0
LINE
  5
192D
330
1F
100
AcDbEntity
  8
0
100
AcDbLine
 10
7.0
 20
50.0
 30
0.0
 11
10.0
 21
50.0
 31
0.0
  0
LINE
  5
192E
330
1F
100
AcDbEntity
  8
0
100
AcDbLine
 10
10.0
 20
50.0
 30
0.0
 11
10.0
 21
60.0
 31
0.0
  0
LINE
  5
192F
330
1F
100
AcDbEntity
  8
0
100
AcDbLine
 10
10.0
 20
60.0
 30
0.0
 11
7.0
 21
60.0
 31
0.0
  0
LINE
  5
1930
330
1F
100
AcDbEntity
  8
0
100
AcDbLine
 10
7.0
 20
60.0
 30
0.0
 11
7.0
 21
70.0
 31
0.0
  0
LINE
  5
1931
330
1F
100
AcDbEntity
  8
0
100
AcDbLine
 10
7.0
 20
70.0
 30
0.0
 11
10.0
 21
70.0
 31
0.0
  0
LINE
  5
1932
330
1F
100
AcDbEntity
  8
0
100
AcDbLine
 10
10.0
 20
70.0
 30
0.0
 11
10.0
 21
80.0
 31
0.0
  0
LINE
  5
1933
330
1F
100
AcDbEntity
  8
0
100
AcDbLine
 10
10.0
 20
80.0
 30
0.0
 11
7.0
 21
80.0
 31
0.0
  0
LINE
  5
1934
330
1F
100
AcDbEntity
  8
0
100
AcDbLine
 10
7.0
 20
80.0
 30
0.0
 11
7.0
 21
90.0
 31
0.0
  0
LINE
  5
1935
330
1F
100
AcDbEntity
  8
0
100
AcDbLine
 10
7.0
 20
90.0
 30
0.0
 11
10.0
 21
90.0
 31
0.0
  0
LINE
  5
1936
330
1F
100
AcDbEntity
  8
0
100
AcDbLine
 10
10.0
 20
90.0
 30
0.0
 11
10.0
 21
100.0
 31
0.0
  0
LINE
  5
1937
330
1F
100
AcDbEntity
  8
0
100
AcDbLine
 10
10.0
 20
100.0
 30
0.0
 11
7.0
 21
100.0
 31
0.0
  0
LINE
  5
1938
330
1F
100
AcDbEntity
  8
0
100
AcDbLine
 10
7.0
 20
100.0
 30
0.0
 11
7.0
 21
110.0
 31
0.0
  0
LINE
  5
1939
330
1F
100
AcDbEntity
  8
0
100
AcDbLine
 10
7.0
 20
110.0
 30
0.0
 11
10.0
 21
110.0
 31
0.0
  0
LINE
  5
193A
330
1F
100
AcDbEntity
  8
0
100
AcDbLine
 10
10.0
 20
110.0
 30
0.0
 11
10.0
 21
120.0
 31
0.0
  0
LINE
  5
193B
330
1F
100
AcDbEntity
  8
0
100
AcDbLine
 10
10.0
 20
120.0
 30
0.0
 11
7.0
 21
120.0
 31
0.0
  0
LINE
  5
193C
330
1F
100
AcDbEntity
  8
0
100
AcDbLine
 10
7.0
 20
120.0
 30
0.0
 11
7.0
 21
130.0
 31
0.0
  0
LINE
  5
193D
330
1F
100
AcDbEntity
  8
0
100
AcDbLine
 10
7.0
 20
130.0
 30
0.0
 11
10.0
 21
130.0
 31
0.0
  0
LINE
  5
193E
330
1F
100
AcDbEntity
  8
0
100
AcDbLine
 10
10.0
 20
130.0
 30
0.0
 11
10.0
 21
140.0
 31
0.0
  0
LINE
  5
193F
330
1F
100
AcDbEntity
  8
0
100
AcDbLine
 10
10.0
 20
140.0
 30
0.0
 11
7.0
 21
140.0
 31
0.0
  0
LINE
  5
1940
330
1F
100
AcDbEntity
  8
0
100
AcDbLine
 10
7.0
 20
140.0
 30
0.0
 11
7.0
 21
150.0
 31
0.0
  0
LINE
  5
1941
330
1F
100
AcDbEntity
  8
0
100
AcDbLine
 10
7.0
 20
150.0
 30
0.0
 11
10.0
 21
150.0
 31
0.0
  0
LINE
  5
1942
330
1F
100
AcDbEntity
  8
0
100
AcDbLine
 10
10.0
 20
150.0
 30
0.0
 11
10.0
 21
160.0
 31
0.0
  0
LINE
  5
1943
330
1F
100
AcDbEntity
  8
0
100
AcDbLine
 10
10.0
 20
160.0
 30
0.0
 11
7.0
 21
160.0
 31
0.0
  0
LINE
  5
1944
330
1F
100
AcDbEntity
  8
0
100
AcDbLine
 10
7.0
 20
160.0
 30
0.0
 11
7.0
 21
170.0
 31
0.0
  0
LINE
  5
1945
330
1F
100
AcDbEntity
  8
0
100
AcDbLine
 10
7.0
 20
170.0
 30
0.0
 11
10.0
 21
170.0
 31
0.0
  0
LINE
  5
1946
330
1F
100
AcDbEntity
  8
0
100
AcDbLine
 10
10.0
 20
170.0
 30
0.0
 11
10.0
 21
180.0
 31
0.0
  0
LINE
  5
1947
330
1F
100
AcDbEntity
  8
0
100
AcDbLine
 10
10.0
 20
180.0
 30
0.0
 11
7.0
 21
180.0
 31
0.0
  0
LINE
  5
1948
330
1F
100
AcDbEntity
  8
0
100
AcDbLine
 10
7.0
 20
180.0
 30
0.0
 11
7.0
 21
190.0
 31
0.0
  0
LINE
  5
1949
330
1F
100
AcDbEntity
  8
0
100
AcDbLine
 10
7.0
 20
190.0
 30
0.0
 11
10.0
 21
190.0
 31
0.0
  0
LINE
  5
194A
330
1F
100
AcDbEntity
  8
0
100
AcDbLine
 10
10.0
 20
190.0
 30
0.0
 11
10.0
 21
200.0
 31
0.0
  0
LINE
  5
194B
330
1F
100
AcDbEntity
  8
0
100
AcDbLine
 10
10.0
 20
200.0
 30
0.0
 11
7.0
 21
200.0
 31
0.0
  0
LINE
  5
194C
330
1F
100
AcDbEntity
  8
0
100
AcDbLine
 10
7.0
 20
200.0
 30
0.0
 11
7.0
 21
210.0
 31
0.0
  0
LINE
  5
194D
330
1F
100
AcDbEntity
  8
0
100
AcDbLine
 10
7.0
 20
210.0
 30
0.0
 11
10.0
 21
210.0
 31
0.0
  0
LINE
  5
194E
330
1F
100
AcDbEntity
  8
0
100
AcDbLine
 10
10.0
 20
210.0
 30
0.0
 11
10.0
 21
220.0
 31
0.0
  0
LINE
  5
194F
330
1F
100
AcDbEntity
  8
0
100
AcDbLine
 10
10.0
 20
220.0
 30
0.0
 11
7.0
 21
220.0
 31
0.0
  0
LINE
  5
1950
330
1F
100
AcDbEntity
  8
0
100
AcDbLine
 10
7.0
 20
220.0
 30
0.0
 11
7.0
 21
230.0
 31
0.0
  0
LINE
  5
1967
330
1F
100
AcDbEntity
  8
0
100
AcDbLine
 10
53.0
 20
230.0
 30
0.0
 11
53.0
 21
220.0
 31
0.0
  0
LINE
  5
1968
330
1F
100
AcDbEntity
  8
0
100
AcDbLine
 10
53.0
 20
220.0
 30
0.0
 11
50.0
 21
220.0
 31
0.0
  0
LINE
  5
1969
330
1F
100
AcDbEntity
  8
0
100
AcDbLine
 10
50.0
 20
220.0
 30
0.0
 11
50.0
 21
210.0
 31
0.0
  0
LINE
  5
196A
330
1F
100
AcDbEntity
  8
0
100
AcDbLine
 10
50.0
 20
210.0
 30
0.0
 11
53.0
 21
210.0
 31
0.0
  0
LINE
  5
196B
330
1F
100
AcDbEntity
  8
0
100
AcDbLine
 10
53.0
 20
210.0
 30
0.0
 11
53.0
 21
200.0
 31
0.0
  0
LINE
  5
196C
330
1F
100
AcDbEntity
  8
0
100
AcDbLine
 10
53.0
 20
200.0
 30
0.0
 11
50.0
 21
200.0
 31
0.0
  0
LINE
  5
196D
330
1F
100
AcDbEntity
  8
0
100
AcDbLine
 10
50.0
 20
200.0
 30
0.0
 11
50.0
 21
190.0
 31
0.0
  0
LINE
  5
196E
330
1F
100
AcDbEntity
  8
0
100
AcDbLine
 10
50.0
 20
190.0
 30
0.0
 11
53.0
 21
190.0
 31
0.0
  0
LINE
  5
196F
330
1F
100
AcDbEntity
  8
0
100
AcDbLine
 10
53.0
 20
190.0
 30
0.0
 11
53.0
 21
180.0
 31
0.0
  0
LINE
  5
1970
330
1F
100
AcDbEntity
  8
0
100
AcDbLine
 10
53.0
 20
180.0
 30
0.0
 11
50.0
 21
180.0
 31
0.0
  0
LINE
  5
1971
330
1F
100
AcDbEntity
  8
0
100
AcDbLine
 10
50.0
 20
180.0
 30
0.0
 11
50.0
 21
170.0
 31
0.0
  0
LINE
  5
1972
330
1F
100
AcDbEntity
  8
0
100
AcDbLine
 10
50.0
 20
170.0
 30
0.0
 11
53.0
 21
170.0
 31
0.0
  0
LINE
  5
1973
330
1F
100
AcDbEntity
  8
0
100
AcDbLine
 10
53.0
 20
170.0
 30
0.0
 11
53.0
 21
160.0
 31
0.0
  0
LINE
  5
1974
330
1F
100
AcDbEntity
  8
0
100
AcDbLine
 10
53.0
 20
160.0
 30
0.0
 11
50.0
 21
160.0
 31
0.0
  0
LINE
  5
1975
330
1F
100
AcDbEntity
  8
0
100
AcDbLine
 10
50.0
 20
160.0
 30
0.0
 11
50.0
 21
150.0
 31
0.0
  0
LINE
  5
1976
330
1F
100
AcDbEntity
  8
0
100
AcDbLine
 10
50.0
 20
150.0
 30
0.0
 11
53.0
 21
150.0
 31
0.0
  0
LINE
  5
1977
330
1F
100
AcDbEntity
  8
0
100
AcDbLine
 10
53.0
 20
150.0
 30
0.0
 11
53.0
 21
140.0
 31
0.0
  0
LINE
  5
1978
330
1F
100
AcDbEntity
  8
0
100
AcDbLine
 10
53.0
 20
140.0
 30
0.0
 11
50.0
 21
140.0
 31
0.0
  0
LINE
  5
1979
330
1F
100
AcDbEntity
  8
0
100
AcDbLine
 10
50.0
 20
140.0
 30
0.0
 11
50.0
 21
130.0
 31
0.0
  0
LINE
  5
197A
330
1F
100
AcDbEntity
  8
0
100
AcDbLine
 10
50.0
 20
130.0
 30
0.0
 11
53.0
 21
130.0
 31
0.0
  0
LINE
  5
197B
330
1F
100
AcDbEntity
  8
0
100
AcDbLine
 10
53.0
 20
130.0
 30
0.0
 11
53.0
 21
120.0
 31
0.0
  0
LINE
  5
197C
330
1F
100
AcDbEntity
  8
0
100
AcDbLine
 10
53.0
 20
120.0
 30
0.0
 11
50.0
 21
120.0
 31
0.0
  0
LINE
  5
197D
330
1F
100
AcDbEntity
  8
0
100
AcDbLine
 10
50.0
 20
120.0
 30
0.0
 11
50.0
 21
110.0
 31
0.0
  0
LINE
  5
197E
330
1F
100
AcDbEntity
  8
0
100
AcDbLine
 10
50.0
 20
110.0
 30
0.0
 11
53.0
 21
110.0
 31
0.0
  0
LINE
  5
197F
330
1F
100
AcDbEntity
  8
0
100
AcDbLine
 10
53.0
 20
110.0
 30
0.0
 11
53.0
 21
100.0
 31
0.0
  0
LINE
  5
1980
330
1F
100
AcDbEntity
  8
0
100
AcDbLine
 10
53.0
 20
100.0
 30
0.0
 11
50.0
 21
100.0
 31
0.0
  0
LINE
  5
1981
330
1F
100
AcDbEntity
  8
0
100
AcDbLine
 10
50.0
 20
100.0
 30
0.0
 11
50.0
 21
90.0
 31
0.0
  0
LINE
  5
1982
330
1F
100
AcDbEntity
  8
0
100
AcDbLine
 10
50.0
 20
90.0
 30
0.0
 11
53.0
 21
90.0
 31
0.0
  0
LINE
  5
1983
330
1F
100
AcDbEntity
  8
0
100
AcDbLine
 10
53.0
 20
90.0
 30
0.0
 11
53.0
 21
80.0
 31
0.0
  0
LINE
  5
1984
330
1F
100
AcDbEntity
  8
0
100
AcDbLine
 10
53.0
 20
80.0
 30
0.0
 11
50.0
 21
80.0
 31
0.0
  0
LINE
  5
1985
330
1F
100
AcDbEntity
  8
0
100
AcDbLine
 10
50.0
 20
80.0
 30
0.0
 11
50.0
 21
70.0
 31
0.0
  0
LINE
  5
1986
330
1F
100
AcDbEntity
  8
0
100
AcDbLine
 10
50.0
 20
70.0
 30
0.0
 11
53.0
 21
70.0
 31
0.0
  0
LINE
  5
1987
330
1F
100
AcDbEntity
  8
0
100
AcDbLine
 10
53.0
 20
70.0
 30
0.0
 11
53.0
 21
60.0
 31
0.0
  0
LINE
  5
1988
330
1F
100
AcDbEntity
  8
0
100
AcDbLine
 10
53.0
 20
60.0
 30
0.0
 11
50.0
 21
60.0
 31
0.0
  0
LINE
  5
1989
330
1F
100
AcDbEntity
  8
0
100
AcDbLine
 10
50.0
 20
60.0
 30
0.0
 11
50.0
 21
50.0
 31
0.0
  0
LINE
  5
198A
330
1F
100
AcDbEntity
  8
0
100
AcDbLine
 10
50.0
 20
50.0
 30
0.0
 11
53.0
 21
50.0
 31
0.0
  0
LINE
  5
198B
330
1F
100
AcDbEntity
  8
0
100
AcDbLine
 10
53.0
 20
50.0
 30
0.0
 11
53.0
 21
40.0
 31
0.0
  0
LINE
  5
198C
330
1F
100
AcDbEntity
  8
0
100
AcDbLine
 10
53.0
 20
40.0
 30
0.0
 11
50.0
 21
40.0
 31
0.0
  0
LINE
  5
198D
330
1F
100
AcDbEntity
  8
0
100
AcDbLine
 10
50.0
 20
40.0
 30
0.0
 11
50.0
 21
30.0
 31
0.0
  0
LINE
  5
198E
330
1F
100
AcDbEntity
  8
0
100
AcDbLine
 10
50.0
 20
30.0
 30
0.0
 11
53.0
 21
30.0
 31
0.0
  0
LINE
  5
198F
330
1F
100
AcDbEntity
  8
0
100
AcDbLine
 10
53.0
 20
30.0
 30
0.0
 11
53.0
 21
20.0
 31
0.0
  0
LINE
  5
1990
330
1F
100
AcDbEntity
  8
0
100
AcDbLine
 10
53.0
 20
20.0
 30
0.0
 11
50.0
 21
20.0
 31
0.0
  0
LINE
  5
1991
330
1F
100
AcDbEntity
  8
0
100
AcDbLine
 10
50.0
 20
20.0
 30
0.0
 11
50.0
 21
10.0
 31
0.0
  0
LINE
  5
1992
330
1F
100
AcDbEntity
  8
0
100
AcDbLine
 10
50.0
 20
10.0
 30
0.0
 11
50.0
 21
7.0
 31
0.0
  0
LINE
  5
199C
330
1F
100
AcDbEntity
  8
0
100
AcDbLine
 10
10.0
 20
7.0
 30
0.0
 11
10.0
 21
10.0
 31
0.0
  0
LINE
  5
19A5
330
1F
100
AcDbEntity
  8
0
100
AcDbLine
 10
173.0
 20
87.0
 30
0.0
 11
173.0
 21
92.0
 31
0.0
  0
LINE
  5
19A8
330
1F
100
AcDbEntity
  8
0
100
AcDbLine
 10
184.0
 20
87.0
 30
0.0
 11
173.0
 21
87.0
 31
0.0
  0
LINE
  5
19AE
330
1F
100
AcDbEntity
  8
0
100
AcDbLine
 10
184.0
 20
87.0
 30
0.0
 11
184.0
 21
97.0
 31
0.0
  0
LINE
  5
19AF
330
1F
100
AcDbEntity
  8
0
100
AcDbLine
 10
184.0
 20
97.0
 30
0.0
 11
178.0
 21
97.0
 31
0.0
  0
LINE
  5
19B0
330
1F
100
AcDbEntity
  8
0
100
AcDbLine
 10
178.0
 20
97.0
 30
0.0
 11
178.0
 21
92.0
 31
0.0
  0
LINE
  5
19B1
330
1F
100
AcDbEntity
  8
0
100
AcDbLine
 10
178.0
 20
92.0
 30
0.0
 11
173.0
 21
92.0
 31
0.0
  0
LINE
  5
19B2
330
1F
100
AcDbEntity
  8
0
100
AcDbLine
 10
186.0
 20
87.0
 30
0.0
 11
186.0
 21
92.0
 31
0.0
  0
LINE
  5
19B3
330
1F
100
AcDbEntity
  8
0
100
AcDbLine
 10
197.0
 20
87.0
 30
0.0
 11
186.0
 21
87.0
 31
0.0
  0
LINE
  5
19B4
330
1F
100
AcDbEntity
  8
0
100
AcDbLine
 10
197.0
 20
87.0
 30
0.0
 11
197.0
 21
97.0
 31
0.0
  0
LINE
  5
19B5
330
1F
100
AcDbEntity
  8
0
100
AcDbLine
 10
197.0
 20
97.0
 30
0.0
 11
191.0
 21
97.0
 31
0.0
  0
LINE
  5
19B6
330
1F
100
AcDbEntity
  8
0
100
AcDbLine
 10
191.0
 20
97.0
 30
0.0
 11
191.0
 21
92.0
 31
0.0
  0
LINE
  5
19B7
330
1F
100
AcDbEntity
  8
0
100
AcDbLine
 10
191.0
 20
92.0
 30
0.0
 11
186.0
 21
92.0
 31
0.0
  0
LINE
  5
19B8
330
1F
100
AcDbEntity
  8
0
100
AcDbLine
 10
173.0
 20
7.0
 30
0.0
 11
173.0
 21
53.0
 31
0.0
  0
LINE
  5
19B9
330
1F
100
AcDbEntity
  8
0
100
AcDbLine
 10
209.0
 20
53.0
 30
0.0
 11
209.0
 21
7.0
 31
0.0
  0
LINE
  5
1A0F
330
1F
100
AcDbEntity
  8
0
100
AcDbLine
 10
173.0
 20
100.0
 30
0.0
 11
209.0
 21
100.0
 31
0.0
  0
LINE
  5
1A10
330
1F
100
AcDbEntity
  8
0
100
AcDbLine
 10
176.0
 20
128.0
 30
0.0
 11
179.0
 21
128.0
 31
0.0
  0
LINE
  5
1A11
330
1F
100
AcDbEntity
  8
0
100
AcDbLine
 10
179.0
 20
128.0
 30
0.0
 11
179.0
 21
133.0
 31
0.0
  0
LINE
  5
1A12
330
1F
100
AcDbEntity
  8
0
100
AcDbLine
 10
179.0
 20
133.0
 30
0.0
 11
176.0
 21
133.0
 31
0.0
  0
LINE
  5
1A13
330
1F
100
AcDbEntity
  8
0
100
AcDbLine
 10
176.0
 20
133.0
 30
0.0
 11
176.0
 21
128.0
 31
0.0
  0
LINE
  5
1A14
330
1F
100
AcDbEntity
  8
0
100
AcDbLine
 10
182.0
 20
128.0
 30
0.0
 11
185.0
 21
128.0
 31
0.0
  0
LINE
  5
1A15
330
1F
100
AcDbEntity
  8
0
100
AcDbLine
 10
185.0
 20
128.0
 30
0.0
 11
185.0
 21
133.0
 31
0.0
  0
LINE
  5
1A16
330
1F
100
AcDbEntity
  8
0
100
AcDbLine
 10
185.0
 20
133.0
 30
0.0
 11
182.0
 21
133.0
 31
0.0
  0
LINE
  5
1A17
330
1F
100
AcDbEntity
  8
0
100
AcDbLine
 10
182.0
 20
133.0
 30
0.0
 11
182.0
 21
128.0
 31
0.0
  0
LINE
  5
1A18
330
1F
100
AcDbEntity
  8
0
100
AcDbLine
 10
188.0
 20
128.0
 30
0.0
 11
191.0
 21
128.0
 31
0.0
  0
LINE
  5
1A19
330
1F
100
AcDbEntity
  8
0
100
AcDbLine
 10
191.0
 20
128.0
 30
0.0
 11
191.0
 21
133.0
 31
0.0
  0
LINE
  5
1A1A
330
1F
100
AcDbEntity
  8
0
100
AcDbLine
 10
191.0
 20
133.0
 30
0.0
 11
188.0
 21
133.0
 31
0.0
  0
LINE
  5
1A1B
330
1F
100
AcDbEntity
  8
0
100
AcDbLine
 10
188.0
 20
133.0
 30
0.0
 11
188.0
 21
128.0
 31
0.0
  0
LINE
  5
1A1C
330
1F
100
AcDbEntity
  8
0
100
AcDbLine
 10
194.0
 20
128.0
 30
0.0
 11
197.0
 21
128.0
 31
0.0
  0
LINE
  5
1A1D
330
1F
100
AcDbEntity
  8
0
100
AcDbLine
 10
197.0
 20
128.0
 30
0.0
 11
197.0
 21
133.0
 31
0.0
  0
LINE
  5
1A1E
330
1F
100
AcDbEntity
  8
0
100
AcDbLine
 10
197.0
 20
133.0
 30
0.0
 11
194.0
 21
133.0
 31
0.0
  0
LINE
  5
1A1F
330
1F
100
AcDbEntity
  8
0
100
AcDbLine
 10
194.0
 20
133.0
 30
0.0
 11
194.0
 21
128.0
 31
0.0
  0
LINE
  5
1A20
330
1F
100
AcDbEntity
  8
0
100
AcDbLine
 10
200.0
 20
128.0
 30
0.0
 11
203.0
 21
128.0
 31
0.0
  0
LINE
  5
1A21
330
1F
100
AcDbEntity
  8
0
100
AcDbLine
 10
203.0
 20
128.0
 30
0.0
 11
203.0
 21
133.0
 31
0.0
  0
LINE
  5
1A22
330
1F
100
AcDbEntity
  8
0
100
AcDbLine
 10
203.0
 20
133.0
 30
0.0
 11
200.0
 21
133.0
 31
0.0
  0
LINE
  5
1A23
330
1F
100
AcDbEntity
  8
0
100
AcDbLine
 10
200.0
 20
133.0
 30
0.0
 11
200.0
 21
128.0
 31
0.0
  0
LINE
  5
1A24
330
1F
100
AcDbEntity
  8
0
100
AcDbLine
 10
206.0
 20
128.0
 30
0.0
 11
209.0
 21
128.0
 31
0.0
  0
LINE
  5
1A25
330
1F
100
AcDbEntity
  8
0
100
AcDbLine
 10
209.0
 20
133.0
 30
0.0
 11
206.0
 21
133.0
 31
0.0
  0
LINE
  5
1A26
330
1F
100
AcDbEntity
  8
0
100
AcDbLine
 10
206.0
 20
133.0
 30
0.0
 11
206.0
 21
128.0
 31
0.0
  0
LINE
  5
1A27
330
1F
100
AcDbEntity
  8
0
100
AcDbLine
 10
173.0
 20
153.0
 30
0.0
 11
173.0
 21
158.0
 31
0.0
  0
LINE
  5
1A28
330
1F
100
AcDbEntity
  8
0
100
AcDbLine
 10
173.0
 20
158.0
 30
0.0
 11
184.0
 21
158.0
 31
0.0
  0
LINE
  5
1A29
330
1F
100
AcDbEntity
  8
0
100
AcDbLine
 10
184.0
 20
158.0
 30
0.0
 11
184.0
 21
153.0
 31
0.0
  0
LINE
  5
1A2A
330
1F
100
AcDbEntity
  8
0
100
AcDbLine
 10
184.0
 20
153.0
 30
0.0
 11
173.0
 21
153.0
 31
0.0
  0
LINE
  5
1A2B
330
1F
100
AcDbEntity
  8
0
100
AcDbLine
 10
182.0
 20
156.0
 30
0.0
 11
182.0
 21
155.0
 31
0.0
  0
LINE
  5
1A2C
330
1F
100
AcDbEntity
  8
0
100
AcDbLine
 10
182.0
 20
155.0
 30
0.0
 11
181.0
 21
155.0
 31
0.0
  0
LINE
  5
1A2D
330
1F
100
AcDbEntity
  8
0
100
AcDbLine
 10
181.0
 20
155.0
 30
0.0
 11
181.0
 21
156.0
 31
0.0
  0
LINE
  5
1A2E
330
1F
100
AcDbEntity
  8
0
100
AcDbLine
 10
181.0
 20
156.0
 30
0.0
 11
182.0
 21
156.0
 31
0.0
  0
LINE
  5
1A2F
330
1F
100
AcDbEntity
  8
0
100
AcDbLine
 10
186.0
 20
153.0
 30
0.0
 11
186.0
 21
158.0
 31
0.0
  0
LINE
  5
1A30
330
1F
100
AcDbEntity
  8
0
100
AcDbLine
 10
186.0
 20
158.0
 30
0.0
 11
197.0
 21
158.0
 31
0.0
  0
LINE
  5
1A31
330
1F
100
AcDbEntity
  8
0
100
AcDbLine
 10
197.0
 20
158.0
 30
0.0
 11
197.0
 21
153.0
 31
0.0
  0
LINE
  5
1A32
330
1F
100
AcDbEntity
  8
0
100
AcDbLine
 10
197.0
 20
153.0
 30
0.0
 11
186.0
 21
153.0
 31
0.0
  0
LINE
  5
1A33
330
1F
100
AcDbEntity
  8
0
100
AcDbLine
 10
195.0
 20
156.0
 30
0.0
 11
195.0
 21
155.0
 31
0.0
  0
LINE
  5
1A34
330
1F
100
AcDbEntity
  8
0
100
AcDbLine
 10
195.0
 20
155.0
 30
0.0
 11
194.0
 21
155.0
 31
0.0
  0
LINE
  5
1A35
330
1F
100
AcDbEntity
  8
0
100
AcDbLine
 10
194.0
 20
155.0
 30
0.0
 11
194.0
 21
156.0
 31
0.0
  0
LINE
  5
1A36
330
1F
100
AcDbEntity
  8
0
100
AcDbLine
 10
194.0
 20
156.0
 30
0.0
 11
195.0
 21
156.0
 31
0.0
  0
LINE
  5
1A37
330
1F
100
AcDbEntity
  8
0
100
AcDbLine
 10
199.0
 20
153.0
 30
0.0
 11
199.0
 21
158.0
 31
0.0
  0
LINE
  5
1A38
330
1F
100
AcDbEntity
  8
0
100
AcDbLine
 10
199.0
 20
158.0
 30
0.0
 11
210.0
 21
158.0
 31
0.0
  0
LINE
  5
1A39
330
1F
100
AcDbEntity
  8
0
100
AcDbLine
 10
210.0
 20
158.0
 30
0.0
 11
210.0
 21
153.0
 31
0.0
  0
LINE
  5
1A3A
330
1F
100
AcDbEntity
  8
0
100
AcDbLine
 10
210.0
 20
153.0
 30
0.0
 11
199.0
 21
153.0
 31
0.0
  0
LINE
  5
1A3B
330
1F
100
AcDbEntity
  8
0
100
AcDbLine
 10
208.0
 20
156.0
 30
0.0
 11
208.0
 21
155.0
 31
0.0
  0
LINE
  5
1A3C
330
1F
100
AcDbEntity
  8
0
100
AcDbLine
 10
208.0
 20
155.0
 30
0.0
 11
207.0
 21
155.0
 31
0.0
  0
LINE
  5
1A3D
330
1F
100
AcDbEntity
  8
0
100
AcDbLine
 10
207.0
 20
155.0
 30
0.0
 11
207.0
 21
156.0
 31
0.0
  0
LINE
  5
1A3E
330
1F
100
AcDbEntity
  8
0
100
AcDbLine
 10
207.0
 20
156.0
 30
0.0
 11
208.0
 21
156.0
 31
0.0
  0
LINE
  5
1A3F
330
1F
100
AcDbEntity
  8
0
100
AcDbLine
 10
173.0
 20
160.0
 30
0.0
 11
173.0
 21
165.0
 31
0.0
  0
LINE
  5
1A40
330
1F
100
AcDbEntity
  8
0
100
AcDbLine
 10
173.0
 20
165.0
 30
0.0
 11
184.0
 21
165.0
 31
0.0
  0
LINE
  5
1A41
330
1F
100
AcDbEntity
  8
0
100
AcDbLine
 10
184.0
 20
165.0
 30
0.0
 11
184.0
 21
160.0
 31
0.0
  0
LINE
  5
1A42
330
1F
100
AcDbEntity
  8
0
100
AcDbLine
 10
184.0
 20
160.0
 30
0.0
 11
173.0
 21
160.0
 31
0.0
  0
LINE
  5
1A43
330
1F
100
AcDbEntity
  8
0
100
AcDbLine
 10
182.0
 20
163.0
 30
0.0
 11
182.0
 21
162.0
 31
0.0
  0
LINE
  5
1A44
330
1F
100
AcDbEntity
  8
0
100
AcDbLine
 10
182.0
 20
162.0
 30
0.0
 11
181.0
 21
162.0
 31
0.0
  0
LINE
  5
1A45
330
1F
100
AcDbEntity
  8
0
100
AcDbLine
 10
181.0
 20
162.0
 30
0.0
 11
181.0
 21
163.0
 31
0.0
  0
LINE
  5
1A46
330
1F
100
AcDbEntity
  8
0
100
AcDbLine
 10
181.0
 20
163.0
 30
0.0
 11
182.0
 21
163.0
 31
0.0
  0
LINE
  5
1A47
330
1F
100
AcDbEntity
  8
0
100
AcDbLine
 10
186.0
 20
160.0
 30
0.0
 11
186.0
 21
165.0
 31
0.0
  0
LINE
  5
1A48
330
1F
100
AcDbEntity
  8
0
100
AcDbLine
 10
186.0
 20
165.0
 30
0.0
 11
197.0
 21
165.0
 31
0.0
  0
LINE
  5
1A49
330
1F
100
AcDbEntity
  8
0
100
AcDbLine
 10
197.0
 20
165.0
 30
0.0
 11
197.0
 21
160.0
 31
0.0
  0
LINE
  5
1A4A
330
1F
100
AcDbEntity
  8
0
100
AcDbLine
 10
197.0
 20
160.0
 30
0.0
 11
186.0
 21
160.0
 31
0.0
  0
LINE
  5
1A4B
330
1F
100
AcDbEntity
  8
0
100
AcDbLine
 10
195.0
 20
163.0
 30
0.0
 11
195.0
 21
162.0
 31
0.0
  0
LINE
  5
1A4C
330
1F
100
AcDbEntity
  8
0
100
AcDbLine
 10
195.0
 20
162.0
 30
0.0
 11
194.0
 21
162.0
 31
0.0
  0
LINE
  5
1A4D
330
1F
100
AcDbEntity
  8
0
100
AcDbLine
 10
194.0
 20
162.0
 30
0.0
 11
194.0
 21
163.0
 31
0.0
  0
LINE
  5
1A4E
330
1F
100
AcDbEntity
  8
0
100
AcDbLine
 10
194.0
 20
163.0
 30
0.0
 11
195.0
 21
163.0
 31
0.0
  0
LINE
  5
1A4F
330
1F
100
AcDbEntity
  8
0
100
AcDbLine
 10
199.0
 20
160.0
 30
0.0
 11
199.0
 21
165.0
 31
0.0
  0
LINE
  5
1A50
330
1F
100
AcDbEntity
  8
0
100
AcDbLine
 10
199.0
 20
165.0
 30
0.0
 11
210.0
 21
165.0
 31
0.0
  0
LINE
  5
1A51
330
1F
100
AcDbEntity
  8
0
100
AcDbLine
 10
210.0
 20
165.0
 30
0.0
 11
210.0
 21
160.0
 31
0.0
  0
LINE
  5
1A52
330
1F
100
AcDbEntity
  8
0
100
AcDbLine
 10
210.0
 20
160.0
 30
0.0
 11
199.0
 21
160.0
 31
0.0
  0
LINE
  5
1A53
330
1F
100
AcDbEntity
  8
0
100
AcDbLine
 10
208.0
 20
163.0
 30
0.0
 11
208.0
 21
162.0
 31
0.0
  0
LINE
  5
1A54
330
1F
100
AcDbEntity
  8
0
100
AcDbLine
 10
208.0
 20
162.0
 30
0.0
 11
207.0
 21
162.0
 31
0.0
  0
LINE
  5
1A55
330
1F
100
AcDbEntity
  8
0
100
AcDbLine
 10
207.0
 20
162.0
 30
0.0
 11
207.0
 21
163.0
 31
0.0
  0
LINE
  5
1A56
330
1F
100
AcDbEntity
  8
0
100
AcDbLine
 10
207.0
 20
163.0
 30
0.0
 11
208.0
 21
163.0
 31
0.0
  0
LINE
  5
1A57
330
1F
100
AcDbEntity
  8
0
100
AcDbLine
 10
190.0
 20
146.0
 30
0.0
 11
190.0
 21
148.0
 31
0.0
  0
LINE
  5
1A58
330
1F
100
AcDbEntity
  8
0
100
AcDbLine
 10
190.0
 20
148.0
 30
0.0
 11
188.0
 21
148.0
 31
0.0
  0
LINE
  5
1A59
330
1F
100
AcDbEntity
  8
0
100
AcDbLine
 10
188.0
 20
148.0
 30
0.0
 11
188.0
 21
150.0
 31
0.0
  0
LINE
  5
1A5A
330
1F
100
AcDbEntity
  8
0
100
AcDbLine
 10
188.0
 20
150.0
 30
0.0
 11
194.0
 21
150.0
 31
0.0
  0
LINE
  5
1A5B
330
1F
100
AcDbEntity
  8
0
100
AcDbLine
 10
194.0
 20
150.0
 30
0.0
 11
194.0
 21
148.0
 31
0.0
  0
LINE
  5
1A5C
330
1F
100
AcDbEntity
  8
0
100
AcDbLine
 10
194.0
 20
148.0
 30
0.0
 11
192.0
 21
148.0
 31
0.0
  0
LINE
  5
1A5D
330
1F
100
AcDbEntity
  8
0
100
AcDbLine
 10
192.0
 20
148.0
 30
0.0
 11
192.0
 21
146.0
 31
0.0
  0
LINE
  5
1A5E
330
1F
100
AcDbEntity
  8
0
100
AcDbLine
 10
173.0
 20
100.0
 30
0.0
 11
173.0
 21
146.0
 31
0.0
  0
LINE
  5
1A5F
330
1F
100
AcDbEntity
  8
0
100
AcDbLine
 10
209.0
 20
146.0
 30
0.0
 11
209.0
 21
100.0
 31
0.0
  0
LINE
  5
1A62
330
1F
100
AcDbEntity
  8
0
100
AcDbLine
 10
173.0
 20
146.0
 30
0.0
 11
190.0
 21
146.0
 31
0.0
  0
LINE
  5
1A63
330
1F
100
AcDbEntity
  8
0
100
AcDbLine
 10
192.0
 20
146.0
 30
0.0
 11
209.0
 21
146.0
 31
0.0
  0
LINE
  5
1A64
330
1F
100
AcDbEntity
  8
0
100
AcDbLine
 10
173.0
 20
53.0
 30
0.0
 11
190.0
 21
53.0
 31
0.0
  0
LINE
  5
1A65
330
1F
100
AcDbEntity
  8
0
100
AcDbLine
 10
192.0
 20
53.0
 30
0.0
 11
209.0
 21
53.0
 31
0.0
  0
LINE
  5
1A66
330
1F
100
AcDbEntity
  8
0
100
AcDbLine
 10
173.0
 20
167.0
 30
0.0
 11
209.0
 21
167.0
 31
0.0
  0
LINE
  5
1A67
330
1F
100
AcDbEntity
  8
0
100
AcDbLine
 10
176.0
 20
195.0
 30
0.0
 11
179.0
 21
195.0
 31
0.0
  0
LINE
  5
1A68
330
1F
100
AcDbEntity
  8
0
100
AcDbLine
 10
179.0
 20
195.0
 30
0.0
 11
179.0
 21
200.0
 31
0.0
  0
LINE
  5
1A69
330
1F
100
AcDbEntity
  8
0
100
AcDbLine
 10
179.0
 20
200.0
 30
0.0
 11
176.0
 21
200.0
 31
0.0
  0
LINE
  5
1A6A
330
1F
100
AcDbEntity
  8
0
100
AcDbLine
 10
176.0
 20
200.0
 30
0.0
 11
176.0
 21
195.0
 31
0.0
  0
LINE
  5
1A6B
330
1F
100
AcDbEntity
  8
0
100
AcDbLine
 10
182.0
 20
195.0
 30
0.0
 11
185.0
 21
195.0
 31
0.0
  0
LINE
  5
1A6C
330
1F
100
AcDbEntity
  8
0
100
AcDbLine
 10
185.0
 20
195.0
 30
0.0
 11
185.0
 21
200.0
 31
0.0
  0
LINE
  5
1A6D
330
1F
100
AcDbEntity
  8
0
100
AcDbLine
 10
185.0
 20
200.0
 30
0.0
 11
182.0
 21
200.0
 31
0.0
  0
LINE
  5
1A6E
330
1F
100
AcDbEntity
  8
0
100
AcDbLine
 10
182.0
 20
200.0
 30
0.0
 11
182.0
 21
195.0
 31
0.0
  0
LINE
  5
1A6F
330
1F
100
AcDbEntity
  8
0
100
AcDbLine
 10
188.0
 20
195.0
 30
0.0
 11
191.0
 21
195.0
 31
0.0
  0
LINE
  5
1A70
330
1F
100
AcDbEntity
  8
0
100
AcDbLine
 10
191.0
 20
195.0
 30
0.0
 11
191.0
 21
200.0
 31
0.0
  0
LINE
  5
1A71
330
1F
100
AcDbEntity
  8
0
100
AcDbLine
 10
191.0
 20
200.0
 30
0.0
 11
188.0
 21
200.0
 31
0.0
  0
LINE
  5
1A72
330
1F
100
AcDbEntity
  8
0
100
AcDbLine
 10
188.0
 20
200.0
 30
0.0
 11
188.0
 21
195.0
 31
0.0
  0
LINE
  5
1A73
330
1F
100
AcDbEntity
  8
0
100
AcDbLine
 10
194.0
 20
195.0
 30
0.0
 11
197.0
 21
195.0
 31
0.0
  0
LINE
  5
1A74
330
1F
100
AcDbEntity
  8
0
100
AcDbLine
 10
197.0
 20
195.0
 30
0.0
 11
197.0
 21
200.0
 31
0.0
  0
LINE
  5
1A75
330
1F
100
AcDbEntity
  8
0
100
AcDbLine
 10
197.0
 20
200.0
 30
0.0
 11
194.0
 21
200.0
 31
0.0
  0
LINE
  5
1A76
330
1F
100
AcDbEntity
  8
0
100
AcDbLine
 10
194.0
 20
200.0
 30
0.0
 11
194.0
 21
195.0
 31
0.0
  0
LINE
  5
1A77
330
1F
100
AcDbEntity
  8
0
100
AcDbLine
 10
200.0
 20
195.0
 30
0.0
 11
203.0
 21
195.0
 31
0.0
  0
LINE
  5
1A78
330
1F
100
AcDbEntity
  8
0
100
AcDbLine
 10
203.0
 20
195.0
 30
0.0
 11
203.0
 21
200.0
 31
0.0
  0
LINE
  5
1A79
330
1F
100
AcDbEntity
  8
0
100
AcDbLine
 10
203.0
 20
200.0
 30
0.0
 11
200.0
 21
200.0
 31
0.0
  0
LINE
  5
1A7A
330
1F
100
AcDbEntity
  8
0
100
AcDbLine
 10
200.0
 20
200.0
 30
0.0
 11
200.0
 21
195.0
 31
0.0
  0
LINE
  5
1A7B
330
1F
100
AcDbEntity
  8
0
100
AcDbLine
 10
206.0
 20
195.0
 30
0.0
 11
209.0
 21
195.0
 31
0.0
  0
LINE
  5
1A7C
330
1F
100
AcDbEntity
  8
0
100
AcDbLine
 10
209.0
 20
200.0
 30
0.0
 11
206.0
 21
200.0
 31
0.0
  0
LINE
  5
1A7D
330
1F
100
AcDbEntity
  8
0
100
AcDbLine
 10
206.0
 20
200.0
 30
0.0
 11
206.0
 21
195.0
 31
0.0
  0
LINE
  5
1A7E
330
1F
100
AcDbEntity
  8
0
100
AcDbLine
 10
173.0
 20
220.0
 30
0.0
 11
173.0
 21
225.0
 31
0.0
  0
LINE
  5
1A7F
330
1F
100
AcDbEntity
  8
0
100
AcDbLine
 10
173.0
 20
225.0
 30
0.0
 11
184.0
 21
225.0
 31
0.0
  0
LINE
  5
1A80
330
1F
100
AcDbEntity
  8
0
100
AcDbLine
 10
184.0
 20
225.0
 30
0.0
 11
184.0
 21
220.0
 31
0.0
  0
LINE
  5
1A81
330
1F
100
AcDbEntity
  8
0
100
AcDbLine
 10
184.0
 20
220.0
 30
0.0
 11
173.0
 21
220.0
 31
0.0
  0
LINE
  5
1A82
330
1F
100
AcDbEntity
  8
0
100
AcDbLine
 10
182.0
 20
223.0
 30
0.0
 11
182.0
 21
222.0
 31
0.0
  0
LINE
  5
1A83
330
1F
100
AcDbEntity
  8
0
100
AcDbLine
 10
182.0
 20
222.0
 30
0.0
 11
181.0
 21
222.0
 31
0.0
  0
LINE
  5
1A84
330
1F
100
AcDbEntity
  8
0
100
AcDbLine
 10
181.0
 20
222.0
 30
0.0
 11
181.0
 21
223.0
 31
0.0
  0
LINE
  5
1A85
330
1F
100
AcDbEntity
  8
0
100
AcDbLine
 10
181.0
 20
223.0
 30
0.0
 11
182.0
 21
223.0
 31
0.0
  0
LINE
  5
1A86
330
1F
100
AcDbEntity
  8
0
100
AcDbLine
 10
186.0
 20
220.0
 30
0.0
 11
186.0
 21
225.0
 31
0.0
  0
LINE
  5
1A87
330
1F
100
AcDbEntity
  8
0
100
AcDbLine
 10
186.0
 20
225.0
 30
0.0
 11
197.0
 21
225.0
 31
0.0
  0
LINE
  5
1A88
330
1F
100
AcDbEntity
  8
0
100
AcDbLine
 10
197.0
 20
225.0
 30
0.0
 11
197.0
 21
220.0
 31
0.0
  0
LINE
  5
1A89
330
1F
100
AcDbEntity
  8
0
100
AcDbLine
 10
197.0
 20
220.0
 30
0.0
 11
186.0
 21
220.0
 31
0.0
  0
LINE
  5
1A8A
330
1F
100
AcDbEntity
  8
0
100
AcDbLine
 10
195.0
 20
223.0
 30
0.0
 11
195.0
 21
222.0
 31
0.0
  0
LINE
  5
1A8B
330
1F
100
AcDbEntity
  8
0
100
AcDbLine
 10
195.0
 20
222.0
 30
0.0
 11
194.0
 21
222.0
 31
0.0
  0
LINE
  5
1A8C
330
1F
100
AcDbEntity
  8
0
100
AcDbLine
 10
194.0
 20
222.0
 30
0.0
 11
194.0
 21
223.0
 31
0.0
  0
LINE
  5
1A8D
330
1F
100
AcDbEntity
  8
0
100
AcDbLine
 10
194.0
 20
223.0
 30
0.0
 11
195.0
 21
223.0
 31
0.0
  0
LINE
  5
1A8E
330
1F
100
AcDbEntity
  8
0
100
AcDbLine
 10
199.0
 20
220.0
 30
0.0
 11
199.0
 21
225.0
 31
0.0
  0
LINE
  5
1A8F
330
1F
100
AcDbEntity
  8
0
100
AcDbLine
 10
199.0
 20
225.0
 30
0.0
 11
210.0
 21
225.0
 31
0.0
  0
LINE
  5
1A90
330
1F
100
AcDbEntity
  8
0
100
AcDbLine
 10
210.0
 20
225.0
 30
0.0
 11
210.0
 21
220.0
 31
0.0
  0
LINE
  5
1A91
330
1F
100
AcDbEntity
  8
0
100
AcDbLine
 10
210.0
 20
220.0
 30
0.0
 11
199.0
 21
220.0
 31
0.0
  0
LINE
  5
1A92
330
1F
100
AcDbEntity
  8
0
100
AcDbLine
 10
208.0
 20
223.0
 30
0.0
 11
208.0
 21
222.0
 31
0.0
  0
LINE
  5
1A93
330
1F
100
AcDbEntity
  8
0
100
AcDbLine
 10
208.0
 20
222.0
 30
0.0
 11
207.0
 21
222.0
 31
0.0
  0
LINE
  5
1A94
330
1F
100
AcDbEntity
  8
0
100
AcDbLine
 10
207.0
 20
222.0
 30
0.0
 11
207.0
 21
223.0
 31
0.0
  0
LINE
  5
1A95
330
1F
100
AcDbEntity
  8
0
100
AcDbLine
 10
207.0
 20
223.0
 30
0.0
 11
208.0
 21
223.0
 31
0.0
  0
LINE
  5
1A96
330
1F
100
AcDbEntity
  8
0
100
AcDbLine
 10
173.0
 20
227.0
 30
0.0
 11
173.0
 21
232.0
 31
0.0
  0
LINE
  5
1A97
330
1F
100
AcDbEntity
  8
0
100
AcDbLine
 10
173.0
 20
232.0
 30
0.0
 11
184.0
 21
232.0
 31
0.0
  0
LINE
  5
1A98
330
1F
100
AcDbEntity
  8
0
100
AcDbLine
 10
184.0
 20
232.0
 30
0.0
 11
184.0
 21
227.0
 31
0.0
  0
LINE
  5
1A99
330
1F
100
AcDbEntity
  8
0
100
AcDbLine
 10
184.0
 20
227.0
 30
0.0
 11
173.0
 21
227.0
 31
0.0
  0
LINE
  5
1A9A
330
1F
100
AcDbEntity
  8
0
100
AcDbLine
 10
182.0
 20
230.0
 30
0.0
 11
182.0
 21
229.0
 31
0.0
  0
LINE
  5
1A9B
330
1F
100
AcDbEntity
  8
0
100
AcDbLine
 10
182.0
 20
229.0
 30
0.0
 11
181.0
 21
229.0
 31
0.0
  0
LINE
  5
1A9C
330
1F
100
AcDbEntity
  8
0
100
AcDbLine
 10
181.0
 20
229.0
 30
0.0
 11
181.0
 21
230.0
 31
0.0
  0
LINE
  5
1A9D
330
1F
100
AcDbEntity
  8
0
100
AcDbLine
 10
181.0
 20
230.0
 30
0.0
 11
182.0
 21
230.0
 31
0.0
  0
LINE
  5
1A9E
330
1F
100
AcDbEntity
  8
0
100
AcDbLine
 10
186.0
 20
227.0
 30
0.0
 11
186.0
 21
232.0
 31
0.0
  0
LINE
  5
1A9F
330
1F
100
AcDbEntity
  8
0
100
AcDbLine
 10
186.0
 20
232.0
 30
0.0
 11
197.0
 21
232.0
 31
0.0
  0
LINE
  5
1AA0
330
1F
100
AcDbEntity
  8
0
100
AcDbLine
 10
197.0
 20
232.0
 30
0.0
 11
197.0
 21
227.0
 31
0.0
  0
LINE
  5
1AA1
330
1F
100
AcDbEntity
  8
0
100
AcDbLine
 10
197.0
 20
227.0
 30
0.0
 11
186.0
 21
227.0
 31
0.0
  0
LINE
  5
1AA2
330
1F
100
AcDbEntity
  8
0
100
AcDbLine
 10
195.0
 20
230.0
 30
0.0
 11
195.0
 21
229.0
 31
0.0
  0
LINE
  5
1AA3
330
1F
100
AcDbEntity
  8
0
100
AcDbLine
 10
195.0
 20
229.0
 30
0.0
 11
194.0
 21
229.0
 31
0.0
  0
LINE
  5
1AA4
330
1F
100
AcDbEntity
  8
0
100
AcDbLine
 10
194.0
 20
229.0
 30
0.0
 11
194.0
 21
230.0
 31
0.0
  0
LINE
  5
1AA5
330
1F
100
AcDbEntity
  8
0
100
AcDbLine
 10
194.0
 20
230.0
 30
0.0
 11
195.0
 21
230.0
 31
0.0
  0
LINE
  5
1AA6
330
1F
100
AcDbEntity
  8
0
100
AcDbLine
 10
199.0
 20
227.0
 30
0.0
 11
199.0
 21
232.0
 31
0.0
  0
LINE
  5
1AA7
330
1F
100
AcDbEntity
  8
0
100
AcDbLine
 10
199.0
 20
232.0
 30
0.0
 11
210.0
 21
232.0
 31
0.0
  0
LINE
  5
1AA8
330
1F
100
AcDbEntity
  8
0
100
AcDbLine
 10
210.0
 20
232.0
 30
0.0
 11
210.0
 21
227.0
 31
0.0
  0
LINE
  5
1AA9
330
1F
100
AcDbEntity
  8
0
100
AcDbLine
 10
210.0
 20
227.0
 30
0.0
 11
199.0
 21
227.0
 31
0.0
  0
LINE
  5
1AAA
330
1F
100
AcDbEntity
  8
0
100
AcDbLine
 10
208.0
 20
230.0
 30
0.0
 11
208.0
 21
229.0
 31
0.0
  0
LINE
  5
1AAB
330
1F
100
AcDbEntity
  8
0
100
AcDbLine
 10
208.0
 20
229.0
 30
0.0
 11
207.0
 21
229.0
 31
0.0
  0
LINE
  5
1AAC
330
1F
100
AcDbEntity
  8
0
100
AcDbLine
 10
207.0
 20
229.0
 30
0.0
 11
207.0
 21
230.0
 31
0.0
  0
LINE
  5
1AAD
330
1F
100
AcDbEntity
  8
0
100
AcDbLine
 10
207.0
 20
230.0
 30
0.0
 11
208.0
 21
230.0
 31
0.0
  0
LINE
  5
1AAE
330
1F
100
AcDbEntity
  8
0
100
AcDbLine
 10
201.0
 20
213.0
 30
0.0
 11
201.0
 21
215.0
 31
0.0
  0
LINE
  5
1AAF
330
1F
100
AcDbEntity
  8
0
100
AcDbLine
 10
201.0
 20
215.0
 30
0.0
 11
199.0
 21
215.0
 31
0.0
  0
LINE
  5
1AB0
330
1F
100
AcDbEntity
  8
0
100
AcDbLine
 10
199.0
 20
215.0
 30
0.0
 11
199.0
 21
217.0
 31
0.0
  0
LINE
  5
1AB1
330
1F
100
AcDbEntity
  8
0
100
AcDbLine
 10
199.0
 20
217.0
 30
0.0
 11
205.0
 21
217.0
 31
0.0
  0
LINE
  5
1AB2
330
1F
100
AcDbEntity
  8
0
100
AcDbLine
 10
205.0
 20
217.0
 30
0.0
 11
205.0
 21
215.0
 31
0.0
  0
LINE
  5
1AB3
330
1F
100
AcDbEntity
  8
0
100
AcDbLine
 10
205.0
 20
215.0
 30
0.0
 11
203.0
 21
215.0
 31
0.0
  0
LINE
  5
1AB4
330
1F
100
AcDbEntity
  8
0
100
AcDbLine
 10
203.0
 20
215.0
 30
0.0
 11
203.0
 21
213.0
 31
0.0
  0
LINE
  5
1AB5
330
1F
100
AcDbEntity
  8
0
100
AcDbLine
 10
173.0
 20
167.0
 30
0.0
 11
173.0
 21
213.0
 31
0.0
  0
LINE
  5
1AB6
330
1F
100
AcDbEntity
  8
0
100
AcDbLine
 10
209.0
 20
213.0
 30
0.0
 11
209.0
 21
167.0
 31
0.0
  0
LINE
  5
1AB9
330
1F
100
AcDbEntity
  8
0
100
AcDbLine
 10
178.0
 20
213.0
 30
0.0
 11
178.0
 21
215.0
 31
0.0
  0
LINE
  5
1ABA
330
1F
100
AcDbEntity
  8
0
100
AcDbLine
 10
178.0
 20
215.0
 30
0.0
 11
176.0
 21
215.0
 31
0.0
  0
LINE
  5
1ABB
330
1F
100
AcDbEntity
  8
0
100
AcDbLine
 10
176.0
 20
215.0
 30
0.0
 11
176.0
 21
217.0
 31
0.0
  0
LINE
  5
1ABC
330
1F
100
AcDbEntity
  8
0
100
AcDbLine
 10
176.0
 20
217.0
 30
0.0
 11
182.0
 21
217.0
 31
0.0
  0
LINE
  5
1ABD
330
1F
100
AcDbEntity
  8
0
100
AcDbLine
 10
182.0
 20
217.0
 30
0.0
 11
182.0
 21
215.0
 31
0.0
  0
LINE
  5
1ABE
330
1F
100
AcDbEntity
  8
0
100
AcDbLine
 10
182.0
 20
215.0
 30
0.0
 11
180.0
 21
215.0
 31
0.0
  0
LINE
  5
1ABF
330
1F
100
AcDbEntity
  8
0
100
AcDbLine
 10
180.0
 20
215.0
 30
0.0
 11
180.0
 21
213.0
 31
0.0
  0
LINE
  5
1AC0
330
1F
100
AcDbEntity
  8
0
100
AcDbLine
 10
203.0
 20
213.0
 30
0.0
 11
209.0
 21
213.0
 31
0.0
  0
LINE
  5
1AC1
330
1F
100
AcDbEntity
  8
0
100
AcDbLine
 10
201.0
 20
213.0
 30
0.0
 11
180.0
 21
213.0
 31
0.0
  0
LINE
  5
1AC2
330
1F
100
AcDbEntity
  8
0
100
AcDbLine
 10
173.0
 20
213.0
 30
0.0
 11
178.0
 21
213.0
 31
0.0
  0
LINE
  5
1AC3
330
1F
100
AcDbEntity
  8
0
100
AcDbLine
 10
10.0
 20
7.0
 30
0.0
 11
50.0
 21
7.0
 31
0.0
  0
LINE
  5
1AC4
330
1F
100
AcDbEntity
  8
0
100
AcDbLine
 10
60.0
 20
7.0
 30
0.0
 11
100.0
 21
7.0
 31
0.0
  0
LINE
  5
1AC5
330
1F
100
AcDbEntity
  8
0
100
AcDbLine
 10
65.0
 20
22.0
 30
0.0
 11
68.0
 21
22.0
 31
0.0
  0
LINE
  5
1AC6
330
1F
100
AcDbEntity
  8
0
100
AcDbLine
 10
68.0
 20
22.0
 30
0.0
 11
68.0
 21
27.0
 31
0.0
  0
LINE
  5
1AC7
330
1F
100
AcDbEntity
  8
0
100
AcDbLine
 10
68.0
 20
27.0
 30
0.0
 11
65.0
 21
27.0
 31
0.0
  0
LINE
  5
1AC8
330
1F
100
AcDbEntity
  8
0
100
AcDbLine
 10
65.0
 20
27.0
 30
0.0
 11
65.0
 21
22.0
 31
0.0
  0
LINE
  5
1AC9
330
1F
100
AcDbEntity
  8
0
100
AcDbLine
 10
92.0
 20
22.0
 30
0.0
 11
95.0
 21
22.0
 31
0.0
  0
LINE
  5
1ACA
330
1F
100
AcDbEntity
  8
0
100
AcDbLine
 10
95.0
 20
22.0
 30
0.0
 11
95.0
 21
27.0
 31
0.0
  0
LINE
  5
1ACB
330
1F
100
AcDbEntity
  8
0
100
AcDbLine
 10
95.0
 20
27.0
 30
0.0
 11
92.0
 21
27.0
 31
0.0
  0
LINE
  5
1ACC
330
1F
100
AcDbEntity
  8
0
100
AcDbLine
 10
92.0
 20
27.0
 30
0.0
 11
92.0
 21
22.0
 31
0.0
  0
LINE
  5
1ACD
330
1F
100
AcDbEntity
  8
0
100
AcDbLine
 10
65.0
 20
242.0
 30
0.0
 11
68.0
 21
242.0
 31
0.0
  0
LINE
  5
1ACE
330
1F
100
AcDbEntity
  8
0
100
AcDbLine
 10
68.0
 20
242.0
 30
0.0
 11
68.0
 21
247.0
 31
0.0
  0
LINE
  5
1ACF
330
1F
100
AcDbEntity
  8
0
100
AcDbLine
 10
68.0
 20
247.0
 30
0.0
 11
65.0
 21
247.0
 31
0.0
  0
LINE
  5
1AD0
330
1F
100
AcDbEntity
  8
0
100
AcDbLine
 10
65.0
 20
247.0
 30
0.0
 11
65.0
 21
242.0
 31
0.0
  0
LINE
  5
1AD1
330
1F
100
AcDbEntity
  8
0
100
AcDbLine
 10
92.0
 20
242.0
 30
0.0
 11
95.0
 21
242.0
 31
0.0
  0
LINE
  5
1AD2
330
1F
100
AcDbEntity
  8
0
100
AcDbLine
 10
95.0
 20
242.0
 30
0.0
 11
95.0
 21
247.0
 31
0.0
  0
LINE
  5
1AD3
330
1F
100
AcDbEntity
  8
0
100
AcDbLine
 10
95.0
 20
247.0
 30
0.0
 11
92.0
 21
247.0
 31
0.0
  0
LINE
  5
1AD4
330
1F
100
AcDbEntity
  8
0
100
AcDbLine
 10
92.0
 20
247.0
 30
0.0
 11
92.0
 21
242.0
 31
0.0
  0
LINE
  5
1AD5
330
1F
100
AcDbEntity
  8
0
100
AcDbLine
 10
12.0
 20
135.0
 30
0.0
 11
48.0
 21
135.0
 31
0.0
  0
LINE
  5
1AD6
330
1F
100
AcDbEntity
  8
0
100
AcDbLine
 10
12.0
 20
137.0
 30
0.0
 11
48.0
 21
137.0
 31
0.0
  0
LINE
  5
1AD7
330
1F
100
AcDbEntity
  8
0
100
AcDbLine
 10
12.0
 20
139.0
 30
0.0
 11
48.0
 21
139.0
 31
0.0
  0
LINE
  5
1AD8
330
1F
100
AcDbEntity
  8
0
100
AcDbLine
 10
12.0
 20
141.0
 30
0.0
 11
48.0
 21
141.0
 31
0.0
  0
LINE
  5
1AD9
330
1F
100
AcDbEntity
  8
0
100
AcDbLine
 10
12.0
 20
144.0
 30
0.0
 11
48.0
 21
144.0
 31
0.0
  0
LINE
  5
1ADA
330
1F
100
AcDbEntity
  8
0
100
AcDbLine
 10
12.0
 20
148.0
 30
0.0
 11
48.0
 21
148.0
 31
0.0
  0
LINE
  5
1ADB
330
1F
100
AcDbEntity
  8
0
100
AcDbLine
 10
12.0
 20
151.0
 30
0.0
 11
48.0
 21
151.0
 31
0.0
  0
LINE
  5
1ADD
330
1F
100
AcDbEntity
  8
0
100
AcDbLine
 10
212.0
 20
130.0
 30
0.0
 11
217.0
 21
130.0
 31
0.0
  0
LINE
  5
1ADF
330
1F
100
AcDbEntity
  8
0
100
AcDbLine
 10
212.0
 20
7.0
 30
0.0
 11
275.4415450925655
 21
36.58327832184897
 31
0.0
  0
LINE
  5
1AE3
330
1F
100
AcDbEntity
  8
0
100
AcDbLine
 10
275.4415450925655
 20
36.58327832184897
 30
0.0
 11
272.5043538527543
 21
42.88210526248422
 31
0.0
  0
LINE
  5
1AE5
330
1F
100
AcDbEntity
  8
0
100
AcDbLine
 10
217.0
 20
17.0
 30
0.0
 11
272.5043538527543
 21
42.88210526248422
 31
0.0
  0
LINE
  5
1AE7
330
1F
100
AcDbEntity
  8
0
100
AcDbLine
 10
217.0
 20
150.0
 30
0.0
 11
222.0
 21
150.0
 31
0.0
  0
LINE
  5
1AE9
330
1F
100
AcDbEntity
  8
0
100
AcDbLine
 10
280.4415450925655
 20
46.58327832184897
 30
0.0
 11
277.5043538527543
 21
52.88210526248422
 31
0.0
  0
LINE
  5
1AEC
330
1F
100
AcDbEntity
  8
0
100
AcDbLine
 10
275.4415450925655
 20
36.58327832184897
 30
0.0
 11
272.5043538527543
 21
42.88210526248422
 31
0.0
  0
LINE
  5
1AED
330
1F
100
AcDbEntity
  8
0
100
AcDbLine
 10
272.5043538527543
 20
42.88210526248422
 30
0.0
 11
280.4415450925655
 21
46.58327832184897
 31
0.0
  0
LINE
  5
1AEF
330
1F
100
AcDbEntity
  8
0
100
AcDbLine
 10
212.0
 20
130.0
 30
0.0
 11
212.0
 21
7.0
 31
0.0
  0
LINE
  5
1AF0
330
1F
100
AcDbEntity
  8
0
100
AcDbLine
 10
217.0
 20
17.0
 30
0.0
 11
217.0
 21
150.0
 31
0.0
  0
LINE
  5
1AF1
330
1F
100
AcDbEntity
  8
0
100
AcDbLine
 10
222.0
 20
27.0
 30
0.0
 11
222.0
 21
150.0
 31
0.0
  0
LINE
  5
1B20
330
1F
100
AcDbEntity
  8
0
100
AcDbLine
 10
222.0
 20
37.0
 30
0.0
 11
227.0
 21
37.0
 31
0.0
  0
LINE
  5
1B23
330
1F
100
AcDbEntity
  8
0
100
AcDbLine
 10
222.0
 20
27.0
 30
0.0
 11
283.5264339847681
 21
55.69024734606522
 31
0.0
  0
LINE
  5
1B24
330
1F
100
AcDbEntity
  8
0
100
AcDbLine
 10
282.5043538527543
 20
57.88210526248422
 30
0.0
 11
283.5264339847681
 21
55.69024734606522
 31
0.0
  0
LINE
  5
1B25
330
1F
100
AcDbEntity
  8
0
100
AcDbLine
 10
227.0
 20
42.0
 30
0.0
 11
232.0
 21
42.0
 31
0.0
  0
LINE
  5
1B26
330
1F
100
AcDbEntity
  8
0
100
AcDbLine
 10
232.0
 20
42.0
 30
0.0
 11
232.0
 21
37.0
 31
0.0
  0
LINE
  5
1B27
330
1F
100
AcDbEntity
  8
0
100
AcDbLine
 10
232.0
 20
37.0
 30
0.0
 11
287.5043538527543
 21
62.88210526248422
 31
0.0
  0
LINE
  5
1B28
330
1F
100
AcDbEntity
  8
0
100
AcDbLine
 10
287.5043538527543
 20
62.88210526248422
 30
0.0
 11
288.5264339847681
 21
60.69024734606522
 31
0.0
  0
LINE
  5
1B2B
330
1F
100
AcDbEntity
  8
0
100
AcDbLine
 10
227.0
 20
32.0
 30
0.0
 11
288.5264339847681
 21
60.69024734606522
 31
0.0
  0
LINE
  5
1B2C
330
1F
100
AcDbEntity
  8
0
100
AcDbLine
 10
227.0
 20
32.0
 30
0.0
 11
227.0
 21
42.0
 31
0.0
  0
LINE
  5
1B87
330
1F
100
AcDbEntity
  8
0
100
AcDbLine
 10
7.0
 20
230.0
 30
0.0
 11
53.0
 21
230.0
 31
0.0
  0
ENDSEC
  0
SECTION
  2
OBJECTS
  0
DICTIONARY
  5
C
330
0
100
AcDbDictionary
  3
ACAD_DETAILVIEWSTYLE
350
B5
  3
ACAD_GROUP
350
D
  3
ACAD_IMAGE_VARS
350
6A
  3
ACAD_MLINESTYLE
350
17
  3
ACAD_SCALELIST
350
10A4
  3
ACAD_SECTIONVIEWSTYLE
350
B6
  3
ACDBVARIABLEDICTIONARY
350
3D
  3
APPDATA
350
71
  3
DWGPROPS
350
1BB5
1001
ACAD
1000
TREAT_AS_HARD
1070
     0
  0
DICTIONARY
  5
B5
102
{ACAD_REACTORS
330
C
102
}
330
C
100
AcDbDictionary
1001
ACAD
1000
TREAT_AS_HARD
1070
     0
  0
DICTIONARY
  5
D
102
{ACAD_REACTORS
330
C
102
}
330
C
100
AcDbDictionary
1001
ACAD
1000
TREAT_AS_HARD
1070
     0
  0
RASTERVARIABLES
  5
6A
102
{ACAD_REACTORS
330
C
102
}
330
C
100
AcDbRasterVariables
 90
        0
 70
     1
 71
     1
 72
     1
  0
DICTIONARY
  5
17
102
{ACAD_REACTORS
330
C
102
}
330
C
100
AcDbDictionary
  3
STANDARD
350
18
1001
ACAD
1000
TREAT_AS_HARD
1070
     0
  0
DICTIONARY
  5
10A4
102
{ACAD_REACTORS
330
C
102
}
330
C
100
AcDbDictionary
1001
ACAD
1000
TREAT_AS_HARD
1070
     0
  0
DICTIONARY
  5
B6
102
{ACAD_REACTORS
330
C
102
}
330
C
100
AcDbDictionary
1001
ACAD
1000
TREAT_AS_HARD
1070
     0
  0
DICTIONARY
  5
3D
102
{ACAD_REACTORS
330
C
102
}
330
C
100
AcDbDictionary
1001
ACAD
1000
TREAT_AS_HARD
1070
     0
  0
DICTIONARY
  5
71
102
{ACAD_REACTORS
330
C
102
}
330
C
100
AcDbDictionary
1001
ACAD
1000
TREAT_AS_HARD
1070
     0
  0
XRECORD
  5
1BB5
102
{ACAD_REACTORS
330
C
102
}
330
C
100
AcDbXrecord
  1
DWGPROPS COOKIE
  2

  3

  4

  6

  7

  8
jamescarr
  9

300
=
301
=
302
=
303
=
304
=
305
=
306
=
307
=
308
=
309
=
 40
0.0
 41
2455022.637359514
 42
2457678.756643518
  1

 90
        0
  0
MLINESTYLE
  5
18
102
{ACAD_REACTORS
330
17
102
}
330
17
100
AcDbMlineStyle
  2
Standard
 70
     0
  3

 62
   256
 51
90.0
 52
90.0
 71
     2
 49
0.5
 62
   256
  6
BYLAYER
 49
-0.5
 62
   256
  6
BYLAYER
  0
ENDSEC
  0
EOF
