  0
SECTION
  2
HEADER
  9
$ACADVER
  1
AC1027
  9
$ACADMAINTVER
 70
     8
  9
$DWGCODEPAGE
  3
ANSI_1252
  9
$REQUIREDVERSIONS
160
                 0
  9
$LASTSAVEDBY
  1
jamescarr
  9
$INSBASE
 10
0.0
 20
0.0
 30
0.0
  9
$EXTMIN
 10
7.0
 20
7.0
 30
0.0
  9
$EXTMAX
 10
207.0
 20
263.0
 30
0.0
  9
$LIMMIN
 10
0.0
 20
0.0
  9
$LIMMAX
 10
420.0
 20
297.0
  9
$ORTHOMODE
 70
     0
  9
$REGENMODE
 70
     1
  9
$FILLMODE
 70
     1
  9
$QTEXTMODE
 70
     0
  9
$MIRRTEXT
 70
     0
  9
$LTSCALE
 40
1.0
  9
$ATTMODE
 70
     1
  9
$TEXTSIZE
 40
2.5
  9
$TRACEWID
 40
1.0
  9
$TEXTSTYLE
  7
STANDARD
  9
$CLAYER
  8
0
  9
$CELTYPE
  6
BYLAYER
  9
$CECOLOR
 62
   256
  9
$CELTSCALE
 40
1.0
  9
$DISPSILH
 70
     0
  9
$DIMSCALE
 40
1.0
  9
$DIMASZ
 40
2.5
  9
$DIMEXO
 40
0.625
  9
$DIMDLI
 40
3.75
  9
$DIMRND
 40
0.0
  9
$DIMDLE
 40
0.0
  9
$DIMEXE
 40
1.25
  9
$DIMTP
 40
0.0
  9
$DIMTM
 40
0.0
  9
$DIMTXT
 40
2.5
  9
$DIMCEN
 40
2.5
  9
$DIMTSZ
 40
0.0
  9
$DIMTOL
 70
     0
  9
$DIMLIM
 70
     0
  9
$DIMTIH
 70
     0
  9
$DIMTOH
 70
     0
  9
$DIMSE1
 70
     0
  9
$DIMSE2
 70
     0
  9
$DIMTAD
 70
     1
  9
$DIMZIN
 70
     8
  9
$DIMBLK
  1

  9
$DIMASO
 70
     1
  9
$DIMSHO
 70
     1
  9
$DIMPOST
  1

  9
$DIMAPOST
  1

  9
$DIMALT
 70
     0
  9
$DIMALTD
 70
     3
  9
$DIMALTF
 40
0.03937007874016
  9
$DIMLFAC
 40
1.0
  9
$DIMTOFL
 70
     1
  9
$DIMTVP
 40
0.0
  9
$DIMTIX
 70
     0
  9
$DIMSOXD
 70
     0
  9
$DIMSAH
 70
     0
  9
$DIMBLK1
  1

  9
$DIMBLK2
  1

  9
$DIMSTYLE
  2
ISO-25
  9
$DIMCLRD
 70
     0
  9
$DIMCLRE
 70
     0
  9
$DIMCLRT
 70
     0
  9
$DIMTFAC
 40
1.0
  9
$DIMGAP
 40
0.625
  9
$DIMJUST
 70
     0
  9
$DIMSD1
 70
     0
  9
$DIMSD2
 70
     0
  9
$DIMTOLJ
 70
     0
  9
$DIMTZIN
 70
     8
  9
$DIMALTZ
 70
     0
  9
$DIMALTTZ
 70
     0
  9
$DIMUPT
 70
     0
  9
$DIMDEC
 70
     2
  9
$DIMTDEC
 70
     2
  9
$DIMALTU
 70
     2
  9
$DIMALTTD
 70
     3
  9
$DIMTXSTY
  7
STANDARD
  9
$DIMAUNIT
 70
     0
  9
$DIMADEC
 70
     0
  9
$DIMALTRND
 40
0.0
  9
$DIMAZIN
 70
     0
  9
$DIMDSEP
 70
    46
  9
$DIMATFIT
 70
     3
  9
$DIMFRAC
 70
     0
  9
$DIMLDRBLK
  1

  9
$DIMLUNIT
 70
     2
  9
$DIMLWD
 70
    -2
  9
$DIMLWE
 70
    -2
  9
$DIMTMOVE
 70
     2
  9
$DIMFXL
 40
1.0
  9
$DIMFXLON
 70
     0
  9
$DIMJOGANG
 40
0.7853981633974483
  9
$DIMTFILL
 70
     0
  9
$DIMTFILLCLR
 70
     0
  9
$DIMARCSYM
 70
     0
  9
$DIMLTYPE
  6

  9
$DIMLTEX1
  6

  9
$DIMLTEX2
  6

  9
$DIMTXTDIRECTION
 70
     0
  9
$LUNITS
 70
     2
  9
$LUPREC
 70
     3
  9
$SKETCHINC
 40
1.0
  9
$FILLETRAD
 40
10.0
  9
$AUNITS
 70
     0
  9
$AUPREC
 70
     0
  9
$MENU
  1
.
  9
$ELEVATION
 40
0.0
  9
$PELEVATION
 40
0.0
  9
$THICKNESS
 40
0.0
  9
$LIMCHECK
 70
     0
  9
$CHAMFERA
 40
10.0
  9
$CHAMFERB
 40
10.0
  9
$CHAMFERC
 40
20.0
  9
$CHAMFERD
 40
0.0
  9
$SKPOLY
 70
     0
  9
$TDCREATE
 40
2455022.637359514
  9
$TDUCREATE
 40
2455022.637359514
  9
$TDUPDATE
 40
2457675.002800926
  9
$TDUUPDATE
 40
2457675.002800926
  9
$TDINDWG
 40
0.0000115741
  9
$TDUSRTIMER
 40
2457674.968368056
  9
$USRTIMER
 70
     1
  9
$ANGBASE
 50
0.0
  9
$ANGDIR
 70
     0
  9
$PDMODE
 70
     0
  9
$PDSIZE
 40
0.0
  9
$PLINEWID
 40
0.0
  9
$SPLFRAME
 70
     0
  9
$SPLINETYPE
 70
     6
  9
$SPLINESEGS
 70
     8
  9
$HANDSEED
  5
150D
  9
$SURFTAB1
 70
     6
  9
$SURFTAB2
 70
     6
  9
$SURFTYPE
 70
     6
  9
$SURFU
 70
     6
  9
$SURFV
 70
     6
  9
$UCSBASE
  2

  9
$UCSNAME
  2

  9
$UCSORG
 10
0.0
 20
0.0
 30
0.0
  9
$UCSXDIR
 10
1.0
 20
0.0
 30
0.0
  9
$UCSYDIR
 10
0.0
 20
1.0
 30
0.0
  9
$UCSORTHOREF
  2

  9
$UCSORTHOVIEW
 70
     0
  9
$UCSORGTOP
 10
0.0
 20
0.0
 30
0.0
  9
$UCSORGBOTTOM
 10
0.0
 20
0.0
 30
0.0
  9
$UCSORGLEFT
 10
0.0
 20
0.0
 30
0.0
  9
$UCSORGRIGHT
 10
0.0
 20
0.0
 30
0.0
  9
$UCSORGFRONT
 10
0.0
 20
0.0
 30
0.0
  9
$UCSORGBACK
 10
0.0
 20
0.0
 30
0.0
  9
$PUCSBASE
  2

  9
$PUCSNAME
  2

  9
$PUCSORG
 10
0.0
 20
0.0
 30
0.0
  9
$PUCSXDIR
 10
1.0
 20
0.0
 30
0.0
  9
$PUCSYDIR
 10
0.0
 20
1.0
 30
0.0
  9
$PUCSORTHOREF
  2

  9
$PUCSORTHOVIEW
 70
     0
  9
$PUCSORGTOP
 10
0.0
 20
0.0
 30
0.0
  9
$PUCSORGBOTTOM
 10
0.0
 20
0.0
 30
0.0
  9
$PUCSORGLEFT
 10
0.0
 20
0.0
 30
0.0
  9
$PUCSORGRIGHT
 10
0.0
 20
0.0
 30
0.0
  9
$PUCSORGFRONT
 10
0.0
 20
0.0
 30
0.0
  9
$PUCSORGBACK
 10
0.0
 20
0.0
 30
0.0
  9
$USERI1
 70
     0
  9
$USERI2
 70
     0
  9
$USERI3
 70
     0
  9
$USERI4
 70
     0
  9
$USERI5
 70
     0
  9
$USERR1
 40
0.0
  9
$USERR2
 40
0.0
  9
$USERR3
 40
0.0
  9
$USERR4
 40
0.0
  9
$USERR5
 40
0.0
  9
$WORLDVIEW
 70
     1
  9
$SHADEDGE
 70
     3
  9
$SHADEDIF
 70
    70
  9
$TILEMODE
 70
     1
  9
$MAXACTVP
 70
    64
  9
$PINSBASE
 10
0.0
 20
0.0
 30
0.0
  9
$PLIMCHECK
 70
     0
  9
$PEXTMIN
 10
1.000000000000000E+20
 20
1.000000000000000E+20
 30
1.000000000000000E+20
  9
$PEXTMAX
 10
-1.000000000000000E+20
 20
-1.000000000000000E+20
 30
-1.000000000000000E+20
  9
$PLIMMIN
 10
0.0
 20
0.0
  9
$PLIMMAX
 10
0.0
 20
0.0
  9
$UNITMODE
 70
     0
  9
$VISRETAIN
 70
     1
  9
$PLINEGEN
 70
     0
  9
$PSLTSCALE
 70
     1
  9
$TREEDEPTH
 70
  3020
  9
$CMLSTYLE
  2
STANDARD
  9
$CMLJUST
 70
     0
  9
$CMLSCALE
 40
20.0
  9
$PROXYGRAPHICS
 70
     1
  9
$MEASUREMENT
 70
     0
  9
$CELWEIGHT
370
    -1
  9
$ENDCAPS
280
     0
  9
$JOINSTYLE
280
     0
  9
$LWDISPLAY
290
     0
  9
$INSUNITS
 70
     0
  9
$HYPERLINKBASE
  1

  9
$STYLESHEET
  1

  9
$XEDIT
290
     1
  9
$CEPSNTYPE
380
     0
  9
$PSTYLEMODE
290
     1
  9
$FINGERPRINTGUID
  2
{A0684C69-96D0-7475-F02C-174232201E9A}
  9
$VERSIONGUID
  2
{FAEB1C32-E019-11D5-929B-00C0DF256EC4}
  9
$EXTNAMES
290
     1
  9
$PSVPSCALE
 40
0.0
  9
$OLESTARTUP
290
     0
  9
$SORTENTS
280
   127
  9
$INDEXCTL
280
     0
  9
$HIDETEXT
280
     1
  9
$XCLIPFRAME
280
     2
  9
$HALOGAP
280
     0
  9
$OBSCOLOR
 70
   257
  9
$OBSLTYPE
280
     0
  9
$INTERSECTIONDISPLAY
280
     0
  9
$INTERSECTIONCOLOR
 70
   257
  9
$DIMASSOC
280
     2
  9
$PROJECTNAME
  1

  9
$CAMERADISPLAY
290
     0
  9
$LENSLENGTH
 40
50.0
  9
$CAMERAHEIGHT
 40
0.0
  9
$STEPSPERSEC
 40
2.0
  9
$STEPSIZE
 40
6.0
  9
$3DDWFPREC
 40
2.0
  9
$PSOLWIDTH
 40
0.25
  9
$PSOLHEIGHT
 40
4.0
  9
$LOFTANG1
 40
1.570796326794897
  9
$LOFTANG2
 40
1.570796326794897
  9
$LOFTMAG1
 40
0.0
  9
$LOFTMAG2
 40
0.0
  9
$LOFTPARAM
 70
     7
  9
$LOFTNORMALS
280
     1
  9
$LATITUDE
 40
37.795
  9
$LONGITUDE
 40
-122.394
  9
$NORTHDIRECTION
 40
0.0
  9
$TIMEZONE
 70
 -8000
  9
$LIGHTGLYPHDISPLAY
280
     1
  9
$TILEMODELIGHTSYNCH
280
     1
  9
$SOLIDHIST
280
     0
  9
$SHOWHIST
280
     1
  9
$DWFFRAME
280
     2
  9
$DGNFRAME
280
     2
  9
$REALWORLDSCALE
290
     1
  9
$INTERFERECOLOR
 62
   256
  9
$CSHADOW
280
     0
  9
$SHADOWPLANELOCATION
 40
0.0
  0
ENDSEC
  0
SECTION
  2
CLASSES
  0
CLASS
  1
ACDBDICTIONARYWDFLT
  2
AcDbDictionaryWithDefault
  3
ObjectDBX Classes
 90
        0
 91
        4
280
     0
281
     0
  0
CLASS
  1
VISUALSTYLE
  2
AcDbVisualStyle
  3
ObjectDBX Classes
 90
     4095
 91
        4
280
     0
281
     0
  0
CLASS
  1
TABLESTYLE
  2
AcDbTableStyle
  3
ObjectDBX Classes
 90
     4095
 91
        4
280
     0
281
     0
  0
CLASS
  1
DICTIONARYVAR
  2
AcDbDictionaryVar
  3
ObjectDBX Classes
 90
        0
 91
        4
280
     0
281
     0
  0
CLASS
  1
SCALE
  2
AcDbScale
  3
ObjectDBX Classes
 90
     1153
 91
        4
280
     0
281
     0
  0
CLASS
  1
CELLSTYLEMAP
  2
AcDbCellStyleMap
  3
ObjectDBX Classes
 90
     1152
 91
        4
280
     0
281
     0
  0
CLASS
  1
RASTERVARIABLES
  2
AcDbRasterVariables
  3
ISM
 90
        0
 91
        4
280
     0
281
     0
  0
CLASS
  1
MATERIAL
  2
AcDbMaterial
  3
ObjectDBX Classes
 90
     1153
 91
        4
280
     0
281
     0
  0
CLASS
  1
SUN
  2
AcDbSun
  3
SCENEOE
 90
     1153
 91
        4
280
     0
281
     0
  0
CLASS
  1
MLEADERSTYLE
  2
AcDbMLeaderStyle
  3
ACDB_MLEADERSTYLE_CLASS
 90
     4095
 91
        4
280
     0
281
     0
  0
CLASS
  1
XRECORD
  2
AcDbXrecord
  3
ObjectDBX Classes
 90
        0
 91
        1
280
     0
281
     0
  0
ENDSEC
  0
SECTION
  2
TABLES
  0
TABLE
  2
VPORT
  5
8
330
0
100
AcDbSymbolTable
 70
     1
  0
VPORT
  5
29
330
8
100
AcDbSymbolTableRecord
100
AcDbViewportTableRecord
  2
*ACTIVE
 70
     0
 10
0.0
 20
0.0
 11
1.0
 21
1.0
 12
246.6846738366032
 22
121.6468273695611
 13
0.0
 23
0.0
 14
10.0
 24
10.0
 15
10.0
 25
10.0
 16
0.0
 26
0.0
 36
1.0
 17
-134.1869158878501
 27
0.0
 37
0.0
 40
246.5279999999999
 41
1.5
 42
50.0
 43
0.0
 44
0.0
 50
0.0
 51
0.0
 71
    16
 72
  1000
 73
     1
 74
     3
 75
     0
 76
     1
 77
     0
 78
     0
281
     0
 65
     1
110
0.0
120
0.0
130
0.0
111
1.0
121
0.0
131
0.0
112
0.0
122
1.0
132
0.0
 79
     0
146
0.0
348
10CE
 60
     3
 61
     5
292
     1
282
     1
141
0.0
142
0.0
 63
   256
361
10EA
  0
ENDTAB
  0
TABLE
  2
LTYPE
  5
5
330
0
100
AcDbSymbolTable
 70
     1
  0
LTYPE
  5
14
330
5
100
AcDbSymbolTableRecord
100
AcDbLinetypeTableRecord
  2
BYBLOCK
 70
     0
  3

 72
    65
 73
     0
 40
0.0
  0
LTYPE
  5
15
330
5
100
AcDbSymbolTableRecord
100
AcDbLinetypeTableRecord
  2
BYLAYER
 70
     0
  3

 72
    65
 73
     0
 40
0.0
  0
LTYPE
  5
16
330
5
100
AcDbSymbolTableRecord
100
AcDbLinetypeTableRecord
  2
CONTINUOUS
 70
     0
  3
Solid line
 72
    65
 73
     0
 40
0.0
  0
ENDTAB
  0
TABLE
  2
LAYER
  5
2
330
0
100
AcDbSymbolTable
 70
     1
  0
LAYER
  5
10
330
2
100
AcDbSymbolTableRecord
100
AcDbLayerTableRecord
  2
0
 70
     0
 62
     7
  6
CONTINUOUS
370
    -3
390
0
347
10E5
348
0
  0
ENDTAB
  0
TABLE
  2
STYLE
  5
3
330
0
100
AcDbSymbolTable
 70
     2
  0
STYLE
  5
11
330
3
100
AcDbSymbolTableRecord
100
AcDbTextStyleTableRecord
  2
STANDARD
 70
     0
 40
0.0
 41
1.0
 50
0.0
 71
     0
 42
2.5
  3
arial.ttf
  4

1001
ACAD
1000
Arial
1071
        0
  0
STYLE
  5
B8
330
3
100
AcDbSymbolTableRecord
100
AcDbTextStyleTableRecord
  2
ANNOTATIVE
 70
     0
 40
0.0
 41
1.0
 50
0.0
 71
     0
 42
2.5
  3
arial.ttf
  4

1001
ACAD
1000
Arial
1071
        0
1001
ACADANNOTATIVE
1000
AnnotativeData
1002
{
1070
     1
1070
     1
1002
}
  0
ENDTAB
  0
TABLE
  2
VIEW
  5
6
330
0
100
AcDbSymbolTable
 70
     0
  0
ENDTAB
  0
TABLE
  2
UCS
  5
7
330
0
100
AcDbSymbolTable
 70
     0
  0
ENDTAB
  0
TABLE
  2
APPID
  5
9
330
0
100
AcDbSymbolTable
 70
     2
  0
APPID
  5
12
330
9
100
AcDbSymbolTableRecord
100
AcDbRegAppTableRecord
  2
ACAD
 70
     0
  0
APPID
  5
B9
330
9
100
AcDbSymbolTableRecord
100
AcDbRegAppTableRecord
  2
ACADANNOTATIVE
 70
     0
  0
ENDTAB
  0
TABLE
  2
DIMSTYLE
  5
A
330
0
100
AcDbSymbolTable
 70
     2
100
AcDbDimStyleTable
  0
DIMSTYLE
105
27
330
A
100
AcDbSymbolTableRecord
100
AcDbDimStyleTableRecord
  2
ISO-25
 70
     0
 41
2.5
 42
0.625
 43
3.75
 44
1.25
 73
     0
 74
     0
 77
     1
 78
     8
140
2.5
141
2.5
143
0.03937007874016
147
0.625
171
     3
172
     1
178
     0
271
     2
272
     2
274
     3
283
     0
284
     8
340
11
  0
DIMSTYLE
105
BA
330
A
100
AcDbSymbolTableRecord
100
AcDbDimStyleTableRecord
  2
ANNOTATIVE
 70
     0
 40
0.0
 41
2.5
 42
0.625
 43
3.75
 44
1.25
 73
     0
 74
     0
 77
     1
 78
     8
140
2.5
141
2.5
143
0.03937007874016
147
0.625
171
     3
172
     1
178
     0
271
     2
272
     2
274
     3
283
     0
284
     8
340
11
1001
ACADANNOTATIVE
1000
AnnotativeData
1002
{
1070
     1
1070
     1
1002
}
  0
ENDTAB
  0
TABLE
  2
BLOCK_RECORD
  5
1
330
0
100
AcDbSymbolTable
 70
     1
  0
BLOCK_RECORD
  5
1F
330
1
100
AcDbSymbolTableRecord
100
AcDbBlockTableRecord
  2
*MODEL_SPACE
340
10C7
 70
     0
280
     1
281
     0
  0
BLOCK_RECORD
  5
1B
330
1
100
AcDbSymbolTableRecord
100
AcDbBlockTableRecord
  2
*PAPER_SPACE
340
10C8
 70
     0
280
     1
281
     0
  0
BLOCK_RECORD
  5
23
330
1
100
AcDbSymbolTableRecord
100
AcDbBlockTableRecord
  2
*PAPER_SPACE0
340
0
 70
     0
280
     1
281
     0
  0
ENDTAB
  0
ENDSEC
  0
SECTION
  2
BLOCKS
  0
BLOCK
  5
20
330
1F
100
AcDbEntity
  8
0
100
AcDbBlockBegin
  2
*MODEL_SPACE
 70
     0
 10
0.0
 20
0.0
 30
0.0
  3
*MODEL_SPACE
  1
*MODEL_SPACE
  0
ENDBLK
  5
21
330
1F
100
AcDbEntity
  8
0
100
AcDbBlockEnd
  0
BLOCK
  5
1C
330
1B
100
AcDbEntity
 67
     1
  8
0
100
AcDbBlockBegin
  2
*PAPER_SPACE
 70
     0
 10
0.0
 20
0.0
 30
0.0
  3
*PAPER_SPACE
  1
*PAPER_SPACE
  0
ENDBLK
  5
1D
330
1B
100
AcDbEntity
 67
     1
  8
0
100
AcDbBlockEnd
  0
BLOCK
  5
24
330
23
100
AcDbEntity
  8
0
100
AcDbBlockBegin
  2
*PAPER_SPACE0
 70
     0
 10
0.0
 20
0.0
 30
0.0
  3
*PAPER_SPACE0
  1
*PAPER_SPACE0
  0
ENDBLK
  5
25
330
23
100
AcDbEntity
  8
0
100
AcDbBlockEnd
  0
ENDSEC
  0
SECTION
  2
ENTITIES
  0
LINE
  5
10EB
102
{ACAD_REACTORS
330
1179
102
}
330
1F
100
AcDbEntity
  8
0
100
AcDbLine
 10
10.0
 20
10.0
 30
0.0
 11
10.0
 21
20.0
 31
0.0
  0
LINE
  5
10EF
102
{ACAD_REACTORS
330
1179
102
}
330
1F
100
AcDbEntity
  8
0
100
AcDbLine
 10
10.0
 20
20.0
 30
0.0
 11
7.0
 21
20.0
 31
0.0
  0
LINE
  5
10F0
102
{ACAD_REACTORS
330
1179
102
}
330
1F
100
AcDbEntity
  8
0
100
AcDbLine
 10
7.0
 20
20.0
 30
0.0
 11
7.0
 21
30.0
 31
0.0
  0
LINE
  5
10F1
102
{ACAD_REACTORS
330
1179
102
}
330
1F
100
AcDbEntity
  8
0
100
AcDbLine
 10
7.0
 20
30.0
 30
0.0
 11
10.0
 21
30.0
 31
0.0
  0
LINE
  5
10F2
102
{ACAD_REACTORS
330
1179
102
}
330
1F
100
AcDbEntity
  8
0
100
AcDbLine
 10
10.0
 20
30.0
 30
0.0
 11
10.0
 21
40.0
 31
0.0
  0
LINE
  5
10F3
102
{ACAD_REACTORS
330
1179
102
}
330
1F
100
AcDbEntity
  8
0
100
AcDbLine
 10
10.0
 20
40.0
 30
0.0
 11
7.0
 21
40.0
 31
0.0
  0
LINE
  5
10F4
102
{ACAD_REACTORS
330
1179
102
}
330
1F
100
AcDbEntity
  8
0
100
AcDbLine
 10
7.0
 20
40.0
 30
0.0
 11
7.0
 21
50.0
 31
0.0
  0
LINE
  5
10F5
102
{ACAD_REACTORS
330
1179
102
}
330
1F
100
AcDbEntity
  8
0
100
AcDbLine
 10
7.0
 20
50.0
 30
0.0
 11
10.0
 21
50.0
 31
0.0
  0
LINE
  5
10F6
102
{ACAD_REACTORS
330
1179
102
}
330
1F
100
AcDbEntity
  8
0
100
AcDbLine
 10
10.0
 20
50.0
 30
0.0
 11
10.0
 21
60.0
 31
0.0
  0
LINE
  5
10F7
102
{ACAD_REACTORS
330
1179
102
}
330
1F
100
AcDbEntity
  8
0
100
AcDbLine
 10
10.0
 20
60.0
 30
0.0
 11
7.0
 21
60.0
 31
0.0
  0
LINE
  5
10F8
102
{ACAD_REACTORS
330
1179
102
}
330
1F
100
AcDbEntity
  8
0
100
AcDbLine
 10
7.0
 20
60.0
 30
0.0
 11
7.0
 21
70.0
 31
0.0
  0
LINE
  5
10F9
102
{ACAD_REACTORS
330
1179
102
}
330
1F
100
AcDbEntity
  8
0
100
AcDbLine
 10
7.0
 20
70.0
 30
0.0
 11
10.0
 21
70.0
 31
0.0
  0
LINE
  5
10FA
102
{ACAD_REACTORS
330
1179
102
}
330
1F
100
AcDbEntity
  8
0
100
AcDbLine
 10
10.0
 20
70.0
 30
0.0
 11
10.0
 21
80.0
 31
0.0
  0
LINE
  5
10FB
102
{ACAD_REACTORS
330
1179
102
}
330
1F
100
AcDbEntity
  8
0
100
AcDbLine
 10
10.0
 20
80.0
 30
0.0
 11
7.0
 21
80.0
 31
0.0
  0
LINE
  5
10FC
102
{ACAD_REACTORS
330
1179
102
}
330
1F
100
AcDbEntity
  8
0
100
AcDbLine
 10
7.0
 20
80.0
 30
0.0
 11
7.0
 21
90.0
 31
0.0
  0
LINE
  5
10FD
102
{ACAD_REACTORS
330
1179
102
}
330
1F
100
AcDbEntity
  8
0
100
AcDbLine
 10
7.0
 20
90.0
 30
0.0
 11
10.0
 21
90.0
 31
0.0
  0
LINE
  5
10FE
102
{ACAD_REACTORS
330
1179
102
}
330
1F
100
AcDbEntity
  8
0
100
AcDbLine
 10
10.0
 20
90.0
 30
0.0
 11
10.0
 21
100.0
 31
0.0
  0
LINE
  5
10FF
102
{ACAD_REACTORS
330
1179
102
}
330
1F
100
AcDbEntity
  8
0
100
AcDbLine
 10
10.0
 20
100.0
 30
0.0
 11
7.0
 21
100.0
 31
0.0
  0
LINE
  5
1100
102
{ACAD_REACTORS
330
1179
102
}
330
1F
100
AcDbEntity
  8
0
100
AcDbLine
 10
7.0
 20
100.0
 30
0.0
 11
7.0
 21
110.0
 31
0.0
  0
LINE
  5
1101
102
{ACAD_REACTORS
330
1179
102
}
330
1F
100
AcDbEntity
  8
0
100
AcDbLine
 10
7.0
 20
110.0
 30
0.0
 11
10.0
 21
110.0
 31
0.0
  0
LINE
  5
1102
102
{ACAD_REACTORS
330
1179
102
}
330
1F
100
AcDbEntity
  8
0
100
AcDbLine
 10
10.0
 20
110.0
 30
0.0
 11
10.0
 21
120.0
 31
0.0
  0
LINE
  5
1103
102
{ACAD_REACTORS
330
1179
102
}
330
1F
100
AcDbEntity
  8
0
100
AcDbLine
 10
10.0
 20
120.0
 30
0.0
 11
7.0
 21
120.0
 31
0.0
  0
LINE
  5
1104
102
{ACAD_REACTORS
330
1179
102
}
330
1F
100
AcDbEntity
  8
0
100
AcDbLine
 10
7.0
 20
120.0
 30
0.0
 11
7.0
 21
130.0
 31
0.0
  0
LINE
  5
1105
102
{ACAD_REACTORS
330
1179
102
}
330
1F
100
AcDbEntity
  8
0
100
AcDbLine
 10
7.0
 20
130.0
 30
0.0
 11
10.0
 21
130.0
 31
0.0
  0
LINE
  5
1106
102
{ACAD_REACTORS
330
1179
102
}
330
1F
100
AcDbEntity
  8
0
100
AcDbLine
 10
10.0
 20
130.0
 30
0.0
 11
10.0
 21
140.0
 31
0.0
  0
LINE
  5
1107
102
{ACAD_REACTORS
330
1179
102
}
330
1F
100
AcDbEntity
  8
0
100
AcDbLine
 10
10.0
 20
140.0
 30
0.0
 11
7.0
 21
140.0
 31
0.0
  0
LINE
  5
1108
102
{ACAD_REACTORS
330
1179
102
}
330
1F
100
AcDbEntity
  8
0
100
AcDbLine
 10
7.0
 20
140.0
 30
0.0
 11
7.0
 21
150.0
 31
0.0
  0
LINE
  5
1109
102
{ACAD_REACTORS
330
1179
102
}
330
1F
100
AcDbEntity
  8
0
100
AcDbLine
 10
7.0
 20
150.0
 30
0.0
 11
10.0
 21
150.0
 31
0.0
  0
LINE
  5
110A
102
{ACAD_REACTORS
330
1179
102
}
330
1F
100
AcDbEntity
  8
0
100
AcDbLine
 10
10.0
 20
150.0
 30
0.0
 11
10.0
 21
160.0
 31
0.0
  0
LINE
  5
110B
102
{ACAD_REACTORS
330
1179
102
}
330
1F
100
AcDbEntity
  8
0
100
AcDbLine
 10
10.0
 20
160.0
 30
0.0
 11
7.0
 21
160.0
 31
0.0
  0
LINE
  5
110C
102
{ACAD_REACTORS
330
1179
102
}
330
1F
100
AcDbEntity
  8
0
100
AcDbLine
 10
7.0
 20
160.0
 30
0.0
 11
7.0
 21
170.0
 31
0.0
  0
LINE
  5
110D
102
{ACAD_REACTORS
330
1179
102
}
330
1F
100
AcDbEntity
  8
0
100
AcDbLine
 10
7.0
 20
170.0
 30
0.0
 11
10.0
 21
170.0
 31
0.0
  0
LINE
  5
110E
102
{ACAD_REACTORS
330
1179
102
}
330
1F
100
AcDbEntity
  8
0
100
AcDbLine
 10
10.0
 20
170.0
 30
0.0
 11
10.0
 21
180.0
 31
0.0
  0
LINE
  5
110F
102
{ACAD_REACTORS
330
1179
102
}
330
1F
100
AcDbEntity
  8
0
100
AcDbLine
 10
10.0
 20
180.0
 30
0.0
 11
7.0
 21
180.0
 31
0.0
  0
LINE
  5
1110
102
{ACAD_REACTORS
330
1179
102
}
330
1F
100
AcDbEntity
  8
0
100
AcDbLine
 10
7.0
 20
180.0
 30
0.0
 11
7.0
 21
190.0
 31
0.0
  0
LINE
  5
1111
102
{ACAD_REACTORS
330
1179
102
}
330
1F
100
AcDbEntity
  8
0
100
AcDbLine
 10
7.0
 20
190.0
 30
0.0
 11
10.0
 21
190.0
 31
0.0
  0
LINE
  5
1112
102
{ACAD_REACTORS
330
1179
102
}
330
1F
100
AcDbEntity
  8
0
100
AcDbLine
 10
10.0
 20
190.0
 30
0.0
 11
10.0
 21
200.0
 31
0.0
  0
LINE
  5
1113
102
{ACAD_REACTORS
330
1179
102
}
330
1F
100
AcDbEntity
  8
0
100
AcDbLine
 10
10.0
 20
200.0
 30
0.0
 11
7.0
 21
200.0
 31
0.0
  0
LINE
  5
1114
102
{ACAD_REACTORS
330
1179
102
}
330
1F
100
AcDbEntity
  8
0
100
AcDbLine
 10
7.0
 20
200.0
 30
0.0
 11
7.0
 21
210.0
 31
0.0
  0
LINE
  5
1115
102
{ACAD_REACTORS
330
1179
102
}
330
1F
100
AcDbEntity
  8
0
100
AcDbLine
 10
7.0
 20
210.0
 30
0.0
 11
10.0
 21
210.0
 31
0.0
  0
LINE
  5
1116
102
{ACAD_REACTORS
330
1179
102
}
330
1F
100
AcDbEntity
  8
0
100
AcDbLine
 10
10.0
 20
210.0
 30
0.0
 11
10.0
 21
220.0
 31
0.0
  0
LINE
  5
1117
102
{ACAD_REACTORS
330
1179
102
}
330
1F
100
AcDbEntity
  8
0
100
AcDbLine
 10
10.0
 20
220.0
 30
0.0
 11
7.0
 21
220.0
 31
0.0
  0
LINE
  5
1118
102
{ACAD_REACTORS
330
1179
102
}
330
1F
100
AcDbEntity
  8
0
100
AcDbLine
 10
7.0
 20
220.0
 30
0.0
 11
7.0
 21
230.0
 31
0.0
  0
LINE
  5
1119
102
{ACAD_REACTORS
330
1179
102
}
330
1F
100
AcDbEntity
  8
0
100
AcDbLine
 10
7.0
 20
230.0
 30
0.0
 11
10.0
 21
230.0
 31
0.0
  0
LINE
  5
111A
102
{ACAD_REACTORS
330
1179
102
}
330
1F
100
AcDbEntity
  8
0
100
AcDbLine
 10
10.0
 20
230.0
 30
0.0
 11
10.0
 21
240.0
 31
0.0
  0
LINE
  5
111B
102
{ACAD_REACTORS
330
1179
102
}
330
1F
100
AcDbEntity
  8
0
100
AcDbLine
 10
10.0
 20
240.0
 30
0.0
 11
7.0
 21
240.0
 31
0.0
  0
LINE
  5
111C
102
{ACAD_REACTORS
330
1179
102
}
330
1F
100
AcDbEntity
  8
0
100
AcDbLine
 10
7.0
 20
240.0
 30
0.0
 11
7.0
 21
250.0
 31
0.0
  0
LINE
  5
111D
102
{ACAD_REACTORS
330
1179
102
}
330
1F
100
AcDbEntity
  8
0
100
AcDbLine
 10
7.0
 20
250.0
 30
0.0
 11
10.0
 21
250.0
 31
0.0
  0
LINE
  5
111F
102
{ACAD_REACTORS
330
1179
102
}
330
1F
100
AcDbEntity
  8
0
100
AcDbLine
 10
10.0
 20
250.0
 30
0.0
 11
10.0
 21
257.0
 31
0.0
  0
LINE
  5
112F
102
{ACAD_REACTORS
330
1179
102
}
330
1F
100
AcDbEntity
  8
0
100
AcDbLine
 10
10.0
 20
257.0
 30
0.0
 11
10.0
 21
263.0
 31
0.0
  0
LINE
  5
1130
102
{ACAD_REACTORS
330
1179
102
}
330
1F
100
AcDbEntity
  8
0
100
AcDbLine
 10
10.0
 20
263.0
 30
0.0
 11
15.0
 21
263.0
 31
0.0
  0
LINE
  5
1131
102
{ACAD_REACTORS
330
1179
102
}
330
1F
100
AcDbEntity
  8
0
100
AcDbLine
 10
15.0
 20
263.0
 30
0.0
 11
15.0
 21
260.0
 31
0.0
  0
LINE
  5
1132
102
{ACAD_REACTORS
330
1179
102
}
330
1F
100
AcDbEntity
  8
0
100
AcDbLine
 10
15.0
 20
260.0
 30
0.0
 11
25.0
 21
260.0
 31
0.0
  0
LINE
  5
1133
102
{ACAD_REACTORS
330
1179
102
}
330
1F
100
AcDbEntity
  8
0
100
AcDbLine
 10
25.0
 20
260.0
 30
0.0
 11
25.0
 21
263.0
 31
0.0
  0
LINE
  5
1134
102
{ACAD_REACTORS
330
1179
102
}
330
1F
100
AcDbEntity
  8
0
100
AcDbLine
 10
25.0
 20
263.0
 30
0.0
 11
35.0
 21
263.0
 31
0.0
  0
LINE
  5
1135
102
{ACAD_REACTORS
330
1179
102
}
330
1F
100
AcDbEntity
  8
0
100
AcDbLine
 10
35.0
 20
263.0
 30
0.0
 11
35.0
 21
260.0
 31
0.0
  0
LINE
  5
1136
102
{ACAD_REACTORS
330
1179
102
}
330
1F
100
AcDbEntity
  8
0
100
AcDbLine
 10
35.0
 20
260.0
 30
0.0
 11
45.0
 21
260.0
 31
0.0
  0
LINE
  5
1137
102
{ACAD_REACTORS
330
1179
102
}
330
1F
100
AcDbEntity
  8
0
100
AcDbLine
 10
45.0
 20
260.0
 30
0.0
 11
45.0
 21
263.0
 31
0.0
  0
LINE
  5
1138
102
{ACAD_REACTORS
330
1179
102
}
330
1F
100
AcDbEntity
  8
0
100
AcDbLine
 10
45.0
 20
263.0
 30
0.0
 11
50.0
 21
263.0
 31
0.0
  0
LINE
  5
1139
102
{ACAD_REACTORS
330
1179
102
}
330
1F
100
AcDbEntity
  8
0
100
AcDbLine
 10
50.0
 20
263.0
 30
0.0
 11
50.0
 21
250.0
 31
0.0
  0
LINE
  5
113A
102
{ACAD_REACTORS
330
1179
102
}
330
1F
100
AcDbEntity
  8
0
100
AcDbLine
 10
50.0
 20
250.0
 30
0.0
 11
53.0
 21
250.0
 31
0.0
  0
LINE
  5
113B
102
{ACAD_REACTORS
330
1179
102
}
330
1F
100
AcDbEntity
  8
0
100
AcDbLine
 10
53.0
 20
250.0
 30
0.0
 11
53.0
 21
240.0
 31
0.0
  0
LINE
  5
113C
102
{ACAD_REACTORS
330
1179
102
}
330
1F
100
AcDbEntity
  8
0
100
AcDbLine
 10
53.0
 20
240.0
 30
0.0
 11
50.0
 21
240.0
 31
0.0
  0
LINE
  5
113D
102
{ACAD_REACTORS
330
1179
102
}
330
1F
100
AcDbEntity
  8
0
100
AcDbLine
 10
50.0
 20
240.0
 30
0.0
 11
50.0
 21
230.0
 31
0.0
  0
LINE
  5
113E
102
{ACAD_REACTORS
330
1179
102
}
330
1F
100
AcDbEntity
  8
0
100
AcDbLine
 10
50.0
 20
230.0
 30
0.0
 11
53.0
 21
230.0
 31
0.0
  0
LINE
  5
113F
102
{ACAD_REACTORS
330
1179
102
}
330
1F
100
AcDbEntity
  8
0
100
AcDbLine
 10
53.0
 20
230.0
 30
0.0
 11
53.0
 21
220.0
 31
0.0
  0
LINE
  5
1140
102
{ACAD_REACTORS
330
1179
102
}
330
1F
100
AcDbEntity
  8
0
100
AcDbLine
 10
53.0
 20
220.0
 30
0.0
 11
50.0
 21
220.0
 31
0.0
  0
LINE
  5
1141
102
{ACAD_REACTORS
330
1179
102
}
330
1F
100
AcDbEntity
  8
0
100
AcDbLine
 10
50.0
 20
220.0
 30
0.0
 11
50.0
 21
210.0
 31
0.0
  0
LINE
  5
1142
102
{ACAD_REACTORS
330
1179
102
}
330
1F
100
AcDbEntity
  8
0
100
AcDbLine
 10
50.0
 20
210.0
 30
0.0
 11
53.0
 21
210.0
 31
0.0
  0
LINE
  5
1143
102
{ACAD_REACTORS
330
1179
102
}
330
1F
100
AcDbEntity
  8
0
100
AcDbLine
 10
53.0
 20
210.0
 30
0.0
 11
53.0
 21
200.0
 31
0.0
  0
LINE
  5
1144
102
{ACAD_REACTORS
330
1179
102
}
330
1F
100
AcDbEntity
  8
0
100
AcDbLine
 10
53.0
 20
200.0
 30
0.0
 11
50.0
 21
200.0
 31
0.0
  0
LINE
  5
1145
102
{ACAD_REACTORS
330
1179
102
}
330
1F
100
AcDbEntity
  8
0
100
AcDbLine
 10
50.0
 20
200.0
 30
0.0
 11
50.0
 21
190.0
 31
0.0
  0
LINE
  5
1146
102
{ACAD_REACTORS
330
1179
102
}
330
1F
100
AcDbEntity
  8
0
100
AcDbLine
 10
50.0
 20
190.0
 30
0.0
 11
53.0
 21
190.0
 31
0.0
  0
LINE
  5
1147
102
{ACAD_REACTORS
330
1179
102
}
330
1F
100
AcDbEntity
  8
0
100
AcDbLine
 10
53.0
 20
190.0
 30
0.0
 11
53.0
 21
180.0
 31
0.0
  0
LINE
  5
1148
102
{ACAD_REACTORS
330
1179
102
}
330
1F
100
AcDbEntity
  8
0
100
AcDbLine
 10
53.0
 20
180.0
 30
0.0
 11
50.0
 21
180.0
 31
0.0
  0
LINE
  5
114D
102
{ACAD_REACTORS
330
1179
102
}
330
1F
100
AcDbEntity
  8
0
100
AcDbLine
 10
50.0
 20
180.0
 30
0.0
 11
50.0
 21
170.0
 31
0.0
  0
LINE
  5
114E
102
{ACAD_REACTORS
330
1179
102
}
330
1F
100
AcDbEntity
  8
0
100
AcDbLine
 10
50.0
 20
170.0
 30
0.0
 11
53.0
 21
170.0
 31
0.0
  0
LINE
  5
114F
102
{ACAD_REACTORS
330
1179
102
}
330
1F
100
AcDbEntity
  8
0
100
AcDbLine
 10
53.0
 20
170.0
 30
0.0
 11
53.0
 21
160.0
 31
0.0
  0
LINE
  5
1150
102
{ACAD_REACTORS
330
1179
102
}
330
1F
100
AcDbEntity
  8
0
100
AcDbLine
 10
53.0
 20
160.0
 30
0.0
 11
50.0
 21
160.0
 31
0.0
  0
LINE
  5
1151
102
{ACAD_REACTORS
330
1179
102
}
330
1F
100
AcDbEntity
  8
0
100
AcDbLine
 10
50.0
 20
160.0
 30
0.0
 11
50.0
 21
150.0
 31
0.0
  0
LINE
  5
1152
102
{ACAD_REACTORS
330
1179
102
}
330
1F
100
AcDbEntity
  8
0
100
AcDbLine
 10
50.0
 20
150.0
 30
0.0
 11
53.0
 21
150.0
 31
0.0
  0
LINE
  5
1153
102
{ACAD_REACTORS
330
1179
102
}
330
1F
100
AcDbEntity
  8
0
100
AcDbLine
 10
53.0
 20
150.0
 30
0.0
 11
53.0
 21
140.0
 31
0.0
  0
LINE
  5
1154
102
{ACAD_REACTORS
330
1179
102
}
330
1F
100
AcDbEntity
  8
0
100
AcDbLine
 10
53.0
 20
140.0
 30
0.0
 11
50.0
 21
140.0
 31
0.0
  0
LINE
  5
1155
102
{ACAD_REACTORS
330
1179
102
}
330
1F
100
AcDbEntity
  8
0
100
AcDbLine
 10
50.0
 20
140.0
 30
0.0
 11
50.0
 21
130.0
 31
0.0
  0
LINE
  5
1156
102
{ACAD_REACTORS
330
1179
102
}
330
1F
100
AcDbEntity
  8
0
100
AcDbLine
 10
50.0
 20
130.0
 30
0.0
 11
53.0
 21
130.0
 31
0.0
  0
LINE
  5
1157
102
{ACAD_REACTORS
330
1179
102
}
330
1F
100
AcDbEntity
  8
0
100
AcDbLine
 10
53.0
 20
130.0
 30
0.0
 11
53.0
 21
120.0
 31
0.0
  0
LINE
  5
1158
102
{ACAD_REACTORS
330
1179
102
}
330
1F
100
AcDbEntity
  8
0
100
AcDbLine
 10
53.0
 20
120.0
 30
0.0
 11
50.0
 21
120.0
 31
0.0
  0
LINE
  5
1159
102
{ACAD_REACTORS
330
1179
102
}
330
1F
100
AcDbEntity
  8
0
100
AcDbLine
 10
50.0
 20
120.0
 30
0.0
 11
50.0
 21
110.0
 31
0.0
  0
LINE
  5
115A
102
{ACAD_REACTORS
330
1179
102
}
330
1F
100
AcDbEntity
  8
0
100
AcDbLine
 10
50.0
 20
110.0
 30
0.0
 11
53.0
 21
110.0
 31
0.0
  0
LINE
  5
115B
102
{ACAD_REACTORS
330
1179
102
}
330
1F
100
AcDbEntity
  8
0
100
AcDbLine
 10
53.0
 20
110.0
 30
0.0
 11
53.0
 21
100.0
 31
0.0
  0
LINE
  5
115C
102
{ACAD_REACTORS
330
1179
102
}
330
1F
100
AcDbEntity
  8
0
100
AcDbLine
 10
53.0
 20
100.0
 30
0.0
 11
50.0
 21
100.0
 31
0.0
  0
LINE
  5
115D
102
{ACAD_REACTORS
330
1179
102
}
330
1F
100
AcDbEntity
  8
0
100
AcDbLine
 10
50.0
 20
100.0
 30
0.0
 11
50.0
 21
90.0
 31
0.0
  0
LINE
  5
115E
102
{ACAD_REACTORS
330
1179
102
}
330
1F
100
AcDbEntity
  8
0
100
AcDbLine
 10
50.0
 20
90.0
 30
0.0
 11
53.0
 21
90.0
 31
0.0
  0
LINE
  5
115F
102
{ACAD_REACTORS
330
1179
102
}
330
1F
100
AcDbEntity
  8
0
100
AcDbLine
 10
53.0
 20
90.0
 30
0.0
 11
53.0
 21
80.0
 31
0.0
  0
LINE
  5
1160
102
{ACAD_REACTORS
330
1179
102
}
330
1F
100
AcDbEntity
  8
0
100
AcDbLine
 10
53.0
 20
80.0
 30
0.0
 11
50.0
 21
80.0
 31
0.0
  0
LINE
  5
1161
102
{ACAD_REACTORS
330
1179
102
}
330
1F
100
AcDbEntity
  8
0
100
AcDbLine
 10
50.0
 20
80.0
 30
0.0
 11
50.0
 21
70.0
 31
0.0
  0
LINE
  5
1162
102
{ACAD_REACTORS
330
1179
102
}
330
1F
100
AcDbEntity
  8
0
100
AcDbLine
 10
50.0
 20
70.0
 30
0.0
 11
53.0
 21
70.0
 31
0.0
  0
LINE
  5
1163
102
{ACAD_REACTORS
330
1179
102
}
330
1F
100
AcDbEntity
  8
0
100
AcDbLine
 10
53.0
 20
70.0
 30
0.0
 11
53.0
 21
60.0
 31
0.0
  0
LINE
  5
1164
102
{ACAD_REACTORS
330
1179
102
}
330
1F
100
AcDbEntity
  8
0
100
AcDbLine
 10
53.0
 20
60.0
 30
0.0
 11
50.0
 21
60.0
 31
0.0
  0
LINE
  5
1165
102
{ACAD_REACTORS
330
1179
102
}
330
1F
100
AcDbEntity
  8
0
100
AcDbLine
 10
50.0
 20
60.0
 30
0.0
 11
50.0
 21
50.0
 31
0.0
  0
LINE
  5
1166
102
{ACAD_REACTORS
330
1179
102
}
330
1F
100
AcDbEntity
  8
0
100
AcDbLine
 10
50.0
 20
50.0
 30
0.0
 11
53.0
 21
50.0
 31
0.0
  0
LINE
  5
1167
102
{ACAD_REACTORS
330
1179
102
}
330
1F
100
AcDbEntity
  8
0
100
AcDbLine
 10
53.0
 20
50.0
 30
0.0
 11
53.0
 21
40.0
 31
0.0
  0
LINE
  5
1168
102
{ACAD_REACTORS
330
1179
102
}
330
1F
100
AcDbEntity
  8
0
100
AcDbLine
 10
53.0
 20
40.0
 30
0.0
 11
50.0
 21
40.0
 31
0.0
  0
LINE
  5
1169
102
{ACAD_REACTORS
330
1179
102
}
330
1F
100
AcDbEntity
  8
0
100
AcDbLine
 10
50.0
 20
40.0
 30
0.0
 11
50.0
 21
30.0
 31
0.0
  0
LINE
  5
116A
102
{ACAD_REACTORS
330
1179
102
}
330
1F
100
AcDbEntity
  8
0
100
AcDbLine
 10
50.0
 20
30.0
 30
0.0
 11
53.0
 21
30.0
 31
0.0
  0
LINE
  5
116B
102
{ACAD_REACTORS
330
1179
102
}
330
1F
100
AcDbEntity
  8
0
100
AcDbLine
 10
53.0
 20
30.0
 30
0.0
 11
53.0
 21
20.0
 31
0.0
  0
LINE
  5
116C
102
{ACAD_REACTORS
330
1179
102
}
330
1F
100
AcDbEntity
  8
0
100
AcDbLine
 10
53.0
 20
20.0
 30
0.0
 11
50.0
 21
20.0
 31
0.0
  0
LINE
  5
116D
102
{ACAD_REACTORS
330
1179
102
}
330
1F
100
AcDbEntity
  8
0
100
AcDbLine
 10
50.0
 20
20.0
 30
0.0
 11
50.0
 21
10.0
 31
0.0
  0
LINE
  5
116E
102
{ACAD_REACTORS
330
1179
102
}
330
1F
100
AcDbEntity
  8
0
100
AcDbLine
 10
50.0
 20
10.0
 30
0.0
 11
50.0
 21
7.0
 31
0.0
  0
LINE
  5
116F
102
{ACAD_REACTORS
330
1179
102
}
330
1F
100
AcDbEntity
  8
0
100
AcDbLine
 10
50.0
 20
7.0
 30
0.0
 11
45.0
 21
7.0
 31
0.0
  0
LINE
  5
1170
102
{ACAD_REACTORS
330
1179
102
}
330
1F
100
AcDbEntity
  8
0
100
AcDbLine
 10
45.0
 20
7.0
 30
0.0
 11
45.0
 21
10.0
 31
0.0
  0
LINE
  5
1171
102
{ACAD_REACTORS
330
1179
102
}
330
1F
100
AcDbEntity
  8
0
100
AcDbLine
 10
45.0
 20
10.0
 30
0.0
 11
35.0
 21
10.0
 31
0.0
  0
LINE
  5
1172
102
{ACAD_REACTORS
330
1179
102
}
330
1F
100
AcDbEntity
  8
0
100
AcDbLine
 10
35.0
 20
10.0
 30
0.0
 11
35.0
 21
7.0
 31
0.0
  0
LINE
  5
1173
102
{ACAD_REACTORS
330
1179
102
}
330
1F
100
AcDbEntity
  8
0
100
AcDbLine
 10
35.0
 20
7.0
 30
0.0
 11
25.0
 21
7.0
 31
0.0
  0
LINE
  5
1174
102
{ACAD_REACTORS
330
1179
102
}
330
1F
100
AcDbEntity
  8
0
100
AcDbLine
 10
25.0
 20
7.0
 30
0.0
 11
25.0
 21
10.0
 31
0.0
  0
LINE
  5
1175
102
{ACAD_REACTORS
330
1179
102
}
330
1F
100
AcDbEntity
  8
0
100
AcDbLine
 10
25.0
 20
10.0
 30
0.0
 11
15.0
 21
10.0
 31
0.0
  0
LINE
  5
1176
102
{ACAD_REACTORS
330
1179
102
}
330
1F
100
AcDbEntity
  8
0
100
AcDbLine
 10
15.0
 20
10.0
 30
0.0
 11
15.0
 21
7.0
 31
0.0
  0
LINE
  5
1177
102
{ACAD_REACTORS
330
1179
102
}
330
1F
100
AcDbEntity
  8
0
100
AcDbLine
 10
15.0
 20
7.0
 30
0.0
 11
10.0
 21
7.0
 31
0.0
  0
LINE
  5
1178
102
{ACAD_REACTORS
330
1179
102
}
330
1F
100
AcDbEntity
  8
0
100
AcDbLine
 10
10.0
 20
7.0
 30
0.0
 11
10.0
 21
10.0
 31
0.0
  0
LINE
  5
1216
102
{ACAD_REACTORS
330
128D
102
}
330
1F
100
AcDbEntity
  8
0
100
AcDbLine
 10
60.0
 20
10.0
 30
0.0
 11
60.0
 21
20.0
 31
0.0
  0
LINE
  5
1217
102
{ACAD_REACTORS
330
128D
102
}
330
1F
100
AcDbEntity
  8
0
100
AcDbLine
 10
60.0
 20
20.0
 30
0.0
 11
57.0
 21
20.0
 31
0.0
  0
LINE
  5
1218
102
{ACAD_REACTORS
330
128D
102
}
330
1F
100
AcDbEntity
  8
0
100
AcDbLine
 10
57.0
 20
20.0
 30
0.0
 11
57.0
 21
30.0
 31
0.0
  0
LINE
  5
1219
102
{ACAD_REACTORS
330
128D
102
}
330
1F
100
AcDbEntity
  8
0
100
AcDbLine
 10
57.0
 20
30.0
 30
0.0
 11
60.0
 21
30.0
 31
0.0
  0
LINE
  5
121A
102
{ACAD_REACTORS
330
128D
102
}
330
1F
100
AcDbEntity
  8
0
100
AcDbLine
 10
60.0
 20
30.0
 30
0.0
 11
60.0
 21
40.0
 31
0.0
  0
LINE
  5
121B
102
{ACAD_REACTORS
330
128D
102
}
330
1F
100
AcDbEntity
  8
0
100
AcDbLine
 10
60.0
 20
40.0
 30
0.0
 11
57.0
 21
40.0
 31
0.0
  0
LINE
  5
121C
102
{ACAD_REACTORS
330
128D
102
}
330
1F
100
AcDbEntity
  8
0
100
AcDbLine
 10
57.0
 20
40.0
 30
0.0
 11
57.0
 21
50.0
 31
0.0
  0
LINE
  5
121D
102
{ACAD_REACTORS
330
128D
102
}
330
1F
100
AcDbEntity
  8
0
100
AcDbLine
 10
57.0
 20
50.0
 30
0.0
 11
60.0
 21
50.0
 31
0.0
  0
LINE
  5
121E
102
{ACAD_REACTORS
330
128D
102
}
330
1F
100
AcDbEntity
  8
0
100
AcDbLine
 10
60.0
 20
50.0
 30
0.0
 11
60.0
 21
60.0
 31
0.0
  0
LINE
  5
121F
102
{ACAD_REACTORS
330
128D
102
}
330
1F
100
AcDbEntity
  8
0
100
AcDbLine
 10
60.0
 20
60.0
 30
0.0
 11
57.0
 21
60.0
 31
0.0
  0
LINE
  5
1220
102
{ACAD_REACTORS
330
128D
102
}
330
1F
100
AcDbEntity
  8
0
100
AcDbLine
 10
57.0
 20
60.0
 30
0.0
 11
57.0
 21
70.0
 31
0.0
  0
LINE
  5
1221
102
{ACAD_REACTORS
330
128D
102
}
330
1F
100
AcDbEntity
  8
0
100
AcDbLine
 10
57.0
 20
70.0
 30
0.0
 11
60.0
 21
70.0
 31
0.0
  0
LINE
  5
1222
102
{ACAD_REACTORS
330
128D
102
}
330
1F
100
AcDbEntity
  8
0
100
AcDbLine
 10
60.0
 20
70.0
 30
0.0
 11
60.0
 21
80.0
 31
0.0
  0
LINE
  5
1223
102
{ACAD_REACTORS
330
128D
102
}
330
1F
100
AcDbEntity
  8
0
100
AcDbLine
 10
60.0
 20
80.0
 30
0.0
 11
57.0
 21
80.0
 31
0.0
  0
LINE
  5
1224
102
{ACAD_REACTORS
330
128D
102
}
330
1F
100
AcDbEntity
  8
0
100
AcDbLine
 10
57.0
 20
80.0
 30
0.0
 11
57.0
 21
90.0
 31
0.0
  0
LINE
  5
1225
102
{ACAD_REACTORS
330
128D
102
}
330
1F
100
AcDbEntity
  8
0
100
AcDbLine
 10
57.0
 20
90.0
 30
0.0
 11
60.0
 21
90.0
 31
0.0
  0
LINE
  5
1226
102
{ACAD_REACTORS
330
128D
102
}
330
1F
100
AcDbEntity
  8
0
100
AcDbLine
 10
60.0
 20
90.0
 30
0.0
 11
60.0
 21
100.0
 31
0.0
  0
LINE
  5
1227
102
{ACAD_REACTORS
330
128D
102
}
330
1F
100
AcDbEntity
  8
0
100
AcDbLine
 10
60.0
 20
100.0
 30
0.0
 11
57.0
 21
100.0
 31
0.0
  0
LINE
  5
1228
102
{ACAD_REACTORS
330
128D
102
}
330
1F
100
AcDbEntity
  8
0
100
AcDbLine
 10
57.0
 20
100.0
 30
0.0
 11
57.0
 21
110.0
 31
0.0
  0
LINE
  5
1229
102
{ACAD_REACTORS
330
128D
102
}
330
1F
100
AcDbEntity
  8
0
100
AcDbLine
 10
57.0
 20
110.0
 30
0.0
 11
60.0
 21
110.0
 31
0.0
  0
LINE
  5
122A
102
{ACAD_REACTORS
330
128D
102
}
330
1F
100
AcDbEntity
  8
0
100
AcDbLine
 10
60.0
 20
110.0
 30
0.0
 11
60.0
 21
120.0
 31
0.0
  0
LINE
  5
122B
102
{ACAD_REACTORS
330
128D
102
}
330
1F
100
AcDbEntity
  8
0
100
AcDbLine
 10
60.0
 20
120.0
 30
0.0
 11
57.0
 21
120.0
 31
0.0
  0
LINE
  5
122C
102
{ACAD_REACTORS
330
128D
102
}
330
1F
100
AcDbEntity
  8
0
100
AcDbLine
 10
57.0
 20
120.0
 30
0.0
 11
57.0
 21
130.0
 31
0.0
  0
LINE
  5
122D
102
{ACAD_REACTORS
330
128D
102
}
330
1F
100
AcDbEntity
  8
0
100
AcDbLine
 10
57.0
 20
130.0
 30
0.0
 11
60.0
 21
130.0
 31
0.0
  0
LINE
  5
122E
102
{ACAD_REACTORS
330
128D
102
}
330
1F
100
AcDbEntity
  8
0
100
AcDbLine
 10
60.0
 20
130.0
 30
0.0
 11
60.0
 21
140.0
 31
0.0
  0
LINE
  5
122F
102
{ACAD_REACTORS
330
128D
102
}
330
1F
100
AcDbEntity
  8
0
100
AcDbLine
 10
60.0
 20
140.0
 30
0.0
 11
57.0
 21
140.0
 31
0.0
  0
LINE
  5
1230
102
{ACAD_REACTORS
330
128D
102
}
330
1F
100
AcDbEntity
  8
0
100
AcDbLine
 10
57.0
 20
140.0
 30
0.0
 11
57.0
 21
150.0
 31
0.0
  0
LINE
  5
1231
102
{ACAD_REACTORS
330
128D
102
}
330
1F
100
AcDbEntity
  8
0
100
AcDbLine
 10
57.0
 20
150.0
 30
0.0
 11
60.0
 21
150.0
 31
0.0
  0
LINE
  5
1232
102
{ACAD_REACTORS
330
128D
102
}
330
1F
100
AcDbEntity
  8
0
100
AcDbLine
 10
60.0
 20
150.0
 30
0.0
 11
60.0
 21
160.0
 31
0.0
  0
LINE
  5
1233
102
{ACAD_REACTORS
330
128D
102
}
330
1F
100
AcDbEntity
  8
0
100
AcDbLine
 10
60.0
 20
160.0
 30
0.0
 11
57.0
 21
160.0
 31
0.0
  0
LINE
  5
1234
102
{ACAD_REACTORS
330
128D
102
}
330
1F
100
AcDbEntity
  8
0
100
AcDbLine
 10
57.0
 20
160.0
 30
0.0
 11
57.0
 21
170.0
 31
0.0
  0
LINE
  5
1235
102
{ACAD_REACTORS
330
128D
102
}
330
1F
100
AcDbEntity
  8
0
100
AcDbLine
 10
57.0
 20
170.0
 30
0.0
 11
60.0
 21
170.0
 31
0.0
  0
LINE
  5
1236
102
{ACAD_REACTORS
330
128D
102
}
330
1F
100
AcDbEntity
  8
0
100
AcDbLine
 10
60.0
 20
170.0
 30
0.0
 11
60.0
 21
180.0
 31
0.0
  0
LINE
  5
1237
102
{ACAD_REACTORS
330
128D
102
}
330
1F
100
AcDbEntity
  8
0
100
AcDbLine
 10
60.0
 20
180.0
 30
0.0
 11
57.0
 21
180.0
 31
0.0
  0
LINE
  5
1238
102
{ACAD_REACTORS
330
128D
102
}
330
1F
100
AcDbEntity
  8
0
100
AcDbLine
 10
57.0
 20
180.0
 30
0.0
 11
57.0
 21
190.0
 31
0.0
  0
LINE
  5
1239
102
{ACAD_REACTORS
330
128D
102
}
330
1F
100
AcDbEntity
  8
0
100
AcDbLine
 10
57.0
 20
190.0
 30
0.0
 11
60.0
 21
190.0
 31
0.0
  0
LINE
  5
123A
102
{ACAD_REACTORS
330
128D
102
}
330
1F
100
AcDbEntity
  8
0
100
AcDbLine
 10
60.0
 20
190.0
 30
0.0
 11
60.0
 21
200.0
 31
0.0
  0
LINE
  5
123B
102
{ACAD_REACTORS
330
128D
102
}
330
1F
100
AcDbEntity
  8
0
100
AcDbLine
 10
60.0
 20
200.0
 30
0.0
 11
57.0
 21
200.0
 31
0.0
  0
LINE
  5
123C
102
{ACAD_REACTORS
330
128D
102
}
330
1F
100
AcDbEntity
  8
0
100
AcDbLine
 10
57.0
 20
200.0
 30
0.0
 11
57.0
 21
210.0
 31
0.0
  0
LINE
  5
123D
102
{ACAD_REACTORS
330
128D
102
}
330
1F
100
AcDbEntity
  8
0
100
AcDbLine
 10
57.0
 20
210.0
 30
0.0
 11
60.0
 21
210.0
 31
0.0
  0
LINE
  5
123E
102
{ACAD_REACTORS
330
128D
102
}
330
1F
100
AcDbEntity
  8
0
100
AcDbLine
 10
60.0
 20
210.0
 30
0.0
 11
60.0
 21
220.0
 31
0.0
  0
LINE
  5
123F
102
{ACAD_REACTORS
330
128D
102
}
330
1F
100
AcDbEntity
  8
0
100
AcDbLine
 10
60.0
 20
220.0
 30
0.0
 11
57.0
 21
220.0
 31
0.0
  0
LINE
  5
1240
102
{ACAD_REACTORS
330
128D
102
}
330
1F
100
AcDbEntity
  8
0
100
AcDbLine
 10
57.0
 20
220.0
 30
0.0
 11
57.0
 21
230.0
 31
0.0
  0
LINE
  5
1241
102
{ACAD_REACTORS
330
128D
102
}
330
1F
100
AcDbEntity
  8
0
100
AcDbLine
 10
57.0
 20
230.0
 30
0.0
 11
60.0
 21
230.0
 31
0.0
  0
LINE
  5
1242
102
{ACAD_REACTORS
330
128D
102
}
330
1F
100
AcDbEntity
  8
0
100
AcDbLine
 10
60.0
 20
230.0
 30
0.0
 11
60.0
 21
240.0
 31
0.0
  0
LINE
  5
1243
102
{ACAD_REACTORS
330
128D
102
}
330
1F
100
AcDbEntity
  8
0
100
AcDbLine
 10
60.0
 20
240.0
 30
0.0
 11
57.0
 21
240.0
 31
0.0
  0
LINE
  5
1244
102
{ACAD_REACTORS
330
128D
102
}
330
1F
100
AcDbEntity
  8
0
100
AcDbLine
 10
57.0
 20
240.0
 30
0.0
 11
57.0
 21
250.0
 31
0.0
  0
LINE
  5
1245
102
{ACAD_REACTORS
330
128D
102
}
330
1F
100
AcDbEntity
  8
0
100
AcDbLine
 10
57.0
 20
250.0
 30
0.0
 11
60.0
 21
250.0
 31
0.0
  0
LINE
  5
1246
102
{ACAD_REACTORS
330
128D
102
}
330
1F
100
AcDbEntity
  8
0
100
AcDbLine
 10
60.0
 20
250.0
 30
0.0
 11
60.0
 21
257.0
 31
0.0
  0
LINE
  5
1247
102
{ACAD_REACTORS
330
128D
102
}
330
1F
100
AcDbEntity
  8
0
100
AcDbLine
 10
60.0
 20
257.0
 30
0.0
 11
60.0
 21
263.0
 31
0.0
  0
LINE
  5
1248
102
{ACAD_REACTORS
330
128D
102
}
330
1F
100
AcDbEntity
  8
0
100
AcDbLine
 10
60.0
 20
263.0
 30
0.0
 11
65.0
 21
263.0
 31
0.0
  0
LINE
  5
1249
102
{ACAD_REACTORS
330
128D
102
}
330
1F
100
AcDbEntity
  8
0
100
AcDbLine
 10
65.0
 20
263.0
 30
0.0
 11
65.0
 21
260.0
 31
0.0
  0
LINE
  5
124A
102
{ACAD_REACTORS
330
128D
102
}
330
1F
100
AcDbEntity
  8
0
100
AcDbLine
 10
65.0
 20
260.0
 30
0.0
 11
75.0
 21
260.0
 31
0.0
  0
LINE
  5
124B
102
{ACAD_REACTORS
330
128D
102
}
330
1F
100
AcDbEntity
  8
0
100
AcDbLine
 10
75.0
 20
260.0
 30
0.0
 11
75.0
 21
263.0
 31
0.0
  0
LINE
  5
124C
102
{ACAD_REACTORS
330
128D
102
}
330
1F
100
AcDbEntity
  8
0
100
AcDbLine
 10
75.0
 20
263.0
 30
0.0
 11
85.0
 21
263.0
 31
0.0
  0
LINE
  5
124D
102
{ACAD_REACTORS
330
128D
102
}
330
1F
100
AcDbEntity
  8
0
100
AcDbLine
 10
85.0
 20
263.0
 30
0.0
 11
85.0
 21
260.0
 31
0.0
  0
LINE
  5
124E
102
{ACAD_REACTORS
330
128D
102
}
330
1F
100
AcDbEntity
  8
0
100
AcDbLine
 10
85.0
 20
260.0
 30
0.0
 11
95.0
 21
260.0
 31
0.0
  0
LINE
  5
124F
102
{ACAD_REACTORS
330
128D
102
}
330
1F
100
AcDbEntity
  8
0
100
AcDbLine
 10
95.0
 20
260.0
 30
0.0
 11
95.0
 21
263.0
 31
0.0
  0
LINE
  5
1250
102
{ACAD_REACTORS
330
128D
102
}
330
1F
100
AcDbEntity
  8
0
100
AcDbLine
 10
95.0
 20
263.0
 30
0.0
 11
100.0
 21
263.0
 31
0.0
  0
LINE
  5
1251
102
{ACAD_REACTORS
330
128D
102
}
330
1F
100
AcDbEntity
  8
0
100
AcDbLine
 10
100.0
 20
263.0
 30
0.0
 11
100.0
 21
250.0
 31
0.0
  0
LINE
  5
1252
102
{ACAD_REACTORS
330
128D
102
}
330
1F
100
AcDbEntity
  8
0
100
AcDbLine
 10
100.0
 20
250.0
 30
0.0
 11
103.0
 21
250.0
 31
0.0
  0
LINE
  5
1253
102
{ACAD_REACTORS
330
128D
102
}
330
1F
100
AcDbEntity
  8
0
100
AcDbLine
 10
103.0
 20
250.0
 30
0.0
 11
103.0
 21
240.0
 31
0.0
  0
LINE
  5
1254
102
{ACAD_REACTORS
330
128D
102
}
330
1F
100
AcDbEntity
  8
0
100
AcDbLine
 10
103.0
 20
240.0
 30
0.0
 11
100.0
 21
240.0
 31
0.0
  0
LINE
  5
1255
102
{ACAD_REACTORS
330
128D
102
}
330
1F
100
AcDbEntity
  8
0
100
AcDbLine
 10
100.0
 20
240.0
 30
0.0
 11
100.0
 21
230.0
 31
0.0
  0
LINE
  5
1256
102
{ACAD_REACTORS
330
128D
102
}
330
1F
100
AcDbEntity
  8
0
100
AcDbLine
 10
100.0
 20
230.0
 30
0.0
 11
103.0
 21
230.0
 31
0.0
  0
LINE
  5
1257
102
{ACAD_REACTORS
330
128D
102
}
330
1F
100
AcDbEntity
  8
0
100
AcDbLine
 10
103.0
 20
230.0
 30
0.0
 11
103.0
 21
220.0
 31
0.0
  0
LINE
  5
1258
102
{ACAD_REACTORS
330
128D
102
}
330
1F
100
AcDbEntity
  8
0
100
AcDbLine
 10
103.0
 20
220.0
 30
0.0
 11
100.0
 21
220.0
 31
0.0
  0
LINE
  5
1259
102
{ACAD_REACTORS
330
128D
102
}
330
1F
100
AcDbEntity
  8
0
100
AcDbLine
 10
100.0
 20
220.0
 30
0.0
 11
100.0
 21
210.0
 31
0.0
  0
LINE
  5
125A
102
{ACAD_REACTORS
330
128D
102
}
330
1F
100
AcDbEntity
  8
0
100
AcDbLine
 10
100.0
 20
210.0
 30
0.0
 11
103.0
 21
210.0
 31
0.0
  0
LINE
  5
125B
102
{ACAD_REACTORS
330
128D
102
}
330
1F
100
AcDbEntity
  8
0
100
AcDbLine
 10
103.0
 20
210.0
 30
0.0
 11
103.0
 21
200.0
 31
0.0
  0
LINE
  5
125C
102
{ACAD_REACTORS
330
128D
102
}
330
1F
100
AcDbEntity
  8
0
100
AcDbLine
 10
103.0
 20
200.0
 30
0.0
 11
100.0
 21
200.0
 31
0.0
  0
LINE
  5
125D
102
{ACAD_REACTORS
330
128D
102
}
330
1F
100
AcDbEntity
  8
0
100
AcDbLine
 10
100.0
 20
200.0
 30
0.0
 11
100.0
 21
190.0
 31
0.0
  0
LINE
  5
125E
102
{ACAD_REACTORS
330
128D
102
}
330
1F
100
AcDbEntity
  8
0
100
AcDbLine
 10
100.0
 20
190.0
 30
0.0
 11
103.0
 21
190.0
 31
0.0
  0
LINE
  5
125F
102
{ACAD_REACTORS
330
128D
102
}
330
1F
100
AcDbEntity
  8
0
100
AcDbLine
 10
103.0
 20
190.0
 30
0.0
 11
103.0
 21
180.0
 31
0.0
  0
LINE
  5
1260
102
{ACAD_REACTORS
330
128D
102
}
330
1F
100
AcDbEntity
  8
0
100
AcDbLine
 10
103.0
 20
180.0
 30
0.0
 11
100.0
 21
180.0
 31
0.0
  0
LINE
  5
1261
102
{ACAD_REACTORS
330
128D
102
}
330
1F
100
AcDbEntity
  8
0
100
AcDbLine
 10
100.0
 20
180.0
 30
0.0
 11
100.0
 21
170.0
 31
0.0
  0
LINE
  5
1262
102
{ACAD_REACTORS
330
128D
102
}
330
1F
100
AcDbEntity
  8
0
100
AcDbLine
 10
100.0
 20
170.0
 30
0.0
 11
103.0
 21
170.0
 31
0.0
  0
LINE
  5
1263
102
{ACAD_REACTORS
330
128D
102
}
330
1F
100
AcDbEntity
  8
0
100
AcDbLine
 10
103.0
 20
170.0
 30
0.0
 11
103.0
 21
160.0
 31
0.0
  0
LINE
  5
1264
102
{ACAD_REACTORS
330
128D
102
}
330
1F
100
AcDbEntity
  8
0
100
AcDbLine
 10
103.0
 20
160.0
 30
0.0
 11
100.0
 21
160.0
 31
0.0
  0
LINE
  5
1265
102
{ACAD_REACTORS
330
128D
102
}
330
1F
100
AcDbEntity
  8
0
100
AcDbLine
 10
100.0
 20
160.0
 30
0.0
 11
100.0
 21
150.0
 31
0.0
  0
LINE
  5
1266
102
{ACAD_REACTORS
330
128D
102
}
330
1F
100
AcDbEntity
  8
0
100
AcDbLine
 10
100.0
 20
150.0
 30
0.0
 11
103.0
 21
150.0
 31
0.0
  0
LINE
  5
1267
102
{ACAD_REACTORS
330
128D
102
}
330
1F
100
AcDbEntity
  8
0
100
AcDbLine
 10
103.0
 20
150.0
 30
0.0
 11
103.0
 21
140.0
 31
0.0
  0
LINE
  5
1268
102
{ACAD_REACTORS
330
128D
102
}
330
1F
100
AcDbEntity
  8
0
100
AcDbLine
 10
103.0
 20
140.0
 30
0.0
 11
100.0
 21
140.0
 31
0.0
  0
LINE
  5
1269
102
{ACAD_REACTORS
330
128D
102
}
330
1F
100
AcDbEntity
  8
0
100
AcDbLine
 10
100.0
 20
140.0
 30
0.0
 11
100.0
 21
130.0
 31
0.0
  0
LINE
  5
126A
102
{ACAD_REACTORS
330
128D
102
}
330
1F
100
AcDbEntity
  8
0
100
AcDbLine
 10
100.0
 20
130.0
 30
0.0
 11
103.0
 21
130.0
 31
0.0
  0
LINE
  5
126B
102
{ACAD_REACTORS
330
128D
102
}
330
1F
100
AcDbEntity
  8
0
100
AcDbLine
 10
103.0
 20
130.0
 30
0.0
 11
103.0
 21
120.0
 31
0.0
  0
LINE
  5
126C
102
{ACAD_REACTORS
330
128D
102
}
330
1F
100
AcDbEntity
  8
0
100
AcDbLine
 10
103.0
 20
120.0
 30
0.0
 11
100.0
 21
120.0
 31
0.0
  0
LINE
  5
126D
102
{ACAD_REACTORS
330
128D
102
}
330
1F
100
AcDbEntity
  8
0
100
AcDbLine
 10
100.0
 20
120.0
 30
0.0
 11
100.0
 21
110.0
 31
0.0
  0
LINE
  5
126E
102
{ACAD_REACTORS
330
128D
102
}
330
1F
100
AcDbEntity
  8
0
100
AcDbLine
 10
100.0
 20
110.0
 30
0.0
 11
103.0
 21
110.0
 31
0.0
  0
LINE
  5
126F
102
{ACAD_REACTORS
330
128D
102
}
330
1F
100
AcDbEntity
  8
0
100
AcDbLine
 10
103.0
 20
110.0
 30
0.0
 11
103.0
 21
100.0
 31
0.0
  0
LINE
  5
1270
102
{ACAD_REACTORS
330
128D
102
}
330
1F
100
AcDbEntity
  8
0
100
AcDbLine
 10
103.0
 20
100.0
 30
0.0
 11
100.0
 21
100.0
 31
0.0
  0
LINE
  5
1271
102
{ACAD_REACTORS
330
128D
102
}
330
1F
100
AcDbEntity
  8
0
100
AcDbLine
 10
100.0
 20
100.0
 30
0.0
 11
100.0
 21
90.0
 31
0.0
  0
LINE
  5
1272
102
{ACAD_REACTORS
330
128D
102
}
330
1F
100
AcDbEntity
  8
0
100
AcDbLine
 10
100.0
 20
90.0
 30
0.0
 11
103.0
 21
90.0
 31
0.0
  0
LINE
  5
1273
102
{ACAD_REACTORS
330
128D
102
}
330
1F
100
AcDbEntity
  8
0
100
AcDbLine
 10
103.0
 20
90.0
 30
0.0
 11
103.0
 21
80.0
 31
0.0
  0
LINE
  5
1274
102
{ACAD_REACTORS
330
128D
102
}
330
1F
100
AcDbEntity
  8
0
100
AcDbLine
 10
103.0
 20
80.0
 30
0.0
 11
100.0
 21
80.0
 31
0.0
  0
LINE
  5
1275
102
{ACAD_REACTORS
330
128D
102
}
330
1F
100
AcDbEntity
  8
0
100
AcDbLine
 10
100.0
 20
80.0
 30
0.0
 11
100.0
 21
70.0
 31
0.0
  0
LINE
  5
1276
102
{ACAD_REACTORS
330
128D
102
}
330
1F
100
AcDbEntity
  8
0
100
AcDbLine
 10
100.0
 20
70.0
 30
0.0
 11
103.0
 21
70.0
 31
0.0
  0
LINE
  5
1277
102
{ACAD_REACTORS
330
128D
102
}
330
1F
100
AcDbEntity
  8
0
100
AcDbLine
 10
103.0
 20
70.0
 30
0.0
 11
103.0
 21
60.0
 31
0.0
  0
LINE
  5
1278
102
{ACAD_REACTORS
330
128D
102
}
330
1F
100
AcDbEntity
  8
0
100
AcDbLine
 10
103.0
 20
60.0
 30
0.0
 11
100.0
 21
60.0
 31
0.0
  0
LINE
  5
1279
102
{ACAD_REACTORS
330
128D
102
}
330
1F
100
AcDbEntity
  8
0
100
AcDbLine
 10
100.0
 20
60.0
 30
0.0
 11
100.0
 21
50.0
 31
0.0
  0
LINE
  5
127A
102
{ACAD_REACTORS
330
128D
102
}
330
1F
100
AcDbEntity
  8
0
100
AcDbLine
 10
100.0
 20
50.0
 30
0.0
 11
103.0
 21
50.0
 31
0.0
  0
LINE
  5
127B
102
{ACAD_REACTORS
330
128D
102
}
330
1F
100
AcDbEntity
  8
0
100
AcDbLine
 10
103.0
 20
50.0
 30
0.0
 11
103.0
 21
40.0
 31
0.0
  0
LINE
  5
127C
102
{ACAD_REACTORS
330
128D
102
}
330
1F
100
AcDbEntity
  8
0
100
AcDbLine
 10
103.0
 20
40.0
 30
0.0
 11
100.0
 21
40.0
 31
0.0
  0
LINE
  5
127D
102
{ACAD_REACTORS
330
128D
102
}
330
1F
100
AcDbEntity
  8
0
100
AcDbLine
 10
100.0
 20
40.0
 30
0.0
 11
100.0
 21
30.0
 31
0.0
  0
LINE
  5
127E
102
{ACAD_REACTORS
330
128D
102
}
330
1F
100
AcDbEntity
  8
0
100
AcDbLine
 10
100.0
 20
30.0
 30
0.0
 11
103.0
 21
30.0
 31
0.0
  0
LINE
  5
127F
102
{ACAD_REACTORS
330
128D
102
}
330
1F
100
AcDbEntity
  8
0
100
AcDbLine
 10
103.0
 20
30.0
 30
0.0
 11
103.0
 21
20.0
 31
0.0
  0
LINE
  5
1280
102
{ACAD_REACTORS
330
128D
102
}
330
1F
100
AcDbEntity
  8
0
100
AcDbLine
 10
103.0
 20
20.0
 30
0.0
 11
100.0
 21
20.0
 31
0.0
  0
LINE
  5
1281
102
{ACAD_REACTORS
330
128D
102
}
330
1F
100
AcDbEntity
  8
0
100
AcDbLine
 10
100.0
 20
20.0
 30
0.0
 11
100.0
 21
10.0
 31
0.0
  0
LINE
  5
1282
102
{ACAD_REACTORS
330
128D
102
}
330
1F
100
AcDbEntity
  8
0
100
AcDbLine
 10
100.0
 20
10.0
 30
0.0
 11
100.0
 21
7.0
 31
0.0
  0
LINE
  5
1283
102
{ACAD_REACTORS
330
128D
102
}
330
1F
100
AcDbEntity
  8
0
100
AcDbLine
 10
100.0
 20
7.0
 30
0.0
 11
95.0
 21
7.0
 31
0.0
  0
LINE
  5
1284
102
{ACAD_REACTORS
330
128D
102
}
330
1F
100
AcDbEntity
  8
0
100
AcDbLine
 10
95.0
 20
7.0
 30
0.0
 11
95.0
 21
10.0
 31
0.0
  0
LINE
  5
1285
102
{ACAD_REACTORS
330
128D
102
}
330
1F
100
AcDbEntity
  8
0
100
AcDbLine
 10
95.0
 20
10.0
 30
0.0
 11
85.0
 21
10.0
 31
0.0
  0
LINE
  5
1286
102
{ACAD_REACTORS
330
128D
102
}
330
1F
100
AcDbEntity
  8
0
100
AcDbLine
 10
85.0
 20
10.0
 30
0.0
 11
85.0
 21
7.0
 31
0.0
  0
LINE
  5
1287
102
{ACAD_REACTORS
330
128D
102
}
330
1F
100
AcDbEntity
  8
0
100
AcDbLine
 10
85.0
 20
7.0
 30
0.0
 11
75.0
 21
7.0
 31
0.0
  0
LINE
  5
1288
102
{ACAD_REACTORS
330
128D
102
}
330
1F
100
AcDbEntity
  8
0
100
AcDbLine
 10
75.0
 20
7.0
 30
0.0
 11
75.0
 21
10.0
 31
0.0
  0
LINE
  5
1289
102
{ACAD_REACTORS
330
128D
102
}
330
1F
100
AcDbEntity
  8
0
100
AcDbLine
 10
75.0
 20
10.0
 30
0.0
 11
65.0
 21
10.0
 31
0.0
  0
LINE
  5
128A
102
{ACAD_REACTORS
330
128D
102
}
330
1F
100
AcDbEntity
  8
0
100
AcDbLine
 10
65.0
 20
10.0
 30
0.0
 11
65.0
 21
7.0
 31
0.0
  0
LINE
  5
128B
102
{ACAD_REACTORS
330
128D
102
}
330
1F
100
AcDbEntity
  8
0
100
AcDbLine
 10
65.0
 20
7.0
 30
0.0
 11
60.0
 21
7.0
 31
0.0
  0
LINE
  5
128C
102
{ACAD_REACTORS
330
128D
102
}
330
1F
100
AcDbEntity
  8
0
100
AcDbLine
 10
60.0
 20
7.0
 30
0.0
 11
60.0
 21
10.0
 31
0.0
  0
LINE
  5
1290
102
{ACAD_REACTORS
330
1300
102
}
330
1F
100
AcDbEntity
  8
0
100
AcDbLine
 10
107.0
 20
10.0
 30
0.0
 11
107.0
 21
20.0
 31
0.0
  0
LINE
  5
1291
102
{ACAD_REACTORS
330
1300
102
}
330
1F
100
AcDbEntity
  8
0
100
AcDbLine
 10
107.0
 20
20.0
 30
0.0
 11
110.0
 21
20.0
 31
0.0
  0
LINE
  5
1292
102
{ACAD_REACTORS
330
1300
102
}
330
1F
100
AcDbEntity
  8
0
100
AcDbLine
 10
110.0
 20
20.0
 30
0.0
 11
110.0
 21
30.0
 31
0.0
  0
LINE
  5
1293
102
{ACAD_REACTORS
330
1300
102
}
330
1F
100
AcDbEntity
  8
0
100
AcDbLine
 10
110.0
 20
30.0
 30
0.0
 11
107.0
 21
30.0
 31
0.0
  0
LINE
  5
1294
102
{ACAD_REACTORS
330
1300
102
}
330
1F
100
AcDbEntity
  8
0
100
AcDbLine
 10
107.0
 20
30.0
 30
0.0
 11
107.0
 21
40.0
 31
0.0
  0
LINE
  5
1295
102
{ACAD_REACTORS
330
1300
102
}
330
1F
100
AcDbEntity
  8
0
100
AcDbLine
 10
107.0
 20
40.0
 30
0.0
 11
110.0
 21
40.0
 31
0.0
  0
LINE
  5
1296
102
{ACAD_REACTORS
330
1300
102
}
330
1F
100
AcDbEntity
  8
0
100
AcDbLine
 10
110.0
 20
40.0
 30
0.0
 11
110.0
 21
50.0
 31
0.0
  0
LINE
  5
1297
102
{ACAD_REACTORS
330
1300
102
}
330
1F
100
AcDbEntity
  8
0
100
AcDbLine
 10
110.0
 20
50.0
 30
0.0
 11
107.0
 21
50.0
 31
0.0
  0
LINE
  5
1298
102
{ACAD_REACTORS
330
1300
102
}
330
1F
100
AcDbEntity
  8
0
100
AcDbLine
 10
107.0
 20
50.0
 30
0.0
 11
107.0
 21
60.0
 31
0.0
  0
LINE
  5
1299
102
{ACAD_REACTORS
330
1300
102
}
330
1F
100
AcDbEntity
  8
0
100
AcDbLine
 10
107.0
 20
60.0
 30
0.0
 11
110.0
 21
60.0
 31
0.0
  0
LINE
  5
129A
102
{ACAD_REACTORS
330
1300
102
}
330
1F
100
AcDbEntity
  8
0
100
AcDbLine
 10
110.0
 20
60.0
 30
0.0
 11
110.0
 21
70.0
 31
0.0
  0
LINE
  5
129B
102
{ACAD_REACTORS
330
1300
102
}
330
1F
100
AcDbEntity
  8
0
100
AcDbLine
 10
110.0
 20
70.0
 30
0.0
 11
107.0
 21
70.0
 31
0.0
  0
LINE
  5
129C
102
{ACAD_REACTORS
330
1300
102
}
330
1F
100
AcDbEntity
  8
0
100
AcDbLine
 10
107.0
 20
70.0
 30
0.0
 11
107.0
 21
80.0
 31
0.0
  0
LINE
  5
129D
102
{ACAD_REACTORS
330
1300
102
}
330
1F
100
AcDbEntity
  8
0
100
AcDbLine
 10
107.0
 20
80.0
 30
0.0
 11
110.0
 21
80.0
 31
0.0
  0
LINE
  5
129E
102
{ACAD_REACTORS
330
1300
102
}
330
1F
100
AcDbEntity
  8
0
100
AcDbLine
 10
110.0
 20
80.0
 30
0.0
 11
110.0
 21
90.0
 31
0.0
  0
LINE
  5
129F
102
{ACAD_REACTORS
330
1300
102
}
330
1F
100
AcDbEntity
  8
0
100
AcDbLine
 10
110.0
 20
90.0
 30
0.0
 11
107.0
 21
90.0
 31
0.0
  0
LINE
  5
12A1
102
{ACAD_REACTORS
330
1300
102
}
330
1F
100
AcDbEntity
  8
0
100
AcDbLine
 10
107.0
 20
90.0
 30
0.0
 11
107.0
 21
100.0
 31
0.0
  0
LINE
  5
12A2
102
{ACAD_REACTORS
330
1300
102
}
330
1F
100
AcDbEntity
  8
0
100
AcDbLine
 10
107.0
 20
100.0
 30
0.0
 11
110.0
 21
100.0
 31
0.0
  0
LINE
  5
12A3
102
{ACAD_REACTORS
330
1300
102
}
330
1F
100
AcDbEntity
  8
0
100
AcDbLine
 10
110.0
 20
100.0
 30
0.0
 11
110.0
 21
110.0
 31
0.0
  0
LINE
  5
12A4
102
{ACAD_REACTORS
330
1300
102
}
330
1F
100
AcDbEntity
  8
0
100
AcDbLine
 10
110.0
 20
110.0
 30
0.0
 11
107.0
 21
110.0
 31
0.0
  0
LINE
  5
12A5
102
{ACAD_REACTORS
330
1300
102
}
330
1F
100
AcDbEntity
  8
0
100
AcDbLine
 10
107.0
 20
110.0
 30
0.0
 11
107.0
 21
120.0
 31
0.0
  0
LINE
  5
12A6
102
{ACAD_REACTORS
330
1300
102
}
330
1F
100
AcDbEntity
  8
0
100
AcDbLine
 10
107.0
 20
120.0
 30
0.0
 11
110.0
 21
120.0
 31
0.0
  0
LINE
  5
12A7
102
{ACAD_REACTORS
330
1300
102
}
330
1F
100
AcDbEntity
  8
0
100
AcDbLine
 10
110.0
 20
120.0
 30
0.0
 11
110.0
 21
130.0
 31
0.0
  0
LINE
  5
12A8
102
{ACAD_REACTORS
330
1300
102
}
330
1F
100
AcDbEntity
  8
0
100
AcDbLine
 10
110.0
 20
130.0
 30
0.0
 11
107.0
 21
130.0
 31
0.0
  0
LINE
  5
12A9
102
{ACAD_REACTORS
330
1300
102
}
330
1F
100
AcDbEntity
  8
0
100
AcDbLine
 10
107.0
 20
130.0
 30
0.0
 11
107.0
 21
140.0
 31
0.0
  0
LINE
  5
12AA
102
{ACAD_REACTORS
330
1300
102
}
330
1F
100
AcDbEntity
  8
0
100
AcDbLine
 10
107.0
 20
140.0
 30
0.0
 11
110.0
 21
140.0
 31
0.0
  0
LINE
  5
12AB
102
{ACAD_REACTORS
330
1300
102
}
330
1F
100
AcDbEntity
  8
0
100
AcDbLine
 10
110.0
 20
140.0
 30
0.0
 11
110.0
 21
150.0
 31
0.0
  0
LINE
  5
12AC
102
{ACAD_REACTORS
330
1300
102
}
330
1F
100
AcDbEntity
  8
0
100
AcDbLine
 10
110.0
 20
150.0
 30
0.0
 11
107.0
 21
150.0
 31
0.0
  0
LINE
  5
12AD
102
{ACAD_REACTORS
330
1300
102
}
330
1F
100
AcDbEntity
  8
0
100
AcDbLine
 10
107.0
 20
150.0
 30
0.0
 11
107.0
 21
160.0
 31
0.0
  0
LINE
  5
12AE
102
{ACAD_REACTORS
330
1300
102
}
330
1F
100
AcDbEntity
  8
0
100
AcDbLine
 10
107.0
 20
160.0
 30
0.0
 11
110.0
 21
160.0
 31
0.0
  0
LINE
  5
12AF
102
{ACAD_REACTORS
330
1300
102
}
330
1F
100
AcDbEntity
  8
0
100
AcDbLine
 10
110.0
 20
160.0
 30
0.0
 11
110.0
 21
170.0
 31
0.0
  0
LINE
  5
12B0
102
{ACAD_REACTORS
330
1300
102
}
330
1F
100
AcDbEntity
  8
0
100
AcDbLine
 10
110.0
 20
170.0
 30
0.0
 11
107.0
 21
170.0
 31
0.0
  0
LINE
  5
12B1
102
{ACAD_REACTORS
330
1300
102
}
330
1F
100
AcDbEntity
  8
0
100
AcDbLine
 10
107.0
 20
170.0
 30
0.0
 11
107.0
 21
180.0
 31
0.0
  0
LINE
  5
12B2
102
{ACAD_REACTORS
330
1300
102
}
330
1F
100
AcDbEntity
  8
0
100
AcDbLine
 10
107.0
 20
180.0
 30
0.0
 11
110.0
 21
180.0
 31
0.0
  0
LINE
  5
12B3
102
{ACAD_REACTORS
330
1300
102
}
330
1F
100
AcDbEntity
  8
0
100
AcDbLine
 10
110.0
 20
180.0
 30
0.0
 11
110.0
 21
190.0
 31
0.0
  0
LINE
  5
12B4
102
{ACAD_REACTORS
330
1300
102
}
330
1F
100
AcDbEntity
  8
0
100
AcDbLine
 10
110.0
 20
190.0
 30
0.0
 11
107.0
 21
190.0
 31
0.0
  0
LINE
  5
12B5
102
{ACAD_REACTORS
330
1300
102
}
330
1F
100
AcDbEntity
  8
0
100
AcDbLine
 10
107.0
 20
190.0
 30
0.0
 11
107.0
 21
200.0
 31
0.0
  0
LINE
  5
12B6
102
{ACAD_REACTORS
330
1300
102
}
330
1F
100
AcDbEntity
  8
0
100
AcDbLine
 10
107.0
 20
200.0
 30
0.0
 11
110.0
 21
200.0
 31
0.0
  0
LINE
  5
12B7
102
{ACAD_REACTORS
330
1300
102
}
330
1F
100
AcDbEntity
  8
0
100
AcDbLine
 10
110.0
 20
200.0
 30
0.0
 11
110.0
 21
210.0
 31
0.0
  0
LINE
  5
12B8
102
{ACAD_REACTORS
330
1300
102
}
330
1F
100
AcDbEntity
  8
0
100
AcDbLine
 10
110.0
 20
210.0
 30
0.0
 11
107.0
 21
210.0
 31
0.0
  0
LINE
  5
12B9
102
{ACAD_REACTORS
330
1300
102
}
330
1F
100
AcDbEntity
  8
0
100
AcDbLine
 10
107.0
 20
210.0
 30
0.0
 11
107.0
 21
220.0
 31
0.0
  0
LINE
  5
12BA
102
{ACAD_REACTORS
330
1300
102
}
330
1F
100
AcDbEntity
  8
0
100
AcDbLine
 10
107.0
 20
220.0
 30
0.0
 11
110.0
 21
220.0
 31
0.0
  0
LINE
  5
12BB
102
{ACAD_REACTORS
330
1300
102
}
330
1F
100
AcDbEntity
  8
0
100
AcDbLine
 10
110.0
 20
220.0
 30
0.0
 11
110.0
 21
230.0
 31
0.0
  0
LINE
  5
12BC
102
{ACAD_REACTORS
330
1300
102
}
330
1F
100
AcDbEntity
  8
0
100
AcDbLine
 10
110.0
 20
230.0
 30
0.0
 11
107.0
 21
230.0
 31
0.0
  0
LINE
  5
12BD
102
{ACAD_REACTORS
330
1300
102
}
330
1F
100
AcDbEntity
  8
0
100
AcDbLine
 10
107.0
 20
230.0
 30
0.0
 11
107.0
 21
240.0
 31
0.0
  0
LINE
  5
12BE
102
{ACAD_REACTORS
330
1300
102
}
330
1F
100
AcDbEntity
  8
0
100
AcDbLine
 10
107.0
 20
240.0
 30
0.0
 11
110.0
 21
240.0
 31
0.0
  0
LINE
  5
12BF
102
{ACAD_REACTORS
330
1300
102
}
330
1F
100
AcDbEntity
  8
0
100
AcDbLine
 10
110.0
 20
240.0
 30
0.0
 11
110.0
 21
250.0
 31
0.0
  0
LINE
  5
12C0
102
{ACAD_REACTORS
330
1300
102
}
330
1F
100
AcDbEntity
  8
0
100
AcDbLine
 10
110.0
 20
250.0
 30
0.0
 11
107.0
 21
250.0
 31
0.0
  0
LINE
  5
12C4
102
{ACAD_REACTORS
330
1300
102
}
330
1F
100
AcDbEntity
  8
0
100
AcDbLine
 10
107.0
 20
250.0
 30
0.0
 11
107.0
 21
260.0
 31
0.0
  0
LINE
  5
12C6
102
{ACAD_REACTORS
330
1300
102
}
330
1F
100
AcDbEntity
  8
0
100
AcDbLine
 10
107.0
 20
260.0
 30
0.0
 11
107.0
 21
263.0
 31
0.0
  0
LINE
  5
12C7
102
{ACAD_REACTORS
330
1300
102
}
330
1F
100
AcDbEntity
  8
0
100
AcDbLine
 10
107.0
 20
263.0
 30
0.0
 11
133.0
 21
263.0
 31
0.0
  0
LINE
  5
12C8
102
{ACAD_REACTORS
330
1300
102
}
330
1F
100
AcDbEntity
  8
0
100
AcDbLine
 10
133.0
 20
263.0
 30
0.0
 11
133.0
 21
250.0
 31
0.0
  0
LINE
  5
12C9
102
{ACAD_REACTORS
330
1300
102
}
330
1F
100
AcDbEntity
  8
0
100
AcDbLine
 10
133.0
 20
250.0
 30
0.0
 11
130.0
 21
250.0
 31
0.0
  0
LINE
  5
12CA
102
{ACAD_REACTORS
330
1300
102
}
330
1F
100
AcDbEntity
  8
0
100
AcDbLine
 10
130.0
 20
250.0
 30
0.0
 11
130.0
 21
240.0
 31
0.0
  0
LINE
  5
12CB
102
{ACAD_REACTORS
330
1300
102
}
330
1F
100
AcDbEntity
  8
0
100
AcDbLine
 10
130.0
 20
240.0
 30
0.0
 11
133.0
 21
240.0
 31
0.0
  0
LINE
  5
12CC
102
{ACAD_REACTORS
330
1300
102
}
330
1F
100
AcDbEntity
  8
0
100
AcDbLine
 10
133.0
 20
240.0
 30
0.0
 11
133.0
 21
230.0
 31
0.0
  0
LINE
  5
12CD
102
{ACAD_REACTORS
330
1300
102
}
330
1F
100
AcDbEntity
  8
0
100
AcDbLine
 10
133.0
 20
230.0
 30
0.0
 11
130.0
 21
230.0
 31
0.0
  0
LINE
  5
12CE
102
{ACAD_REACTORS
330
1300
102
}
330
1F
100
AcDbEntity
  8
0
100
AcDbLine
 10
130.0
 20
230.0
 30
0.0
 11
130.0
 21
220.0
 31
0.0
  0
LINE
  5
12CF
102
{ACAD_REACTORS
330
1300
102
}
330
1F
100
AcDbEntity
  8
0
100
AcDbLine
 10
130.0
 20
220.0
 30
0.0
 11
133.0
 21
220.0
 31
0.0
  0
LINE
  5
12D0
102
{ACAD_REACTORS
330
1300
102
}
330
1F
100
AcDbEntity
  8
0
100
AcDbLine
 10
133.0
 20
220.0
 30
0.0
 11
133.0
 21
210.0
 31
0.0
  0
LINE
  5
12D1
102
{ACAD_REACTORS
330
1300
102
}
330
1F
100
AcDbEntity
  8
0
100
AcDbLine
 10
133.0
 20
210.0
 30
0.0
 11
130.0
 21
210.0
 31
0.0
  0
LINE
  5
12D2
102
{ACAD_REACTORS
330
1300
102
}
330
1F
100
AcDbEntity
  8
0
100
AcDbLine
 10
130.0
 20
210.0
 30
0.0
 11
130.0
 21
200.0
 31
0.0
  0
LINE
  5
12D4
102
{ACAD_REACTORS
330
1300
102
}
330
1F
100
AcDbEntity
  8
0
100
AcDbLine
 10
130.0
 20
200.0
 30
0.0
 11
133.0
 21
200.0
 31
0.0
  0
LINE
  5
12D5
102
{ACAD_REACTORS
330
1300
102
}
330
1F
100
AcDbEntity
  8
0
100
AcDbLine
 10
133.0
 20
200.0
 30
0.0
 11
133.0
 21
190.0
 31
0.0
  0
LINE
  5
12D6
102
{ACAD_REACTORS
330
1300
102
}
330
1F
100
AcDbEntity
  8
0
100
AcDbLine
 10
133.0
 20
190.0
 30
0.0
 11
130.0
 21
190.0
 31
0.0
  0
LINE
  5
12D7
102
{ACAD_REACTORS
330
1300
102
}
330
1F
100
AcDbEntity
  8
0
100
AcDbLine
 10
130.0
 20
190.0
 30
0.0
 11
130.0
 21
180.0
 31
0.0
  0
LINE
  5
12D8
102
{ACAD_REACTORS
330
1300
102
}
330
1F
100
AcDbEntity
  8
0
100
AcDbLine
 10
130.0
 20
180.0
 30
0.0
 11
133.0
 21
180.0
 31
0.0
  0
LINE
  5
12D9
102
{ACAD_REACTORS
330
1300
102
}
330
1F
100
AcDbEntity
  8
0
100
AcDbLine
 10
133.0
 20
180.0
 30
0.0
 11
133.0
 21
170.0
 31
0.0
  0
LINE
  5
12DA
102
{ACAD_REACTORS
330
1300
102
}
330
1F
100
AcDbEntity
  8
0
100
AcDbLine
 10
133.0
 20
170.0
 30
0.0
 11
130.0
 21
170.0
 31
0.0
  0
LINE
  5
12DB
102
{ACAD_REACTORS
330
1300
102
}
330
1F
100
AcDbEntity
  8
0
100
AcDbLine
 10
130.0
 20
170.0
 30
0.0
 11
130.0
 21
160.0
 31
0.0
  0
LINE
  5
12DC
102
{ACAD_REACTORS
330
1300
102
}
330
1F
100
AcDbEntity
  8
0
100
AcDbLine
 10
130.0
 20
160.0
 30
0.0
 11
133.0
 21
160.0
 31
0.0
  0
LINE
  5
12DD
102
{ACAD_REACTORS
330
1300
102
}
330
1F
100
AcDbEntity
  8
0
100
AcDbLine
 10
133.0
 20
160.0
 30
0.0
 11
133.0
 21
150.0
 31
0.0
  0
LINE
  5
12DE
102
{ACAD_REACTORS
330
1300
102
}
330
1F
100
AcDbEntity
  8
0
100
AcDbLine
 10
133.0
 20
150.0
 30
0.0
 11
130.0
 21
150.0
 31
0.0
  0
LINE
  5
12DF
102
{ACAD_REACTORS
330
1300
102
}
330
1F
100
AcDbEntity
  8
0
100
AcDbLine
 10
130.0
 20
150.0
 30
0.0
 11
130.0
 21
140.0
 31
0.0
  0
LINE
  5
12E0
102
{ACAD_REACTORS
330
1300
102
}
330
1F
100
AcDbEntity
  8
0
100
AcDbLine
 10
130.0
 20
140.0
 30
0.0
 11
133.0
 21
140.0
 31
0.0
  0
LINE
  5
12E1
102
{ACAD_REACTORS
330
1300
102
}
330
1F
100
AcDbEntity
  8
0
100
AcDbLine
 10
133.0
 20
140.0
 30
0.0
 11
133.0
 21
130.0
 31
0.0
  0
LINE
  5
12E2
102
{ACAD_REACTORS
330
1300
102
}
330
1F
100
AcDbEntity
  8
0
100
AcDbLine
 10
133.0
 20
130.0
 30
0.0
 11
130.0
 21
130.0
 31
0.0
  0
LINE
  5
12E3
102
{ACAD_REACTORS
330
1300
102
}
330
1F
100
AcDbEntity
  8
0
100
AcDbLine
 10
130.0
 20
130.0
 30
0.0
 11
130.0
 21
120.0
 31
0.0
  0
LINE
  5
12E4
102
{ACAD_REACTORS
330
1300
102
}
330
1F
100
AcDbEntity
  8
0
100
AcDbLine
 10
130.0
 20
120.0
 30
0.0
 11
133.0
 21
120.0
 31
0.0
  0
LINE
  5
12E5
102
{ACAD_REACTORS
330
1300
102
}
330
1F
100
AcDbEntity
  8
0
100
AcDbLine
 10
133.0
 20
120.0
 30
0.0
 11
133.0
 21
110.0
 31
0.0
  0
LINE
  5
12E6
102
{ACAD_REACTORS
330
1300
102
}
330
1F
100
AcDbEntity
  8
0
100
AcDbLine
 10
133.0
 20
110.0
 30
0.0
 11
130.0
 21
110.0
 31
0.0
  0
LINE
  5
12E7
102
{ACAD_REACTORS
330
1300
102
}
330
1F
100
AcDbEntity
  8
0
100
AcDbLine
 10
130.0
 20
110.0
 30
0.0
 11
130.0
 21
100.0
 31
0.0
  0
LINE
  5
12E8
102
{ACAD_REACTORS
330
1300
102
}
330
1F
100
AcDbEntity
  8
0
100
AcDbLine
 10
130.0
 20
100.0
 30
0.0
 11
133.0
 21
100.0
 31
0.0
  0
LINE
  5
12E9
102
{ACAD_REACTORS
330
1300
102
}
330
1F
100
AcDbEntity
  8
0
100
AcDbLine
 10
133.0
 20
100.0
 30
0.0
 11
133.0
 21
90.0
 31
0.0
  0
LINE
  5
12EA
102
{ACAD_REACTORS
330
1300
102
}
330
1F
100
AcDbEntity
  8
0
100
AcDbLine
 10
133.0
 20
90.0
 30
0.0
 11
130.0
 21
90.0
 31
0.0
  0
LINE
  5
12EB
102
{ACAD_REACTORS
330
1300
102
}
330
1F
100
AcDbEntity
  8
0
100
AcDbLine
 10
130.0
 20
90.0
 30
0.0
 11
130.0
 21
80.0
 31
0.0
  0
LINE
  5
12EC
102
{ACAD_REACTORS
330
1300
102
}
330
1F
100
AcDbEntity
  8
0
100
AcDbLine
 10
130.0
 20
80.0
 30
0.0
 11
133.0
 21
80.0
 31
0.0
  0
LINE
  5
12ED
102
{ACAD_REACTORS
330
1300
102
}
330
1F
100
AcDbEntity
  8
0
100
AcDbLine
 10
133.0
 20
80.0
 30
0.0
 11
133.0
 21
70.0
 31
0.0
  0
LINE
  5
12EE
102
{ACAD_REACTORS
330
1300
102
}
330
1F
100
AcDbEntity
  8
0
100
AcDbLine
 10
133.0
 20
70.0
 30
0.0
 11
130.0
 21
70.0
 31
0.0
  0
LINE
  5
12EF
102
{ACAD_REACTORS
330
1300
102
}
330
1F
100
AcDbEntity
  8
0
100
AcDbLine
 10
130.0
 20
70.0
 30
0.0
 11
130.0
 21
60.0
 31
0.0
  0
LINE
  5
12F0
102
{ACAD_REACTORS
330
1300
102
}
330
1F
100
AcDbEntity
  8
0
100
AcDbLine
 10
130.0
 20
60.0
 30
0.0
 11
133.0
 21
60.0
 31
0.0
  0
LINE
  5
12F1
102
{ACAD_REACTORS
330
1300
102
}
330
1F
100
AcDbEntity
  8
0
100
AcDbLine
 10
133.0
 20
60.0
 30
0.0
 11
133.0
 21
50.0
 31
0.0
  0
LINE
  5
12F2
102
{ACAD_REACTORS
330
1300
102
}
330
1F
100
AcDbEntity
  8
0
100
AcDbLine
 10
133.0
 20
50.0
 30
0.0
 11
130.0
 21
50.0
 31
0.0
  0
LINE
  5
12F3
102
{ACAD_REACTORS
330
1300
102
}
330
1F
100
AcDbEntity
  8
0
100
AcDbLine
 10
130.0
 20
50.0
 30
0.0
 11
130.0
 21
40.0
 31
0.0
  0
LINE
  5
12F4
102
{ACAD_REACTORS
330
1300
102
}
330
1F
100
AcDbEntity
  8
0
100
AcDbLine
 10
130.0
 20
40.0
 30
0.0
 11
133.0
 21
40.0
 31
0.0
  0
LINE
  5
12F6
102
{ACAD_REACTORS
330
1300
102
}
330
1F
100
AcDbEntity
  8
0
100
AcDbLine
 10
133.0
 20
40.0
 30
0.0
 11
133.0
 21
30.0
 31
0.0
  0
LINE
  5
12F7
102
{ACAD_REACTORS
330
1300
102
}
330
1F
100
AcDbEntity
  8
0
100
AcDbLine
 10
133.0
 20
30.0
 30
0.0
 11
130.0
 21
30.0
 31
0.0
  0
LINE
  5
12F8
102
{ACAD_REACTORS
330
1300
102
}
330
1F
100
AcDbEntity
  8
0
100
AcDbLine
 10
130.0
 20
30.0
 30
0.0
 11
130.0
 21
20.0
 31
0.0
  0
LINE
  5
12F9
102
{ACAD_REACTORS
330
1300
102
}
330
1F
100
AcDbEntity
  8
0
100
AcDbLine
 10
130.0
 20
20.0
 30
0.0
 11
133.0
 21
20.0
 31
0.0
  0
LINE
  5
12FA
102
{ACAD_REACTORS
330
1300
102
}
330
1F
100
AcDbEntity
  8
0
100
AcDbLine
 10
133.0
 20
20.0
 30
0.0
 11
133.0
 21
7.0
 31
0.0
  0
LINE
  5
12FB
102
{ACAD_REACTORS
330
1300
102
}
330
1F
100
AcDbEntity
  8
0
100
AcDbLine
 10
133.0
 20
7.0
 30
0.0
 11
110.0
 21
7.0
 31
0.0
  0
LINE
  5
12FC
102
{ACAD_REACTORS
330
1300
102
}
330
1F
100
AcDbEntity
  8
0
100
AcDbLine
 10
110.0
 20
7.0
 30
0.0
 11
107.0
 21
7.0
 31
0.0
  0
LINE
  5
12FE
102
{ACAD_REACTORS
330
1300
102
}
330
1F
100
AcDbEntity
  8
0
100
AcDbLine
 10
107.0
 20
7.0
 30
0.0
 11
107.0
 21
10.0
 31
0.0
  0
LINE
  5
1369
102
{ACAD_REACTORS
330
13D0
102
}
330
1F
100
AcDbEntity
  8
0
100
AcDbLine
 10
137.0
 20
10.0
 30
0.0
 11
137.0
 21
20.0
 31
0.0
  0
LINE
  5
136A
102
{ACAD_REACTORS
330
13D0
102
}
330
1F
100
AcDbEntity
  8
0
100
AcDbLine
 10
137.0
 20
20.0
 30
0.0
 11
140.0
 21
20.0
 31
0.0
  0
LINE
  5
136B
102
{ACAD_REACTORS
330
13D0
102
}
330
1F
100
AcDbEntity
  8
0
100
AcDbLine
 10
140.0
 20
20.0
 30
0.0
 11
140.0
 21
30.0
 31
0.0
  0
LINE
  5
136C
102
{ACAD_REACTORS
330
13D0
102
}
330
1F
100
AcDbEntity
  8
0
100
AcDbLine
 10
140.0
 20
30.0
 30
0.0
 11
137.0
 21
30.0
 31
0.0
  0
LINE
  5
136D
102
{ACAD_REACTORS
330
13D0
102
}
330
1F
100
AcDbEntity
  8
0
100
AcDbLine
 10
137.0
 20
30.0
 30
0.0
 11
137.0
 21
40.0
 31
0.0
  0
LINE
  5
136E
102
{ACAD_REACTORS
330
13D0
102
}
330
1F
100
AcDbEntity
  8
0
100
AcDbLine
 10
137.0
 20
40.0
 30
0.0
 11
140.0
 21
40.0
 31
0.0
  0
LINE
  5
136F
102
{ACAD_REACTORS
330
13D0
102
}
330
1F
100
AcDbEntity
  8
0
100
AcDbLine
 10
140.0
 20
40.0
 30
0.0
 11
140.0
 21
50.0
 31
0.0
  0
LINE
  5
1370
102
{ACAD_REACTORS
330
13D0
102
}
330
1F
100
AcDbEntity
  8
0
100
AcDbLine
 10
140.0
 20
50.0
 30
0.0
 11
137.0
 21
50.0
 31
0.0
  0
LINE
  5
1371
102
{ACAD_REACTORS
330
13D0
102
}
330
1F
100
AcDbEntity
  8
0
100
AcDbLine
 10
137.0
 20
50.0
 30
0.0
 11
137.0
 21
60.0
 31
0.0
  0
LINE
  5
1372
102
{ACAD_REACTORS
330
13D0
102
}
330
1F
100
AcDbEntity
  8
0
100
AcDbLine
 10
137.0
 20
60.0
 30
0.0
 11
140.0
 21
60.0
 31
0.0
  0
LINE
  5
1373
102
{ACAD_REACTORS
330
13D0
102
}
330
1F
100
AcDbEntity
  8
0
100
AcDbLine
 10
140.0
 20
60.0
 30
0.0
 11
140.0
 21
70.0
 31
0.0
  0
LINE
  5
1374
102
{ACAD_REACTORS
330
13D0
102
}
330
1F
100
AcDbEntity
  8
0
100
AcDbLine
 10
140.0
 20
70.0
 30
0.0
 11
137.0
 21
70.0
 31
0.0
  0
LINE
  5
1375
102
{ACAD_REACTORS
330
13D0
102
}
330
1F
100
AcDbEntity
  8
0
100
AcDbLine
 10
137.0
 20
70.0
 30
0.0
 11
137.0
 21
80.0
 31
0.0
  0
LINE
  5
1376
102
{ACAD_REACTORS
330
13D0
102
}
330
1F
100
AcDbEntity
  8
0
100
AcDbLine
 10
137.0
 20
80.0
 30
0.0
 11
140.0
 21
80.0
 31
0.0
  0
LINE
  5
1377
102
{ACAD_REACTORS
330
13D0
102
}
330
1F
100
AcDbEntity
  8
0
100
AcDbLine
 10
140.0
 20
80.0
 30
0.0
 11
140.0
 21
90.0
 31
0.0
  0
LINE
  5
1378
102
{ACAD_REACTORS
330
13D0
102
}
330
1F
100
AcDbEntity
  8
0
100
AcDbLine
 10
140.0
 20
90.0
 30
0.0
 11
137.0
 21
90.0
 31
0.0
  0
LINE
  5
1379
102
{ACAD_REACTORS
330
13D0
102
}
330
1F
100
AcDbEntity
  8
0
100
AcDbLine
 10
137.0
 20
90.0
 30
0.0
 11
137.0
 21
100.0
 31
0.0
  0
LINE
  5
137A
102
{ACAD_REACTORS
330
13D0
102
}
330
1F
100
AcDbEntity
  8
0
100
AcDbLine
 10
137.0
 20
100.0
 30
0.0
 11
140.0
 21
100.0
 31
0.0
  0
LINE
  5
137B
102
{ACAD_REACTORS
330
13D0
102
}
330
1F
100
AcDbEntity
  8
0
100
AcDbLine
 10
140.0
 20
100.0
 30
0.0
 11
140.0
 21
110.0
 31
0.0
  0
LINE
  5
137C
102
{ACAD_REACTORS
330
13D0
102
}
330
1F
100
AcDbEntity
  8
0
100
AcDbLine
 10
140.0
 20
110.0
 30
0.0
 11
137.0
 21
110.0
 31
0.0
  0
LINE
  5
137D
102
{ACAD_REACTORS
330
13D0
102
}
330
1F
100
AcDbEntity
  8
0
100
AcDbLine
 10
137.0
 20
110.0
 30
0.0
 11
137.0
 21
120.0
 31
0.0
  0
LINE
  5
137E
102
{ACAD_REACTORS
330
13D0
102
}
330
1F
100
AcDbEntity
  8
0
100
AcDbLine
 10
137.0
 20
120.0
 30
0.0
 11
140.0
 21
120.0
 31
0.0
  0
LINE
  5
137F
102
{ACAD_REACTORS
330
13D0
102
}
330
1F
100
AcDbEntity
  8
0
100
AcDbLine
 10
140.0
 20
120.0
 30
0.0
 11
140.0
 21
130.0
 31
0.0
  0
LINE
  5
1380
102
{ACAD_REACTORS
330
13D0
102
}
330
1F
100
AcDbEntity
  8
0
100
AcDbLine
 10
140.0
 20
130.0
 30
0.0
 11
137.0
 21
130.0
 31
0.0
  0
LINE
  5
1381
102
{ACAD_REACTORS
330
13D0
102
}
330
1F
100
AcDbEntity
  8
0
100
AcDbLine
 10
137.0
 20
130.0
 30
0.0
 11
137.0
 21
140.0
 31
0.0
  0
LINE
  5
1382
102
{ACAD_REACTORS
330
13D0
102
}
330
1F
100
AcDbEntity
  8
0
100
AcDbLine
 10
137.0
 20
140.0
 30
0.0
 11
140.0
 21
140.0
 31
0.0
  0
LINE
  5
1383
102
{ACAD_REACTORS
330
13D0
102
}
330
1F
100
AcDbEntity
  8
0
100
AcDbLine
 10
140.0
 20
140.0
 30
0.0
 11
140.0
 21
150.0
 31
0.0
  0
LINE
  5
1384
102
{ACAD_REACTORS
330
13D0
102
}
330
1F
100
AcDbEntity
  8
0
100
AcDbLine
 10
140.0
 20
150.0
 30
0.0
 11
137.0
 21
150.0
 31
0.0
  0
LINE
  5
1385
102
{ACAD_REACTORS
330
13D0
102
}
330
1F
100
AcDbEntity
  8
0
100
AcDbLine
 10
137.0
 20
150.0
 30
0.0
 11
137.0
 21
160.0
 31
0.0
  0
LINE
  5
1386
102
{ACAD_REACTORS
330
13D0
102
}
330
1F
100
AcDbEntity
  8
0
100
AcDbLine
 10
137.0
 20
160.0
 30
0.0
 11
140.0
 21
160.0
 31
0.0
  0
LINE
  5
1387
102
{ACAD_REACTORS
330
13D0
102
}
330
1F
100
AcDbEntity
  8
0
100
AcDbLine
 10
140.0
 20
160.0
 30
0.0
 11
140.0
 21
170.0
 31
0.0
  0
LINE
  5
1388
102
{ACAD_REACTORS
330
13D0
102
}
330
1F
100
AcDbEntity
  8
0
100
AcDbLine
 10
140.0
 20
170.0
 30
0.0
 11
137.0
 21
170.0
 31
0.0
  0
LINE
  5
1389
102
{ACAD_REACTORS
330
13D0
102
}
330
1F
100
AcDbEntity
  8
0
100
AcDbLine
 10
137.0
 20
170.0
 30
0.0
 11
137.0
 21
180.0
 31
0.0
  0
LINE
  5
138A
102
{ACAD_REACTORS
330
13D0
102
}
330
1F
100
AcDbEntity
  8
0
100
AcDbLine
 10
137.0
 20
180.0
 30
0.0
 11
140.0
 21
180.0
 31
0.0
  0
LINE
  5
138B
102
{ACAD_REACTORS
330
13D0
102
}
330
1F
100
AcDbEntity
  8
0
100
AcDbLine
 10
140.0
 20
180.0
 30
0.0
 11
140.0
 21
190.0
 31
0.0
  0
LINE
  5
138C
102
{ACAD_REACTORS
330
13D0
102
}
330
1F
100
AcDbEntity
  8
0
100
AcDbLine
 10
140.0
 20
190.0
 30
0.0
 11
137.0
 21
190.0
 31
0.0
  0
LINE
  5
138D
102
{ACAD_REACTORS
330
13D0
102
}
330
1F
100
AcDbEntity
  8
0
100
AcDbLine
 10
137.0
 20
190.0
 30
0.0
 11
137.0
 21
200.0
 31
0.0
  0
LINE
  5
138E
102
{ACAD_REACTORS
330
13D0
102
}
330
1F
100
AcDbEntity
  8
0
100
AcDbLine
 10
137.0
 20
200.0
 30
0.0
 11
140.0
 21
200.0
 31
0.0
  0
LINE
  5
138F
102
{ACAD_REACTORS
330
13D0
102
}
330
1F
100
AcDbEntity
  8
0
100
AcDbLine
 10
140.0
 20
200.0
 30
0.0
 11
140.0
 21
210.0
 31
0.0
  0
LINE
  5
1390
102
{ACAD_REACTORS
330
13D0
102
}
330
1F
100
AcDbEntity
  8
0
100
AcDbLine
 10
140.0
 20
210.0
 30
0.0
 11
137.0
 21
210.0
 31
0.0
  0
LINE
  5
1391
102
{ACAD_REACTORS
330
13D0
102
}
330
1F
100
AcDbEntity
  8
0
100
AcDbLine
 10
137.0
 20
210.0
 30
0.0
 11
137.0
 21
220.0
 31
0.0
  0
LINE
  5
1392
102
{ACAD_REACTORS
330
13D0
102
}
330
1F
100
AcDbEntity
  8
0
100
AcDbLine
 10
137.0
 20
220.0
 30
0.0
 11
140.0
 21
220.0
 31
0.0
  0
LINE
  5
1393
102
{ACAD_REACTORS
330
13D0
102
}
330
1F
100
AcDbEntity
  8
0
100
AcDbLine
 10
140.0
 20
220.0
 30
0.0
 11
140.0
 21
230.0
 31
0.0
  0
LINE
  5
1394
102
{ACAD_REACTORS
330
13D0
102
}
330
1F
100
AcDbEntity
  8
0
100
AcDbLine
 10
140.0
 20
230.0
 30
0.0
 11
137.0
 21
230.0
 31
0.0
  0
LINE
  5
1395
102
{ACAD_REACTORS
330
13D0
102
}
330
1F
100
AcDbEntity
  8
0
100
AcDbLine
 10
137.0
 20
230.0
 30
0.0
 11
137.0
 21
240.0
 31
0.0
  0
LINE
  5
1396
102
{ACAD_REACTORS
330
13D0
102
}
330
1F
100
AcDbEntity
  8
0
100
AcDbLine
 10
137.0
 20
240.0
 30
0.0
 11
140.0
 21
240.0
 31
0.0
  0
LINE
  5
1397
102
{ACAD_REACTORS
330
13D0
102
}
330
1F
100
AcDbEntity
  8
0
100
AcDbLine
 10
140.0
 20
240.0
 30
0.0
 11
140.0
 21
250.0
 31
0.0
  0
LINE
  5
1398
102
{ACAD_REACTORS
330
13D0
102
}
330
1F
100
AcDbEntity
  8
0
100
AcDbLine
 10
140.0
 20
250.0
 30
0.0
 11
137.0
 21
250.0
 31
0.0
  0
LINE
  5
1399
102
{ACAD_REACTORS
330
13D0
102
}
330
1F
100
AcDbEntity
  8
0
100
AcDbLine
 10
137.0
 20
250.0
 30
0.0
 11
137.0
 21
260.0
 31
0.0
  0
LINE
  5
139A
102
{ACAD_REACTORS
330
13D0
102
}
330
1F
100
AcDbEntity
  8
0
100
AcDbLine
 10
137.0
 20
260.0
 30
0.0
 11
137.0
 21
263.0
 31
0.0
  0
LINE
  5
139B
102
{ACAD_REACTORS
330
13D0
102
}
330
1F
100
AcDbEntity
  8
0
100
AcDbLine
 10
137.0
 20
263.0
 30
0.0
 11
163.0
 21
263.0
 31
0.0
  0
LINE
  5
139C
102
{ACAD_REACTORS
330
13D0
102
}
330
1F
100
AcDbEntity
  8
0
100
AcDbLine
 10
163.0
 20
263.0
 30
0.0
 11
163.0
 21
250.0
 31
0.0
  0
LINE
  5
139D
102
{ACAD_REACTORS
330
13D0
102
}
330
1F
100
AcDbEntity
  8
0
100
AcDbLine
 10
163.0
 20
250.0
 30
0.0
 11
160.0
 21
250.0
 31
0.0
  0
LINE
  5
139E
102
{ACAD_REACTORS
330
13D0
102
}
330
1F
100
AcDbEntity
  8
0
100
AcDbLine
 10
160.0
 20
250.0
 30
0.0
 11
160.0
 21
240.0
 31
0.0
  0
LINE
  5
139F
102
{ACAD_REACTORS
330
13D0
102
}
330
1F
100
AcDbEntity
  8
0
100
AcDbLine
 10
160.0
 20
240.0
 30
0.0
 11
163.0
 21
240.0
 31
0.0
  0
LINE
  5
13A0
102
{ACAD_REACTORS
330
13D0
102
}
330
1F
100
AcDbEntity
  8
0
100
AcDbLine
 10
163.0
 20
240.0
 30
0.0
 11
163.0
 21
230.0
 31
0.0
  0
LINE
  5
13A1
102
{ACAD_REACTORS
330
13D0
102
}
330
1F
100
AcDbEntity
  8
0
100
AcDbLine
 10
163.0
 20
230.0
 30
0.0
 11
160.0
 21
230.0
 31
0.0
  0
LINE
  5
13A2
102
{ACAD_REACTORS
330
13D0
102
}
330
1F
100
AcDbEntity
  8
0
100
AcDbLine
 10
160.0
 20
230.0
 30
0.0
 11
160.0
 21
220.0
 31
0.0
  0
LINE
  5
13A3
102
{ACAD_REACTORS
330
13D0
102
}
330
1F
100
AcDbEntity
  8
0
100
AcDbLine
 10
160.0
 20
220.0
 30
0.0
 11
163.0
 21
220.0
 31
0.0
  0
LINE
  5
13A4
102
{ACAD_REACTORS
330
13D0
102
}
330
1F
100
AcDbEntity
  8
0
100
AcDbLine
 10
163.0
 20
220.0
 30
0.0
 11
163.0
 21
210.0
 31
0.0
  0
LINE
  5
13A5
102
{ACAD_REACTORS
330
13D0
102
}
330
1F
100
AcDbEntity
  8
0
100
AcDbLine
 10
163.0
 20
210.0
 30
0.0
 11
160.0
 21
210.0
 31
0.0
  0
LINE
  5
13A6
102
{ACAD_REACTORS
330
13D0
102
}
330
1F
100
AcDbEntity
  8
0
100
AcDbLine
 10
160.0
 20
210.0
 30
0.0
 11
160.0
 21
200.0
 31
0.0
  0
LINE
  5
13A7
102
{ACAD_REACTORS
330
13D0
102
}
330
1F
100
AcDbEntity
  8
0
100
AcDbLine
 10
160.0
 20
200.0
 30
0.0
 11
163.0
 21
200.0
 31
0.0
  0
LINE
  5
13A8
102
{ACAD_REACTORS
330
13D0
102
}
330
1F
100
AcDbEntity
  8
0
100
AcDbLine
 10
163.0
 20
200.0
 30
0.0
 11
163.0
 21
190.0
 31
0.0
  0
LINE
  5
13A9
102
{ACAD_REACTORS
330
13D0
102
}
330
1F
100
AcDbEntity
  8
0
100
AcDbLine
 10
163.0
 20
190.0
 30
0.0
 11
160.0
 21
190.0
 31
0.0
  0
LINE
  5
13AA
102
{ACAD_REACTORS
330
13D0
102
}
330
1F
100
AcDbEntity
  8
0
100
AcDbLine
 10
160.0
 20
190.0
 30
0.0
 11
160.0
 21
180.0
 31
0.0
  0
LINE
  5
13AB
102
{ACAD_REACTORS
330
13D0
102
}
330
1F
100
AcDbEntity
  8
0
100
AcDbLine
 10
160.0
 20
180.0
 30
0.0
 11
163.0
 21
180.0
 31
0.0
  0
LINE
  5
13AC
102
{ACAD_REACTORS
330
13D0
102
}
330
1F
100
AcDbEntity
  8
0
100
AcDbLine
 10
163.0
 20
180.0
 30
0.0
 11
163.0
 21
170.0
 31
0.0
  0
LINE
  5
13AD
102
{ACAD_REACTORS
330
13D0
102
}
330
1F
100
AcDbEntity
  8
0
100
AcDbLine
 10
163.0
 20
170.0
 30
0.0
 11
160.0
 21
170.0
 31
0.0
  0
LINE
  5
13AE
102
{ACAD_REACTORS
330
13D0
102
}
330
1F
100
AcDbEntity
  8
0
100
AcDbLine
 10
160.0
 20
170.0
 30
0.0
 11
160.0
 21
160.0
 31
0.0
  0
LINE
  5
13AF
102
{ACAD_REACTORS
330
13D0
102
}
330
1F
100
AcDbEntity
  8
0
100
AcDbLine
 10
160.0
 20
160.0
 30
0.0
 11
163.0
 21
160.0
 31
0.0
  0
LINE
  5
13B0
102
{ACAD_REACTORS
330
13D0
102
}
330
1F
100
AcDbEntity
  8
0
100
AcDbLine
 10
163.0
 20
160.0
 30
0.0
 11
163.0
 21
150.0
 31
0.0
  0
LINE
  5
13B1
102
{ACAD_REACTORS
330
13D0
102
}
330
1F
100
AcDbEntity
  8
0
100
AcDbLine
 10
163.0
 20
150.0
 30
0.0
 11
160.0
 21
150.0
 31
0.0
  0
LINE
  5
13B2
102
{ACAD_REACTORS
330
13D0
102
}
330
1F
100
AcDbEntity
  8
0
100
AcDbLine
 10
160.0
 20
150.0
 30
0.0
 11
160.0
 21
140.0
 31
0.0
  0
LINE
  5
13B3
102
{ACAD_REACTORS
330
13D0
102
}
330
1F
100
AcDbEntity
  8
0
100
AcDbLine
 10
160.0
 20
140.0
 30
0.0
 11
163.0
 21
140.0
 31
0.0
  0
LINE
  5
13B4
102
{ACAD_REACTORS
330
13D0
102
}
330
1F
100
AcDbEntity
  8
0
100
AcDbLine
 10
163.0
 20
140.0
 30
0.0
 11
163.0
 21
130.0
 31
0.0
  0
LINE
  5
13B5
102
{ACAD_REACTORS
330
13D0
102
}
330
1F
100
AcDbEntity
  8
0
100
AcDbLine
 10
163.0
 20
130.0
 30
0.0
 11
160.0
 21
130.0
 31
0.0
  0
LINE
  5
13B6
102
{ACAD_REACTORS
330
13D0
102
}
330
1F
100
AcDbEntity
  8
0
100
AcDbLine
 10
160.0
 20
130.0
 30
0.0
 11
160.0
 21
120.0
 31
0.0
  0
LINE
  5
13B7
102
{ACAD_REACTORS
330
13D0
102
}
330
1F
100
AcDbEntity
  8
0
100
AcDbLine
 10
160.0
 20
120.0
 30
0.0
 11
163.0
 21
120.0
 31
0.0
  0
LINE
  5
13B8
102
{ACAD_REACTORS
330
13D0
102
}
330
1F
100
AcDbEntity
  8
0
100
AcDbLine
 10
163.0
 20
120.0
 30
0.0
 11
163.0
 21
110.0
 31
0.0
  0
LINE
  5
13B9
102
{ACAD_REACTORS
330
13D0
102
}
330
1F
100
AcDbEntity
  8
0
100
AcDbLine
 10
163.0
 20
110.0
 30
0.0
 11
160.0
 21
110.0
 31
0.0
  0
LINE
  5
13BA
102
{ACAD_REACTORS
330
13D0
102
}
330
1F
100
AcDbEntity
  8
0
100
AcDbLine
 10
160.0
 20
110.0
 30
0.0
 11
160.0
 21
100.0
 31
0.0
  0
LINE
  5
13BB
102
{ACAD_REACTORS
330
13D0
102
}
330
1F
100
AcDbEntity
  8
0
100
AcDbLine
 10
160.0
 20
100.0
 30
0.0
 11
163.0
 21
100.0
 31
0.0
  0
LINE
  5
13BC
102
{ACAD_REACTORS
330
13D0
102
}
330
1F
100
AcDbEntity
  8
0
100
AcDbLine
 10
163.0
 20
100.0
 30
0.0
 11
163.0
 21
90.0
 31
0.0
  0
LINE
  5
13BD
102
{ACAD_REACTORS
330
13D0
102
}
330
1F
100
AcDbEntity
  8
0
100
AcDbLine
 10
163.0
 20
90.0
 30
0.0
 11
160.0
 21
90.0
 31
0.0
  0
LINE
  5
13BE
102
{ACAD_REACTORS
330
13D0
102
}
330
1F
100
AcDbEntity
  8
0
100
AcDbLine
 10
160.0
 20
90.0
 30
0.0
 11
160.0
 21
80.0
 31
0.0
  0
LINE
  5
13BF
102
{ACAD_REACTORS
330
13D0
102
}
330
1F
100
AcDbEntity
  8
0
100
AcDbLine
 10
160.0
 20
80.0
 30
0.0
 11
163.0
 21
80.0
 31
0.0
  0
LINE
  5
13C0
102
{ACAD_REACTORS
330
13D0
102
}
330
1F
100
AcDbEntity
  8
0
100
AcDbLine
 10
163.0
 20
80.0
 30
0.0
 11
163.0
 21
70.0
 31
0.0
  0
LINE
  5
13C1
102
{ACAD_REACTORS
330
13D0
102
}
330
1F
100
AcDbEntity
  8
0
100
AcDbLine
 10
163.0
 20
70.0
 30
0.0
 11
160.0
 21
70.0
 31
0.0
  0
LINE
  5
13C2
102
{ACAD_REACTORS
330
13D0
102
}
330
1F
100
AcDbEntity
  8
0
100
AcDbLine
 10
160.0
 20
70.0
 30
0.0
 11
160.0
 21
60.0
 31
0.0
  0
LINE
  5
13C3
102
{ACAD_REACTORS
330
13D0
102
}
330
1F
100
AcDbEntity
  8
0
100
AcDbLine
 10
160.0
 20
60.0
 30
0.0
 11
163.0
 21
60.0
 31
0.0
  0
LINE
  5
13C4
102
{ACAD_REACTORS
330
13D0
102
}
330
1F
100
AcDbEntity
  8
0
100
AcDbLine
 10
163.0
 20
60.0
 30
0.0
 11
163.0
 21
50.0
 31
0.0
  0
LINE
  5
13C5
102
{ACAD_REACTORS
330
13D0
102
}
330
1F
100
AcDbEntity
  8
0
100
AcDbLine
 10
163.0
 20
50.0
 30
0.0
 11
160.0
 21
50.0
 31
0.0
  0
LINE
  5
13C6
102
{ACAD_REACTORS
330
13D0
102
}
330
1F
100
AcDbEntity
  8
0
100
AcDbLine
 10
160.0
 20
50.0
 30
0.0
 11
160.0
 21
40.0
 31
0.0
  0
LINE
  5
13C7
102
{ACAD_REACTORS
330
13D0
102
}
330
1F
100
AcDbEntity
  8
0
100
AcDbLine
 10
160.0
 20
40.0
 30
0.0
 11
163.0
 21
40.0
 31
0.0
  0
LINE
  5
13C8
102
{ACAD_REACTORS
330
13D0
102
}
330
1F
100
AcDbEntity
  8
0
100
AcDbLine
 10
163.0
 20
40.0
 30
0.0
 11
163.0
 21
30.0
 31
0.0
  0
LINE
  5
13C9
102
{ACAD_REACTORS
330
13D0
102
}
330
1F
100
AcDbEntity
  8
0
100
AcDbLine
 10
163.0
 20
30.0
 30
0.0
 11
160.0
 21
30.0
 31
0.0
  0
LINE
  5
13CA
102
{ACAD_REACTORS
330
13D0
102
}
330
1F
100
AcDbEntity
  8
0
100
AcDbLine
 10
160.0
 20
30.0
 30
0.0
 11
160.0
 21
20.0
 31
0.0
  0
LINE
  5
13CB
102
{ACAD_REACTORS
330
13D0
102
}
330
1F
100
AcDbEntity
  8
0
100
AcDbLine
 10
160.0
 20
20.0
 30
0.0
 11
163.0
 21
20.0
 31
0.0
  0
LINE
  5
13CC
102
{ACAD_REACTORS
330
13D0
102
}
330
1F
100
AcDbEntity
  8
0
100
AcDbLine
 10
163.0
 20
20.0
 30
0.0
 11
163.0
 21
7.0
 31
0.0
  0
LINE
  5
13CD
102
{ACAD_REACTORS
330
13D0
102
}
330
1F
100
AcDbEntity
  8
0
100
AcDbLine
 10
163.0
 20
7.0
 30
0.0
 11
140.0
 21
7.0
 31
0.0
  0
LINE
  5
13CE
102
{ACAD_REACTORS
330
13D0
102
}
330
1F
100
AcDbEntity
  8
0
100
AcDbLine
 10
140.0
 20
7.0
 30
0.0
 11
137.0
 21
7.0
 31
0.0
  0
LINE
  5
13CF
102
{ACAD_REACTORS
330
13D0
102
}
330
1F
100
AcDbEntity
  8
0
100
AcDbLine
 10
137.0
 20
7.0
 30
0.0
 11
137.0
 21
10.0
 31
0.0
  0
LINE
  5
13D3
330
1F
100
AcDbEntity
  8
0
100
AcDbLine
 10
10.0
 20
66.0
 30
0.0
 11
10.0
 21
63.0
 31
0.0
  0
LINE
  5
13D4
330
1F
100
AcDbEntity
  8
0
100
AcDbLine
 10
10.0
 20
63.0
 30
0.0
 11
50.0
 21
63.0
 31
0.0
  0
LINE
  5
13D5
330
1F
100
AcDbEntity
  8
0
100
AcDbLine
 10
50.0
 20
63.0
 30
0.0
 11
50.0
 21
66.0
 31
0.0
  0
LINE
  5
13D6
330
1F
100
AcDbEntity
  8
0
100
AcDbLine
 10
50.0
 20
66.0
 30
0.0
 11
10.0
 21
66.0
 31
0.0
  0
LINE
  5
13D7
330
1F
100
AcDbEntity
  8
0
100
AcDbLine
 10
12.0
 20
133.0
 30
0.0
 11
48.0
 21
133.0
 31
0.0
  0
LINE
  5
13D8
330
1F
100
AcDbEntity
  8
0
100
AcDbLine
 10
48.0
 20
133.0
 30
0.0
 11
48.0
 21
153.0
 31
0.0
  0
LINE
  5
13D9
330
1F
100
AcDbEntity
  8
0
100
AcDbLine
 10
48.0
 20
153.0
 30
0.0
 11
12.0
 21
153.0
 31
0.0
  0
LINE
  5
13DA
330
1F
100
AcDbEntity
  8
0
100
AcDbLine
 10
12.0
 20
153.0
 30
0.0
 11
12.0
 21
133.0
 31
0.0
  0
LINE
  5
13DB
330
1F
100
AcDbEntity
  8
0
100
AcDbLine
 10
12.0
 20
156.0
 30
0.0
 11
15.0
 21
156.0
 31
0.0
  0
LINE
  5
13DC
330
1F
100
AcDbEntity
  8
0
100
AcDbLine
 10
15.0
 20
156.0
 30
0.0
 11
15.0
 21
161.0
 31
0.0
  0
LINE
  5
13DD
330
1F
100
AcDbEntity
  8
0
100
AcDbLine
 10
15.0
 20
161.0
 30
0.0
 11
12.0
 21
161.0
 31
0.0
  0
LINE
  5
13DE
330
1F
100
AcDbEntity
  8
0
100
AcDbLine
 10
12.0
 20
161.0
 30
0.0
 11
12.0
 21
156.0
 31
0.0
  0
LINE
  5
13DF
330
1F
100
AcDbEntity
  8
0
100
AcDbLine
 10
18.0
 20
156.0
 30
0.0
 11
21.0
 21
156.0
 31
0.0
  0
LINE
  5
13E0
330
1F
100
AcDbEntity
  8
0
100
AcDbLine
 10
21.0
 20
156.0
 30
0.0
 11
21.0
 21
161.0
 31
0.0
  0
LINE
  5
13E1
330
1F
100
AcDbEntity
  8
0
100
AcDbLine
 10
21.0
 20
161.0
 30
0.0
 11
18.0
 21
161.0
 31
0.0
  0
LINE
  5
13E2
330
1F
100
AcDbEntity
  8
0
100
AcDbLine
 10
18.0
 20
161.0
 30
0.0
 11
18.0
 21
156.0
 31
0.0
  0
LINE
  5
13E3
330
1F
100
AcDbEntity
  8
0
100
AcDbLine
 10
24.0
 20
156.0
 30
0.0
 11
27.0
 21
156.0
 31
0.0
  0
LINE
  5
13E4
330
1F
100
AcDbEntity
  8
0
100
AcDbLine
 10
27.0
 20
156.0
 30
0.0
 11
27.0
 21
161.0
 31
0.0
  0
LINE
  5
13E5
330
1F
100
AcDbEntity
  8
0
100
AcDbLine
 10
27.0
 20
161.0
 30
0.0
 11
24.0
 21
161.0
 31
0.0
  0
LINE
  5
13E6
330
1F
100
AcDbEntity
  8
0
100
AcDbLine
 10
24.0
 20
161.0
 30
0.0
 11
24.0
 21
156.0
 31
0.0
  0
LINE
  5
13E7
330
1F
100
AcDbEntity
  8
0
100
AcDbLine
 10
30.0
 20
156.0
 30
0.0
 11
33.0
 21
156.0
 31
0.0
  0
LINE
  5
13E8
330
1F
100
AcDbEntity
  8
0
100
AcDbLine
 10
33.0
 20
156.0
 30
0.0
 11
33.0
 21
161.0
 31
0.0
  0
LINE
  5
13E9
330
1F
100
AcDbEntity
  8
0
100
AcDbLine
 10
33.0
 20
161.0
 30
0.0
 11
30.0
 21
161.0
 31
0.0
  0
LINE
  5
13EA
330
1F
100
AcDbEntity
  8
0
100
AcDbLine
 10
30.0
 20
161.0
 30
0.0
 11
30.0
 21
156.0
 31
0.0
  0
LINE
  5
13EB
330
1F
100
AcDbEntity
  8
0
100
AcDbLine
 10
36.0
 20
156.0
 30
0.0
 11
39.0
 21
156.0
 31
0.0
  0
LINE
  5
13EC
330
1F
100
AcDbEntity
  8
0
100
AcDbLine
 10
39.0
 20
156.0
 30
0.0
 11
39.0
 21
161.0
 31
0.0
  0
LINE
  5
13ED
330
1F
100
AcDbEntity
  8
0
100
AcDbLine
 10
39.0
 20
161.0
 30
0.0
 11
36.0
 21
161.0
 31
0.0
  0
LINE
  5
13EE
330
1F
100
AcDbEntity
  8
0
100
AcDbLine
 10
36.0
 20
161.0
 30
0.0
 11
36.0
 21
156.0
 31
0.0
  0
LINE
  5
13EF
330
1F
100
AcDbEntity
  8
0
100
AcDbLine
 10
42.0
 20
156.0
 30
0.0
 11
45.0
 21
156.0
 31
0.0
  0
LINE
  5
13F0
330
1F
100
AcDbEntity
  8
0
100
AcDbLine
 10
45.0
 20
156.0
 30
0.0
 11
45.0
 21
161.0
 31
0.0
  0
LINE
  5
13F1
330
1F
100
AcDbEntity
  8
0
100
AcDbLine
 10
45.0
 20
161.0
 30
0.0
 11
42.0
 21
161.0
 31
0.0
  0
LINE
  5
13F2
330
1F
100
AcDbEntity
  8
0
100
AcDbLine
 10
42.0
 20
161.0
 30
0.0
 11
42.0
 21
156.0
 31
0.0
  0
LINE
  5
13F3
330
1F
100
AcDbEntity
  8
0
100
AcDbLine
 10
170.0
 20
10.0
 30
0.0
 11
206.0
 21
10.0
 31
0.0
  0
LINE
  5
13F4
330
1F
100
AcDbEntity
  8
0
100
AcDbLine
 10
206.0
 20
10.0
 30
0.0
 11
206.0
 21
53.0
 31
0.0
  0
LINE
  5
13F6
330
1F
100
AcDbEntity
  8
0
100
AcDbLine
 10
170.0
 20
53.0
 30
0.0
 11
170.0
 21
10.0
 31
0.0
  0
LINE
  5
13F7
330
1F
100
AcDbEntity
  8
0
100
AcDbLine
 10
173.0
 20
35.0
 30
0.0
 11
176.0
 21
35.0
 31
0.0
  0
LINE
  5
13F8
330
1F
100
AcDbEntity
  8
0
100
AcDbLine
 10
176.0
 20
35.0
 30
0.0
 11
176.0
 21
40.0
 31
0.0
  0
LINE
  5
13F9
330
1F
100
AcDbEntity
  8
0
100
AcDbLine
 10
176.0
 20
40.0
 30
0.0
 11
173.0
 21
40.0
 31
0.0
  0
LINE
  5
13FA
330
1F
100
AcDbEntity
  8
0
100
AcDbLine
 10
173.0
 20
40.0
 30
0.0
 11
173.0
 21
35.0
 31
0.0
  0
LINE
  5
13FB
330
1F
100
AcDbEntity
  8
0
100
AcDbLine
 10
179.0
 20
35.0
 30
0.0
 11
182.0
 21
35.0
 31
0.0
  0
LINE
  5
13FC
330
1F
100
AcDbEntity
  8
0
100
AcDbLine
 10
182.0
 20
35.0
 30
0.0
 11
182.0
 21
40.0
 31
0.0
  0
LINE
  5
13FD
330
1F
100
AcDbEntity
  8
0
100
AcDbLine
 10
182.0
 20
40.0
 30
0.0
 11
179.0
 21
40.0
 31
0.0
  0
LINE
  5
13FE
330
1F
100
AcDbEntity
  8
0
100
AcDbLine
 10
179.0
 20
40.0
 30
0.0
 11
179.0
 21
35.0
 31
0.0
  0
LINE
  5
13FF
330
1F
100
AcDbEntity
  8
0
100
AcDbLine
 10
185.0
 20
35.0
 30
0.0
 11
188.0
 21
35.0
 31
0.0
  0
LINE
  5
1400
330
1F
100
AcDbEntity
  8
0
100
AcDbLine
 10
188.0
 20
35.0
 30
0.0
 11
188.0
 21
40.0
 31
0.0
  0
LINE
  5
1401
330
1F
100
AcDbEntity
  8
0
100
AcDbLine
 10
188.0
 20
40.0
 30
0.0
 11
185.0
 21
40.0
 31
0.0
  0
LINE
  5
1402
330
1F
100
AcDbEntity
  8
0
100
AcDbLine
 10
185.0
 20
40.0
 30
0.0
 11
185.0
 21
35.0
 31
0.0
  0
LINE
  5
1403
330
1F
100
AcDbEntity
  8
0
100
AcDbLine
 10
191.0
 20
35.0
 30
0.0
 11
194.0
 21
35.0
 31
0.0
  0
LINE
  5
1404
330
1F
100
AcDbEntity
  8
0
100
AcDbLine
 10
194.0
 20
35.0
 30
0.0
 11
194.0
 21
40.0
 31
0.0
  0
LINE
  5
1405
330
1F
100
AcDbEntity
  8
0
100
AcDbLine
 10
194.0
 20
40.0
 30
0.0
 11
191.0
 21
40.0
 31
0.0
  0
LINE
  5
1406
330
1F
100
AcDbEntity
  8
0
100
AcDbLine
 10
191.0
 20
40.0
 30
0.0
 11
191.0
 21
35.0
 31
0.0
  0
LINE
  5
1407
330
1F
100
AcDbEntity
  8
0
100
AcDbLine
 10
197.0
 20
35.0
 30
0.0
 11
200.0
 21
35.0
 31
0.0
  0
LINE
  5
1408
330
1F
100
AcDbEntity
  8
0
100
AcDbLine
 10
200.0
 20
35.0
 30
0.0
 11
200.0
 21
40.0
 31
0.0
  0
LINE
  5
1409
330
1F
100
AcDbEntity
  8
0
100
AcDbLine
 10
200.0
 20
40.0
 30
0.0
 11
197.0
 21
40.0
 31
0.0
  0
LINE
  5
140A
330
1F
100
AcDbEntity
  8
0
100
AcDbLine
 10
197.0
 20
40.0
 30
0.0
 11
197.0
 21
35.0
 31
0.0
  0
LINE
  5
140B
330
1F
100
AcDbEntity
  8
0
100
AcDbLine
 10
203.0
 20
35.0
 30
0.0
 11
206.0
 21
35.0
 31
0.0
  0
LINE
  5
140D
330
1F
100
AcDbEntity
  8
0
100
AcDbLine
 10
206.0
 20
40.0
 30
0.0
 11
203.0
 21
40.0
 31
0.0
  0
LINE
  5
140E
330
1F
100
AcDbEntity
  8
0
100
AcDbLine
 10
203.0
 20
40.0
 30
0.0
 11
203.0
 21
35.0
 31
0.0
  0
LINE
  5
140F
330
1F
100
AcDbEntity
  8
0
100
AcDbLine
 10
170.0
 20
60.0
 30
0.0
 11
170.0
 21
65.0
 31
0.0
  0
LINE
  5
1410
330
1F
100
AcDbEntity
  8
0
100
AcDbLine
 10
170.0
 20
65.0
 30
0.0
 11
181.0
 21
65.0
 31
0.0
  0
LINE
  5
1411
330
1F
100
AcDbEntity
  8
0
100
AcDbLine
 10
181.0
 20
65.0
 30
0.0
 11
181.0
 21
60.0
 31
0.0
  0
LINE
  5
1412
330
1F
100
AcDbEntity
  8
0
100
AcDbLine
 10
181.0
 20
60.0
 30
0.0
 11
170.0
 21
60.0
 31
0.0
  0
LINE
  5
1416
330
1F
100
AcDbEntity
  8
0
100
AcDbLine
 10
179.0
 20
63.0
 30
0.0
 11
179.0
 21
62.0
 31
0.0
  0
LINE
  5
1417
330
1F
100
AcDbEntity
  8
0
100
AcDbLine
 10
179.0
 20
62.0
 30
0.0
 11
178.0
 21
62.0
 31
0.0
  0
LINE
  5
1418
330
1F
100
AcDbEntity
  8
0
100
AcDbLine
 10
178.0
 20
62.0
 30
0.0
 11
178.0
 21
63.0
 31
0.0
  0
LINE
  5
1419
330
1F
100
AcDbEntity
  8
0
100
AcDbLine
 10
178.0
 20
63.0
 30
0.0
 11
179.0
 21
63.0
 31
0.0
  0
LINE
  5
141A
330
1F
100
AcDbEntity
  8
0
100
AcDbLine
 10
183.0
 20
60.0
 30
0.0
 11
183.0
 21
65.0
 31
0.0
  0
LINE
  5
141B
330
1F
100
AcDbEntity
  8
0
100
AcDbLine
 10
183.0
 20
65.0
 30
0.0
 11
194.0
 21
65.0
 31
0.0
  0
LINE
  5
141C
330
1F
100
AcDbEntity
  8
0
100
AcDbLine
 10
194.0
 20
65.0
 30
0.0
 11
194.0
 21
60.0
 31
0.0
  0
LINE
  5
141D
330
1F
100
AcDbEntity
  8
0
100
AcDbLine
 10
194.0
 20
60.0
 30
0.0
 11
183.0
 21
60.0
 31
0.0
  0
LINE
  5
141E
330
1F
100
AcDbEntity
  8
0
100
AcDbLine
 10
192.0
 20
63.0
 30
0.0
 11
192.0
 21
62.0
 31
0.0
  0
LINE
  5
141F
330
1F
100
AcDbEntity
  8
0
100
AcDbLine
 10
192.0
 20
62.0
 30
0.0
 11
191.0
 21
62.0
 31
0.0
  0
LINE
  5
1420
330
1F
100
AcDbEntity
  8
0
100
AcDbLine
 10
191.0
 20
62.0
 30
0.0
 11
191.0
 21
63.0
 31
0.0
  0
LINE
  5
1421
330
1F
100
AcDbEntity
  8
0
100
AcDbLine
 10
191.0
 20
63.0
 30
0.0
 11
192.0
 21
63.0
 31
0.0
  0
LINE
  5
1422
330
1F
100
AcDbEntity
  8
0
100
AcDbLine
 10
196.0
 20
60.0
 30
0.0
 11
196.0
 21
65.0
 31
0.0
  0
LINE
  5
1423
330
1F
100
AcDbEntity
  8
0
100
AcDbLine
 10
196.0
 20
65.0
 30
0.0
 11
207.0
 21
65.0
 31
0.0
  0
LINE
  5
1424
330
1F
100
AcDbEntity
  8
0
100
AcDbLine
 10
207.0
 20
65.0
 30
0.0
 11
207.0
 21
60.0
 31
0.0
  0
LINE
  5
1425
330
1F
100
AcDbEntity
  8
0
100
AcDbLine
 10
207.0
 20
60.0
 30
0.0
 11
196.0
 21
60.0
 31
0.0
  0
LINE
  5
1426
330
1F
100
AcDbEntity
  8
0
100
AcDbLine
 10
205.0
 20
63.0
 30
0.0
 11
205.0
 21
62.0
 31
0.0
  0
LINE
  5
1427
330
1F
100
AcDbEntity
  8
0
100
AcDbLine
 10
205.0
 20
62.0
 30
0.0
 11
204.0
 21
62.0
 31
0.0
  0
LINE
  5
1428
330
1F
100
AcDbEntity
  8
0
100
AcDbLine
 10
204.0
 20
62.0
 30
0.0
 11
204.0
 21
63.0
 31
0.0
  0
LINE
  5
1429
330
1F
100
AcDbEntity
  8
0
100
AcDbLine
 10
204.0
 20
63.0
 30
0.0
 11
205.0
 21
63.0
 31
0.0
  0
LINE
  5
142A
330
1F
100
AcDbEntity
  8
0
100
AcDbLine
 10
170.0
 20
67.0
 30
0.0
 11
170.0
 21
72.0
 31
0.0
  0
LINE
  5
142B
330
1F
100
AcDbEntity
  8
0
100
AcDbLine
 10
170.0
 20
72.0
 30
0.0
 11
181.0
 21
72.0
 31
0.0
  0
LINE
  5
142C
330
1F
100
AcDbEntity
  8
0
100
AcDbLine
 10
181.0
 20
72.0
 30
0.0
 11
181.0
 21
67.0
 31
0.0
  0
LINE
  5
142D
330
1F
100
AcDbEntity
  8
0
100
AcDbLine
 10
181.0
 20
67.0
 30
0.0
 11
170.0
 21
67.0
 31
0.0
  0
LINE
  5
142E
330
1F
100
AcDbEntity
  8
0
100
AcDbLine
 10
179.0
 20
70.0
 30
0.0
 11
179.0
 21
69.0
 31
0.0
  0
LINE
  5
142F
330
1F
100
AcDbEntity
  8
0
100
AcDbLine
 10
179.0
 20
69.0
 30
0.0
 11
178.0
 21
69.0
 31
0.0
  0
LINE
  5
1430
330
1F
100
AcDbEntity
  8
0
100
AcDbLine
 10
178.0
 20
69.0
 30
0.0
 11
178.0
 21
70.0
 31
0.0
  0
LINE
  5
1431
330
1F
100
AcDbEntity
  8
0
100
AcDbLine
 10
178.0
 20
70.0
 30
0.0
 11
179.0
 21
70.0
 31
0.0
  0
LINE
  5
1432
330
1F
100
AcDbEntity
  8
0
100
AcDbLine
 10
183.0
 20
67.0
 30
0.0
 11
183.0
 21
72.0
 31
0.0
  0
LINE
  5
1433
330
1F
100
AcDbEntity
  8
0
100
AcDbLine
 10
183.0
 20
72.0
 30
0.0
 11
194.0
 21
72.0
 31
0.0
  0
LINE
  5
1434
330
1F
100
AcDbEntity
  8
0
100
AcDbLine
 10
194.0
 20
72.0
 30
0.0
 11
194.0
 21
67.0
 31
0.0
  0
LINE
  5
1435
330
1F
100
AcDbEntity
  8
0
100
AcDbLine
 10
194.0
 20
67.0
 30
0.0
 11
183.0
 21
67.0
 31
0.0
  0
LINE
  5
1436
330
1F
100
AcDbEntity
  8
0
100
AcDbLine
 10
192.0
 20
70.0
 30
0.0
 11
192.0
 21
69.0
 31
0.0
  0
LINE
  5
1437
330
1F
100
AcDbEntity
  8
0
100
AcDbLine
 10
192.0
 20
69.0
 30
0.0
 11
191.0
 21
69.0
 31
0.0
  0
LINE
  5
1438
330
1F
100
AcDbEntity
  8
0
100
AcDbLine
 10
191.0
 20
69.0
 30
0.0
 11
191.0
 21
70.0
 31
0.0
  0
LINE
  5
1439
330
1F
100
AcDbEntity
  8
0
100
AcDbLine
 10
191.0
 20
70.0
 30
0.0
 11
192.0
 21
70.0
 31
0.0
  0
LINE
  5
143A
330
1F
100
AcDbEntity
  8
0
100
AcDbLine
 10
196.0
 20
67.0
 30
0.0
 11
196.0
 21
72.0
 31
0.0
  0
LINE
  5
143B
330
1F
100
AcDbEntity
  8
0
100
AcDbLine
 10
196.0
 20
72.0
 30
0.0
 11
207.0
 21
72.0
 31
0.0
  0
LINE
  5
143C
330
1F
100
AcDbEntity
  8
0
100
AcDbLine
 10
207.0
 20
72.0
 30
0.0
 11
207.0
 21
67.0
 31
0.0
  0
LINE
  5
143D
330
1F
100
AcDbEntity
  8
0
100
AcDbLine
 10
207.0
 20
67.0
 30
0.0
 11
196.0
 21
67.0
 31
0.0
  0
LINE
  5
143E
330
1F
100
AcDbEntity
  8
0
100
AcDbLine
 10
205.0
 20
70.0
 30
0.0
 11
205.0
 21
69.0
 31
0.0
  0
LINE
  5
143F
330
1F
100
AcDbEntity
  8
0
100
AcDbLine
 10
205.0
 20
69.0
 30
0.0
 11
204.0
 21
69.0
 31
0.0
  0
LINE
  5
1440
330
1F
100
AcDbEntity
  8
0
100
AcDbLine
 10
204.0
 20
69.0
 30
0.0
 11
204.0
 21
70.0
 31
0.0
  0
LINE
  5
1441
330
1F
100
AcDbEntity
  8
0
100
AcDbLine
 10
204.0
 20
70.0
 30
0.0
 11
205.0
 21
70.0
 31
0.0
  0
LINE
  5
1442
330
1F
100
AcDbEntity
  8
0
100
AcDbLine
 10
170.0
 20
74.0
 30
0.0
 11
170.0
 21
79.0
 31
0.0
  0
LINE
  5
1443
330
1F
100
AcDbEntity
  8
0
100
AcDbLine
 10
170.0
 20
79.0
 30
0.0
 11
181.0
 21
79.0
 31
0.0
  0
LINE
  5
1444
330
1F
100
AcDbEntity
  8
0
100
AcDbLine
 10
181.0
 20
79.0
 30
0.0
 11
181.0
 21
74.0
 31
0.0
  0
LINE
  5
1445
330
1F
100
AcDbEntity
  8
0
100
AcDbLine
 10
181.0
 20
74.0
 30
0.0
 11
170.0
 21
74.0
 31
0.0
  0
LINE
  5
1446
330
1F
100
AcDbEntity
  8
0
100
AcDbLine
 10
179.0
 20
77.0
 30
0.0
 11
179.0
 21
76.0
 31
0.0
  0
LINE
  5
1447
330
1F
100
AcDbEntity
  8
0
100
AcDbLine
 10
179.0
 20
76.0
 30
0.0
 11
178.0
 21
76.0
 31
0.0
  0
LINE
  5
1448
330
1F
100
AcDbEntity
  8
0
100
AcDbLine
 10
178.0
 20
76.0
 30
0.0
 11
178.0
 21
77.0
 31
0.0
  0
LINE
  5
1449
330
1F
100
AcDbEntity
  8
0
100
AcDbLine
 10
178.0
 20
77.0
 30
0.0
 11
179.0
 21
77.0
 31
0.0
  0
LINE
  5
144A
330
1F
100
AcDbEntity
  8
0
100
AcDbLine
 10
183.0
 20
74.0
 30
0.0
 11
183.0
 21
79.0
 31
0.0
  0
LINE
  5
144B
330
1F
100
AcDbEntity
  8
0
100
AcDbLine
 10
183.0
 20
79.0
 30
0.0
 11
194.0
 21
79.0
 31
0.0
  0
LINE
  5
144C
330
1F
100
AcDbEntity
  8
0
100
AcDbLine
 10
194.0
 20
79.0
 30
0.0
 11
194.0
 21
74.0
 31
0.0
  0
LINE
  5
144D
330
1F
100
AcDbEntity
  8
0
100
AcDbLine
 10
194.0
 20
74.0
 30
0.0
 11
183.0
 21
74.0
 31
0.0
  0
LINE
  5
144E
330
1F
100
AcDbEntity
  8
0
100
AcDbLine
 10
192.0
 20
77.0
 30
0.0
 11
192.0
 21
76.0
 31
0.0
  0
LINE
  5
144F
330
1F
100
AcDbEntity
  8
0
100
AcDbLine
 10
192.0
 20
76.0
 30
0.0
 11
191.0
 21
76.0
 31
0.0
  0
LINE
  5
1450
330
1F
100
AcDbEntity
  8
0
100
AcDbLine
 10
191.0
 20
76.0
 30
0.0
 11
191.0
 21
77.0
 31
0.0
  0
LINE
  5
1451
330
1F
100
AcDbEntity
  8
0
100
AcDbLine
 10
191.0
 20
77.0
 30
0.0
 11
192.0
 21
77.0
 31
0.0
  0
LINE
  5
1452
330
1F
100
AcDbEntity
  8
0
100
AcDbLine
 10
196.0
 20
74.0
 30
0.0
 11
196.0
 21
79.0
 31
0.0
  0
LINE
  5
1453
330
1F
100
AcDbEntity
  8
0
100
AcDbLine
 10
196.0
 20
79.0
 30
0.0
 11
207.0
 21
79.0
 31
0.0
  0
LINE
  5
1454
330
1F
100
AcDbEntity
  8
0
100
AcDbLine
 10
207.0
 20
79.0
 30
0.0
 11
207.0
 21
74.0
 31
0.0
  0
LINE
  5
1455
330
1F
100
AcDbEntity
  8
0
100
AcDbLine
 10
207.0
 20
74.0
 30
0.0
 11
196.0
 21
74.0
 31
0.0
  0
LINE
  5
1456
330
1F
100
AcDbEntity
  8
0
100
AcDbLine
 10
205.0
 20
77.0
 30
0.0
 11
205.0
 21
76.0
 31
0.0
  0
LINE
  5
1457
330
1F
100
AcDbEntity
  8
0
100
AcDbLine
 10
205.0
 20
76.0
 30
0.0
 11
204.0
 21
76.0
 31
0.0
  0
LINE
  5
1458
330
1F
100
AcDbEntity
  8
0
100
AcDbLine
 10
204.0
 20
76.0
 30
0.0
 11
204.0
 21
77.0
 31
0.0
  0
LINE
  5
1459
330
1F
100
AcDbEntity
  8
0
100
AcDbLine
 10
204.0
 20
77.0
 30
0.0
 11
205.0
 21
77.0
 31
0.0
  0
LINE
  5
145A
330
1F
100
AcDbEntity
  8
0
100
AcDbLine
 10
170.0
 20
81.0
 30
0.0
 11
170.0
 21
86.0
 31
0.0
  0
LINE
  5
145B
330
1F
100
AcDbEntity
  8
0
100
AcDbLine
 10
170.0
 20
86.0
 30
0.0
 11
181.0
 21
86.0
 31
0.0
  0
LINE
  5
145C
330
1F
100
AcDbEntity
  8
0
100
AcDbLine
 10
181.0
 20
86.0
 30
0.0
 11
181.0
 21
81.0
 31
0.0
  0
LINE
  5
145D
330
1F
100
AcDbEntity
  8
0
100
AcDbLine
 10
181.0
 20
81.0
 30
0.0
 11
170.0
 21
81.0
 31
0.0
  0
LINE
  5
145E
330
1F
100
AcDbEntity
  8
0
100
AcDbLine
 10
179.0
 20
84.0
 30
0.0
 11
179.0
 21
83.0
 31
0.0
  0
LINE
  5
145F
330
1F
100
AcDbEntity
  8
0
100
AcDbLine
 10
179.0
 20
83.0
 30
0.0
 11
178.0
 21
83.0
 31
0.0
  0
LINE
  5
1460
330
1F
100
AcDbEntity
  8
0
100
AcDbLine
 10
178.0
 20
83.0
 30
0.0
 11
178.0
 21
84.0
 31
0.0
  0
LINE
  5
1461
330
1F
100
AcDbEntity
  8
0
100
AcDbLine
 10
178.0
 20
84.0
 30
0.0
 11
179.0
 21
84.0
 31
0.0
  0
LINE
  5
1462
330
1F
100
AcDbEntity
  8
0
100
AcDbLine
 10
183.0
 20
81.0
 30
0.0
 11
183.0
 21
86.0
 31
0.0
  0
LINE
  5
1463
330
1F
100
AcDbEntity
  8
0
100
AcDbLine
 10
183.0
 20
86.0
 30
0.0
 11
194.0
 21
86.0
 31
0.0
  0
LINE
  5
1464
330
1F
100
AcDbEntity
  8
0
100
AcDbLine
 10
194.0
 20
86.0
 30
0.0
 11
194.0
 21
81.0
 31
0.0
  0
LINE
  5
1465
330
1F
100
AcDbEntity
  8
0
100
AcDbLine
 10
194.0
 20
81.0
 30
0.0
 11
183.0
 21
81.0
 31
0.0
  0
LINE
  5
1466
330
1F
100
AcDbEntity
  8
0
100
AcDbLine
 10
192.0
 20
84.0
 30
0.0
 11
192.0
 21
83.0
 31
0.0
  0
LINE
  5
1467
330
1F
100
AcDbEntity
  8
0
100
AcDbLine
 10
192.0
 20
83.0
 30
0.0
 11
191.0
 21
83.0
 31
0.0
  0
LINE
  5
1468
330
1F
100
AcDbEntity
  8
0
100
AcDbLine
 10
191.0
 20
83.0
 30
0.0
 11
191.0
 21
84.0
 31
0.0
  0
LINE
  5
1469
330
1F
100
AcDbEntity
  8
0
100
AcDbLine
 10
191.0
 20
84.0
 30
0.0
 11
192.0
 21
84.0
 31
0.0
  0
LINE
  5
146A
330
1F
100
AcDbEntity
  8
0
100
AcDbLine
 10
196.0
 20
81.0
 30
0.0
 11
196.0
 21
86.0
 31
0.0
  0
LINE
  5
146B
330
1F
100
AcDbEntity
  8
0
100
AcDbLine
 10
196.0
 20
86.0
 30
0.0
 11
207.0
 21
86.0
 31
0.0
  0
LINE
  5
146C
330
1F
100
AcDbEntity
  8
0
100
AcDbLine
 10
207.0
 20
86.0
 30
0.0
 11
207.0
 21
81.0
 31
0.0
  0
LINE
  5
146D
330
1F
100
AcDbEntity
  8
0
100
AcDbLine
 10
207.0
 20
81.0
 30
0.0
 11
196.0
 21
81.0
 31
0.0
  0
LINE
  5
146E
330
1F
100
AcDbEntity
  8
0
100
AcDbLine
 10
205.0
 20
84.0
 30
0.0
 11
205.0
 21
83.0
 31
0.0
  0
LINE
  5
146F
330
1F
100
AcDbEntity
  8
0
100
AcDbLine
 10
205.0
 20
83.0
 30
0.0
 11
204.0
 21
83.0
 31
0.0
  0
LINE
  5
1470
330
1F
100
AcDbEntity
  8
0
100
AcDbLine
 10
204.0
 20
83.0
 30
0.0
 11
204.0
 21
84.0
 31
0.0
  0
LINE
  5
1471
330
1F
100
AcDbEntity
  8
0
100
AcDbLine
 10
204.0
 20
84.0
 30
0.0
 11
205.0
 21
84.0
 31
0.0
  0
LINE
  5
14BB
330
1F
100
AcDbEntity
  8
0
100
AcDbLine
 10
170.0
 20
53.0
 30
0.0
 11
186.0
 21
53.0
 31
0.0
  0
LINE
  5
14BC
330
1F
100
AcDbEntity
  8
0
100
AcDbLine
 10
186.0
 20
53.0
 30
0.0
 11
186.0
 21
55.0
 31
0.0
  0
LINE
  5
14BE
330
1F
100
AcDbEntity
  8
0
100
AcDbLine
 10
186.0
 20
55.0
 30
0.0
 11
184.0
 21
55.0
 31
0.0
  0
LINE
  5
14BF
330
1F
100
AcDbEntity
  8
0
100
AcDbLine
 10
184.0
 20
55.0
 30
0.0
 11
184.0
 21
57.0
 31
0.0
  0
LINE
  5
14C0
330
1F
100
AcDbEntity
  8
0
100
AcDbLine
 10
184.0
 20
57.0
 30
0.0
 11
190.0
 21
57.0
 31
0.0
  0
LINE
  5
14C1
330
1F
100
AcDbEntity
  8
0
100
AcDbLine
 10
190.0
 20
57.0
 30
0.0
 11
190.0
 21
55.0
 31
0.0
  0
LINE
  5
14C2
330
1F
100
AcDbEntity
  8
0
100
AcDbLine
 10
190.0
 20
55.0
 30
0.0
 11
188.0
 21
55.0
 31
0.0
  0
LINE
  5
14C4
330
1F
100
AcDbEntity
  8
0
100
AcDbLine
 10
188.0
 20
55.0
 30
0.0
 11
188.0
 21
53.0
 31
0.0
  0
LINE
  5
14C5
330
1F
100
AcDbEntity
  8
0
100
AcDbLine
 10
188.0
 20
53.0
 30
0.0
 11
206.0
 21
53.0
 31
0.0
  0
LINE
  5
14C6
330
1F
100
AcDbEntity
  8
0
100
AcDbLine
 10
28.0
 20
83.0
 30
0.0
 11
30.0
 21
83.0
 31
0.0
  0
LINE
  5
14C7
330
1F
100
AcDbEntity
  8
0
100
AcDbLine
 10
30.0
 20
83.0
 30
0.0
 11
30.0
 21
80.0
 31
0.0
  0
LINE
  5
14C9
330
1F
100
AcDbEntity
  8
0
100
AcDbLine
 10
30.0
 20
80.0
 30
0.0
 11
28.0
 21
80.0
 31
0.0
  0
LINE
  5
14CA
330
1F
100
AcDbEntity
  8
0
100
AcDbLine
 10
28.0
 20
80.0
 30
0.0
 11
28.0
 21
83.0
 31
0.0
  0
LINE
  5
14CF
330
1F
100
AcDbEntity
  8
0
100
AcDbLine
 10
170.0
 20
90.0
 30
0.0
 11
178.0
 21
90.0
 31
0.0
  0
LINE
  5
14D0
330
1F
100
AcDbEntity
  8
0
100
AcDbLine
 10
178.0
 20
90.0
 30
0.0
 11
178.0
 21
95.0
 31
0.0
  0
LINE
  5
14D1
330
1F
100
AcDbEntity
  8
0
100
AcDbLine
 10
178.0
 20
95.0
 30
0.0
 11
173.0
 21
95.0
 31
0.0
  0
LINE
  5
14D3
330
1F
100
AcDbEntity
  8
0
100
AcDbLine
 10
173.0
 20
95.0
 30
0.0
 11
176.0
 21
93.0
 31
0.0
  0
LINE
  5
14D4
330
1F
100
AcDbEntity
  8
0
100
AcDbLine
 10
176.0
 20
93.0
 30
0.0
 11
170.0
 21
93.0
 31
0.0
  0
LINE
  5
14D5
330
1F
100
AcDbEntity
  8
0
100
AcDbLine
 10
170.0
 20
93.0
 30
0.0
 11
170.0
 21
90.0
 31
0.0
  0
ENDSEC
  0
SECTION
  2
OBJECTS
  0
DICTIONARY
  5
C
330
0
100
AcDbDictionary
281
     1
  3
ACAD_DETAILVIEWSTYLE
350
B5
  3
ACAD_GROUP
350
D
  3
ACAD_IMAGE_VARS
350
6A
  3
ACAD_LAYOUT
350
10C6
  3
ACAD_MATERIAL
350
10E2
  3
ACAD_MLEADERSTYLE
350
10E8
  3
ACAD_MLINESTYLE
350
17
  3
ACAD_SCALELIST
350
10A4
  3
ACAD_SECTIONVIEWSTYLE
350
B6
  3
ACAD_TABLESTYLE
350
10E6
  3
ACAD_VISUALSTYLE
350
10C9
  3
ACDBVARIABLEDICTIONARY
350
3D
  3
ACDB_RECOMPOSE_DATA
350
150C
  3
APPDATA
350
71
  0
SUN
  5
10EA
330
29
100
AcDbSun
 90
        1
290
     0
 63
     7
421
 16777215
 40
1.0
291
     1
 91
  2455826
 92
 54000000
292
     0
 70
     2
 71
   256
280
     1
  0
DICTIONARY
  5
B5
102
{ACAD_REACTORS
330
C
102
}
330
C
100
AcDbDictionary
281
     1
  0
DICTIONARY
  5
D
102
{ACAD_REACTORS
330
C
102
}
330
C
100
AcDbDictionary
281
     1
  3
*A14
350
1179
  3
*A15
350
128D
  3
*A16
350
1300
  3
*A17
350
13D0
  0
RASTERVARIABLES
  5
6A
102
{ACAD_REACTORS
330
C
102
}
330
C
100
AcDbRasterVariables
 90
        0
 70
     1
 71
     1
 72
     1
  0
DICTIONARY
  5
10C6
102
{ACAD_REACTORS
330
C
102
}
330
C
100
AcDbDictionary
281
     1
  3
Model
350
10C7
  3
Sheet 1
350
10C8
  0
DICTIONARY
  5
10E2
102
{ACAD_REACTORS
330
C
102
}
330
C
100
AcDbDictionary
281
     1
  3
ByBlock
350
10E4
  3
ByLayer
350
10E3
  3
Global
350
10E5
  0
DICTIONARY
  5
10E8
102
{ACAD_REACTORS
330
C
102
}
330
C
100
AcDbDictionary
281
     1
  3
Standard
350
10E9
  0
DICTIONARY
  5
17
102
{ACAD_REACTORS
330
C
102
}
330
C
100
AcDbDictionary
281
     1
  3
STANDARD
350
18
  0
DICTIONARY
  5
10A4
102
{ACAD_REACTORS
330
C
102
}
330
C
100
AcDbDictionary
281
     1
  3
*A1
350
1183
  3
A0
350
10A5
  3
A1
350
10A6
  3
A2
350
10A7
  3
A3
350
10A8
  3
A4
350
10A9
  3
A5
350
10AA
  3
A6
350
10AB
  3
A7
350
10AC
  3
A8
350
10AD
  3
A9
350
10AE
  3
B0
350
10AF
  3
B1
350
10B0
  3
B2
350
10B1
  3
B3
350
10B2
  3
B4
350
10B3
  3
B5
350
10B4
  3
B6
350
10B5
  3
B7
350
10B6
  3
B8
350
10B7
  3
B9
350
10B8
  3
C0
350
10B9
  3
C1
350
10BA
  3
C2
350
10BB
  3
C3
350
10BC
  3
C4
350
10BD
  3
C5
350
10BE
  3
C6
350
10BF
  3
C7
350
10C0
  3
C8
350
10C1
  3
C9
350
10C2
  3
D0
350
10C3
  3
D1
350
10C4
  3
D2
350
10C5
  0
DICTIONARY
  5
B6
102
{ACAD_REACTORS
330
C
102
}
330
C
100
AcDbDictionary
281
     1
  0
DICTIONARY
  5
10E6
102
{ACAD_REACTORS
330
C
102
}
330
C
100
AcDbDictionary
281
     1
  3
Standard
350
10E7
  0
DICTIONARY
  5
10C9
102
{ACAD_REACTORS
330
C
102
}
330
C
100
AcDbDictionary
281
     1
  3
2dWireframe
350
10CE
  3
Basic
350
10D1
  3
Brighten
350
10D5
  3
ColorChange
350
10D9
  3
Conceptual
350
10D3
  3
Dim
350
10D4
  3
EdgeColorOff
350
10DC
  3
Facepattern
350
10D8
  3
Flat
350
10CA
  3
FlatWithEdges
350
10CB
  3
Gouraud
350
10CC
  3
GouraudWithEdges
350
10CD
  3
Hidden
350
10D0
  3
JitterOff
350
10DA
  3
Linepattern
350
10D7
  3
OverhangOff
350
10DB
  3
Realistic
350
10D2
  3
Shaded
350
10E1
  3
Shaded with edges
350
10E0
  3
Shades of Gray
350
10DD
  3
Sketchy
350
10DE
  3
Thicken
350
10D6
  3
Wireframe
350
10CF
  3
X-Ray
350
10DF
  0
DICTIONARY
  5
3D
102
{ACAD_REACTORS
330
C
102
}
330
C
100
AcDbDictionary
281
     1
  3
CANNOSCALE
350
1149
  3
CMLEADERSTYLE
350
114B
  3
CTABLESTYLE
350
114A
  3
MSLTSCALE
350
114C
  0
XRECORD
  5
150C
102
{ACAD_REACTORS
330
C
102
}
330
C
100
AcDbXrecord
280
     1
 90
        1
330
10E7
  0
DICTIONARY
  5
71
102
{ACAD_REACTORS
330
C
102
}
330
C
100
AcDbDictionary
281
     1
  0
GROUP
  5
1179
102
{ACAD_REACTORS
330
D
102
}
330
D
100
AcDbGroup
300

 70
     1
 71
     1
340
10EB
340
10EF
340
10F0
340
10F1
340
10F2
340
10F3
340
10F4
340
10F5
340
10F6
340
10F7
340
10F8
340
10F9
340
10FA
340
10FB
340
10FC
340
10FD
340
10FE
340
10FF
340
1100
340
1101
340
1102
340
1103
340
1104
340
1105
340
1106
340
1107
340
1108
340
1109
340
110A
340
110B
340
110C
340
110D
340
110E
340
110F
340
1110
340
1111
340
1112
340
1113
340
1114
340
1115
340
1116
340
1117
340
1118
340
1119
340
111A
340
111B
340
111C
340
111D
340
111F
340
112F
340
1130
340
1131
340
1132
340
1133
340
1134
340
1135
340
1136
340
1137
340
1138
340
1139
340
113A
340
113B
340
113C
340
113D
340
113E
340
113F
340
1140
340
1141
340
1142
340
1143
340
1144
340
1145
340
1146
340
1147
340
1148
340
114D
340
114E
340
114F
340
1150
340
1151
340
1152
340
1153
340
1154
340
1155
340
1156
340
1157
340
1158
340
1159
340
115A
340
115B
340
115C
340
115D
340
115E
340
115F
340
1160
340
1161
340
1162
340
1163
340
1164
340
1165
340
1166
340
1167
340
1168
340
1169
340
116A
340
116B
340
116C
340
116D
340
116E
340
116F
340
1170
340
1171
340
1172
340
1173
340
1174
340
1175
340
1176
340
1177
340
1178
  0
GROUP
  5
128D
102
{ACAD_REACTORS
330
D
102
}
330
D
100
AcDbGroup
300

 70
     1
 71
     1
340
1216
340
1217
340
1218
340
1219
340
121A
340
121B
340
121C
340
121D
340
121E
340
121F
340
1220
340
1221
340
1222
340
1223
340
1224
340
1225
340
1226
340
1227
340
1228
340
1229
340
122A
340
122B
340
122C
340
122D
340
122E
340
122F
340
1230
340
1231
340
1232
340
1233
340
1234
340
1235
340
1236
340
1237
340
1238
340
1239
340
123A
340
123B
340
123C
340
123D
340
123E
340
123F
340
1240
340
1241
340
1242
340
1243
340
1244
340
1245
340
1246
340
1247
340
1248
340
1249
340
124A
340
124B
340
124C
340
124D
340
124E
340
124F
340
1250
340
1251
340
1252
340
1253
340
1254
340
1255
340
1256
340
1257
340
1258
340
1259
340
125A
340
125B
340
125C
340
125D
340
125E
340
125F
340
1260
340
1261
340
1262
340
1263
340
1264
340
1265
340
1266
340
1267
340
1268
340
1269
340
126A
340
126B
340
126C
340
126D
340
126E
340
126F
340
1270
340
1271
340
1272
340
1273
340
1274
340
1275
340
1276
340
1277
340
1278
340
1279
340
127A
340
127B
340
127C
340
127D
340
127E
340
127F
340
1280
340
1281
340
1282
340
1283
340
1284
340
1285
340
1286
340
1287
340
1288
340
1289
340
128A
340
128B
340
128C
  0
GROUP
  5
1300
102
{ACAD_REACTORS
330
D
102
}
330
D
100
AcDbGroup
300

 70
     1
 71
     1
340
1290
340
1291
340
1292
340
1293
340
1294
340
1295
340
1296
340
1297
340
1298
340
1299
340
129A
340
129B
340
129C
340
129D
340
129E
340
129F
340
12A1
340
12A2
340
12A3
340
12A4
340
12A5
340
12A6
340
12A7
340
12A8
340
12A9
340
12AA
340
12AB
340
12AC
340
12AD
340
12AE
340
12AF
340
12B0
340
12B1
340
12B2
340
12B3
340
12B4
340
12B5
340
12B6
340
12B7
340
12B8
340
12B9
340
12BA
340
12BB
340
12BC
340
12BD
340
12BE
340
12BF
340
12C0
340
12C4
340
12C6
340
12C7
340
12C8
340
12C9
340
12CA
340
12CB
340
12CC
340
12CD
340
12CE
340
12CF
340
12D0
340
12D1
340
12D2
340
12D4
340
12D5
340
12D6
340
12D7
340
12D8
340
12D9
340
12DA
340
12DB
340
12DC
340
12DD
340
12DE
340
12DF
340
12E0
340
12E1
340
12E2
340
12E3
340
12E4
340
12E5
340
12E6
340
12E7
340
12E8
340
12E9
340
12EA
340
12EB
340
12EC
340
12ED
340
12EE
340
12EF
340
12F0
340
12F1
340
12F2
340
12F3
340
12F4
340
12F6
340
12F7
340
12F8
340
12F9
340
12FA
340
12FB
340
12FC
340
12FE
  0
GROUP
  5
13D0
102
{ACAD_REACTORS
330
D
102
}
330
D
100
AcDbGroup
300

 70
     1
 71
     1
340
1369
340
136A
340
136B
340
136C
340
136D
340
136E
340
136F
340
1370
340
1371
340
1372
340
1373
340
1374
340
1375
340
1376
340
1377
340
1378
340
1379
340
137A
340
137B
340
137C
340
137D
340
137E
340
137F
340
1380
340
1381
340
1382
340
1383
340
1384
340
1385
340
1386
340
1387
340
1388
340
1389
340
138A
340
138B
340
138C
340
138D
340
138E
340
138F
340
1390
340
1391
340
1392
340
1393
340
1394
340
1395
340
1396
340
1397
340
1398
340
1399
340
139A
340
139B
340
139C
340
139D
340
139E
340
139F
340
13A0
340
13A1
340
13A2
340
13A3
340
13A4
340
13A5
340
13A6
340
13A7
340
13A8
340
13A9
340
13AA
340
13AB
340
13AC
340
13AD
340
13AE
340
13AF
340
13B0
340
13B1
340
13B2
340
13B3
340
13B4
340
13B5
340
13B6
340
13B7
340
13B8
340
13B9
340
13BA
340
13BB
340
13BC
340
13BD
340
13BE
340
13BF
340
13C0
340
13C1
340
13C2
340
13C3
340
13C4
340
13C5
340
13C6
340
13C7
340
13C8
340
13C9
340
13CA
340
13CB
340
13CC
340
13CD
340
13CE
340
13CF
  0
LAYOUT
  5
10C7
102
{ACAD_REACTORS
330
10C6
102
}
330
10C6
100
AcDbPlotSettings
  1

  2
none_device
  4
na-letter
  6

 40
6.35
 41
6.35
 42
6.35
 43
14.11111111111111
 44
215.9
 45
279.4
 46
0.0
 47
0.0
 48
0.0
 49
0.0
140
0.0
141
0.0
142
1.0
143
5.553718626968502
 70
  1712
 72
     1
 73
     0
 74
     0
  7

 75
     0
 76
     0
 77
     2
 78
   300
147
0.1800595361716858
148
85.10564198004579
149
254.9329211965693
100
AcDbLayout
  1
Model
 70
     1
 71
     0
 10
0.0
 20
0.0
 11
420.0
 21
297.0
 12
0.0
 22
0.0
 32
0.0
 14
7.0
 24
7.0
 34
0.0
 15
207.0
 25
263.0
 35
0.0
146
0.0
 13
0.0
 23
0.0
 33
0.0
 16
1.0
 26
0.0
 36
0.0
 17
0.0
 27
1.0
 37
0.0
 76
     0
330
1F
331
29
  0
LAYOUT
  5
10C8
102
{ACAD_REACTORS
330
10C6
102
}
330
10C6
100
AcDbPlotSettings
  1

  2
none_device
  4

  6

 40
0.0
 41
0.0
 42
0.0
 43
0.0
 44
0.0
 45
0.0
 46
0.0
 47
0.0
 48
0.0
 49
0.0
140
0.0
141
0.0
142
1.0
143
1.0
 70
   688
 72
     0
 73
     0
 74
     5
  7

 75
    16
 76
     0
 77
     2
 78
   300
147
1.0
148
0.0
149
0.0
100
AcDbLayout
  1
Sheet 1
 70
     1
 71
     1
 10
0.0
 20
0.0
 11
0.0
 21
0.0
 12
0.0
 22
0.0
 32
0.0
 14
1.000000000000000E+20
 24
1.000000000000000E+20
 34
1.000000000000000E+20
 15
-1.000000000000000E+20
 25
-1.000000000000000E+20
 35
-1.000000000000000E+20
146
0.0
 13
0.0
 23
0.0
 33
0.0
 16
1.0
 26
0.0
 36
0.0
 17
0.0
 27
1.0
 37
0.0
 76
     0
330
1B
  0
MATERIAL
  5
10E4
102
{ACAD_REACTORS
330
10E2
102
}
330
10E2
100
AcDbMaterial
  1
ByBlock
 72
     1
 94
      127
  0
MATERIAL
  5
10E3
102
{ACAD_REACTORS
330
10E2
102
}
330
10E2
100
AcDbMaterial
  1
ByLayer
 72
     1
 94
      127
  0
MATERIAL
  5
10E5
102
{ACAD_REACTORS
330
10E2
102
}
330
10E2
100
AcDbMaterial
  1
Global
 72
     1
 94
      127
  0
MLEADERSTYLE
  5
10E9
102
{ACAD_REACTORS
330
10E8
102
}
330
10E8
100
AcDbMLeaderStyle
179
     2
170
     2
171
     1
172
     0
 90
        2
 40
0.0
 41
0.0
173
     1
 91
-1056964608
340
14
 92
       -2
290
     1
 42
0.09
291
     1
 43
0.36
  3
Standard
341
0
 44
0.18
300

342
11
174
     1
178
     6
175
     1
176
     0
 93
-1056964608
 45
0.18
292
     0
297
     0
 46
0.18
343
0
 94
-1056964608
 47
1.0
 49
1.0
140
1.0
293
     1
141
0.0
294
     1
177
     0
142
1.0
295
     0
296
     0
143
0.125
271
     0
272
     9
273
     9
298
     0
  0
MLINESTYLE
  5
18
102
{ACAD_REACTORS
330
17
102
}
330
17
100
AcDbMlineStyle
  2
Standard
 70
     0
  3

 62
   256
 51
90.0
 52
90.0
 71
     2
 49
0.5
 62
   256
  6
BYLAYER
 49
-0.5
 62
   256
  6
BYLAYER
  0
SCALE
  5
1183
102
{ACAD_REACTORS
330
10A4
102
}
330
10A4
100
AcDbScale
 70
     0
300
1:1_XREF_XREF
140
1.0
141
1.0
290
     0
  0
SCALE
  5
10A5
102
{ACAD_REACTORS
330
10A4
102
}
330
10A4
100
AcDbScale
 70
     0
300
1:1
140
1.0
141
1.0
290
     1
  0
SCALE
  5
10A6
102
{ACAD_REACTORS
330
10A4
102
}
330
10A4
100
AcDbScale
 70
     0
300
1:2
140
1.0
141
2.0
290
     0
  0
SCALE
  5
10A7
102
{ACAD_REACTORS
330
10A4
102
}
330
10A4
100
AcDbScale
 70
     0
300
1:4
140
1.0
141
4.0
290
     0
  0
SCALE
  5
10A8
102
{ACAD_REACTORS
330
10A4
102
}
330
10A4
100
AcDbScale
 70
     0
300
1:5
140
1.0
141
5.0
290
     0
  0
SCALE
  5
10A9
102
{ACAD_REACTORS
330
10A4
102
}
330
10A4
100
AcDbScale
 70
     0
300
1:8
140
1.0
141
8.0
290
     0
  0
SCALE
  5
10AA
102
{ACAD_REACTORS
330
10A4
102
}
330
10A4
100
AcDbScale
 70
     0
300
1:10
140
1.0
141
10.0
290
     0
  0
SCALE
  5
10AB
102
{ACAD_REACTORS
330
10A4
102
}
330
10A4
100
AcDbScale
 70
     0
300
1:16
140
1.0
141
16.0
290
     0
  0
SCALE
  5
10AC
102
{ACAD_REACTORS
330
10A4
102
}
330
10A4
100
AcDbScale
 70
     0
300
1:20
140
1.0
141
20.0
290
     0
  0
SCALE
  5
10AD
102
{ACAD_REACTORS
330
10A4
102
}
330
10A4
100
AcDbScale
 70
     0
300
1:30
140
1.0
141
30.0
290
     0
  0
SCALE
  5
10AE
102
{ACAD_REACTORS
330
10A4
102
}
330
10A4
100
AcDbScale
 70
     0
300
1:40
140
1.0
141
40.0
290
     0
  0
SCALE
  5
10AF
102
{ACAD_REACTORS
330
10A4
102
}
330
10A4
100
AcDbScale
 70
     0
300
1:50
140
1.0
141
50.0
290
     0
  0
SCALE
  5
10B0
102
{ACAD_REACTORS
330
10A4
102
}
330
10A4
100
AcDbScale
 70
     0
300
1:100
140
1.0
141
100.0
290
     0
  0
SCALE
  5
10B1
102
{ACAD_REACTORS
330
10A4
102
}
330
10A4
100
AcDbScale
 70
     0
300
2:1
140
2.0
141
1.0
290
     0
  0
SCALE
  5
10B2
102
{ACAD_REACTORS
330
10A4
102
}
330
10A4
100
AcDbScale
 70
     0
300
4:1
140
4.0
141
1.0
290
     0
  0
SCALE
  5
10B3
102
{ACAD_REACTORS
330
10A4
102
}
330
10A4
100
AcDbScale
 70
     0
300
8:1
140
8.0
141
1.0
290
     0
  0
SCALE
  5
10B4
102
{ACAD_REACTORS
330
10A4
102
}
330
10A4
100
AcDbScale
 70
     0
300
10:1
140
10.0
141
1.0
290
     0
  0
SCALE
  5
10B5
102
{ACAD_REACTORS
330
10A4
102
}
330
10A4
100
AcDbScale
 70
     0
300
100:1
140
100.0
141
1.0
290
     0
  0
SCALE
  5
10B6
102
{ACAD_REACTORS
330
10A4
102
}
330
10A4
100
AcDbScale
 70
     0
300
1/128" = 1'-0"
140
0.0078125
141
12.0
290
     0
  0
SCALE
  5
10B7
102
{ACAD_REACTORS
330
10A4
102
}
330
10A4
100
AcDbScale
 70
     0
300
1/64" = 1'-0"
140
0.015625
141
12.0
290
     0
  0
SCALE
  5
10B8
102
{ACAD_REACTORS
330
10A4
102
}
330
10A4
100
AcDbScale
 70
     0
300
1/32" = 1'-0"
140
0.03125
141
12.0
290
     0
  0
SCALE
  5
10B9
102
{ACAD_REACTORS
330
10A4
102
}
330
10A4
100
AcDbScale
 70
     0
300
1/16" = 1'-0"
140
0.0625
141
12.0
290
     0
  0
SCALE
  5
10BA
102
{ACAD_REACTORS
330
10A4
102
}
330
10A4
100
AcDbScale
 70
     0
300
3/32" = 1'-0"
140
0.09375
141
12.0
290
     0
  0
SCALE
  5
10BB
102
{ACAD_REACTORS
330
10A4
102
}
330
10A4
100
AcDbScale
 70
     0
300
1/8" = 1'-0"
140
0.125
141
12.0
290
     0
  0
SCALE
  5
10BC
102
{ACAD_REACTORS
330
10A4
102
}
330
10A4
100
AcDbScale
 70
     0
300
3/16" = 1'-0"
140
0.1875
141
12.0
290
     0
  0
SCALE
  5
10BD
102
{ACAD_REACTORS
330
10A4
102
}
330
10A4
100
AcDbScale
 70
     0
300
1/4" = 1'-0"
140
0.25
141
12.0
290
     0
  0
SCALE
  5
10BE
102
{ACAD_REACTORS
330
10A4
102
}
330
10A4
100
AcDbScale
 70
     0
300
3/8" = 1'-0"
140
0.375
141
12.0
290
     0
  0
SCALE
  5
10BF
102
{ACAD_REACTORS
330
10A4
102
}
330
10A4
100
AcDbScale
 70
     0
300
1/2" = 1'-0"
140
0.5
141
12.0
290
     0
  0
SCALE
  5
10C0
102
{ACAD_REACTORS
330
10A4
102
}
330
10A4
100
AcDbScale
 70
     0
300
3/4" = 1'-0"
140
0.75
141
12.0
290
     0
  0
SCALE
  5
10C1
102
{ACAD_REACTORS
330
10A4
102
}
330
10A4
100
AcDbScale
 70
     0
300
1" = 1'-0"
140
1.0
141
12.0
290
     0
  0
SCALE
  5
10C2
102
{ACAD_REACTORS
330
10A4
102
}
330
10A4
100
AcDbScale
 70
     0
300
1-1/2" = 1'-0"
140
1.5
141
12.0
290
     0
  0
SCALE
  5
10C3
102
{ACAD_REACTORS
330
10A4
102
}
330
10A4
100
AcDbScale
 70
     0
300
3" = 1'-0"
140
3.0
141
12.0
290
     0
  0
SCALE
  5
10C4
102
{ACAD_REACTORS
330
10A4
102
}
330
10A4
100
AcDbScale
 70
     0
300
6" = 1'-0"
140
6.0
141
12.0
290
     0
  0
SCALE
  5
10C5
102
{ACAD_REACTORS
330
10A4
102
}
330
10A4
100
AcDbScale
 70
     0
300
1'-0" = 1'-0"
140
12.0
141
12.0
290
     0
  0
TABLESTYLE
  5
10E7
102
{ACAD_REACTORS
330
10E6
102
}
102
{ACAD_XDICTIONARY
360
150A
102
}
330
10E6
100
AcDbTableStyle
  3
Standard
 70
     0
 71
     0
 40
0.06
 41
0.06
280
     0
281
     0
  7
STANDARD
140
0.18
170
     2
 62
     0
 63
   257
283
     0
 90
        4
 91
        0
  1

274
    -2
284
     1
 64
     0
275
    -2
285
     1
 65
     0
276
    -2
286
     1
 66
     0
277
    -2
287
     1
 67
     0
278
    -2
288
     1
 68
     0
279
    -2
289
     1
 69
     0
  7
STANDARD
140
0.25
170
     5
 62
     0
 63
   257
283
     0
 90
        4
 91
        0
  1

274
    -2
284
     1
 64
     0
275
    -2
285
     1
 65
     0
276
    -2
286
     1
 66
     0
277
    -2
287
     1
 67
     0
278
    -2
288
     1
 68
     0
279
    -2
289
     1
 69
     0
  7
STANDARD
140
0.18
170
     5
 62
     0
 63
   257
283
     0
 90
        4
 91
        0
  1

274
    -2
284
     1
 64
     0
275
    -2
285
     1
 65
     0
276
    -2
286
     1
 66
     0
277
    -2
287
     1
 67
     0
278
    -2
288
     1
 68
     0
279
    -2
289
     1
 69
     0
  0
VISUALSTYLE
  5
10CE
102
{ACAD_REACTORS
330
10C9
102
}
330
10C9
100
AcDbVisualStyle
  2
2dWireframe
 70
     4
177
     3
291
     0
 70
    58
 90
        0
176
     1
 90
        2
176
     1
 90
        0
176
     1
 90
        0
176
     1
 40
0.6
176
     1
 40
30.0
176
     1
 62
     7
420
 16777215
176
     1
 90
        1
176
     1
 90
        4
176
     1
 62
     7
176
     1
 62
   257
176
     1
 90
        1
176
     1
 90
        1
176
     1
 40
1.0
176
     1
 90
        0
176
     1
 62
   257
176
     1
 40
1.0
176
     1
 90
        1
176
     1
 90
        6
176
     1
 90
        2
176
     1
 62
     7
176
     1
 90
        5
176
     1
 90
        0
176
     1
 90
        0
176
     1
290
     0
176
     1
 90
        1
176
     1
 40
0.0
176
     1
 90
        0
176
     1
290
     1
176
     1
290
     1
176
     1
290
     0
176
     1
290
     0
176
     1
290
     0
176
     1
290
     0
176
     1
290
     0
176
     1
290
     0
176
     1
290
     0
176
     1
 90
       50
176
     1
 40
0.0
176
     1
 40
1.0
176
     1
 90
        0
176
     1
 62
   178
420
        0
176
     1
 90
       50
176
     1
 90
        3
176
     1
 62
     5
420
      255
176
     1
290
     0
176
     1
 90
       50
176
     1
 90
       50
176
     1
 90
       50
176
     1
290
     0
176
     1
 90
       50
176
     1
 62
   256
176
     0
 40
1.0
176
     0
 90
        2
176
     1
  1
strokes_ogs.tif
176
     1
290
     0
176
     1
 40
1.0
176
     1
 40
1.0
176
     1
  0
VISUALSTYLE
  5
10D1
102
{ACAD_REACTORS
330
10C9
102
}
330
10C9
100
AcDbVisualStyle
  2
Basic
 70
     7
177
     3
291
     1
 70
    58
 90
        1
176
     1
 90
        0
176
     1
 90
        1
176
     1
 90
        0
176
     1
 40
0.6
176
     1
 40
30.0
176
     1
 62
     7
420
 16777215
176
     1
 90
        0
176
     1
 90
        4
176
     1
 62
     7
176
     1
 62
   257
176
     1
 90
        1
176
     1
 90
        1
176
     1
 40
1.0
176
     1
 90
        8
176
     1
 62
     7
176
     1
 40
1.0
176
     1
 90
        1
176
     1
 90
        6
176
     1
 90
        2
176
     1
 62
     7
176
     1
 90
        5
176
     1
 90
        0
176
     1
 90
        0
176
     1
290
     0
176
     1
 90
        1
176
     1
 40
0.0
176
     1
 90
        0
176
     1
290
     0
176
     1
290
     1
176
     1
290
     1
176
     1
290
     0
176
     1
290
     0
176
     1
290
     0
176
     1
290
     0
176
     1
290
     0
176
     1
290
     0
176
     1
 90
       50
176
     1
 40
0.0
176
     1
 40
1.0
176
     1
 90
        0
176
     1
 62
   178
420
        0
176
     1
 90
       50
176
     1
 90
        3
176
     1
 62
     5
420
      255
176
     1
290
     0
176
     1
 90
       50
176
     1
 90
       50
176
     1
 90
       50
176
     1
290
     0
176
     1
 90
       50
176
     1
 62
   256
176
     0
 40
1.0
176
     0
 90
        2
176
     1
  1
strokes_ogs.tif
176
     1
290
     0
176
     1
 40
1.0
176
     1
 40
1.0
176
     1
  0
VISUALSTYLE
  5
10D5
102
{ACAD_REACTORS
330
10C9
102
}
330
10C9
100
AcDbVisualStyle
  2
Brighten
 70
    12
177
     3
291
     1
 70
    58
 90
        2
176
     1
 90
        2
176
     1
 90
        0
176
     1
 90
        0
176
     1
 40
0.6
176
     1
 40
30.0
176
     1
 62
     7
420
 16777215
176
     1
 90
        1
176
     1
 90
        4
176
     1
 62
     7
176
     1
 62
   257
176
     1
 90
        1
176
     1
 90
        1
176
     1
 40
1.0
176
     1
 90
        8
176
     1
 62
     7
176
     1
 40
1.0
176
     1
 90
        1
176
     1
 90
        6
176
     1
 90
        2
176
     1
 62
     7
176
     1
 90
        5
176
     1
 90
        0
176
     1
 90
        0
176
     1
290
     0
176
     1
 90
        1
176
     1
 40
50.0
176
     1
 90
        0
176
     1
290
     0
176
     1
290
     1
176
     1
290
     1
176
     1
290
     0
176
     1
290
     0
176
     1
290
     0
176
     1
290
     0
176
     1
290
     0
176
     1
290
     0
176
     1
 90
       50
176
     1
 40
0.0
176
     1
 40
1.0
176
     1
 90
        0
176
     1
 62
   178
420
        0
176
     1
 90
       50
176
     1
 90
        3
176
     1
 62
     5
420
      255
176
     1
290
     0
176
     1
 90
       50
176
     1
 90
       50
176
     1
 90
       50
176
     1
290
     0
176
     1
 90
       50
176
     1
 62
   256
176
     0
 40
1.0
176
     0
 90
        2
176
     1
  1
strokes_ogs.tif
176
     1
290
     0
176
     1
 40
1.0
176
     1
 40
1.0
176
     1
  0
VISUALSTYLE
  5
10D9
102
{ACAD_REACTORS
330
10C9
102
}
330
10C9
100
AcDbVisualStyle
  2
ColorChange
 70
    16
177
     3
291
     1
 70
    58
 90
        2
176
     1
 90
        2
176
     1
 90
        3
176
     1
 90
        0
176
     1
 40
0.6
176
     1
 40
30.0
176
     1
 62
     8
420
  8421504
176
     1
 90
        1
176
     1
 90
        4
176
     1
 62
     7
176
     1
 62
   257
176
     1
 90
        1
176
     1
 90
        1
176
     1
 40
1.0
176
     1
 90
        8
176
     1
 62
     8
420
  8421504
176
     1
 40
1.0
176
     1
 90
        1
176
     1
 90
        6
176
     1
 90
        2
176
     1
 62
     7
176
     1
 90
        5
176
     1
 90
        0
176
     1
 90
        0
176
     1
290
     0
176
     1
 90
        1
176
     1
 40
0.0
176
     1
 90
        0
176
     1
290
     0
176
     1
290
     1
176
     1
290
     1
176
     1
290
     0
176
     1
290
     0
176
     1
290
     0
176
     1
290
     0
176
     1
290
     0
176
     1
290
     0
176
     1
 90
       50
176
     1
 40
0.0
176
     1
 40
1.0
176
     1
 90
        0
176
     1
 62
   178
420
        0
176
     1
 90
       50
176
     1
 90
        3
176
     1
 62
     5
420
      255
176
     1
290
     0
176
     1
 90
       50
176
     1
 90
       50
176
     1
 90
       50
176
     1
290
     0
176
     1
 90
       50
176
     1
 62
   256
176
     0
 40
1.0
176
     0
 90
        2
176
     1
  1
strokes_ogs.tif
176
     1
290
     0
176
     1
 40
1.0
176
     1
 40
1.0
176
     1
  0
VISUALSTYLE
  5
10D3
102
{ACAD_REACTORS
330
10C9
102
}
330
10C9
100
AcDbVisualStyle
  2
Conceptual
 70
     9
177
     3
291
     0
 70
    58
 90
        3
176
     1
 90
        2
176
     1
 90
        0
176
     1
 90
        0
176
     1
 40
0.6
176
     1
 40
30.0
176
     1
 62
     7
420
 16777215
176
     1
 90
        2
176
     1
 90
        2
176
     1
 62
     7
176
     1
 62
   257
176
     1
 90
        1
176
     1
 90
        1
176
     1
 40
179.0
176
     1
 90
        8
176
     1
 62
     7
176
     1
 40
1.0
176
     1
 90
        1
176
     1
 90
        6
176
     1
 90
        2
176
     1
 62
     7
176
     1
 90
        3
176
     1
 90
        0
176
     1
 90
        0
176
     1
290
     0
176
     1
 90
        1
176
     1
 40
0.0
176
     1
 90
        0
176
     1
290
     0
176
     1
290
     1
176
     1
290
     1
176
     1
290
     0
176
     1
290
     0
176
     1
290
     0
176
     1
290
     0
176
     1
290
     0
176
     1
290
     0
176
     1
 90
       50
176
     1
 40
0.0
176
     1
 40
1.0
176
     1
 90
        0
176
     1
 62
   178
420
        0
176
     1
 90
       50
176
     1
 90
        3
176
     1
 62
     5
420
      255
176
     1
290
     0
176
     1
 90
       50
176
     1
 90
       50
176
     1
 90
       50
176
     1
290
     0
176
     1
 90
       50
176
     1
 62
   256
176
     0
 40
1.0
176
     0
 90
        2
176
     1
  1
strokes_ogs.tif
176
     1
290
     0
176
     1
 40
1.0
176
     1
 40
1.0
176
     1
  0
VISUALSTYLE
  5
10D4
102
{ACAD_REACTORS
330
10C9
102
}
330
10C9
100
AcDbVisualStyle
  2
Dim
 70
    11
177
     3
291
     1
 70
    58
 90
        2
176
     1
 90
        2
176
     1
 90
        0
176
     1
 90
        0
176
     1
 40
0.6
176
     1
 40
30.0
176
     1
 62
     7
420
 16777215
176
     1
 90
        1
176
     1
 90
        4
176
     1
 62
     7
176
     1
 62
   257
176
     1
 90
        1
176
     1
 90
        1
176
     1
 40
1.0
176
     1
 90
        8
176
     1
 62
     7
176
     1
 40
1.0
176
     1
 90
        1
176
     1
 90
        6
176
     1
 90
        2
176
     1
 62
     7
176
     1
 90
        5
176
     1
 90
        0
176
     1
 90
        0
176
     1
290
     0
176
     1
 90
        1
176
     1
 40
-50.0
176
     1
 90
        0
176
     1
290
     0
176
     1
290
     1
176
     1
290
     1
176
     1
290
     0
176
     1
290
     0
176
     1
290
     0
176
     1
290
     0
176
     1
290
     0
176
     1
290
     0
176
     1
 90
       50
176
     1
 40
0.0
176
     1
 40
1.0
176
     1
 90
        0
176
     1
 62
   178
420
        0
176
     1
 90
       50
176
     1
 90
        3
176
     1
 62
     5
420
      255
176
     1
290
     0
176
     1
 90
       50
176
     1
 90
       50
176
     1
 90
       50
176
     1
290
     0
176
     1
 90
       50
176
     1
 62
   256
176
     0
 40
1.0
176
     0
 90
        2
176
     1
  1
strokes_ogs.tif
176
     1
290
     0
176
     1
 40
1.0
176
     1
 40
1.0
176
     1
  0
VISUALSTYLE
  5
10DC
102
{ACAD_REACTORS
330
10C9
102
}
330
10C9
100
AcDbVisualStyle
  2
EdgeColorOff
 70
    22
177
     3
291
     1
 70
    58
 90
        2
176
     0
 90
        2
176
     0
 90
        0
176
     0
 90
        0
176
     0
 40
0.6
176
     0
 40
30.0
176
     0
 62
     7
420
 16777215
176
     0
 90
        1
176
     0
 90
        4
176
     0
 62
     7
176
     0
 62
   257
176
     0
 90
        1
176
     0
 90
        1
176
     0
 40
1.0
176
     0
 90
        8
176
     2
 62
     7
176
     0
 40
1.0
176
     0
 90
        1
176
     0
 90
        6
176
     0
 90
        2
176
     0
 62
     7
176
     0
 90
        5
176
     0
 90
        0
176
     0
 90
        0
176
     0
290
     0
176
     0
 90
        1
176
     0
 40
0.0
176
     0
 90
        0
176
     0
290
     0
176
     0
290
     1
176
     0
290
     1
176
     0
290
     0
176
     0
290
     0
176
     0
290
     0
176
     0
290
     0
176
     0
290
     0
176
     0
290
     0
176
     0
 90
       50
176
     0
 40
0.0
176
     0
 40
1.0
176
     0
 90
        0
176
     0
 62
   178
420
        0
176
     0
 90
       50
176
     0
 90
        3
176
     0
 62
     5
420
      255
176
     0
290
     0
176
     0
 90
       50
176
     0
 90
       50
176
     0
 90
       50
176
     0
290
     0
176
     0
 90
       50
176
     0
 62
   256
176
     0
 40
1.0
176
     0
 90
        2
176
     0
  1
strokes_ogs.tif
176
     0
290
     0
176
     0
 40
1.0
176
     0
 40
1.0
176
     0
  0
VISUALSTYLE
  5
10D8
102
{ACAD_REACTORS
330
10C9
102
}
330
10C9
100
AcDbVisualStyle
  2
Facepattern
 70
    15
177
     3
291
     1
 70
    58
 90
        2
176
     1
 90
        2
176
     1
 90
        0
176
     1
 90
        0
176
     1
 40
0.6
176
     1
 40
30.0
176
     1
 62
     7
420
 16777215
176
     1
 90
        1
176
     1
 90
        4
176
     1
 62
     7
176
     1
 62
   257
176
     1
 90
        1
176
     1
 90
        1
176
     1
 40
1.0
176
     1
 90
        8
176
     1
 62
     7
176
     1
 40
1.0
176
     1
 90
        1
176
     1
 90
        6
176
     1
 90
        2
176
     1
 62
     7
176
     1
 90
        5
176
     1
 90
        0
176
     1
 90
        0
176
     1
290
     0
176
     1
 90
        1
176
     1
 40
0.0
176
     1
 90
        0
176
     1
290
     0
176
     1
290
     1
176
     1
290
     1
176
     1
290
     0
176
     1
290
     0
176
     1
290
     0
176
     1
290
     0
176
     1
290
     0
176
     1
290
     0
176
     1
 90
       50
176
     1
 40
0.0
176
     1
 40
1.0
176
     1
 90
        0
176
     1
 62
   178
420
        0
176
     1
 90
       50
176
     1
 90
        3
176
     1
 62
     5
420
      255
176
     1
290
     0
176
     1
 90
       50
176
     1
 90
       50
176
     1
 90
       50
176
     1
290
     0
176
     1
 90
       50
176
     1
 62
   256
176
     0
 40
1.0
176
     0
 90
        2
176
     1
  1
strokes_ogs.tif
176
     1
290
     0
176
     1
 40
1.0
176
     1
 40
1.0
176
     1
  0
VISUALSTYLE
  5
10CA
102
{ACAD_REACTORS
330
10C9
102
}
330
10C9
100
AcDbVisualStyle
  2
Flat
 70
     0
177
     3
291
     1
 70
    58
 90
        2
176
     1
 90
        1
176
     1
 90
        1
176
     1
 90
        2
176
     1
 40
0.6
176
     1
 40
30.0
176
     1
 62
     7
420
 16777215
176
     1
 90
        0
176
     1
 90
        0
176
     1
 62
     7
176
     1
 62
   257
176
     1
 90
        1
176
     1
 90
        1
176
     1
 40
1.0
176
     1
 90
        8
176
     1
 62
     7
176
     1
 40
1.0
176
     1
 90
        1
176
     1
 90
        6
176
     1
 90
        2
176
     1
 62
     7
176
     1
 90
        5
176
     1
 90
        0
176
     1
 90
        0
176
     1
290
     0
176
     1
 90
       13
176
     1
 40
0.0
176
     1
 90
        0
176
     1
290
     0
176
     1
290
     1
176
     1
290
     1
176
     1
290
     0
176
     1
290
     0
176
     1
290
     0
176
     1
290
     0
176
     1
290
     0
176
     1
290
     0
176
     1
 90
       50
176
     1
 40
0.0
176
     1
 40
1.0
176
     1
 90
        0
176
     1
 62
   178
420
        0
176
     1
 90
       50
176
     1
 90
        3
176
     1
 62
     5
420
      255
176
     1
290
     0
176
     1
 90
       50
176
     1
 90
       50
176
     1
 90
       50
176
     1
290
     0
176
     1
 90
       50
176
     1
 62
   256
176
     0
 40
1.0
176
     0
 90
        2
176
     1
  1
strokes_ogs.tif
176
     1
290
     0
176
     1
 40
1.0
176
     1
 40
1.0
176
     1
  0
VISUALSTYLE
  5
10CB
102
{ACAD_REACTORS
330
10C9
102
}
330
10C9
100
AcDbVisualStyle
  2
FlatWithEdges
 70
     1
177
     3
291
     1
 70
    58
 90
        2
176
     1
 90
        1
176
     1
 90
        1
176
     1
 90
        2
176
     1
 40
0.6
176
     1
 40
30.0
176
     1
 62
     7
420
 16777215
176
     1
 90
        1
176
     1
 90
        0
176
     1
 62
     7
176
     1
 62
   257
176
     1
 90
        1
176
     1
 90
        1
176
     1
 40
1.0
176
     1
 90
        0
176
     1
 62
   257
176
     1
 40
1.0
176
     1
 90
        1
176
     1
 90
        6
176
     1
 90
        2
176
     1
 62
     7
176
     1
 90
        5
176
     1
 90
        0
176
     1
 90
        0
176
     1
290
     0
176
     1
 90
       13
176
     1
 40
0.0
176
     1
 90
        0
176
     1
290
     0
176
     1
290
     1
176
     1
290
     1
176
     1
290
     0
176
     1
290
     0
176
     1
290
     0
176
     1
290
     0
176
     1
290
     0
176
     1
290
     0
176
     1
 90
       50
176
     1
 40
0.0
176
     1
 40
1.0
176
     1
 90
        0
176
     1
 62
   178
420
        0
176
     1
 90
       50
176
     1
 90
        3
176
     1
 62
     5
420
      255
176
     1
290
     0
176
     1
 90
       50
176
     1
 90
       50
176
     1
 90
       50
176
     1
290
     0
176
     1
 90
       50
176
     1
 62
   256
176
     0
 40
1.0
176
     0
 90
        2
176
     1
  1
strokes_ogs.tif
176
     1
290
     0
176
     1
 40
1.0
176
     1
 40
1.0
176
     1
  0
VISUALSTYLE
  5
10CC
102
{ACAD_REACTORS
330
10C9
102
}
330
10C9
100
AcDbVisualStyle
  2
Gouraud
 70
     2
177
     3
291
     1
 70
    58
 90
        2
176
     1
 90
        2
176
     1
 90
        1
176
     1
 90
        2
176
     1
 40
0.6
176
     1
 40
30.0
176
     1
 62
     7
420
 16777215
176
     1
 90
        0
176
     1
 90
        0
176
     1
 62
     7
176
     1
 62
   257
176
     1
 90
        1
176
     1
 90
        1
176
     1
 40
1.0
176
     1
 90
        0
176
     1
 62
     7
176
     1
 40
1.0
176
     1
 90
        1
176
     1
 90
        6
176
     1
 90
        2
176
     1
 62
     7
176
     1
 90
        5
176
     1
 90
        0
176
     1
 90
        0
176
     1
290
     0
176
     1
 90
       13
176
     1
 40
0.0
176
     1
 90
        0
176
     1
290
     0
176
     1
290
     1
176
     1
290
     1
176
     1
290
     0
176
     1
290
     0
176
     1
290
     0
176
     1
290
     0
176
     1
290
     0
176
     1
290
     0
176
     1
 90
       50
176
     1
 40
0.0
176
     1
 40
1.0
176
     1
 90
        0
176
     1
 62
   178
420
        0
176
     1
 90
       50
176
     1
 90
        3
176
     1
 62
     5
420
      255
176
     1
290
     0
176
     1
 90
       50
176
     1
 90
       50
176
     1
 90
       50
176
     1
290
     0
176
     1
 90
       50
176
     1
 62
   256
176
     0
 40
1.0
176
     0
 90
        2
176
     1
  1
strokes_ogs.tif
176
     1
290
     0
176
     1
 40
1.0
176
     1
 40
1.0
176
     1
  0
VISUALSTYLE
  5
10CD
102
{ACAD_REACTORS
330
10C9
102
}
330
10C9
100
AcDbVisualStyle
  2
GouraudWithEdges
 70
     3
177
     3
291
     1
 70
    58
 90
        2
176
     1
 90
        2
176
     1
 90
        1
176
     1
 90
        2
176
     1
 40
0.6
176
     1
 40
30.0
176
     1
 62
     7
420
 16777215
176
     1
 90
        1
176
     1
 90
        0
176
     1
 62
     7
176
     1
 62
   257
176
     1
 90
        1
176
     1
 90
        1
176
     1
 40
1.0
176
     1
 90
        0
176
     1
 62
   257
176
     1
 40
1.0
176
     1
 90
        1
176
     1
 90
        6
176
     1
 90
        2
176
     1
 62
     7
176
     1
 90
        5
176
     1
 90
        0
176
     1
 90
        0
176
     1
290
     0
176
     1
 90
       13
176
     1
 40
0.0
176
     1
 90
        0
176
     1
290
     0
176
     1
290
     1
176
     1
290
     1
176
     1
290
     0
176
     1
290
     0
176
     1
290
     0
176
     1
290
     0
176
     1
290
     0
176
     1
290
     0
176
     1
 90
       50
176
     1
 40
0.0
176
     1
 40
1.0
176
     1
 90
        0
176
     1
 62
   178
420
        0
176
     1
 90
       50
176
     1
 90
        3
176
     1
 62
     5
420
      255
176
     1
290
     0
176
     1
 90
       50
176
     1
 90
       50
176
     1
 90
       50
176
     1
290
     0
176
     1
 90
       50
176
     1
 62
   256
176
     0
 40
1.0
176
     0
 90
        2
176
     1
  1
strokes_ogs.tif
176
     1
290
     0
176
     1
 40
1.0
176
     1
 40
1.0
176
     1
  0
VISUALSTYLE
  5
10D0
102
{ACAD_REACTORS
330
10C9
102
}
330
10C9
100
AcDbVisualStyle
  2
Hidden
 70
     6
177
     3
291
     0
 70
    58
 90
        1
176
     1
 90
        2
176
     1
 90
        2
176
     1
 90
        0
176
     1
 40
0.6
176
     1
 40
30.0
176
     1
 62
     7
420
 16777215
176
     1
 90
        2
176
     1
 90
        2
176
     1
 62
     7
176
     1
 62
   257
176
     1
 90
        2
176
     1
 90
        1
176
     1
 40
40.0
176
     1
 90
        0
176
     1
 62
   257
176
     1
 40
1.0
176
     1
 90
        1
176
     1
 90
        6
176
     1
 90
        2
176
     1
 62
     7
176
     1
 90
        3
176
     1
 90
        0
176
     1
 90
        0
176
     1
290
     0
176
     1
 90
        1
176
     1
 40
0.0
176
     1
 90
        0
176
     1
290
     0
176
     1
290
     1
176
     1
290
     1
176
     1
290
     0
176
     1
290
     0
176
     1
290
     0
176
     1
290
     0
176
     1
290
     0
176
     1
290
     0
176
     1
 90
       50
176
     1
 40
0.0
176
     1
 40
1.0
176
     1
 90
        0
176
     1
 62
   178
420
        0
176
     1
 90
       50
176
     1
 90
        3
176
     1
 62
     5
420
      255
176
     1
290
     0
176
     1
 90
       50
176
     1
 90
       50
176
     1
 90
       50
176
     1
290
     0
176
     1
 90
       50
176
     1
 62
   256
176
     0
 40
1.0
176
     0
 90
        2
176
     1
  1
strokes_ogs.tif
176
     1
290
     0
176
     1
 40
1.0
176
     1
 40
1.0
176
     1
  0
VISUALSTYLE
  5
10DA
102
{ACAD_REACTORS
330
10C9
102
}
330
10C9
100
AcDbVisualStyle
  2
JitterOff
 70
    20
177
     3
291
     1
 70
    58
 90
        2
176
     0
 90
        2
176
     0
 90
        0
176
     0
 90
        0
176
     0
 40
0.6
176
     0
 40
30.0
176
     0
 62
     7
420
 16777215
176
     0
 90
        1
176
     0
 90
        4
176
     0
 62
     7
176
     0
 62
   257
176
     0
 90
        1
176
     0
 90
        1
176
     0
 40
1.0
176
     0
 90
       10
176
     2
 62
     7
176
     0
 40
1.0
176
     0
 90
        1
176
     0
 90
        6
176
     0
 90
        2
176
     0
 62
     7
176
     0
 90
        5
176
     0
 90
        0
176
     0
 90
        0
176
     0
290
     0
176
     0
 90
        1
176
     0
 40
0.0
176
     0
 90
        0
176
     0
290
     0
176
     0
290
     1
176
     0
290
     1
176
     0
290
     0
176
     0
290
     0
176
     0
290
     0
176
     0
290
     0
176
     0
290
     0
176
     0
290
     0
176
     0
 90
       50
176
     0
 40
0.0
176
     0
 40
1.0
176
     0
 90
        0
176
     0
 62
   178
420
        0
176
     0
 90
       50
176
     0
 90
        3
176
     0
 62
     5
420
      255
176
     0
290
     0
176
     0
 90
       50
176
     0
 90
       50
176
     0
 90
       50
176
     0
290
     0
176
     0
 90
       50
176
     0
 62
   256
176
     0
 40
1.0
176
     0
 90
        2
176
     0
  1
strokes_ogs.tif
176
     0
290
     0
176
     0
 40
1.0
176
     0
 40
1.0
176
     0
  0
VISUALSTYLE
  5
10D7
102
{ACAD_REACTORS
330
10C9
102
}
330
10C9
100
AcDbVisualStyle
  2
Linepattern
 70
    14
177
     3
291
     1
 70
    58
 90
        2
176
     1
 90
        2
176
     1
 90
        0
176
     1
 90
        0
176
     1
 40
0.6
176
     1
 40
30.0
176
     1
 62
     7
420
 16777215
176
     1
 90
        1
176
     1
 90
        4
176
     1
 62
     7
176
     1
 62
   257
176
     1
 90
        7
176
     1
 90
        7
176
     1
 40
1.0
176
     1
 90
        8
176
     1
 62
     7
176
     1
 40
1.0
176
     1
 90
        1
176
     1
 90
        6
176
     1
 90
        2
176
     1
 62
     7
176
     1
 90
        5
176
     1
 90
        0
176
     1
 90
        0
176
     1
290
     0
176
     1
 90
        1
176
     1
 40
0.0
176
     1
 90
        0
176
     1
290
     0
176
     1
290
     1
176
     1
290
     1
176
     1
290
     0
176
     1
290
     0
176
     1
290
     0
176
     1
290
     0
176
     1
290
     0
176
     1
290
     0
176
     1
 90
       50
176
     1
 40
0.0
176
     1
 40
1.0
176
     1
 90
        0
176
     1
 62
   178
420
        0
176
     1
 90
       50
176
     1
 90
        3
176
     1
 62
     5
420
      255
176
     1
290
     0
176
     1
 90
       50
176
     1
 90
       50
176
     1
 90
       50
176
     1
290
     0
176
     1
 90
       50
176
     1
 62
   256
176
     0
 40
1.0
176
     0
 90
        2
176
     1
  1
strokes_ogs.tif
176
     1
290
     0
176
     1
 40
1.0
176
     1
 40
1.0
176
     1
  0
VISUALSTYLE
  5
10DB
102
{ACAD_REACTORS
330
10C9
102
}
330
10C9
100
AcDbVisualStyle
  2
OverhangOff
 70
    21
177
     3
291
     1
 70
    58
 90
        2
176
     0
 90
        2
176
     0
 90
        0
176
     0
 90
        0
176
     0
 40
0.6
176
     0
 40
30.0
176
     0
 62
     7
420
 16777215
176
     0
 90
        1
176
     0
 90
        4
176
     0
 62
     7
176
     0
 62
   257
176
     0
 90
        1
176
     0
 90
        1
176
     0
 40
1.0
176
     0
 90
        9
176
     2
 62
     7
176
     0
 40
1.0
176
     0
 90
        1
176
     0
 90
        6
176
     0
 90
        2
176
     0
 62
     7
176
     0
 90
        5
176
     0
 90
        0
176
     0
 90
        0
176
     0
290
     0
176
     0
 90
        1
176
     0
 40
0.0
176
     0
 90
        0
176
     0
290
     0
176
     0
290
     1
176
     0
290
     1
176
     0
290
     0
176
     0
290
     0
176
     0
290
     0
176
     0
290
     0
176
     0
290
     0
176
     0
290
     0
176
     0
 90
       50
176
     0
 40
0.0
176
     0
 40
1.0
176
     0
 90
        0
176
     0
 62
   178
420
        0
176
     0
 90
       50
176
     0
 90
        3
176
     0
 62
     5
420
      255
176
     0
290
     0
176
     0
 90
       50
176
     0
 90
       50
176
     0
 90
       50
176
     0
290
     0
176
     0
 90
       50
176
     0
 62
   256
176
     0
 40
1.0
176
     0
 90
        2
176
     0
  1
strokes_ogs.tif
176
     0
290
     0
176
     0
 40
1.0
176
     0
 40
1.0
176
     0
  0
VISUALSTYLE
  5
10D2
102
{ACAD_REACTORS
330
10C9
102
}
330
10C9
100
AcDbVisualStyle
  2
Realistic
 70
     8
177
     3
291
     0
 70
    58
 90
        2
176
     1
 90
        3
176
     1
 90
        0
176
     1
 90
        2
176
     1
 40
0.6
176
     1
 40
30.0
176
     1
 62
     7
420
 16777215
176
     1
 90
        0
176
     1
 90
        0
176
     1
 62
     7
176
     1
 62
   257
176
     1
 90
        1
176
     1
 90
        1
176
     1
 40
1.0
176
     1
 90
        8
176
     1
 62
   257
176
     1
 40
1.0
176
     1
 90
        1
176
     1
 90
        6
176
     1
 90
        2
176
     1
 62
     7
176
     1
 90
        3
176
     1
 90
        0
176
     1
 90
        0
176
     1
290
     0
176
     1
 90
       13
176
     1
 40
0.0
176
     1
 90
        0
176
     1
290
     0
176
     1
290
     1
176
     1
290
     1
176
     1
290
     0
176
     1
290
     0
176
     1
290
     0
176
     1
290
     0
176
     1
290
     0
176
     1
290
     0
176
     1
 90
       50
176
     1
 40
0.0
176
     1
 40
1.0
176
     1
 90
        0
176
     1
 62
   178
420
        0
176
     1
 90
       50
176
     1
 90
        3
176
     1
 62
     5
420
      255
176
     1
290
     0
176
     1
 90
       50
176
     1
 90
       50
176
     1
 90
       50
176
     1
290
     0
176
     1
 90
       50
176
     1
 62
   256
176
     0
 40
1.0
176
     0
 90
        2
176
     1
  1
strokes_ogs.tif
176
     1
290
     0
176
     1
 40
1.0
176
     1
 40
1.0
176
     1
  0
VISUALSTYLE
  5
10E1
102
{ACAD_REACTORS
330
10C9
102
}
330
10C9
100
AcDbVisualStyle
  2
Shaded
 70
    27
177
     3
291
     0
 70
    58
 90
        2
176
     1
 90
        2
176
     1
 90
        1
176
     1
 90
        2
176
     1
 40
0.6
176
     1
 40
30.0
176
     1
 62
     7
420
 16777215
176
     1
 90
        0
176
     1
 90
        4
176
     1
 62
     7
176
     1
 62
   257
176
     1
 90
        1
176
     1
 90
        1
176
     1
 40
1.0
176
     1
 90
        8
176
     1
 62
   257
176
     1
 40
1.0
176
     1
 90
        1
176
     1
 90
        6
176
     1
 90
        2
176
     1
 62
     8
420
  7895160
176
     1
 90
        3
176
     1
 90
        0
176
     1
 90
        0
176
     1
290
     0
176
     1
 90
        5
176
     1
 40
0.0
176
     1
 90
        0
176
     1
290
     0
176
     1
290
     1
176
     1
290
     1
176
     1
290
     0
176
     1
290
     0
176
     1
290
     0
176
     1
290
     0
176
     1
290
     0
176
     1
290
     0
176
     1
 90
       50
176
     1
 40
0.0
176
     1
 40
1.0
176
     1
 90
        0
176
     1
 62
   178
420
        0
176
     1
 90
       50
176
     1
 90
        3
176
     1
 62
     5
420
      255
176
     1
290
     0
176
     1
 90
       50
176
     1
 90
       50
176
     1
 90
       50
176
     1
290
     0
176
     1
 90
       50
176
     1
 62
   256
176
     0
 40
1.0
176
     0
 90
        2
176
     1
  1
strokes_ogs.tif
176
     1
290
     0
176
     1
 40
1.0
176
     1
 40
1.0
176
     1
  0
VISUALSTYLE
  5
10E0
102
{ACAD_REACTORS
330
10C9
102
}
330
10C9
100
AcDbVisualStyle
  2
Shaded with edges
 70
    26
177
     3
291
     0
 70
    58
 90
        2
176
     1
 90
        2
176
     1
 90
        1
176
     1
 90
        2
176
     1
 40
0.6
176
     1
 40
30.0
176
     1
 62
     7
420
 16777215
176
     1
 90
        1
176
     1
 90
       10
176
     1
 62
     7
176
     1
 62
   257
176
     1
 90
        2
176
     1
 90
        1
176
     1
 40
1.0
176
     1
 90
        8
176
     1
 62
   257
176
     1
 40
1.0
176
     1
 90
        1
176
     1
 90
        6
176
     1
 90
        2
176
     1
 62
     7
176
     1
 90
        3
176
     1
 90
        0
176
     1
 90
        0
176
     1
290
     0
176
     1
 90
        5
176
     1
 40
0.0
176
     1
 90
        0
176
     1
290
     0
176
     1
290
     1
176
     1
290
     1
176
     1
290
     0
176
     1
290
     0
176
     1
290
     0
176
     1
290
     0
176
     1
290
     0
176
     1
290
     0
176
     1
 90
       50
176
     1
 40
0.0
176
     1
 40
1.0
176
     1
 90
        0
176
     1
 62
   178
420
        0
176
     1
 90
       50
176
     1
 90
        3
176
     1
 62
     5
420
      255
176
     1
290
     0
176
     1
 90
       50
176
     1
 90
       50
176
     1
 90
       50
176
     1
290
     0
176
     1
 90
       50
176
     1
 62
   256
176
     0
 40
1.0
176
     0
 90
        2
176
     1
  1
strokes_ogs.tif
176
     1
290
     0
176
     1
 40
1.0
176
     1
 40
1.0
176
     1
  0
VISUALSTYLE
  5
10DD
102
{ACAD_REACTORS
330
10C9
102
}
330
10C9
100
AcDbVisualStyle
  2
Shades of Gray
 70
    23
177
     3
291
     0
 70
    58
 90
        2
176
     1
 90
        2
176
     1
 90
        3
176
     1
 90
        0
176
     1
 40
0.6
176
     1
 40
30.0
176
     1
 62
     7
420
 16777215
176
     1
 90
        2
176
     1
 90
        2
176
     1
 62
     7
176
     1
 62
     7
176
     1
 90
        1
176
     1
 90
        1
176
     1
 40
40.0
176
     1
 90
        8
176
     1
 62
     7
176
     1
 40
1.0
176
     1
 90
        1
176
     1
 90
        6
176
     1
 90
        2
176
     1
 62
     7
176
     1
 90
        3
176
     1
 90
        0
176
     1
 90
        0
176
     1
290
     0
176
     1
 90
        1
176
     1
 40
0.0
176
     1
 90
        0
176
     1
290
     0
176
     1
290
     1
176
     1
290
     1
176
     1
290
     0
176
     1
290
     0
176
     1
290
     0
176
     1
290
     0
176
     1
290
     0
176
     1
290
     0
176
     1
 90
       50
176
     1
 40
0.0
176
     1
 40
1.0
176
     1
 90
        0
176
     1
 62
   178
420
        0
176
     1
 90
       50
176
     1
 90
        3
176
     1
 62
     5
420
      255
176
     1
290
     0
176
     1
 90
       50
176
     1
 90
       50
176
     1
 90
       50
176
     1
290
     0
176
     1
 90
       50
176
     1
 62
   256
176
     0
 40
1.0
176
     0
 90
        2
176
     1
  1
strokes_ogs.tif
176
     1
290
     0
176
     1
 40
1.0
176
     1
 40
1.0
176
     1
  0
VISUALSTYLE
  5
10DE
102
{ACAD_REACTORS
330
10C9
102
}
330
10C9
100
AcDbVisualStyle
  2
Sketchy
 70
    24
177
     3
291
     0
 70
    58
 90
        1
176
     1
 90
        2
176
     1
 90
        2
176
     1
 90
        0
176
     1
 40
0.6
176
     1
 40
30.0
176
     1
 62
     7
420
 16777215
176
     1
 90
        2
176
     1
 90
        2
176
     1
 62
     7
176
     1
 62
     7
176
     1
 90
        1
176
     1
 90
        1
176
     1
 40
40.0
176
     1
 90
       11
176
     1
 62
     7
176
     1
 40
1.0
176
     1
 90
        1
176
     1
 90
        6
176
     1
 90
        2
176
     1
 62
     7
176
     1
 90
        6
176
     1
 90
        0
176
     1
 90
        0
176
     1
290
     0
176
     1
 90
        1
176
     1
 40
0.0
176
     1
 90
        0
176
     1
290
     0
176
     1
290
     1
176
     1
290
     1
176
     1
290
     0
176
     1
290
     0
176
     1
290
     0
176
     1
290
     0
176
     1
290
     0
176
     1
290
     0
176
     1
 90
       50
176
     1
 40
0.0
176
     1
 40
1.0
176
     1
 90
        0
176
     1
 62
   178
420
        0
176
     1
 90
       50
176
     1
 90
        3
176
     1
 62
     5
420
      255
176
     1
290
     0
176
     1
 90
       50
176
     1
 90
       50
176
     1
 90
       50
176
     1
290
     0
176
     1
 90
       50
176
     1
 62
   256
176
     0
 40
1.0
176
     0
 90
        2
176
     1
  1
strokes_ogs.tif
176
     1
290
     0
176
     1
 40
1.0
176
     1
 40
1.0
176
     1
  0
VISUALSTYLE
  5
10D6
102
{ACAD_REACTORS
330
10C9
102
}
330
10C9
100
AcDbVisualStyle
  2
Thicken
 70
    13
177
     3
291
     1
 70
    58
 90
        2
176
     1
 90
        2
176
     1
 90
        0
176
     1
 90
        0
176
     1
 40
0.6
176
     1
 40
30.0
176
     1
 62
     7
420
 16777215
176
     1
 90
        1
176
     1
 90
        4
176
     1
 62
     7
176
     1
 62
   257
176
     1
 90
        1
176
     1
 90
        1
176
     1
 40
1.0
176
     1
 90
       12
176
     1
 62
     7
176
     1
 40
1.0
176
     1
 90
        1
176
     1
 90
        6
176
     1
 90
        2
176
     1
 62
     7
176
     1
 90
        5
176
     1
 90
        0
176
     1
 90
        0
176
     1
290
     0
176
     1
 90
        1
176
     1
 40
0.0
176
     1
 90
        0
176
     1
290
     0
176
     1
290
     1
176
     1
290
     1
176
     1
290
     0
176
     1
290
     0
176
     1
290
     0
176
     1
290
     0
176
     1
290
     0
176
     1
290
     0
176
     1
 90
       50
176
     1
 40
0.0
176
     1
 40
1.0
176
     1
 90
        0
176
     1
 62
   178
420
        0
176
     1
 90
       50
176
     1
 90
        3
176
     1
 62
     5
420
      255
176
     1
290
     0
176
     1
 90
       50
176
     1
 90
       50
176
     1
 90
       50
176
     1
290
     0
176
     1
 90
       50
176
     1
 62
   256
176
     0
 40
1.0
176
     0
 90
        2
176
     1
  1
strokes_ogs.tif
176
     1
290
     0
176
     1
 40
1.0
176
     1
 40
1.0
176
     1
  0
VISUALSTYLE
  5
10CF
102
{ACAD_REACTORS
330
10C9
102
}
330
10C9
100
AcDbVisualStyle
  2
Wireframe
 70
     5
177
     3
291
     0
 70
    58
 90
        0
176
     1
 90
        2
176
     1
 90
        0
176
     1
 90
        0
176
     1
 40
0.6
176
     1
 40
30.0
176
     1
 62
     7
420
 16777215
176
     1
 90
        1
176
     1
 90
        4
176
     1
 62
     7
176
     1
 62
   257
176
     1
 90
        1
176
     1
 90
        1
176
     1
 40
1.0
176
     1
 90
        0
176
     1
 62
   257
176
     1
 40
1.0
176
     1
 90
        1
176
     1
 90
        6
176
     1
 90
        2
176
     1
 62
     7
176
     1
 90
        3
176
     1
 90
        0
176
     1
 90
        0
176
     1
290
     0
176
     1
 90
        1
176
     1
 40
0.0
176
     1
 90
        0
176
     1
290
     0
176
     1
290
     1
176
     1
290
     1
176
     1
290
     0
176
     1
290
     0
176
     1
290
     0
176
     1
290
     0
176
     1
290
     0
176
     1
290
     0
176
     1
 90
       50
176
     1
 40
0.0
176
     1
 40
1.0
176
     1
 90
        0
176
     1
 62
   178
420
        0
176
     1
 90
       50
176
     1
 90
        3
176
     1
 62
     5
420
      255
176
     1
290
     0
176
     1
 90
       50
176
     1
 90
       50
176
     1
 90
       50
176
     1
290
     0
176
     1
 90
       50
176
     1
 62
   256
176
     0
 40
1.0
176
     0
 90
        2
176
     1
  1
strokes_ogs.tif
176
     1
290
     0
176
     1
 40
1.0
176
     1
 40
1.0
176
     1
  0
VISUALSTYLE
  5
10DF
102
{ACAD_REACTORS
330
10C9
102
}
330
10C9
100
AcDbVisualStyle
  2
X-Ray
 70
    25
177
     3
291
     0
 70
    58
 90
        2
176
     1
 90
        2
176
     1
 90
        1
176
     1
 90
        1
176
     1
 40
0.5
176
     1
 40
30.0
176
     1
 62
     7
420
 16777215
176
     1
 90
        1
176
     1
 90
        0
176
     1
 62
     7
176
     1
 62
   257
176
     1
 90
        1
176
     1
 90
        1
176
     1
 40
1.0
176
     1
 90
        8
176
     1
 62
     7
176
     1
 40
1.0
176
     1
 90
        1
176
     1
 90
        6
176
     1
 90
        2
176
     1
 62
     7
176
     1
 90
        3
176
     1
 90
        0
176
     1
 90
        0
176
     1
290
     0
176
     1
 90
       13
176
     1
 40
0.0
176
     1
 90
        0
176
     1
290
     0
176
     1
290
     1
176
     1
290
     1
176
     1
290
     0
176
     1
290
     0
176
     1
290
     0
176
     1
290
     0
176
     1
290
     0
176
     1
290
     0
176
     1
 90
       50
176
     1
 40
0.0
176
     1
 40
1.0
176
     1
 90
        0
176
     1
 62
   178
420
        0
176
     1
 90
       50
176
     1
 90
        3
176
     1
 62
     5
420
      255
176
     1
290
     0
176
     1
 90
       50
176
     1
 90
       50
176
     1
 90
       50
176
     1
290
     0
176
     1
 90
       50
176
     1
 62
   256
176
     0
 40
1.0
176
     0
 90
        2
176
     1
  1
strokes_ogs.tif
176
     1
290
     0
176
     1
 40
1.0
176
     1
 40
1.0
176
     1
  0
DICTIONARYVAR
  5
1149
102
{ACAD_REACTORS
330
3D
102
}
330
3D
100
DictionaryVariables
280
     0
  1
1:1
  0
DICTIONARYVAR
  5
114B
102
{ACAD_REACTORS
330
3D
102
}
330
3D
100
DictionaryVariables
280
     0
  1
Standard
  0
DICTIONARYVAR
  5
114A
102
{ACAD_REACTORS
330
3D
102
}
330
3D
100
DictionaryVariables
280
     0
  1
Standard
  0
DICTIONARYVAR
  5
114C
102
{ACAD_REACTORS
330
3D
102
}
330
3D
100
DictionaryVariables
280
     0
  1
0
  0
DICTIONARY
  5
150A
330
10E7
100
AcDbDictionary
280
     1
281
     1
  3
ACAD_ROUNDTRIP_2008_TABLESTYLE_CELLSTYLEMAP
360
150B
  0
CELLSTYLEMAP
  5
150B
102
{ACAD_REACTORS
330
150A
102
}
330
150A
100
AcDbCellStyleMap
 90
        3
300
CELLSTYLE
  1
TABLEFORMAT_BEGIN
 90
        5
170
     1
 91
        0
 92
    32768
 62
   257
 93
        1
300
CONTENTFORMAT
  1
CONTENTFORMAT_BEGIN
 90
        0
 91
        0
 92
        4
 93
        0
300

 40
0.0
140
1.0
 94
        5
 62
     0
340
11
144
0.25
309
CONTENTFORMAT_END
171
     1
301
MARGIN
  1
CELLMARGIN_BEGIN
 40
0.06
 40
0.06
 40
0.06
 40
0.06
 40
0.06
 40
0.06
309
CELLMARGIN_END
 94
        6
 95
        1
302
GRIDFORMAT
  1
GRIDFORMAT_BEGIN
 90
        0
 91
        1
 62
     0
 92
       -2
340
14
 93
        0
 40
0.045
309
GRIDFORMAT_END
 95
        2
302
GRIDFORMAT
  1
GRIDFORMAT_BEGIN
 90
        0
 91
        1
 62
     0
 92
       -2
340
14
 93
        0
 40
0.045
309
GRIDFORMAT_END
 95
        4
302
GRIDFORMAT
  1
GRIDFORMAT_BEGIN
 90
        0
 91
        1
 62
     0
 92
       -2
340
14
 93
        0
 40
0.045
309
GRIDFORMAT_END
 95
        8
302
GRIDFORMAT
  1
GRIDFORMAT_BEGIN
 90
        0
 91
        1
 62
     0
 92
       -2
340
14
 93
        0
 40
0.045
309
GRIDFORMAT_END
 95
       16
302
GRIDFORMAT
  1
GRIDFORMAT_BEGIN
 90
        0
 91
        1
 62
     0
 92
       -2
340
14
 93
        0
 40
0.045
309
GRIDFORMAT_END
 95
       32
302
GRIDFORMAT
  1
GRIDFORMAT_BEGIN
 90
        0
 91
        1
 62
     0
 92
       -2
340
14
 93
        0
 40
0.045
309
GRIDFORMAT_END
309
TABLEFORMAT_END
  1
CELLSTYLE_BEGIN
 90
        1
 91
        1
300
_TITLE
309
CELLSTYLE_END
300
CELLSTYLE
  1
TABLEFORMAT_BEGIN
 90
        5
170
     1
 91
        0
 92
        0
 62
   257
 93
        1
300
CONTENTFORMAT
  1
CONTENTFORMAT_BEGIN
 90
        0
 91
        0
 92
        4
 93
        0
300

 40
0.0
140
1.0
 94
        5
 62
     0
340
11
144
0.18
309
CONTENTFORMAT_END
171
     1
301
MARGIN
  1
CELLMARGIN_BEGIN
 40
0.06
 40
0.06
 40
0.06
 40
0.06
 40
0.06
 40
0.06
309
CELLMARGIN_END
 94
        6
 95
        1
302
GRIDFORMAT
  1
GRIDFORMAT_BEGIN
 90
        0
 91
        1
 62
     0
 92
       -2
340
14
 93
        0
 40
0.045
309
GRIDFORMAT_END
 95
        2
302
GRIDFORMAT
  1
GRIDFORMAT_BEGIN
 90
        0
 91
        1
 62
     0
 92
       -2
340
14
 93
        0
 40
0.045
309
GRIDFORMAT_END
 95
        4
302
GRIDFORMAT
  1
GRIDFORMAT_BEGIN
 90
        0
 91
        1
 62
     0
 92
       -2
340
14
 93
        0
 40
0.045
309
GRIDFORMAT_END
 95
        8
302
GRIDFORMAT
  1
GRIDFORMAT_BEGIN
 90
        0
 91
        1
 62
     0
 92
       -2
340
14
 93
        0
 40
0.045
309
GRIDFORMAT_END
 95
       16
302
GRIDFORMAT
  1
GRIDFORMAT_BEGIN
 90
        0
 91
        1
 62
     0
 92
       -2
340
14
 93
        0
 40
0.045
309
GRIDFORMAT_END
 95
       32
302
GRIDFORMAT
  1
GRIDFORMAT_BEGIN
 90
        0
 91
        1
 62
     0
 92
       -2
340
14
 93
        0
 40
0.045
309
GRIDFORMAT_END
309
TABLEFORMAT_END
  1
CELLSTYLE_BEGIN
 90
        2
 91
        1
300
_HEADER
309
CELLSTYLE_END
300
CELLSTYLE
  1
TABLEFORMAT_BEGIN
 90
        5
170
     1
 91
        0
 92
        0
 62
   257
 93
        1
300
CONTENTFORMAT
  1
CONTENTFORMAT_BEGIN
 90
        0
 91
        0
 92
        4
 93
        0
300

 40
0.0
140
1.0
 94
        2
 62
     0
340
11
144
0.18
309
CONTENTFORMAT_END
171
     1
301
MARGIN
  1
CELLMARGIN_BEGIN
 40
0.06
 40
0.06
 40
0.06
 40
0.06
 40
0.06
 40
0.06
309
CELLMARGIN_END
 94
        6
 95
        1
302
GRIDFORMAT
  1
GRIDFORMAT_BEGIN
 90
        0
 91
        1
 62
     0
 92
       -2
340
14
 93
        0
 40
0.045
309
GRIDFORMAT_END
 95
        2
302
GRIDFORMAT
  1
GRIDFORMAT_BEGIN
 90
        0
 91
        1
 62
     0
 92
       -2
340
14
 93
        0
 40
0.045
309
GRIDFORMAT_END
 95
        4
302
GRIDFORMAT
  1
GRIDFORMAT_BEGIN
 90
        0
 91
        1
 62
     0
 92
       -2
340
14
 93
        0
 40
0.045
309
GRIDFORMAT_END
 95
        8
302
GRIDFORMAT
  1
GRIDFORMAT_BEGIN
 90
        0
 91
        1
 62
     0
 92
       -2
340
14
 93
        0
 40
0.045
309
GRIDFORMAT_END
 95
       16
302
GRIDFORMAT
  1
GRIDFORMAT_BEGIN
 90
        0
 91
        1
 62
     0
 92
       -2
340
14
 93
        0
 40
0.045
309
GRIDFORMAT_END
 95
       32
302
GRIDFORMAT
  1
GRIDFORMAT_BEGIN
 90
        0
 91
        1
 62
     0
 92
       -2
340
14
 93
        0
 40
0.045
309
GRIDFORMAT_END
309
TABLEFORMAT_END
  1
CELLSTYLE_BEGIN
 90
        3
 91
        2
300
_DATA
309
CELLSTYLE_END
  0
ENDSEC
  0
EOF
